<svg height="512" viewBox="0 0 512 512" width="512" xmlns="http://www.w3.org/2000/svg"><g id="Filled_outline" data-name="Filled outline"><path d="m368 24a96 96 0 0 0 -96 96v168h192v-168a96 96 0 0 0 -96-96z" fill="#61311b"/><path d="m432 160.113h16v16h-16z" fill="#feb784"/><path d="m424 280v160h-112v-160h16a8 8 0 0 0 8-8v-56h64v56a8 8 0 0 0 8 8z" fill="#fec9a3"/><path d="m312 352h112v88h-112z" fill="#4db7e5"/><path d="m400 248.492v-32.492h-64v32.262a68.76 68.76 0 0 0 27.208 7.582 71.865 71.865 0 0 0 36.792-7.352z" fill="#feb784"/><path d="m488 320v176.11l-192-.11-.11-7.96-.58-40.04a64.677 64.677 0 0 1 -15.17-38.24l-2.14.24-21.72 86.11h-50.25l35.45-184.1a39.989 39.989 0 0 1 39.19-32.01h39.33l48 152 48-152h32a40.042 40.042 0 0 1 40 40z" fill="#3d4d63"/><path d="m488 320v176.11l-192-.11-.11-7.96c51.86-24.92 140.32-82.69 178.53-198.05a39.817 39.817 0 0 1 13.58 30.01z" fill="#374559"/><path d="m320 280-24 32 32 16-16 16 56 88z" fill="#4c5d72"/><path d="m416 280 24 32-32 16 16 16-56 88z" fill="#4c5d72"/><path d="m440 124v44a71.957 71.957 0 0 1 -76.79 71.84c-38.27-2.48-67.21-35.96-67.21-74.31v-12.08l2.74-1.24a134.177 134.177 0 0 0 71.76-79.72l5.5-16.49 4 8a134.125 134.125 0 0 0 25.13 34.86c.94.94 1.9 1.87 2.87 2.78a134.154 134.154 0 0 0 32 22.36z" fill="#fec9a3"/><path d="m440 124v44a72.019 72.019 0 0 1 -56.67 70.36 71.8 71.8 0 0 0 24.67-54.247v-82.47a134.154 134.154 0 0 0 32 22.357z" fill="#fec093"/><path d="m464 120v32h-24v-28a134.154 134.154 0 0 1 -32-22.36c-.97-.91-1.93-1.84-2.87-2.78a134.125 134.125 0 0 1 -25.13-34.86l-4-8-5.5 16.49a134.177 134.177 0 0 1 -71.76 79.72l-2.74 1.24-24 6.55v-40a96 96 0 0 1 192 0z" fill="#7a432a"/><path d="m448 176.113h-8v-48h8a23.9 23.9 0 0 1 24 23.887 24.1 24.1 0 0 1 -24 24.113z" fill="#feb784"/><path d="m56 456h280v32h-280z" fill="#c7c7c5"/><path d="m241.67 488h-170.98a18.7 18.7 0 0 1 -3.69-.37 18.351 18.351 0 0 1 -14.19-13.96l-28.47-128.123a15 15 0 0 1 -.34-3.13 14.425 14.425 0 0 1 14.42-14.417h178.54a18.355 18.355 0 0 1 17.99 14.75l24.67 123.35a18.307 18.307 0 0 1 -17.95 21.9z" fill="#e0e0de"/><ellipse cx="136" cy="408" fill="#ebebe9" rx="15.31" ry="16.721" transform="matrix(.691 -.723 .723 .691 -252.812 224.193)"/><path d="m241.67 488h-170.98a18.7 18.7 0 0 1 -3.69-.37c37.2-15.47 119.55-59.39 159.76-156.79a18.341 18.341 0 0 1 8.19 11.91l24.67 123.35a18.307 18.307 0 0 1 -17.95 21.9z" fill="#d6d6d4"/><path d="m384 120h56a0 0 0 0 1 0 0v24a16 16 0 0 1 -16 16h-24a16 16 0 0 1 -16-16v-24a0 0 0 0 1 0 0z" fill="#e0e0de"/><path d="m296 120h56a0 0 0 0 1 0 0v24a16 16 0 0 1 -16 16h-24a16 16 0 0 1 -16-16v-24a0 0 0 0 1 0 0z" fill="#e0e0de"/><path d="m472 278.4v-105.268a31.91 31.91 0 0 0 0-42.264v-10.868a104 104 0 0 0 -208 0v155.019a48.173 48.173 0 0 0 -30.361 35.4l-2.772 13.6a26.2 26.2 0 0 0 -13.9-4.018h-178.55a22.416 22.416 0 0 0 -21.883 27.28l28.466 128.119a26.155 26.155 0 0 0 25.688 20.6h265.312a8 8 0 0 0 8-8v-32a8 8 0 0 0 -8-8h-32.719v-.16a7.994 7.994 0 0 0 -1.873-4.986c-17.375-20.681-17.949-50-1.364-69.7l-12.242-10.3a67.369 67.369 0 0 0 -15.568 37.738l-9.875 38.4-19.113-95.566 6.073-29.808a32.108 32.108 0 0 1 31.353-25.618h23.328l-14.4 19.2a8 8 0 0 0 2.822 11.955l22.078 11.036-8.152 8.152a8 8 0 0 0 -1.092 9.952l54.744 86.034v61.671h16v-61.671l54.749-86.029a8 8 0 0 0 -1.092-9.952l-8.152-8.152 22.073-11.036a8 8 0 0 0 2.822-11.96l-14.4-19.2h16a32.635 32.635 0 0 1 12.812 2.618 32.239 32.239 0 0 1 19.188 29.382v176h16v-176a48.221 48.221 0 0 0 -24-41.6zm-144 201.6h-62.124a26.223 26.223 0 0 0 1.589-15.469l-.106-.531h60.641zm-51.442-32 2.627-10.214a73.6 73.6 0 0 0 6.023 10.214zm-26.919 28.227a10.273 10.273 0 0 1 -7.973 3.773h-170.978a10.249 10.249 0 0 1 -10.065-8.073l-28.471-128.12a6.49 6.49 0 0 1 -.152-1.39 6.425 6.425 0 0 1 6.417-6.417h178.546a10.37 10.37 0 0 1 10.141 8.313l24.671 123.356a10.273 10.273 0 0 1 -2.136 8.558zm118.361-70.794-14.347-45.433h28.694zm-19.4-61.433-17.768-56.266a16.016 16.016 0 0 0 13.168-15.734v-27.788a76.221 76.221 0 0 0 18.671 3.61q2.688.178 5.365.178a79.8 79.8 0 0 0 23.964-3.673v27.673a16.016 16.016 0 0 0 13.168 15.734l-17.768 56.266zm47.8-118.665a63.384 63.384 0 0 1 -32.677 6.522 61.067 61.067 0 0 1 -24.071-6.734c-21.338-10.954-35.227-33.826-35.634-58.493a23.884 23.884 0 0 0 7.982 1.37h24a24.027 24.027 0 0 0 24-24h16a24.027 24.027 0 0 0 24 24h24a23.889 23.889 0 0 0 8-1.376v1.376a63.652 63.652 0 0 1 -35.6 57.335zm35.6-81.335a8.009 8.009 0 0 1 -8 8h-24a8.009 8.009 0 0 1 -8-8v-16h40zm-48-32a8 8 0 0 0 -8 8v8h-16v-8a7.973 7.973 0 0 0 -2.293-5.6 141.255 141.255 0 0 0 19.907-38.044 138.788 138.788 0 0 0 21.822 28.155c2.571 2.6 5.281 5.088 8.093 7.491zm-40 16v16a8.009 8.009 0 0 1 -8 8h-24a8.009 8.009 0 0 1 -8-8v-16zm104 16v-8a16 16 0 0 1 0 32zm-168 128.015v-152.015a88 88 0 1 1 176 0v1.013a31.94 31.94 0 0 0 -8-1.013 8 8 0 0 0 -8-8h-5.144a122.876 122.876 0 0 1 -24.1-18.8 124.359 124.359 0 0 1 -23.6-32.779l-4-8a8 8 0 0 0 -14.741 1.037l-5.524 16.492a125.07 125.07 0 0 1 -23.708 42.05h-43.183a8 8 0 0 0 -8 8v45.52c0 29.323 15.555 56.814 40 71.416v35.064h-47.328c-.225 0-.448.012-.672.015zm28.151 37.116 8.909-11.877 6.124 19.393zm14.043 35.988 7.585-7.585 12.227 38.716zm71.8 31.131 12.227-38.716 7.585 7.585zm18.822-59.6 6.124-19.393 8.909 11.877zm-4.816-44.65v-34.743a79.382 79.382 0 0 0 38.4-53.257h1.6a31.94 31.94 0 0 0 8-1.013v89.685a48.59 48.59 0 0 0 -8-.672z"/><path d="m435.279 373.155c16.583 19.682 15.992 49-1.4 69.7a8 8 0 0 0 -1.879 5.145v48h16v-45.177c20.555-26.521 20.5-63.065-.484-87.978z"/><path d="m368 184a8.009 8.009 0 0 1 -8-8h-16a24 24 0 0 0 48 0h-16a8.009 8.009 0 0 1 -8 8z"/><path d="m134.588 384a22.412 22.412 0 0 0 -22.557 24.7 25.682 25.682 0 0 0 25.381 23.3 22.412 22.412 0 0 0 22.557-24.7 25.682 25.682 0 0 0 -25.381-23.3zm7.8 29.934a6.635 6.635 0 0 1 -4.98 2.066 9.819 9.819 0 0 1 -9.443-8.7 6.749 6.749 0 0 1 1.639-5.231 6.635 6.635 0 0 1 4.98-2.066 9.819 9.819 0 0 1 9.443 8.7 6.749 6.749 0 0 1 -1.635 5.231z"/></g></svg>