<svg height="512" viewBox="0 0 512 512" width="512" xmlns="http://www.w3.org/2000/svg"><g id="Filled_outline" data-name="Filled outline"><path d="m368 267.708v-67.708h-80v67.708a16 16 0 0 1 -11.877 15.459l-72.491 19.333a48 48 0 0 0 -35.632 46.377v139.123h320v-139.123a48 48 0 0 0 -35.632-46.377l-72.491-19.331a16 16 0 0 1 -11.877-15.461z" fill="#fec9a3"/><path d="m345.373 288a54.569 54.569 0 0 0 28.409-8.042 15.958 15.958 0 0 1 -5.782-12.25v-67.708h-80v67.708a15.958 15.958 0 0 1 -5.782 12.25 54.569 54.569 0 0 0 28.409 8.042z" fill="#feb784"/><path d="m452.368 302.5-69.668-18.581a55.978 55.978 0 0 1 -109.4 0l-69.668 18.581a48 48 0 0 0 -35.632 46.377v139.123h320v-139.123a48 48 0 0 0 -35.632-46.377z" fill="#c7ae71"/><path d="m168 384h64v104h-64z" fill="#fec9a3"/><path d="m424 384h64v104h-64z" fill="#feb784"/><path d="m56 456h280v32h-280z" fill="#c7c7c5"/><path d="m241.67 488h-170.98a18.317 18.317 0 0 1 -17.27-12.23 16.5 16.5 0 0 1 -.61-2.11l-28.47-128.12a14.834 14.834 0 0 1 -.34-3.12 14.408 14.408 0 0 1 14.42-14.42h178.54a18.345 18.345 0 0 1 17.99 14.74l2.49 12.48 22.18 110.88a18.307 18.307 0 0 1 -17.95 21.9z" fill="#e0e0de"/><ellipse cx="136" cy="408" fill="#ebebe9" rx="15.31" ry="16.721" transform="matrix(.691 -.723 .723 .691 -252.812 224.193)"/><path d="m440 488h-64l-8-104h80z" fill="#d6d6d4"/><path d="m370.461 416 3.078 40h68.922l3.078-40z" fill="#95573a"/><path d="m424 272v8a48 48 0 0 0 -48 48v24h64v-16a16 16 0 0 1 16-16 16 16 0 0 0 16-16v-8a24 24 0 0 1 24-24v-72a72 72 0 0 0 -72 72z" fill="#ebebe9"/><path d="m424 416h64a0 0 0 0 1 0 0v72a0 0 0 0 1 0 0h-64a16 16 0 0 1 -16-16v-40a16 16 0 0 1 16-16z" fill="#fec9a3"/><path d="m408 120h-8v48h8a24 24 0 1 0 0-48z" fill="#feb784"/><path d="m248.4 120h-.4a24 24 0 0 0 0 48h8v-48z" fill="#feb784"/><path d="m328 256a72 72 0 0 1 -72-72v-72a72 72 0 0 1 72-72 72 72 0 0 1 72 72v72a72 72 0 0 1 -72 72z" fill="#fec9a3"/><path d="m328 40a72.045 72.045 0 0 0 -16 1.846 71.983 71.983 0 0 1 56 70.154v72a71.983 71.983 0 0 1 -56 70.154 71.82 71.82 0 0 0 88-70.154v-72a72 72 0 0 0 -72-72z" fill="#fec093"/><circle cx="292" cy="132" fill="#7a432a" r="12"/><circle cx="364" cy="132" fill="#7a432a" r="12"/><path d="m312 176h32v-16h-20.9l12.492-37.469-15.18-5.062-16 48a8 8 0 0 0 7.588 10.531z" fill="#f7a468"/><path d="m256 120 27.25 40.875a16 16 0 0 0 13.313 7.125h62.874a16 16 0 0 0 13.313-7.125l27.25-40.875v97.373a54.626 54.626 0 0 1 -16 38.627 54.626 54.626 0 0 1 -38.627 16h-34.746a54.626 54.626 0 0 1 -38.627-16 54.626 54.626 0 0 1 -16-38.627z" fill="#7a432a"/><path d="m372.75 160.875a15.888 15.888 0 0 1 -4.75 4.519v51.979a54.627 54.627 0 0 1 -54.627 54.627h32a54.627 54.627 0 0 0 54.627-54.627v-97.373z" fill="#743b20"/><path d="m349.68 184.344a99.084 99.084 0 0 1 -28.746 4.215h-16.934v16h16.934a115.083 115.083 0 0 0 33.386-4.9z" fill="#fec9a3"/><path d="m280 96h118.154a72.036 72.036 0 0 0 -34.554-46.529 47.908 47.908 0 0 0 -11.6-1.471h-56.882a72.145 72.145 0 0 0 -34.305 38.285 23.894 23.894 0 0 0 19.187 9.715z" fill="#fec093"/><path d="m256 120v-40c0-26.51 17.909-40 40-40l-1.408 5.068c-7.842 28.232-21.055 53.888-38.592 74.932z" fill="#95573a"/><path d="m400 120v-48c0-26.51-17.909-32-40-32l1.408 5.067c7.842 28.233 21.055 53.889 38.592 74.933z" fill="#95573a"/><path d="m400 80h-120a24 24 0 0 1 -24-24v-24h104a40 40 0 0 1 40 40z" fill="#7a432a"/><path d="m360 32h-32a40 40 0 0 1 40 40v8h32v-8a40 40 0 0 0 -40-40z" fill="#743b20"/><path d="m446.769 400 1.231-16h-80l1.231 16z" fill="#c7c7c5"/><path d="m360 352h96v32h-96z" fill="#7a432a"/><path d="m424 352h32v32h-32z" fill="#743b20"/><path d="m397.645 287.9a47.933 47.933 0 0 0 -21.645 40.1v24h64v-16a16 16 0 0 1 16-16 15.931 15.931 0 0 0 14-8.4 47.662 47.662 0 0 0 -17.629-9.105z" fill="#d4bd81"/><path d="m241.67 488h-170.98a18.317 18.317 0 0 1 -17.27-12.23c65.28-20.55 137.03-56.79 184.02-120.55l22.18 110.88a18.307 18.307 0 0 1 -17.95 21.9z" fill="#d6d6d4"/><path d="m134.588 384a22.412 22.412 0 0 0 -22.557 24.7 25.684 25.684 0 0 0 25.381 23.3 22.412 22.412 0 0 0 22.557-24.7 25.684 25.684 0 0 0 -25.381-23.3zm7.8 29.933a6.631 6.631 0 0 1 -4.98 2.067 9.819 9.819 0 0 1 -9.443-8.7 6.746 6.746 0 0 1 1.639-5.23 6.631 6.631 0 0 1 4.98-2.067 9.819 9.819 0 0 1 9.443 8.7 6.746 6.746 0 0 1 -1.635 5.23z"/><path d="m424.122 288a7.949 7.949 0 0 0 7.878-8v-8a64.072 64.072 0 0 1 64-64v-16a80.091 80.091 0 0 0 -80 80v.57a55.576 55.576 0 0 0 -19.6 6.726l-11.643-3.106-.036-.007-2.784-.743a8.009 8.009 0 0 1 -5-3.965 63.077 63.077 0 0 0 15.82-13.159 63.72 63.72 0 0 0 15.243-41.767v-40.549a32 32 0 1 0 0-64s-.036-42.32-.065-42.766c0-.022 0-.044 0-.065a49.093 49.093 0 0 0 -1.375-9.839l-.06-.23h-.015a56.087 56.087 0 0 0 -54.485-43.1h-96a8 8 0 0 0 -8 8v24a31.791 31.791 0 0 0 3.008 13.524 55.047 55.047 0 0 0 -3.008 18.476v32a32 32 0 0 0 0 64v40.553a63.715 63.715 0 0 0 15.239 41.771 63.055 63.055 0 0 0 15.816 13.153 8 8 0 0 1 -4.991 3.963l-2.82.75h-.006l-69.669 18.58a56.256 56.256 0 0 0 -33.549 25.23h-129.603a22.416 22.416 0 0 0 -21.883 27.28l31.36 136.307a16 16 0 0 0 15.593 12.413h424.513a8 8 0 0 0 8-8v-139.12a55.69 55.69 0 0 0 -16.56-39.739 24 24 0 0 0 .56-5.141v-8a16.019 16.019 0 0 1 16-16v-16a32.036 32.036 0 0 0 -32 32v8a8.032 8.032 0 0 1 -8.03 8 24.027 24.027 0 0 0 -23.97 24v8h-48v-16a40.045 40.045 0 0 1 40.122-40zm-103.711-170.53-14.177 42.53h-9.671a7.987 7.987 0 0 1 -6.657-3.562l-24-36a201.716 201.716 0 0 0 24.425-40.438h75.338a201.716 201.716 0 0 0 24.431 40.434l-24 36a7.986 7.986 0 0 1 -6.663 3.566h-36.337l12.489-37.47zm-47.4-38.249q-4.151 8.343-9.007 16.1v-15.321q0-2.16.186-4.2a31.786 31.786 0 0 0 8.817 3.421zm118.989.779v15.326q-4.624-7.389-8.611-15.326zm32 64a16.019 16.019 0 0 1 -16 16v-32a16.018 16.018 0 0 1 16 16zm-160-112h88a40.071 40.071 0 0 1 39.2 32h-111.2a16.019 16.019 0 0 1 -16-16zm-32 112a16.018 16.018 0 0 1 16-16v32a16.019 16.019 0 0 1 -16-16zm32 73.375v-70.953l12.594 18.891a23.953 23.953 0 0 0 19.969 10.687h62.874a23.952 23.952 0 0 0 19.969-10.688l12.594-18.89v70.951a46.628 46.628 0 0 1 -46.627 46.627h-34.746a46.628 46.628 0 0 1 -46.627-46.627zm46.627 62.625h34.746a62.9 62.9 0 0 0 16.828-2.294 24.058 24.058 0 0 0 10.675 11.247 47.956 47.956 0 0 1 -89.752 0 24.056 24.056 0 0 0 10.676-11.247 62.9 62.9 0 0 0 16.827 2.294zm-239.94 200a10.246 10.246 0 0 1 -10.063-8.073l-28.471-128.116a6.418 6.418 0 0 1 6.264-7.811h178.546a10.369 10.369 0 0 1 10.141 8.313l24.671 123.356a10.308 10.308 0 0 1 -10.108 12.331zm257.313 0h-62.124a26.223 26.223 0 0 0 1.589-15.469l-.106-.531h60.641zm128-88h24v16h-25.821l1.23-16zm-17.869 16h-60.261l-1.231-16h62.722zm-38.131 40h-19.052l-1.848-24h22.275c-.887 2.5-1.375 24-1.375 24zm-17.822 16h17.822s.488 13.5 1.376 16h-17.967zm97.822 16h-56a8.009 8.009 0 0 1 -8-8v-40a8.009 8.009 0 0 1 8-8h56zm-32-144a8.009 8.009 0 0 1 8-8 23.872 23.872 0 0 0 14.548-4.93 39.777 39.777 0 0 1 9.452 25.81v27.12h-16v-24a8 8 0 0 0 -8-8h-8zm0 24v16h-80v-16zm-88-16a8 8 0 0 0 -8 8v32a8 8 0 0 0 8 8h.592l6.769 88h-23.361v-24a8 8 0 0 0 -8-8h-71.841l-21.366-106.824a26.411 26.411 0 0 0 -25.83-21.176h-28.617a40.106 40.106 0 0 1 17.345-9.77l62.109-16.563a63.82 63.82 0 0 0 100.59 27.839c-.248 2.133-.39 22.494-.39 22.494z"/><path d="m292 120a12 12 0 1 0 12 12 12.013 12.013 0 0 0 -12-12z"/><path d="m364 144a12 12 0 1 0 -12-12 12.013 12.013 0 0 0 12 12z"/><path d="m354.319 199.656-4.638-15.312a99.1 99.1 0 0 1 -28.747 4.216h-16.934v16h16.934a115.037 115.037 0 0 0 33.385-4.904z"/></g></svg>