<svg height="512" viewBox="0 0 512 512" width="512" xmlns="http://www.w3.org/2000/svg"><g id="Filled_outline" data-name="Filled outline"><path d="m486.6 446.043v.89a37.335 37.335 0 0 1 -67.2 22.4l-59.4-77.333v104h-216v-104l-48 64h-64l53.91-121.3a47.977 47.977 0 0 1 34.45-27.57l71.35-14.27 24.29-4.86v-80h80v80l24.29 4.86 51.31 10.26 22.78 4.56a47.993 47.993 0 0 1 32.43 23.53l55 96.533a37.334 37.334 0 0 1 4.79 18.3z" fill="#fec9a3"/><path d="m486.6 446.043v.89a37.335 37.335 0 0 1 -67.2 22.4l-59.4-77.333v104h-216v-104l-48 64h-64l53.91-121.3a47.977 47.977 0 0 1 34.45-27.57l71.35-14.27 64.29 139.14 64.29-139.14 51.31 10.26 22.78 4.56a47.993 47.993 0 0 1 32.43 23.53l55 96.533a37.334 37.334 0 0 1 4.79 18.3z" fill="#348fd9"/><path d="m296 243.858v-35.868h-80v35.868a71.963 71.963 0 0 0 80 0z" fill="#feb784"/><path d="m200 319.99h112v112h-112z" fill="#348fd9"/><path d="m486.6 446.04v.89a37.335 37.335 0 0 1 -67.2 22.4l-59.4-77.33v104h-216v-104l-48 64h-64l53.91-121.3a47.977 47.977 0 0 1 34.45-27.57l71.35-14.27 64.29 139.14 64.29-139.14 51.31 10.26 1.39.28 21.39 4.28a47.993 47.993 0 0 1 32.43 23.53l55 96.53a37.334 37.334 0 0 1 4.79 18.3z" fill="#e0e0de"/><path d="m486.6 446.04v.89a37.335 37.335 0 0 1 -67.2 22.4l-59.4-77.33v104h-152.73c55.15-31.82 128.24-90.93 165.72-192.6l21.39 4.28a47.993 47.993 0 0 1 32.43 23.53l55 96.53a37.334 37.334 0 0 1 4.79 18.3z" fill="#d6d6d4"/><path d="m62.389 488a33.61 33.61 0 0 1 -33.315-38.053l10.926-81.947h56v86.389a33.611 33.611 0 0 1 -33.611 33.611z" fill="#ebebe9"/><path d="m80 192h48a0 0 0 0 1 0 0v136a24 24 0 0 1 -24 24 24 24 0 0 1 -24-24v-136a0 0 0 0 1 0 0z" fill="#4db7e5"/><path d="m80 272h48a0 0 0 0 1 0 0v56a24 24 0 0 1 -24 24 24 24 0 0 1 -24-24v-56a0 0 0 0 1 0 0z" fill="#ffb531"/><path d="m112 320v48a16 16 0 0 1 -16 16h-46.4a9.6 9.6 0 0 1 -9.6-9.6v-60.8a9.6 9.6 0 0 1 9.6-9.6h46.4a16 16 0 0 1 16 16z" fill="#fec9a3"/><path d="m336 120h-8v48h8a24 24 0 1 0 0-48z" fill="#feb784"/><path d="m176.4 120h-.4a24.07 24.07 0 0 0 -24 24 24.071 24.071 0 0 0 24 24h8v-48z" fill="#feb784"/><path d="m328 112v56a72 72 0 1 1 -144 0v-56a72 72 0 0 1 144 0z" fill="#fec9a3"/><path d="m184 120v-32c0-26.51 17.909-48 40-48l-1.408 5.068c-7.842 28.232-21.055 53.888-38.592 74.932z" fill="#f27900"/><path d="m328 112v56a72.08 72.08 0 0 1 -88 70.22 72.044 72.044 0 0 0 56-70.22v-88a71.65 71.65 0 0 0 -7.66-32.34 72.075 72.075 0 0 1 39.66 64.34z" fill="#fec093"/><path d="m328 120v-55.015a25.754 25.754 0 0 0 -32-24.985v24s14.463 34.956 32 56z" fill="#f98500"/><path d="m296 40v24h-112a39.813 39.813 0 0 1 10.14-26.6c.51-.58 1.04-1.14 1.58-1.68a40 40 0 0 1 28.28-11.72h33.37a54.641 54.641 0 0 1 38.63 16z" fill="#f98500"/><path d="m488 407.64a32.362 32.362 0 0 1 -32.36 32.36h-79.28a32.353 32.353 0 0 1 -28.94-46.83l16.58-33.17 28-56v-80h48v80l28 56 16.58 33.17a32.313 32.313 0 0 1 3.42 14.47z" fill="#4db7e5"/><path d="m488 407.64a32.362 32.362 0 0 1 -32.36 32.36h-79.28a32.353 32.353 0 0 1 -28.94-46.83l16.58-33.17h104l16.58 33.17a32.313 32.313 0 0 1 3.42 14.47z" fill="#db6ea2"/><path d="m216 272-24.286 20.857 30.663 66.369 33.623-39.226z" fill="#62a9e6"/><path d="m296 272 24.286 20.857-30.663 66.369-33.623-39.226z" fill="#62a9e6"/><path d="m256 320-16 18.667v58.702l16 34.631 16-34.631v-58.702z" fill="#95573a"/><path d="m191.714 292.857-23.714 67.143h24l-8 32 72 40z" fill="#ebebe9"/><path d="m320.286 292.857 23.714 67.143h-24l8 32-72 40z" fill="#ebebe9"/><path d="m336 112v40a16 16 0 0 1 -16 16h-32a14.946 14.946 0 0 1 -12.44-6.66l-7.12-10.68a14.945 14.945 0 0 0 -24.88 0l-7.12 10.68a14.946 14.946 0 0 1 -12.44 6.66h-32a16 16 0 0 1 -16-16v-40a16 16 0 0 1 16-16h128a16 16 0 0 1 16 16z" fill="#4db7e5"/><path d="m336 112v40a16 16 0 0 1 -16 16h-32a14.946 14.946 0 0 1 -12.44-6.66l-7.12-10.68a14.916 14.916 0 0 0 -8.53-6.14l46.81-48.52h13.28a16 16 0 0 1 16 16z" fill="#48add9"/><path d="m468 360h-24l16.58 33.17a32.359 32.359 0 0 1 -28.94 46.83h24a32.353 32.353 0 0 0 28.94-46.83z" fill="#d3669a"/><path d="m440 304v-80h-24v80l28 56h24z" fill="#48add9"/><path d="m488 398.01v53.45a36.545 36.545 0 0 1 -60.2 27.85l-5.22-4.43-32.33-27.48a16.027 16.027 0 0 1 -4.49-19.98l17.62-34.42a16.865 16.865 0 0 1 25.9-4.94l30.03 25.82 4.8-18.75a12.183 12.183 0 0 1 16.78-7.91 12.061 12.061 0 0 1 5.18 4.37 11.7 11.7 0 0 1 1.93 6.42z" fill="#fec9a3"/><path d="m488 399.35v52.11a36.545 36.545 0 0 1 -60.2 27.85l-5.22-4.43a308.618 308.618 0 0 0 65.42-75.53z" fill="#fec093"/><path d="m112 320v48a16 16 0 0 1 -16 16h-24a16 16 0 0 0 16-16v-48a16 16 0 0 0 -16-16h24a16 16 0 0 1 16 16z" fill="#fec093"/><path d="m216 448h16v16h-16z"/><path d="m282.319 195.1-4.638-15.313a99.062 99.062 0 0 1 -28.747 4.213h-16.934v16h16.934a115.032 115.032 0 0 0 33.385-4.9z"/><path d="m40 184a24 24 0 1 0 -24-24 24.028 24.028 0 0 0 24 24zm0-32a8 8 0 1 1 -8 8 8.009 8.009 0 0 1 8-8z"/><path d="m96 136h16v-16h16v-16h-16v-16h-16v16h-16v16h16z"/><path d="m212 120a12 12 0 1 0 12 12 12.013 12.013 0 0 0 -12-12z"/><path d="m300 144a12 12 0 1 0 -12-12 12.013 12.013 0 0 0 12 12z"/><path d="m488.049 382.211-12.894-25.788-27.155-54.312v-78.111a8 8 0 0 0 -8-8h-48a8 8 0 0 0 -8 8v73.444l-60.088-12.018-19.912-17.101v-36.334a79.883 79.883 0 0 0 31.6-55.991h.4a32 32 0 0 0 8-62.987v-1.013a23.943 23.943 0 0 0 -8-17.869v-29.151a33.748 33.748 0 0 0 -37.469-33.538 62.158 62.158 0 0 0 -41.158-15.442h-33.373a48.053 48.053 0 0 0 -48 48 7.97 7.97 0 0 0 2.582 5.874 64.924 64.924 0 0 0 -2.582 18.126v6.131a23.943 23.943 0 0 0 -8 17.869v1.013a32.007 32.007 0 0 0 8 62.987h.405a79.885 79.885 0 0 0 31.595 55.992v36.333l-19.911 17.1-52.089 10.417v-103.842a8 8 0 0 0 -8-8h-48a8 8 0 0 0 -8 8v104h-22.4a17.621 17.621 0 0 0 -17.6 17.6v53.87l-10.859 81.43a41.61 41.61 0 1 0 82.6 10.119l32.259-43.019v80h16v-104a8 8 0 0 0 -14.4-4.8l-33.6 44.8v-41.376a24.039 24.039 0 0 0 16-22.624v-12.319a32.033 32.033 0 0 0 16-27.681v-15.842l43.485-8.695-19.028 53.873a8 8 0 0 0 7.543 10.664h13.754l-5.515 22.06a8 8 0 0 0 3.876 8.933l67.885 37.714v59.293h16v-59.293l67.885-37.714a8 8 0 0 0 3.876-8.933l-5.515-22.06h13.754a8 8 0 0 0 7.543-10.664l-19.027-53.872 46.184 9.236-21.841 43.7c0 .01-.011.018-.015.027l-16.576 33.163a40.319 40.319 0 0 0 11.732 50.21v56.2h16v-48.883a40.435 40.435 0 0 0 8.36.883h3.711a24.129 24.129 0 0 0 5.114 5.6l37.436 31.8a44.54 44.54 0 0 0 73.379-33.94v-53.455a19.789 19.789 0 0 0 -7.951-15.794zm-88.049-78.211v-72h32v72a7.994 7.994 0 0 0 .845 3.578l22.211 44.422h-78.112l20.746-41.5s2.31-5.255 2.31-6.5zm-144-56a79.736 79.736 0 0 0 32-6.669v27.769l-32 38.4-32-38.4v-27.769a79.736 79.736 0 0 0 32 6.669zm0 164.925-8-17.316v-53.983l8-9.333 8 9.333v53.984zm31.586-68.367-21.111-24.63 30.472-36.569 13.542 11.629zm-42.061-24.631-21.111 24.631-22.9-49.57 13.541-11.629zm-61.525-167.927v-40a8.009 8.009 0 0 1 8-8h128a8.009 8.009 0 0 1 8 8v40a8.009 8.009 0 0 1 -8 8h-32a6.933 6.933 0 0 1 -5.781-3.094l-7.125-10.687a22.948 22.948 0 0 0 -38.188 0l-7.125 10.687a6.933 6.933 0 0 1 -5.781 3.094h-32a8.009 8.009 0 0 1 -8-8zm37.811-80h68.94c1.7 3.8 4.33 9.474 7.674 16h-83.951c1.607-3.16 6.476-13.9 7.337-16zm130.189 72a15.92 15.92 0 0 1 -4.681 11.307 16.137 16.137 0 0 1 -4.163 2.992 23.937 23.937 0 0 0 .844-6.299v-21.835a16 16 0 0 1 8 13.835zm-32-79.02v23.02h-3.465c-6.304-11.5-10.935-21.929-12.535-25.63v-15.061a17.781 17.781 0 0 1 16 17.671zm-32-21.514v12.534h-12.155l-19.2-24h.728a46.284 46.284 0 0 1 30.627 11.466zm-51.845-11.466 19.2 24h-20.041l-22.114-22.119a31.853 31.853 0 0 1 10.8-1.881zm-36.366 11.1 12.9 12.9h-19.676a31.941 31.941 0 0 1 6.776-12.9zm-5.099 28.9h9.71c-2.406 5.407-5.117 10.767-8.07 16h-4.33a48.488 48.488 0 0 1 2.69-16zm-34.69 72a16 16 0 0 1 8-13.835v21.835a23.936 23.936 0 0 0 .839 6.281 16.164 16.164 0 0 1 -4.132-2.987 15.886 15.886 0 0 1 -4.707-11.294zm32.5 32h31.5a22.9 22.9 0 0 0 19.094-10.219l7.125-10.687a6.948 6.948 0 0 1 11.562 0l7.125 10.687a22.9 22.9 0 0 0 19.094 10.219h31.5a64 64 0 0 1 -127 0zm-72.5 24v64h-32v-64zm-32.031 255.623a25.611 25.611 0 1 1 -50.969-4.615l7.956-59.65c1.482.406 43.044.642 43.044.642v62.39c0 .386 0 .774-.031 1.233zm16.031-87.623a8.009 8.009 0 0 1 -8 8h-46.4a1.6 1.6 0 0 1 -1.6-1.6v-60.8a1.6 1.6 0 0 1 1.6-1.6h46.4a8.009 8.009 0 0 1 8 8zm16-48a24.028 24.028 0 0 0 -24-24h-8v-16h32zm78.306 35.077a8 8 0 0 0 -6.306-3.077h-12.69l13.39-37.919 45.752 99.02-45.206-25.114 6.512-26.047a8 8 0 0 0 -1.452-6.863zm121.694-3.077a8 8 0 0 0 -7.761 9.94l6.512 26.047-45.206 25.113 45.753-99.02 13.392 37.92zm58.639 71.776a23.765 23.765 0 0 0 -2.461 8.218 24.348 24.348 0 0 1 -21.6-35.247l14.368-28.747h94.11l5.719 11.439c-.6.224-1.2.472-1.783.755a19.879 19.879 0 0 0 -10.635 12.954l-1.6 6.265-20.257-17.413a24.752 24.752 0 0 0 -21.042-5.523 24.45 24.45 0 0 0 -17.2 12.882zm101.361 27.684a28.541 28.541 0 0 1 -47.02 21.75l-37.548-31.9c-.083-.071-.168-.14-.254-.207a8 8 0 0 1 -2.3-10.035l17.622-34.425a8.55 8.55 0 0 1 6.036-4.471 9.212 9.212 0 0 1 1.772-.173 8.792 8.792 0 0 1 5.757 2.127l30.029 25.82a8 8 0 0 0 12.966-4.082l4.8-18.749a3.883 3.883 0 0 1 2.114-2.523 4.35 4.35 0 0 1 3.672-.061 3.857 3.857 0 0 1 2.354 3.474z"/></g></svg>