<?xml version="1.0"?>
<svg xmlns="http://www.w3.org/2000/svg" height="512px" viewBox="0 0 512 512" width="512px" class=""><g><g id="Filled_outline" data-name="Filled outline"><path d="m168 112h16v16h-16z" fill="#7a432a" data-original="#7A432A" class=""/><path d="m344 376 32 80h64l-56-160-72-16-24-8v-56h-64v56l-24 8-72 16-56 160h64l32-80c-9.847 20.694-6.13 46.354 8 64v56h160v-56c14.13-17.646 17.847-43.306 8-64z" fill="#fec9a3" data-original="#FEC9A3" class="" style="fill:#7A432A" data-old_color="#fec9a3"/><path d="m288 248.427v-32.427h-64v32.427a71.4 71.4 0 0 0 64 0z" fill="#feb784" data-original="#FEB784" class="active-path" style="fill:#7A432A" data-old_color="#feb784"/><path d="m376 456-29.42-73.56c6.41 19.37 2.12 41.7-10.58 57.56v56h-160v-56c-12.7-15.86-16.99-38.19-10.58-57.56l-29.42 73.56h-64l56-160 72-16 56 152 56-152 65.28 14.51 6.72 1.49 56 160z" fill="#e0e0de" data-original="#E0E0DE"/><path d="m376 456-29.42-73.56c6.41 19.37 2.12 41.7-10.58 57.56v56h-152.38c53.89-25.27 147.6-84.13 193.66-201.49l6.72 1.49 56 160z" fill="#d6d6d4" data-original="#D6D6D4" class=""/><path d="m288.42 344-32.42 88-32.42-88z" fill="#7eb457" data-original="#7EB457" class=""/><circle cx="336" cy="64" fill="#61311b" r="40" data-original="#61311B" class=""/><path d="m176 120h8a0 0 0 0 1 0 0v48a0 0 0 0 1 0 0h-8a24 24 0 0 1 -24-24 24 24 0 0 1 24-24z" fill="#feb784" data-original="#FEB784" class="active-path" style="fill:#7A432A" data-old_color="#feb784"/><path d="m256 240a72 72 0 0 1 -72-72v-56a64 64 0 0 1 64-64h16a64 64 0 0 1 64 64v56a72 72 0 0 1 -72 72z" fill="#fec9a3" data-original="#FEC9A3" class="" style="fill:#7A432A" data-old_color="#fec9a3"/><path d="m248 24a80 80 0 0 0 -80 80v16l6.61-.661a234.7 234.7 0 0 0 129.39-55.339l1.424 8.544a99.834 99.834 0 0 0 38.576 63.456v-32a80 80 0 0 0 -80-80z" fill="#7a432a" data-original="#7A432A" class=""/><path d="m328 120h8a24 24 0 0 1 24 24 24 24 0 0 1 -24 24h-8a0 0 0 0 1 0 0v-48a0 0 0 0 1 0 0z" fill="#feb784" data-original="#FEB784" class="active-path" style="fill:#7A432A" data-old_color="#feb784"/><path d="m200 280-32 40 32 24-16 16 72 72z" fill="#ebebe9" data-original="#EBEBE9"/><path d="m312 280 32 40-32 24 16 16-72 72z" fill="#ebebe9" data-original="#EBEBE9"/><path d="m320 176h-32a14.951 14.951 0 0 1 -12.438-6.656l-7.124-10.688a14.951 14.951 0 0 0 -12.438-6.656 14.951 14.951 0 0 0 -12.438 6.656l-7.124 10.688a14.951 14.951 0 0 1 -12.438 6.656h-32a16 16 0 0 1 -16-16v-32a16 16 0 0 1 16-16h128a16 16 0 0 1 16 16v32a16 16 0 0 1 -16 16z" fill="#4db7e5" data-original="#4DB7E5" class=""/><path d="m104 196h40a0 0 0 0 1 0 0v128a20 20 0 0 1 -20 20 20 20 0 0 1 -20-20v-128a0 0 0 0 1 0 0z" fill="#60d1e0" data-original="#60D1E0"/><path d="m104 324a20 20 0 0 0 40 0v-68h-40z" fill="#7eb457" data-original="#7EB457" class=""/><circle cx="124" cy="196" fill="#4eb9c7" r="20" data-original="#4EB9C7"/><path d="m104 488a32 32 0 0 1 -32-32v-96h40l21.9 80.282a59.735 59.735 0 0 1 2.1 15.718 32 32 0 0 1 -32 32z" fill="#ebebe9" data-original="#EBEBE9"/><path d="m81.6 376h24.523a16 16 0 0 0 15.839-13.737l5.877-41.137a16.021 16.021 0 0 0 .161-2.263v-6.863a16 16 0 0 0 -16-16h-30.4a9.6 9.6 0 0 0 -9.6 9.6v60.8a9.6 9.6 0 0 0 9.6 9.6z" fill="#fec9a3" data-original="#FEC9A3" class="" style="fill:#7A432A" data-old_color="#fec9a3"/><path d="m448 272a84.7 84.7 0 0 1 -.72 11.01c-3.08 23.7-16.18 46.61-39.28 63.6q-3.81 2.805-8 5.39-4.185-2.58-8-5.39c-23.1-16.99-36.2-39.9-39.28-63.6a84.816 84.816 0 0 1 -.14-20.94 86.418 86.418 0 0 1 5.38-21.45 90.946 90.946 0 0 1 7.32-14.64c7.98-12.92 19.55-24.62 34.72-33.98 15.17 9.36 26.74 21.06 34.72 33.98a90.946 90.946 0 0 1 7.32 14.64 86.418 86.418 0 0 1 5.38 21.45 84.656 84.656 0 0 1 .58 9.93z" fill="#69a340" data-original="#69A340" class=""/><path d="m408 488a32 32 0 0 0 32-32v-64h-40l-20.849 48.647a38.978 38.978 0 0 0 -3.151 15.353 32 32 0 0 0 32 32z" fill="#ebebe9" data-original="#EBEBE9"/><path d="m430.4 408h-24.523a16 16 0 0 1 -15.839-13.737l-5.877-41.137a16.021 16.021 0 0 1 -.161-2.263v-6.863a16 16 0 0 1 16-16h30.4a9.6 9.6 0 0 1 9.6 9.6v60.8a9.6 9.6 0 0 1 -9.6 9.6z" fill="#fec9a3" data-original="#FEC9A3" class="" style="fill:#7A432A" data-old_color="#fec9a3"/><path d="m216 440h16v16h-16z" data-original="#000000" class="" style="fill:#000000"/><path d="m232 140a12 12 0 1 0 -12 12 12.013 12.013 0 0 0 12-12z" data-original="#000000" class="" style="fill:#000000"/><path d="m292 152a12 12 0 1 0 -12-12 12.013 12.013 0 0 0 12 12z" data-original="#000000" class="" style="fill:#000000"/><path d="m277.294 187.963a68.335 68.335 0 0 1 -23.183 4.037h-14.111v16h14.111a84.286 84.286 0 0 0 28.6-4.98z" data-original="#000000" class="" style="fill:#000000"/><path d="m440.773 323.413a94.194 94.194 0 0 0 5.049-93.938c-8.828-17.611-23.22-32.924-41.62-44.283a8 8 0 0 0 -8.4 0c-18.4 11.359-32.792 26.672-41.617 44.279a94.006 94.006 0 0 0 -10.185 42.529q0 3.484.264 6.973l-48.264-12.739v-28.957a80.016 80.016 0 0 0 39.315-58.815 24.118 24.118 0 0 0 2.609-2.525 31.98 31.98 0 0 0 14.076-59.625v-7.054a47.995 47.995 0 1 0 -46.091-82.622 87.456 87.456 0 0 0 -41.909-10.636h-16a88.1 88.1 0 0 0 -88 88v12.305a31.986 31.986 0 0 0 14.076 59.632 24.118 24.118 0 0 0 2.609 2.525 80.016 80.016 0 0 0 39.315 58.815v28.957l-64 16.234v-86.468a28 28 0 0 0 -56 0v92h-14.4a17.621 17.621 0 0 0 -17.6 17.6v150.4a40 40 0 0 0 79.96 1.64l13.954-34.884a69.552 69.552 0 0 0 10.086 19.952v53.292h16v-56a8 8 0 0 0 -1.755-5 54.242 54.242 0 0 1 -9.293-49.839l2.476-6.19-14.651-6.41a62.527 62.527 0 0 0 -2.814 6.991l-19.226 48.064-14.25-52.237a23.819 23.819 0 0 0 5.4-11.985l1.778-12.445a27.812 27.812 0 0 0 20.335-26.949v-25.142l27.568-6.124-17.815 22.266a8 8 0 0 0 1.447 11.4l24.621 18.466-9.478 9.477a8 8 0 0 0 0 11.314l69.657 69.656v60.687h16v-60.687l69.657-69.656a8 8 0 0 0 0-11.314l-9.478-9.477 24.621-18.466a8 8 0 0 0 1.447-11.4l-17.814-22.268 14.725 3.272c4.73 17.847 14.6 34.172 28.851 47.654 0 .113-.009.226-.009.34v6.863c0 1.131 6.118 44.531 6.118 44.531a23.726 23.726 0 0 0 3.618 9.585l-11.136 25.982-20.563-51.407a62.527 62.527 0 0 0 -2.814-6.991l-14.651 6.41 2.476 6.19a54.242 54.242 0 0 1 -9.293 49.839 8 8 0 0 0 -1.755 5v56h16v-53.292a69.552 69.552 0 0 0 10.086-19.952l13.954 34.884a40 40 0 0 0 79.96-1.64v-118.4a17.573 17.573 0 0 0 -7.227-14.187zm-304.773-75.413h-24v-26.707a27.951 27.951 0 0 0 24 0zm-12-64a12 12 0 1 1 -12 12 12.013 12.013 0 0 1 12-12zm-44 121.6a1.6 1.6 0 0 1 1.6-1.6h30.4a8.009 8.009 0 0 1 8 8v6.863a8.062 8.062 0 0 1 -.08 1.131l-5.877 41.137a8.04 8.04 0 0 1 -7.92 6.869h-24.523a1.6 1.6 0 0 1 -1.6-1.6zm48 150.4a24 24 0 0 1 -48 0v-72.081c.528.048 1.06.081 1.6.081h24.523a23.712 23.712 0 0 0 4.034-.358l16.022 58.734a51.969 51.969 0 0 1 1.821 13.624zm8-144a24.027 24.027 0 0 0 -24-24v-24h24zm224.094-43.669a77.335 77.335 0 0 1 4.443-22.456l27.463 21.97v27.074zm75.369-22.456a77.328 77.328 0 0 1 4.443 22.456l-31.906 26.588v-27.074zm-27.463 69.872 29.609-24.674a82.2 82.2 0 0 1 -13.897 28.927h-15.712zm-8-114.213a96.059 96.059 0 0 1 28.411 29.492l-20.411 16.329v-23.355h-16v23.355l-20.411-16.329a96.047 96.047 0 0 1 28.411-29.492zm-208-33.534a8.009 8.009 0 0 1 -8-8v-32a8.009 8.009 0 0 1 8-8h128a8.009 8.009 0 0 1 8 8v32a8.009 8.009 0 0 1 -8 8h-32a6.935 6.935 0 0 1 -5.781-3.094l-7.125-10.688a22.949 22.949 0 0 0 -38.188 0l-7.125 10.687a6.935 6.935 0 0 1 -5.781 3.095zm65.415-64a244.723 244.723 0 0 0 41.045-25.242 106.828 106.828 0 0 0 8.8 25.242zm89.9 51.307a16.2 16.2 0 0 1 -3.32 2.532v-27.677a15.981 15.981 0 0 1 3.32 25.145zm-11.315-123.307a32 32 0 0 1 15.2 60.159 87.979 87.979 0 0 0 -31.126-55.929 31.722 31.722 0 0 1 15.926-4.23zm-88 0h16a72.081 72.081 0 0 1 72 72v6.131a23.98 23.98 0 0 0 -10-5.372 91.169 91.169 0 0 1 -12.688-33.531l-1.42-8.54a8 8 0 0 0 -13.1-4.762 228.169 228.169 0 0 1 -86.063 46.074h-20.729a23.9 23.9 0 0 0 -16 6.131v-6.131a72.081 72.081 0 0 1 72-72zm-88 112a16 16 0 0 1 8-13.835v27.676a15.908 15.908 0 0 1 -8-13.841zm34.035 40h29.965a22.9 22.9 0 0 0 19.094-10.219l7.125-10.687a6.948 6.948 0 0 1 11.562 0l7.125 10.688a22.9 22.9 0 0 0 19.094 10.218h29.965a64 64 0 0 1 -123.93 0zm32.5 95.589a8 8 0 0 0 5.465-7.589v-27.691a79.873 79.873 0 0 0 48 0v27.691a8 8 0 0 0 5.47 7.589l16.17 5.39-18.797 51.021h-53.686l-18.8-51.021zm29.465 129.27-20.948-56.859h41.9zm-60.687-48.859 10.344-10.343a8 8 0 0 0 -.857-12.057l-25.4-19.048 17.99-22.487 38.51 104.523zm111.887-22.4a8 8 0 0 0 -.857 12.057l10.344 10.343-40.587 40.588 38.508-104.523 17.99 22.487zm55.192-46.526 29.608 24.673v5.629a24.054 24.054 0 0 0 -9.436 6.158 84.1 84.1 0 0 1 -20.172-36.46zm45.608 188.926a23.992 23.992 0 0 1 -24-24 30.771 30.771 0 0 1 2.5-12.2l12.378-28.876a23.686 23.686 0 0 0 7 1.074h24.522c.54 0 1.072-.033 1.6-.081v40.083a24.027 24.027 0 0 1 -24 24zm24-81.6a1.6 1.6 0 0 1 -1.6 1.6h-24.523a8.04 8.04 0 0 1 -7.92-6.869l-5.876-41.131a7.963 7.963 0 0 1 -.081-1.133v-6.867a8.009 8.009 0 0 1 8-8h30.4a1.6 1.6 0 0 1 1.6 1.6z" data-original="#000000" class="" style="fill:#000000"/></g></g> </svg>
