<svg height="512" viewBox="0 0 512 512" width="512" xmlns="http://www.w3.org/2000/svg"><g id="Filled_outline" data-name="Filled outline"><path d="m24 104h112v384h-112z" fill="#d3669a"/><path d="m24 380.4v107.6h112v-285.153c-31.263 73.258-76.367 135.315-112 177.553z" fill="#cc5e93"/><circle cx="80" cy="104" fill="#e080b3" r="56"/><circle cx="80" cy="104" fill="#c7568c" r="24"/><path d="m24 192h112v32h-112z" fill="#82489c"/><path d="m24 384h112v32h-112z" fill="#82489c"/><path d="m200 224h-88v-32h64z" fill="#8d5fa1"/><path d="m176 416h-64v-32h88z" fill="#8d5fa1"/><path d="m168 224h32v160h-32z" fill="#82489c"/><path d="m200 120h24v16h-24z" fill="#95573a"/><path d="m488 461.06a26.981 26.981 0 0 1 -50.78 12.67l-44.07-63.95-12.69-18.41h-12.46v104.63h-160v-104.63h-12.46l-13.77 19.98-42.99 62.38a26.965 26.965 0 0 1 -48.83-22.7l11.69-24.42 54.58-114a47.988 47.988 0 0 1 38.95-27.08l18.6-1.69 30.7-2.79 4.25-.39a8 8 0 0 0 7.28-7.97v-56.69h64v56.69a8 8 0 0 0 7.28 7.97l4.41.4 30.26 2.75 18.88 1.72a47.988 47.988 0 0 1 38.95 27.08l54.02 112.83 12.25 25.59a27.044 27.044 0 0 1 1.95 10.03z" fill="#fec9a3"/><path d="m488 461.06a26.981 26.981 0 0 1 -50.78 12.67l-44.07-63.95 80.65 15.66 12.25 25.59a27.044 27.044 0 0 1 1.95 10.03z" fill="#fec093"/><path d="m320 248.427v-32.427h-64v32.427a71.4 71.4 0 0 0 64 0z" fill="#feb784"/><path d="m368 64h-24v32h8a16 16 0 0 1 16 16v88a48 48 0 0 0 48 48v-136a48 48 0 0 0 -48-48z" fill="#82462a"/><path d="m360 112v56a72.006 72.006 0 0 1 -72 72c-1.07 0-2.14-.02-3.19-.07a72.009 72.009 0 0 1 -68.81-71.93v-56a64 64 0 0 1 64-64h16a63.994 63.994 0 0 1 64 64z" fill="#fec9a3"/><path d="m360 112v56a72.006 72.006 0 0 1 -72 72c-1.07 0-2.14-.02-3.19-.07a71.983 71.983 0 0 0 38.86-63.93v-80a71.708 71.708 0 0 0 -17.64-47.21 63.994 63.994 0 0 1 53.97 63.21z" fill="#fec093"/><path d="m376 104v32l-16-8-32-64s-6.17 4.94-16.11 12.07c-25.86 18.54-77.22 51.93-111.89 51.93v-24a80 80 0 0 1 80-80h16a80 80 0 0 1 80 80z" fill="#95573a"/><path d="m376 104v32l-16-8-32-64s-6.17 4.94-16.11 12.07a71.742 71.742 0 0 0 -20.98-46.98 70.093 70.093 0 0 0 -5.66-5.09h10.75a80 80 0 0 1 80 80z" fill="#8f4d2e"/><path d="m368 448v48h-160v-48a62.1 62.1 0 0 1 0-80s3.35-50.49 5.77-84.16l30.7-2.79 6.85 47.29a37.078 37.078 0 0 0 73.36 0l7.01-47.28 30.26 2.75c2.4 33.03 6.05 84.19 6.05 84.19a62.138 62.138 0 0 1 0 80z" fill="#c7ae71"/><path d="m368 448v48h-128.65c44.75-25.1 94.18-61.58 137.54-114a62.029 62.029 0 0 1 -8.89 66z" fill="#c2a667"/><path d="m181.77 411.35-42.99 62.38a26.965 26.965 0 0 1 -48.83-22.7l11.69-24.42z" fill="#fec093"/><path d="m269.881 357.06-13.881 50.94-146.649 27.933a26.266 26.266 0 0 0 -21.351 25.802 26.265 26.265 0 0 0 26.265 26.265h9.88a26.247 26.247 0 0 0 7.547-1.108l156.308-46.892v-80a9.3 9.3 0 0 0 -9.3-9.3 9.3 9.3 0 0 0 -8.819 6.36z" fill="#fec9a3"/><path d="m306.119 357.06 13.881 50.94 146.649 27.933a26.266 26.266 0 0 1 21.351 25.802 26.265 26.265 0 0 1 -26.265 26.265h-9.88a26.247 26.247 0 0 1 -7.547-1.108l-156.308-46.892v-80a9.3 9.3 0 0 1 9.3-9.3 9.3 9.3 0 0 1 8.819 6.36z" fill="#fec9a3"/><path d="m216 128h-8a24 24 0 0 0 0 48h8.469a72.6 72.6 0 0 1 -.469-8z" fill="#feb784"/><path d="m368 128h-8v40a72.6 72.6 0 0 1 -.469 8h8.469a24 24 0 0 0 0-48z" fill="#feb784"/><path d="m80 136a32 32 0 1 0 -32-32 32.036 32.036 0 0 0 32 32zm0-48a16 16 0 1 1 -16 16 16.019 16.019 0 0 1 16-16z"/><path d="m496 461.741v-.025c0-.883 0-1.87-.1-2.926a33.851 33.851 0 0 0 -2.418-10.8c-.058-.139-.119-.275-.183-.41l-66.317-138.38a56.159 56.159 0 0 0 -45.476-31.648l-53.387-4.867-.119-.012v-35.417a79.564 79.564 0 0 0 32.073-34.381 56.07 56.07 0 0 0 55.927 53.125 8 8 0 0 0 8-8v-136a56.055 56.055 0 0 0 -54.235-55.955 88.327 88.327 0 0 0 -73.765-40.045h-16a88.1 88.1 0 0 0 -88 88v20.305a31.989 31.989 0 0 0 16 59.695h1.6a79.373 79.373 0 0 0 38.4 53.258v35.414l-.119.012-39.881 3.667v-52.351a7.954 7.954 0 0 0 -1.583-4.762.317.317 0 0 0 -.017-.038l-24-32a8 8 0 0 0 -6.4-3.2h-32v-80a64 64 0 0 0 -128 0v384a8 8 0 0 0 8 8h100.146a34.269 34.269 0 0 0 9.845-1.444l65.689-19.707.32 21.272 16-.242-.389-25.809 72.389-21.717 72.391 21.717-.391 25.809 16 .242.321-21.272 65.689 19.707a34.269 34.269 0 0 0 9.844 1.444h9.88a34.3 34.3 0 0 0 34.227-32.731c.034-.562.039-1.076.039-1.509zm-83.455-145.641 53.464 111.571-58.476-11.139-20.062-29.123a70.172 70.172 0 0 0 -11.671-22.481c-.708-9.756-3.342-46.028-5.284-72.288l9.568.847a40.094 40.094 0 0 1 32.461 22.613zm-58.183-24.935c2.254 30.442 5.622 76.915 5.659 77.416a8.01 8.01 0 0 0 1.847 4.561 54.077 54.077 0 0 1 12.607 37.093l-48.07-9.156-11.447-42.007c.843-.623 1.684-1.274 2.519-1.981a45.371 45.371 0 0 0 15.158-27.6l5.68-38.64c.018-.12.033-.248.045-.379l.115-.768zm-66.362 54.273a17.229 17.229 0 0 0 -18.467-.1 29.049 29.049 0 0 1 -10.333-18.182l-5.8-39.419a16.021 16.021 0 0 0 10.6-15.017v-28.42a79.7 79.7 0 0 0 48 0v28.42a16.02 16.02 0 0 0 10.591 15.011l-.1.686c-.019.129-.035.268-.049.409l-5.631 38.315a29.3 29.3 0 0 1 -9.735 17.792c-.18.152-.365.291-.548.439a17.222 17.222 0 0 0 -18.525.066zm-256-129.438v-16h72v16zm0 16h96v121.066l-10.962 22.934h-85.038zm160 0v45.845a56.611 56.611 0 0 0 -16 4.716v-50.561zm-32 61.712a53.883 53.883 0 0 0 -10.975 15.471l-5.025 10.487v-87.67h16zm-128 98.288h72v11.217l-2.3 4.783h-69.7zm131.49-75.978a37.933 37.933 0 0 1 9.7-12.734l.1-.087a40.081 40.081 0 0 1 22.572-9.709l9.233-.842c-1.969 27.4-4.283 62.636-4.913 72.293a71.748 71.748 0 0 0 -11.845 22.742l-19.871 28.844-58.466 11.138zm37.594 94.294c0-.07-.009-.142-.011-.213s0-.122 0-.182a55.791 55.791 0 0 1 13.049-36.767 7.992 7.992 0 0 0 1.865-4.636c.031-.482 2.941-45.289 5.261-77.34l16.264-1.484 5.857 39.787a45.132 45.132 0 0 0 17.691 29.519l-11.46 42.076zm166.916-242.316v-32a16 16 0 0 1 0 32zm40-56v127.2a40.071 40.071 0 0 1 -32-39.2v-17.013a31.989 31.989 0 0 0 8-58.682v-20.305a87.8 87.8 0 0 0 -5.52-30.6 40.066 40.066 0 0 1 29.52 38.6zm-200-8a72.081 72.081 0 0 1 72-72h16a72.273 72.273 0 0 1 62 35.405c.106.232.223.458.35.68a71.835 71.835 0 0 1 9.65 35.915v16h-3.056l-29.789-59.578a8 8 0 0 0 -12.149-2.672c-.627.5-63.294 50.257-108.789 60.451q-3.225.737-6.217 1.174zm-16 48a16.019 16.019 0 0 1 16-16v32a16.019 16.019 0 0 1 -16-16zm32 16v-35.794c38.369-10.825 83.318-42.552 101.185-55.949l26.815 53.632v38.111a64 64 0 0 1 -128 0zm-40 48h-64v-16h52zm-104-160a48 48 0 1 1 -48 48 48.053 48.053 0 0 1 48-48zm0 112a63.851 63.851 0 0 0 48-21.735v37.735h-96v-37.735a63.851 63.851 0 0 0 48 21.735zm-48 256h62.024l-11.318 23.581c-.064.136-.126.273-.184.412a33.851 33.851 0 0 0 -2.418 10.8c-.1 1.056-.1 2.043-.1 2.926v.044.045a34.048 34.048 0 0 0 5.296 18.192h-53.3zm97.394 55.229a18.221 18.221 0 0 1 -5.248.771h-9.88a18.277 18.277 0 0 1 -18.2-16.874h.064l-.127-1.574a18.28 18.28 0 0 1 14.84-17.755l146.657-27.939a8 8 0 0 0 6.222-5.754l13.8-50.628a1.3 1.3 0 0 1 2.478.524v74.048zm332.34.771h-9.88a18.221 18.221 0 0 1 -5.248-.771l-150.606-45.181v-74.048a1.3 1.3 0 0 1 2.486-.524l13.8 50.628a8 8 0 0 0 6.222 5.754l146.649 27.934a18.283 18.283 0 0 1 14.843 17.941 18.286 18.286 0 0 1 -18.266 18.267z"/><path d="m264 140a12 12 0 1 0 -12 12 12.013 12.013 0 0 0 12-12z"/><path d="m324 152a12 12 0 1 0 -12-12 12.013 12.013 0 0 0 12 12z"/><path d="m288 200a24.028 24.028 0 0 0 24-24h-16a8 8 0 0 1 -16 0h-16a24.028 24.028 0 0 0 24 24z"/></g></svg>