<?xml version="1.0"?>
<svg xmlns="http://www.w3.org/2000/svg" height="512px" viewBox="0 0 512 512" width="512px" class=""><g><g id="Filled_outline" data-name="Filled outline"><path d="m24 104h112v384h-112z" fill="#45a7d1" data-original="#45A7D1" class="active-path" style="fill:#E2FFE2" data-old_color="#45a7d1"/><path d="m24 380.4v107.6h112v-285.153c-31.263 73.258-76.367 135.315-112 177.553z" fill="#3b9dc7" data-original="#3B9DC7" class=""/><circle cx="80" cy="104" fill="#4db7e5" r="56" data-original="#4DB7E5" class=""/><circle cx="80" cy="104" fill="#3291ba" r="24" data-original="#3291BA"/><path d="m24 192h112v32h-112z" fill="#404f66" data-original="#404F66" class=""/><path d="m24 392h112v32h-112z" fill="#404f66" data-original="#404F66" class=""/><path d="m200 224h-88v-32h64z" fill="#4d5e78" data-original="#4D5E78" class="" style="fill:#FFE529" data-old_color="#4d5e78"/><path d="m176 424h-64v-32h88z" fill="#4d5e78" data-original="#4D5E78" class="" style="fill:#FFE529" data-old_color="#4d5e78"/><path d="m168 232h32v160h-32z" fill="#404f66" data-original="#404F66" class=""/><path d="m224 336h128v-59.765l-24-4.235v-56h-40-40v56l-24 4.235z" fill="#fec9a3" data-original="#FEC9A3" class="" style="fill:#754100" data-old_color="#fec9a3"/><path d="m481.11 380.76-71.32 23.97-9.79-36.73v128h-224v-128l-9.722 36.457-71.44-23.437 10.022-46.93a55.994 55.994 0 0 1 45.31-44.83l89.83-15.85a46.591 46.591 0 0 0 46.59 46.59h2.82a46.591 46.591 0 0 0 46.59-46.59l79.11 13.96 10.72 1.89a55.994 55.994 0 0 1 45.31 44.83z" fill="#4d5e78" data-original="#4D5E78" class="" style="fill:#FFE529" data-old_color="#4d5e78"/><path d="m481.11 380.76-71.32 23.97-9.79-36.73v128h-212.86c68.73-37.18 167.86-104.85 227.97-208.63l10.72 1.89a55.994 55.994 0 0 1 45.31 44.83z" fill="#44546c" data-original="#44546C" class="" style="fill:#FFE529" data-old_color="#44546c"/><path d="m81.105 445.349a35.407 35.407 0 0 0 34.764 42.782h1.054a35.372 35.372 0 0 0 34.049-26.273l15.306-57.4-71.44-23.438z" fill="#fec093" data-original="#FEC093" class="" style="fill:#754100" data-old_color="#fec093"/><path d="m494.9 445.349-13.789-64.585-71.313 23.959 15.235 57.131a35.372 35.372 0 0 0 34.049 26.273h1.054a35.407 35.407 0 0 0 34.764-42.778z" fill="#fec093" data-original="#FEC093" class="" style="fill:#754100" data-old_color="#fec093"/><path d="m269.881 340.7-21.881 65.642-136.193 14.148a35.726 35.726 0 0 0 -31.807 35.51 32 32 0 0 0 32 32h32l138.2-32a8 8 0 0 0 5.8-7.692v-104.668a9.3 9.3 0 0 0 -9.3-9.3 9.3 9.3 0 0 0 -8.819 6.36z" fill="#fec9a3" data-original="#FEC9A3" class="" style="fill:#754100" data-old_color="#fec9a3"/><path d="m306.119 340.7 21.881 65.642 136.193 14.148a35.726 35.726 0 0 1 31.807 35.51 32 32 0 0 1 -32 32h-32l-138.2-32a8 8 0 0 1 -5.8-7.692v-104.668a9.3 9.3 0 0 1 9.3-9.3 9.3 9.3 0 0 1 8.819 6.36z" fill="#fec9a3" data-original="#FEC9A3" class="" style="fill:#754100" data-old_color="#fec9a3"/><g fill="#feb784"><path d="m328 251.859v-35.859h-80v35.859a71.963 71.963 0 0 0 80 0z" data-original="#FEB784" class="" style="fill:#754100" data-old_color="#FEB784"/><path d="m208 120a24 24 0 0 0 0 48h16v-48h-15.6z" data-original="#FEB784" class="" style="fill:#754100" data-old_color="#FEB784"/><path d="m368 120h-.4-15.6v48h16a24 24 0 1 0 0-48z" data-original="#FEB784" class="" style="fill:#754100" data-old_color="#FEB784"/></g><path d="m360 112v30.42a258.2 258.2 0 0 1 -5.02 50.67 68.305 68.305 0 0 1 -133.96 0q-2.505-12.525-3.76-25.21t-1.26-25.46v-30.42a72 72 0 0 1 144 0z" fill="#fec9a3" data-original="#FEC9A3" class="" style="fill:#754100" data-old_color="#fec9a3"/><path d="m360 112v30.42a258.2 258.2 0 0 1 -5.02 50.67 68.331 68.331 0 0 1 -84.39 52.66 72.022 72.022 0 0 0 54.11-69.75v-80a71.775 71.775 0 0 0 -21.09-50.91q-2.235-2.235-4.65-4.26a72.028 72.028 0 0 1 61.04 71.17z" fill="#fec093" data-original="#FEC093" class="" style="fill:#754100" data-old_color="#fec093"/><path d="m232 64h104v16h-104z" fill="#fec093" data-original="#FEC093" class="" style="fill:#754100" data-old_color="#fec093"/><path d="m360 120v-55.015a25.754 25.754 0 0 0 -32-24.985v24s14.463 34.956 32 56z" fill="#ffa912" data-original="#FFA912" class="" style="fill:#000000" data-old_color="#ffa912"/><path d="m216 120v-55.015a25.754 25.754 0 0 1 32-24.985v24s-14.463 34.956-32 56z" fill="#ffa912" data-original="#FFA912" class="" style="fill:#000000" data-old_color="#ffa912"/><path d="m328 64h-112a40 40 0 0 1 40-40h46.111a28.944 28.944 0 0 1 25.889 16z" fill="#ffb531" data-original="#FFB531" class="" style="fill:#000000" data-old_color="#ffb531"/><rect fill="#feb784" height="120" rx="8" width="16" x="280" y="336" data-original="#FEB784" class="" style="fill:#754100" data-old_color="#feb784"/><path d="m80 136a32 32 0 1 0 -32-32 32.036 32.036 0 0 0 32 32zm0-48a16 16 0 1 1 -16 16 16.019 16.019 0 0 1 16-16z" data-original="#000000" class="" style="fill:#000000"/><path d="m502.7 443.689-23.734-111.176a64.053 64.053 0 0 0 -51.739-51.113l-77.259-13.6-13.968-2.488v-26.387a76.185 76.185 0 0 0 26.827-44.269q1.853-9.26 3.037-18.658h2.136a32 32 0 0 0 0-64v-47.014a33.758 33.758 0 0 0 -35.96-33.684 36.7 36.7 0 0 0 -29.929-15.3h-46.111a48.053 48.053 0 0 0 -48 48c0 .09.01.177.013.267 0 .237-.013.473-.013.713v47.02a32 32 0 0 0 0 64h2.139q1.193 9.387 3.037 18.659a76.164 76.164 0 0 0 27.139 44.489v26.142l-1.693.3-.01-.053-30.612 5.399v-46.936a8 8 0 0 0 -1.6-4.8l-3.418-4.557-20.582-27.443a8 8 0 0 0 -6.4-3.2h-32v-80a64 64 0 0 0 -128 0v384a8 8 0 0 0 8 8h120a8.009 8.009 0 0 0 1.805-.206l22.195-5.139v5.345h16v-9.05l100-23.156c.132-.031.264-.065.393-.1a15.788 15.788 0 0 0 3.6-1.534 15.788 15.788 0 0 0 3.6 1.534c.129.037.261.071.393.1l100.014 23.156v9.05h16v-5.345l22.195 5.139a8.009 8.009 0 0 0 1.805.206h32a40.045 40.045 0 0 0 40-40 115.8 115.8 0 0 0 -1.3-12.311zm-134.7-301.273v-14.416a16 16 0 1 1 0 32h-.6c.387-5.859.6-11.726.6-17.584zm-160 17.584a16 16 0 1 1 0-32v14.419c0 5.858.213 11.725.6 17.581zm272.717 257.342a43.836 43.836 0 0 0 -15.7-4.809l-40.694-4.227 50.854-16.906zm-137.545-134.5 4 .716 77.294 13.6a47.992 47.992 0 0 1 38.787 38.377c.014.071.027.142.043.213l8.519 39.9-56.51 18.793-7.575-28.5a8 8 0 0 0 -15.73 2.059v36.948l-58.042-6.03-20.249-60.748a17.271 17.271 0 0 0 -12.7-11.417 54.7 54.7 0 0 0 42.163-43.91zm-7.172-235.535a17.778 17.778 0 0 1 16 17.677v29.151a315.751 315.751 0 0 1 -16-31.768zm-80-15.307h46.111a20.818 20.818 0 0 1 17.889 10.048v13.952h-94.987a32.056 32.056 0 0 1 30.987-24zm-32 40h11.62c-2.907 6.121-6.92 14.1-11.62 22.146zm4.862 119.518a250.937 250.937 0 0 1 -4.862-49.1v-19.585c13.484-17.052 24.714-40.666 29.25-50.833h69.5c4.537 10.166 15.768 33.778 29.25 50.831v19.585a250.962 250.962 0 0 1 -4.862 49.1 60.309 60.309 0 0 1 -118.276 0zm3.958 91.282a54.7 54.7 0 0 0 42.169 43.951 17.271 17.271 0 0 0 -12.7 11.417l-20.249 60.748-58.04 6.031v-36.947a8 8 0 0 0 -15.729-2.062l-7.6 28.517-55.518-18.5 7.573-40.385a48.229 48.229 0 0 1 38.836-38.423zm-81.189 125.51-40.7 4.228a43.707 43.707 0 0 0 -15.677 4.811l5.584-25.97zm-7.631-125.888v-50.422h16v47.406l-11.224 1.981q-2.419.426-4.776 1.035zm48-8.663-16 2.824v-44.583h16zm-20-73.759 12 16h-64v-16zm-92-144a48 48 0 1 1 -48 48 48.053 48.053 0 0 1 48-48zm-48 90.265a63.87 63.87 0 0 0 96 0v37.735h-96zm0 53.735h72v16h-72zm0 32h96v56.981a64.307 64.307 0 0 0 -31.006 43.636l-8.134 43.383h-56.86zm0 248v-56h45.481l-4.181 19.659a115.749 115.749 0 0 0 -1.3 12.341 39.788 39.788 0 0 0 8.022 24zm48.9-72h-48.9v-16h52.337zm199.1 40.3-136.914 31.7h-31.086a24.028 24.028 0 0 1 -24-24 27.68 27.68 0 0 1 24.633-27.553l136.193-14.147a8 8 0 0 0 6.764-5.427l21.881-65.642a1.3 1.3 0 0 1 2.529.411zm8-119.221a17.268 17.268 0 0 0 -1.985-1.091c.182 0 .362.014.545.014h2.88c.183 0 .363-.012.545-.014a17.268 17.268 0 0 0 -1.985 1.089zm1.44-17.079h-2.88a38.615 38.615 0 0 1 -37.977-31.924l1.12-.2a8 8 0 0 0 6.609-7.876v-22.938a75.869 75.869 0 0 0 63.688-.137v23.075a8 8 0 0 0 6.582 7.873l.844.151a38.614 38.614 0 0 1 -37.986 31.976zm174.56 168h-31.086l-136.914-31.7v-104.659a1.3 1.3 0 0 1 2.529-.411l21.881 65.642a8 8 0 0 0 6.764 5.427l136.142 14.143a27.691 27.691 0 0 1 24.684 27.558 24.028 24.028 0 0 1 -24 24z" data-original="#000000" class="" style="fill:#000000"/><path d="m264 196.56h16.934a115.032 115.032 0 0 0 33.385-4.9l-4.638-15.312a99.1 99.1 0 0 1 -28.747 4.216h-16.934z" data-original="#000000" class="" style="fill:#000000"/><circle cx="252" cy="132" r="12" data-original="#000000" class="" style="fill:#000000"/><circle cx="324" cy="132" r="12" data-original="#000000" class="" style="fill:#000000"/></g></g> </svg>
