<svg width="100%" height="100%" viewBox="0 0 96 96" fill="none" xmlns="http://www.w3.org/2000/svg">
<circle cx="48" cy="48" r="46" fill="white" stroke="#003068" stroke-width="4"/>
<path d="M27.5 44.8125C18.3873 44.8125 11 52.1998 11 61.3125V65.4375H44V61.3125C44 52.1998 36.6127 44.8125 27.5 44.8125Z" fill="#94BFE9" stroke="black"/>
<ellipse cx="27.5003" cy="30.375" rx="12.3751" ry="12.375" fill="#94BFE9" stroke="black" stroke-linecap="square"/>
<path d="M67.5 45.8125C58.3873 45.8125 51 53.1998 51 62.3125V66.4375H84V62.3125C84 53.1998 76.6127 45.8125 67.5 45.8125Z" fill="#94BFE9" stroke="black"/>
<ellipse cx="67.5003" cy="31.375" rx="12.3751" ry="12.375" fill="#94BFE9" stroke="black" stroke-linecap="square"/>
<path d="M47.5 58.8125C38.3873 58.8125 31 66.1998 31 75.3125V79.4375H64V75.3125C64 66.1998 56.6127 58.8125 47.5 58.8125Z" fill="#94BFE9" stroke="black"/>
<ellipse cx="47.5003" cy="44.375" rx="12.3751" ry="12.375" fill="#94BFE9" stroke="black" stroke-linecap="square"/>
</svg>
