<?xml version="1.0" encoding="UTF-8" standalone="no"?>
<!DOCTYPE svg PUBLIC "-//W3C//DTD SVG 1.1//EN" "http://www.w3.org/Graphics/SVG/1.1/DTD/svg11.dtd">
<svg version="1.1" xmlns="http://www.w3.org/2000/svg" xmlns:xlink="http://www.w3.org/1999/xlink" preserveAspectRatio="xMidYMid meet" viewBox="138.68 64.49000000000004 405.00000000000006 404.9999999999999" width="400" height="400"><defs><path d="M140.68 266.49C140.68 376.96 230.25 466.49 340.68 466.49C451.15 466.49 540.68 376.96 540.68 266.49C540.68 156.02 451.15 66.49 340.68 66.49C230.25 66.49 140.68 156.02 140.68 266.49Z" id="h3DEToMvvy"></path><path d="M140.68 266.49C140.68 376.96 230.25 466.49 340.68 466.49C451.15 466.49 540.68 376.96 540.68 266.49C540.68 156.02 451.15 66.49 340.68 66.49C230.25 66.49 140.68 156.02 140.68 266.49Z" id="a2n0gfPyW"></path><path d="M297.41 159.29L297.41 169.29L287.41 169.29L287.41 159.29L297.41 159.29Z" id="b1U9keWskk"></path><path d="M297.41 159.29L297.41 169.29L287.41 169.29L287.41 159.29L297.41 159.29Z" id="a1lmRwV51I"></path><path d="M457.41 374.29L422.41 274.29L377.41 264.29L362.41 259.29L362.41 224.29L322.41 224.29L322.41 259.29L307.41 264.29L262.41 274.29L227.41 374.29C251.41 374.29 264.75 374.29 267.41 374.29C279.41 344.29 286.08 327.62 287.41 324.29C281.25 337.22 283.58 353.26 292.41 364.29C292.41 366.62 292.41 378.29 292.41 399.29C302.41 399.29 382.41 399.29 392.41 399.29C392.41 378.29 392.41 366.62 392.41 364.29C401.25 353.26 403.55 337.22 397.41 324.29C400.08 330.96 406.75 347.62 417.41 374.29C422.75 374.29 436.08 374.29 457.41 374.29Z" id="b3vn2Cbqmv"></path><path d="M457.41 374.29L422.41 274.29L377.41 264.29L362.41 259.29L362.41 224.29L322.41 224.29L322.41 259.29L307.41 264.29L262.41 274.29L227.41 374.29C251.41 374.29 264.75 374.29 267.41 374.29C279.41 344.29 286.08 327.62 287.41 324.29C281.25 337.22 283.58 353.26 292.41 364.29C292.41 366.62 292.41 378.29 292.41 399.29C302.41 399.29 382.41 399.29 392.41 399.29C392.41 378.29 392.41 366.62 392.41 364.29C401.25 353.26 403.55 337.22 397.41 324.29C400.08 330.96 406.75 347.62 417.41 374.29C422.75 374.29 436.08 374.29 457.41 374.29Z" id="aoMumySf"></path><path d="M322.41 224.29C322.41 236.46 322.41 243.19 322.41 244.56C334.98 250.86 349.81 250.86 362.41 244.56C362.41 241.86 362.41 235.09 362.41 224.29C354.41 224.29 326.41 224.29 322.41 224.29Z" id="b18YGV4eQ2"></path><path d="M322.41 224.29C322.41 236.46 322.41 243.19 322.41 244.56C334.98 250.86 349.81 250.86 362.41 244.56C362.41 241.86 362.41 235.09 362.41 224.29C354.41 224.29 326.41 224.29 322.41 224.29Z" id="h1inghgFwV"></path><path d="M399.01 328.32C403.01 340.42 400.35 354.36 392.41 364.29C392.41 366.62 392.41 378.29 392.41 399.29C382.41 399.29 302.41 399.29 292.41 399.29C292.41 378.29 292.41 366.62 292.41 364.29C284.48 354.36 281.78 340.42 285.78 328.32C284.58 331.36 278.45 346.69 267.41 374.29C264.75 374.29 251.41 374.29 227.41 374.29L262.41 274.29L307.41 264.29L342.41 359.29L377.41 264.29L418.21 273.36L422.41 274.29L457.41 374.29L417.41 374.29C405.97 345.67 399.84 330.35 399.01 328.32Z" id="e1dgDdigG"></path><path d="M399.01 328.32C403.01 340.42 400.35 354.36 392.41 364.29C392.41 366.62 392.41 378.29 392.41 399.29C382.41 399.29 302.41 399.29 292.41 399.29C292.41 378.29 292.41 366.62 292.41 364.29C284.48 354.36 281.78 340.42 285.78 328.32C284.58 331.36 278.45 346.69 267.41 374.29C264.75 374.29 251.41 374.29 227.41 374.29L262.41 274.29L307.41 264.29L342.41 359.29L377.41 264.29L418.21 273.36L422.41 274.29L457.41 374.29L417.41 374.29C405.97 345.67 399.84 330.35 399.01 328.32Z" id="azMcpt1Im"></path><path d="M399.01 328.32C403.01 340.42 400.35 354.36 392.41 364.29C392.41 366.62 392.41 378.29 392.41 399.29C335.28 399.29 303.51 399.29 297.18 399.29C330.85 383.49 389.41 346.69 418.21 273.36C418.48 273.42 419.88 273.72 422.41 274.29C424.75 280.96 436.41 314.29 457.41 374.29L417.41 374.29C405.97 345.67 399.84 330.35 399.01 328.32Z" id="bHWJbXzYa"></path><path d="M399.01 328.32C403.01 340.42 400.35 354.36 392.41 364.29C392.41 366.62 392.41 378.29 392.41 399.29C335.28 399.29 303.51 399.29 297.18 399.29C330.85 383.49 389.41 346.69 418.21 273.36C418.48 273.42 419.88 273.72 422.41 274.29C424.75 280.96 436.41 314.29 457.41 374.29L417.41 374.29C405.97 345.67 399.84 330.35 399.01 328.32Z" id="f3txOQpFl"></path><path d="M342.41 359.29L322.15 304.29L362.68 304.29L342.41 359.29Z" id="a1EeMutfP"></path><path d="M342.41 359.29L322.15 304.29L362.68 304.29L342.41 359.29Z" id="j1pkRPuj6A"></path><path d="M367.41 129.29C367.41 143.09 378.61 154.29 392.41 154.29C406.21 154.29 417.41 143.09 417.41 129.29C417.41 115.49 406.21 104.29 392.41 104.29C378.61 104.29 367.41 115.49 367.41 129.29Z" id="bSHjqIYdM"></path><path d="M367.41 129.29C367.41 143.09 378.61 154.29 392.41 154.29C406.21 154.29 417.41 143.09 417.41 129.29C417.41 115.49 406.21 104.29 392.41 104.29C378.61 104.29 367.41 115.49 367.41 129.29Z" id="fdQoGp295"></path><path d="M297.41 194.29C294.41 194.29 292.75 194.29 292.41 194.29C284.11 194.29 277.41 187.56 277.41 179.29C277.41 170.99 284.11 164.29 292.41 164.29C293.08 164.29 294.75 164.29 297.41 164.29C297.41 170.29 297.41 191.29 297.41 194.29Z" id="bOEGZlNi5"></path><path d="M297.41 194.29C294.41 194.29 292.75 194.29 292.41 194.29C284.11 194.29 277.41 187.56 277.41 179.29C277.41 170.99 284.11 164.29 292.41 164.29C293.08 164.29 294.75 164.29 297.41 164.29C297.41 170.29 297.41 191.29 297.41 194.29Z" id="aIe8V0KkS"></path><path d="M297.41 159.29C297.41 137.19 315.31 119.29 337.41 119.29C338.41 119.29 346.41 119.29 347.41 119.29C369.51 119.29 387.41 137.19 387.41 159.29C387.41 162.79 387.41 190.79 387.41 194.29C387.41 219.12 367.25 239.29 342.41 239.29C317.55 239.29 297.41 219.12 297.41 194.29C297.41 190.79 297.41 162.79 297.41 159.29Z" id="cul0YoCO"></path><path d="M297.41 159.29C297.41 137.19 315.31 119.29 337.41 119.29C338.41 119.29 346.41 119.29 347.41 119.29C369.51 119.29 387.41 137.19 387.41 159.29C387.41 162.79 387.41 190.79 387.41 194.29C387.41 219.12 367.25 239.29 342.41 239.29C317.55 239.29 297.41 219.12 297.41 194.29C297.41 190.79 297.41 162.79 297.41 159.29Z" id="a1ZOtbsFFq"></path><path d="M287.41 154.29C287.41 154.96 287.41 158.29 287.41 164.29C289.88 164.02 291.25 163.89 291.55 163.89C321.41 160.89 349.61 148.82 372.41 129.29C372.48 129.82 373.21 134.09 373.28 134.62C375.95 150.46 384.58 164.66 397.41 174.29C397.41 172.29 397.41 156.29 397.41 154.29C397.41 126.69 375.01 104.29 347.41 104.29C345.41 104.29 339.41 104.29 337.41 104.29C309.78 104.29 287.41 126.69 287.41 154.29Z" id="bkOwPBtCj"></path><path d="M287.41 154.29C287.41 154.96 287.41 158.29 287.41 164.29C289.88 164.02 291.25 163.89 291.55 163.89C321.41 160.89 349.61 148.82 372.41 129.29C372.48 129.82 373.21 134.09 373.28 134.62C375.95 150.46 384.58 164.66 397.41 174.29C397.41 172.29 397.41 156.29 397.41 154.29C397.41 126.69 375.01 104.29 347.41 104.29C345.41 104.29 339.41 104.29 337.41 104.29C309.78 104.29 287.41 126.69 287.41 154.29Z" id="b1jiunak8C"></path><path d="M407.41 179.29C407.41 187.56 400.68 194.29 392.41 194.29C392.08 194.29 390.41 194.29 387.41 194.29C387.41 191.29 387.41 167.29 387.41 164.29C390.41 164.29 392.08 164.29 392.41 164.29C400.68 164.29 407.41 170.99 407.41 179.29Z" id="d5JPlT0p2L"></path><path d="M407.41 179.29C407.41 187.56 400.68 194.29 392.41 194.29C392.08 194.29 390.41 194.29 387.41 194.29C387.41 191.29 387.41 167.29 387.41 164.29C390.41 164.29 392.08 164.29 392.41 164.29C400.68 164.29 407.41 170.99 407.41 179.29Z" id="b2bMsh94B"></path><path d="M287.41 289.29L307.41 304.29L297.41 314.29L342.41 359.29L307.41 264.29L287.41 289.29Z" id="aFHf47U4G"></path><path d="M287.41 289.29L307.41 304.29L297.41 314.29L342.41 359.29L307.41 264.29L287.41 289.29Z" id="a1xVQleZyi"></path><path d="M397.41 289.29L377.41 304.29L387.41 314.29L342.41 359.29L377.41 264.29L397.41 289.29Z" id="d2VJ2WdokP"></path><path d="M397.41 289.29L377.41 304.29L387.41 314.29L342.41 359.29L377.41 264.29L397.41 289.29Z" id="a1vzYrv400"></path><path d="M354.65 195.12C354.18 194.46 350.61 189.12 350.18 188.46C348.45 185.86 345.51 184.29 342.41 184.29C339.28 184.29 336.38 185.86 334.65 188.46C334.18 189.12 330.61 194.46 330.18 195.12C328.45 197.72 325.51 199.29 322.41 199.29C320.41 199.29 304.41 199.29 302.41 199.29C296.88 199.29 292.41 194.82 292.41 189.29C292.41 187.29 292.41 171.29 292.41 169.29C292.41 163.76 296.88 159.29 302.41 159.29C310.41 159.29 374.41 159.29 382.41 159.29C387.91 159.29 392.41 163.76 392.41 169.29C392.41 171.29 392.41 187.29 392.41 189.29C392.41 194.82 387.91 199.29 382.41 199.29C378.41 199.29 364.41 199.29 362.41 199.29C359.28 199.29 356.38 197.72 354.65 195.12Z" id="c1i6IcPTkB"></path><path d="M354.65 195.12C354.18 194.46 350.61 189.12 350.18 188.46C348.45 185.86 345.51 184.29 342.41 184.29C339.28 184.29 336.38 185.86 334.65 188.46C334.18 189.12 330.61 194.46 330.18 195.12C328.45 197.72 325.51 199.29 322.41 199.29C320.41 199.29 304.41 199.29 302.41 199.29C296.88 199.29 292.41 194.82 292.41 189.29C292.41 187.29 292.41 171.29 292.41 169.29C292.41 163.76 296.88 159.29 302.41 159.29C310.41 159.29 374.41 159.29 382.41 159.29C387.91 159.29 392.41 163.76 392.41 169.29C392.41 171.29 392.41 187.29 392.41 189.29C392.41 194.82 387.91 199.29 382.41 199.29C378.41 199.29 364.41 199.29 362.41 199.29C359.28 199.29 356.38 197.72 354.65 195.12Z" id="b8QDwhyA9V"></path><path d="M272.41 291.79C272.41 298.69 266.81 304.29 259.91 304.29C253.01 304.29 247.41 298.69 247.41 291.79C247.41 286.46 247.41 259.79 247.41 211.79C249.08 211.79 257.41 211.79 272.41 211.79C272.41 261.57 272.41 288.23 272.41 291.79Z" id="e2Clqn0D8L"></path><path d="M272.41 291.79C272.41 298.69 266.81 304.29 259.91 304.29C253.01 304.29 247.41 298.69 247.41 291.79C247.41 286.46 247.41 259.79 247.41 211.79C249.08 211.79 257.41 211.79 272.41 211.79C272.41 261.57 272.41 288.23 272.41 291.79Z" id="f4nonjvFS"></path><path d="M259.91 304.29C266.81 304.29 272.41 298.69 272.41 291.79C272.41 288.96 272.41 274.79 272.41 249.29C269.91 249.29 249.91 249.29 247.41 249.29C247.41 271.96 247.41 286.12 247.41 291.79C247.41 298.69 253.01 304.29 259.91 304.29Z" id="c3EpJECp1y"></path><path d="M259.91 304.29C266.81 304.29 272.41 298.69 272.41 291.79C272.41 288.96 272.41 274.79 272.41 249.29C269.91 249.29 249.91 249.29 247.41 249.29C247.41 271.96 247.41 286.12 247.41 291.79C247.41 298.69 253.01 304.29 259.91 304.29Z" id="badPp2esDj"></path><path d="M247.41 211.79C247.41 218.69 253.01 224.29 259.91 224.29C266.81 224.29 272.41 218.69 272.41 211.79C272.41 204.89 266.81 199.29 259.91 199.29C253.01 199.29 247.41 204.89 247.41 211.79Z" id="bbniuV23p"></path><path d="M247.41 211.79C247.41 218.69 253.01 224.29 259.91 224.29C266.81 224.29 272.41 218.69 272.41 211.79C272.41 204.89 266.81 199.29 259.91 199.29C253.01 199.29 247.41 204.89 247.41 211.79Z" id="f2eDDOGFO8"></path><path d="M227.41 314.29C229.91 314.29 249.91 314.29 252.41 314.29C260.61 344.39 265.18 361.12 266.08 364.46C266.98 367.66 267.41 370.96 267.41 374.29C267.41 385.32 258.45 394.29 247.41 394.29C236.35 394.29 227.41 385.32 227.41 374.29C227.41 370.29 227.41 350.29 227.41 314.29Z" id="b2axUWTt4z"></path><path d="M227.41 314.29C229.91 314.29 249.91 314.29 252.41 314.29C260.61 344.39 265.18 361.12 266.08 364.46C266.98 367.66 267.41 370.96 267.41 374.29C267.41 385.32 258.45 394.29 247.41 394.29C236.35 394.29 227.41 385.32 227.41 374.29C227.41 370.29 227.41 350.29 227.41 314.29Z" id="i1QNPIzM1c"></path><path d="M258.65 315.69C259.01 313.12 261.95 292.56 262.31 289.99C262.38 289.52 262.41 289.06 262.41 288.56C262.41 288.16 262.41 284.72 262.41 284.29C262.41 278.76 257.91 274.29 252.41 274.29C250.51 274.29 235.31 274.29 233.41 274.29C230.08 274.29 227.41 276.96 227.41 280.29C227.41 280.29 227.41 280.29 227.41 280.29C227.41 284.09 227.41 314.49 227.41 318.29C227.41 321.59 230.08 324.29 233.41 324.29C233.41 324.29 233.41 324.29 233.41 324.29C236.48 324.29 247.21 324.29 248.75 324.29C253.71 324.29 257.91 320.62 258.65 315.69Z" id="a1rHDtelKj"></path><path d="M258.65 315.69C259.01 313.12 261.95 292.56 262.31 289.99C262.38 289.52 262.41 289.06 262.41 288.56C262.41 288.16 262.41 284.72 262.41 284.29C262.41 278.76 257.91 274.29 252.41 274.29C250.51 274.29 235.31 274.29 233.41 274.29C230.08 274.29 227.41 276.96 227.41 280.29C227.41 280.29 227.41 280.29 227.41 280.29C227.41 284.09 227.41 314.49 227.41 318.29C227.41 321.59 230.08 324.29 233.41 324.29C233.41 324.29 233.41 324.29 233.41 324.29C236.48 324.29 247.21 324.29 248.75 324.29C253.71 324.29 257.91 320.62 258.65 315.69Z" id="h3WT1wbp7v"></path><path d="M437.41 305.92C435.01 307.66 432.91 308.96 432.41 309.29C429.78 307.66 427.91 306.26 427.41 305.92C412.98 295.29 404.78 280.99 402.85 266.16C402.28 261.82 402.25 257.42 402.78 253.09C403.31 248.49 404.45 243.99 406.15 239.66C407.38 236.49 408.91 233.42 410.71 230.52C415.68 222.46 422.91 215.12 432.41 209.29C441.88 215.12 449.11 222.46 454.11 230.52C455.91 233.42 457.45 236.49 458.68 239.66C460.38 243.99 461.51 248.49 462.05 253.09C462.28 255.12 462.41 257.22 462.41 259.29C462.41 261.59 462.25 263.89 461.95 266.16C460.05 280.99 451.85 295.29 437.41 305.92Z" id="cRSJMP96D"></path><path d="M437.41 305.92C435.01 307.66 432.91 308.96 432.41 309.29C429.78 307.66 427.91 306.26 427.41 305.92C412.98 295.29 404.78 280.99 402.85 266.16C402.28 261.82 402.25 257.42 402.78 253.09C403.31 248.49 404.45 243.99 406.15 239.66C407.38 236.49 408.91 233.42 410.71 230.52C415.68 222.46 422.91 215.12 432.41 209.29C441.88 215.12 449.11 222.46 454.11 230.52C455.91 233.42 457.45 236.49 458.68 239.66C460.38 243.99 461.51 248.49 462.05 253.09C462.28 255.12 462.41 257.22 462.41 259.29C462.41 261.59 462.25 263.89 461.95 266.16C460.05 280.99 451.85 295.29 437.41 305.92Z" id="a16giXtMK"></path><path d="M457.41 334.29C454.91 334.29 434.91 334.29 432.41 334.29C424.58 352.52 420.25 362.66 419.38 364.69C418.08 367.72 417.41 370.99 417.41 374.29C417.41 385.32 426.35 394.29 437.41 394.29C448.45 394.29 457.41 385.32 457.41 374.29C457.41 371.62 457.41 358.29 457.41 334.29Z" id="a7bENiM3i"></path><path d="M457.41 334.29C454.91 334.29 434.91 334.29 432.41 334.29C424.58 352.52 420.25 362.66 419.38 364.69C418.08 367.72 417.41 370.99 417.41 374.29C417.41 385.32 426.35 394.29 437.41 394.29C448.45 394.29 457.41 385.32 457.41 374.29C457.41 371.62 457.41 358.29 457.41 334.29Z" id="dFL3aMody"></path><path d="M426.18 335.69C425.81 333.12 422.88 312.56 422.51 309.99C422.45 309.52 422.41 309.06 422.41 308.56C422.41 308.16 422.41 304.72 422.41 304.29C422.41 298.76 426.88 294.29 432.41 294.29C434.31 294.29 449.51 294.29 451.41 294.29C454.71 294.29 457.41 296.96 457.41 300.29C457.41 300.29 457.41 300.29 457.41 300.29C457.41 304.09 457.41 334.49 457.41 338.29C457.41 341.59 454.71 344.29 451.41 344.29C451.41 344.29 451.41 344.29 451.41 344.29C448.35 344.29 437.61 344.29 436.08 344.29C431.11 344.29 426.88 340.62 426.18 335.69Z" id="acgAST0dV"></path><path d="M426.18 335.69C425.81 333.12 422.88 312.56 422.51 309.99C422.45 309.52 422.41 309.06 422.41 308.56C422.41 308.16 422.41 304.72 422.41 304.29C422.41 298.76 426.88 294.29 432.41 294.29C434.31 294.29 449.51 294.29 451.41 294.29C454.71 294.29 457.41 296.96 457.41 300.29C457.41 300.29 457.41 300.29 457.41 300.29C457.41 304.09 457.41 334.49 457.41 338.29C457.41 341.59 454.71 344.29 451.41 344.29C451.41 344.29 451.41 344.29 451.41 344.29C448.35 344.29 437.61 344.29 436.08 344.29C431.11 344.29 426.88 340.62 426.18 335.69Z" id="dD6EHy56"></path><path d="M327.41 364.29L327.41 374.29L317.41 374.29L317.41 364.29L327.41 364.29Z" id="a4s2eWiJXI"></path><path d="M327.41 364.29L327.41 374.29L317.41 374.29L317.41 364.29L327.41 364.29Z" id="dBHk0mTMM"></path><path d="M312.41 176.79C312.41 180.92 315.78 184.29 319.91 184.29C324.05 184.29 327.41 180.92 327.41 176.79C327.41 172.66 324.05 169.29 319.91 169.29C315.78 169.29 312.41 172.66 312.41 176.79Z" id="a9mnRrbPS"></path><path d="M312.41 176.79C312.41 180.92 315.78 184.29 319.91 184.29C324.05 184.29 327.41 180.92 327.41 176.79C327.41 172.66 324.05 169.29 319.91 169.29C315.78 169.29 312.41 172.66 312.41 176.79Z" id="c16oAk4Nbq"></path><path d="M364.91 169.29C360.78 169.29 357.41 172.66 357.41 176.79C357.41 180.92 360.78 184.29 364.91 184.29C369.05 184.29 372.41 180.92 372.41 176.79C372.41 172.66 369.05 169.29 364.91 169.29Z" id="a2nzuMWddM"></path><path d="M364.91 169.29C360.78 169.29 357.41 172.66 357.41 176.79C357.41 180.92 360.78 184.29 364.91 184.29C369.05 184.29 372.41 180.92 372.41 176.79C372.41 172.66 369.05 169.29 364.91 169.29Z" id="h2snLY5oi"></path><path d="M341.21 209.29C340.65 209.29 337.71 209.29 332.41 209.29C332.41 210.29 332.41 218.29 332.41 219.29C337.71 219.29 340.65 219.29 341.21 219.29C347.31 219.29 353.38 218.22 359.11 216.16C358.41 214.29 356.38 208.66 355.71 206.76C351.08 208.42 346.18 209.29 341.21 209.29Z" id="cVBvCPoVN"></path><path d="M341.21 209.29C340.65 209.29 337.71 209.29 332.41 209.29C332.41 210.29 332.41 218.29 332.41 219.29C337.71 219.29 340.65 219.29 341.21 219.29C347.31 219.29 353.38 218.22 359.11 216.16C358.41 214.29 356.38 208.66 355.71 206.76C351.08 208.42 346.18 209.29 341.21 209.29Z" id="a1yIC5U7Ua"></path><path d="M435.05 205.02C433.41 204.02 431.38 204.02 429.78 205.02C418.28 212.12 409.28 221.69 403.78 232.69C399.58 240.96 397.41 250.06 397.41 259.29C397.41 260.72 397.45 262.19 397.58 263.66C394.56 262.86 370.43 256.49 367.41 255.69C367.41 244.82 367.41 238.79 367.41 237.59C380.85 229.82 389.95 216.22 391.98 200.82C392.55 200.32 393.11 199.82 393.61 199.26C404.61 198.59 413.01 189.12 412.38 178.09C411.98 171.39 408.21 165.32 402.41 161.99C402.41 161.56 402.41 158.02 402.41 157.56C418.01 152.06 426.21 134.92 420.71 119.32C415.21 103.69 398.08 95.49 382.45 100.99C379.25 102.12 376.25 103.79 373.61 105.92C365.55 101.56 356.55 99.29 347.41 99.29C346.41 99.29 338.41 99.29 337.41 99.29C307.05 99.32 282.45 123.92 282.41 154.29C282.41 155.06 282.41 161.22 282.41 161.99C272.85 167.49 269.58 179.72 275.08 189.29C278.45 195.09 284.51 198.86 291.21 199.26C291.71 199.82 292.25 200.32 292.85 200.82C294.88 216.22 303.95 229.82 317.41 237.59C317.41 238.79 317.41 244.82 317.41 255.69C313.41 256.7 281.41 264.81 277.41 265.82C277.41 233.39 277.41 215.39 277.41 211.79C277.41 202.12 269.58 194.29 259.91 194.29C250.25 194.29 242.41 202.12 242.41 211.79C242.41 215.62 242.41 234.79 242.41 269.29C237.01 269.29 234.01 269.29 233.41 269.29C227.35 269.29 222.41 274.22 222.41 280.29C222.41 289.69 222.41 364.89 222.41 374.29C222.45 388.09 233.68 399.22 247.48 399.19C260.85 399.16 271.78 388.62 272.38 375.29C273.25 373.12 280.25 355.69 281.11 353.49C282.51 357.96 284.65 362.19 287.41 365.96C287.41 368.19 287.41 379.29 287.41 399.29C288.41 399.29 296.41 399.29 297.41 399.29C297.41 378.29 297.41 366.62 297.41 364.29C297.41 363.16 297.01 362.06 296.31 361.16C289.35 352.36 287.18 340.72 290.51 330.02C290.61 329.76 291.11 328.46 292.05 326.12C286.55 323.72 283.51 322.39 282.88 322.12C282.21 323.56 281.65 325.02 281.15 326.49C280.35 328.49 276.31 338.52 269.11 356.56C263.78 336.96 260.81 326.06 260.21 323.89C262.01 321.76 263.18 319.16 263.58 316.39C263.68 315.62 264.58 309.39 264.68 308.62C272.25 306.52 277.45 299.62 277.41 291.79C277.41 290.72 277.41 285.49 277.41 276.06C279.14 275.68 292.92 272.64 294.65 272.26C287.95 280.59 284.25 285.22 283.51 286.16C281.78 288.32 282.11 291.46 284.28 293.19C284.31 293.22 284.38 293.26 284.41 293.29C285.45 294.06 290.55 297.89 299.78 304.82C296.25 308.39 294.28 310.36 293.88 310.76C291.91 312.69 291.91 315.86 293.88 317.82C293.88 317.82 293.88 317.82 293.88 317.82C296.78 320.72 311.28 335.22 337.41 361.36C337.41 363.89 337.41 376.53 337.41 399.29L347.41 399.29C347.41 376.53 347.41 363.89 347.41 361.36C373.51 335.22 388.05 320.72 390.95 317.82C392.88 315.86 392.88 312.69 390.95 310.76C390.95 310.76 390.95 310.76 390.95 310.76C390.55 310.36 388.58 308.39 385.01 304.82C394.25 297.89 399.38 294.06 400.41 293.29C402.61 291.62 403.08 288.49 401.41 286.29C401.38 286.26 401.35 286.19 401.31 286.16C400.58 285.22 396.85 280.59 390.18 272.26C395.71 273.46 398.78 274.16 399.38 274.29C402.35 285.42 408.51 295.66 417.41 304.06C417.41 304.12 417.41 304.22 417.41 304.29C417.41 304.72 417.41 308.16 417.41 308.56C417.41 309.29 421.21 336.39 421.21 336.39C421.55 338.52 422.31 340.59 423.48 342.39C423.01 343.49 420.71 348.89 416.55 358.62C408.81 339.36 404.55 328.66 403.68 326.49C403.18 325.02 402.58 323.56 401.91 322.12C401.31 322.39 398.25 323.72 392.78 326.12C393.68 328.46 394.21 329.76 394.31 330.02C397.65 340.72 395.48 352.36 388.51 361.16C387.78 362.06 387.41 363.16 387.41 364.29C387.41 366.62 387.41 378.29 387.41 399.29C388.41 399.29 396.41 399.29 397.41 399.29C397.41 379.29 397.41 368.19 397.41 365.96C400.18 362.19 402.28 357.96 403.71 353.49C404.58 355.69 411.55 373.12 412.45 375.29C413.05 389.09 424.71 399.79 438.51 399.16C451.85 398.56 462.35 387.62 462.41 374.29C462.41 366.89 462.41 307.69 462.41 300.29C462.41 296.79 460.71 293.49 457.88 291.42C469.35 273.82 470.55 251.42 461.05 232.69C455.51 221.69 446.55 212.12 435.05 205.02ZM252.41 244.29C252.41 234.26 252.41 228.69 252.41 227.59C257.15 229.86 262.65 229.86 267.41 227.59C267.41 229.82 267.41 235.39 267.41 244.29C264.41 244.29 253.91 244.29 252.41 244.29ZM259.91 219.29C255.78 219.29 252.41 215.92 252.41 211.79C252.41 207.66 255.78 204.29 259.91 204.29C264.05 204.29 267.41 207.66 267.41 211.79C267.41 215.92 264.05 219.29 259.91 219.29ZM233.41 279.29C233.41 279.29 233.41 279.29 233.41 279.29C235.31 279.29 250.51 279.29 252.41 279.29C255.18 279.29 257.41 281.52 257.41 284.29C257.41 284.72 257.41 288.16 257.41 288.56C257.41 288.82 257.38 289.06 257.35 289.29C256.98 291.86 254.05 312.42 253.68 314.99C253.31 317.46 251.21 319.26 248.75 319.29C247.21 319.29 234.95 319.29 233.41 319.29C232.85 319.29 232.41 318.82 232.41 318.29C232.41 318.29 232.41 318.29 232.41 318.29C232.41 310.69 232.41 287.89 232.41 280.29C232.41 279.72 232.85 279.29 233.41 279.29ZM232.41 374.29C232.41 369.79 232.41 333.72 232.41 329.22C232.75 329.26 233.08 329.29 233.41 329.29C234.95 329.29 247.21 329.29 248.75 329.29C249.58 329.29 250.41 329.19 251.25 329.06C252.25 332.72 260.28 362.09 261.28 365.76C262.01 368.56 262.41 371.39 262.41 374.29C262.41 382.56 255.68 389.29 247.41 389.29C239.11 389.29 232.41 382.56 232.41 374.29ZM252.41 269.29C252.41 268.29 252.41 263.29 252.41 254.29C253.91 254.29 265.91 254.29 267.41 254.29C267.41 270.29 267.41 280.29 267.41 284.29C267.41 275.99 260.68 269.29 252.41 269.29ZM410.25 242.96C411.38 243.86 417.11 248.46 427.41 256.69C427.41 258.38 427.41 271.93 427.41 273.62C416.78 264.76 410.11 259.19 407.48 256.99C407.68 252.19 408.61 247.46 410.25 242.96ZM457.35 256.99C456.01 258.09 449.38 263.62 437.41 273.62C437.41 271.93 437.41 258.38 437.41 256.69C446.55 249.36 452.28 244.79 454.58 242.96C456.18 247.46 457.11 252.19 457.35 256.99ZM455.91 271.19C454.25 277.76 451.28 283.89 447.21 289.29C446.58 289.29 443.31 289.29 437.41 289.29C437.41 289.11 437.41 288.22 437.41 286.62C448.92 277.02 455.09 271.88 455.91 271.19ZM437.41 243.89C437.41 242.92 437.41 238.05 437.41 229.29L427.41 229.29C427.41 238.05 427.41 242.92 427.41 243.89C419.75 237.76 415.51 234.36 414.65 233.69C419.18 226.32 425.25 220.02 432.41 215.26C439.58 220.06 445.65 226.32 450.15 233.69C449.31 234.36 445.05 237.76 437.41 243.89ZM297.41 189.29C297.41 187.29 297.41 171.29 297.41 169.29C297.41 166.52 299.65 164.29 302.41 164.29C310.41 164.29 374.41 164.29 382.41 164.29C385.18 164.29 387.41 166.52 387.41 169.29C387.41 171.29 387.41 187.29 387.41 189.29C387.41 192.06 385.18 194.29 382.41 194.29C380.41 194.29 364.41 194.29 362.41 194.29C360.95 194.29 359.61 193.56 358.78 192.36C358.35 191.69 354.78 186.36 354.35 185.66C349.95 179.09 341.05 177.29 334.45 181.69C332.88 182.76 331.51 184.09 330.48 185.66C330.01 186.36 326.48 191.69 326.01 192.36C325.21 193.56 323.85 194.29 322.41 194.29C318.41 194.29 306.41 194.29 302.41 194.29C299.65 194.29 297.41 192.06 297.41 189.29ZM368.95 138.52C370.11 143.99 371.95 149.29 374.45 154.29C368.21 154.29 349.51 154.29 343.28 154.29C352.35 149.89 360.95 144.59 368.95 138.52ZM397.41 170.62C402.18 173.39 403.81 179.49 401.08 184.29C400.65 185.02 400.08 185.72 399.48 186.36C398.85 186.96 398.15 187.49 397.41 187.92C397.41 186.19 397.41 172.36 397.41 170.62ZM401.91 146.89C400.05 133.19 393.08 120.72 382.45 111.92C385.48 110.19 388.91 109.29 392.41 109.29C403.45 109.29 412.41 118.26 412.41 129.29C412.41 136.62 408.38 143.39 401.91 146.89ZM392.41 154.29C392.41 154.66 392.41 157.72 392.41 158.12C390.61 156.52 388.48 155.36 386.15 154.76C382.15 148.36 379.45 141.26 378.21 133.79C378.15 133.26 377.41 128.99 377.35 128.46C376.88 125.76 374.31 123.89 371.58 124.36C370.68 124.49 369.85 124.89 369.15 125.49C353.51 138.86 335.15 148.69 315.35 154.29C314.08 154.29 303.71 154.29 302.41 154.29C298.71 154.29 295.15 155.66 292.41 158.12C292.41 157.72 292.41 154.66 292.41 154.29C292.45 129.46 312.58 109.32 337.41 109.29C337.41 109.29 346.41 109.29 347.41 109.29C372.25 109.32 392.38 129.46 392.41 154.29ZM287.41 187.92C284.31 186.16 282.41 182.86 282.41 179.29C282.41 175.72 284.31 172.42 287.41 170.62C287.41 172.36 287.41 186.22 287.41 187.92ZM334.35 197.89C334.78 197.22 338.35 191.89 338.78 191.22C340.11 189.22 342.81 188.69 344.81 190.02C345.28 190.32 345.71 190.76 346.01 191.22C346.48 191.89 350.01 197.22 350.48 197.89C353.11 201.89 357.61 204.29 362.41 204.29C364.28 204.29 379.25 204.29 381.15 204.29C375.61 225.69 353.78 238.52 332.41 232.99C318.31 229.36 307.31 218.36 303.68 204.29C307.41 204.29 320.55 204.29 322.41 204.29C327.21 204.29 331.68 201.89 334.35 197.89ZM327.41 259.29C327.41 257.56 327.41 243.72 327.41 241.99C337.18 245.06 347.65 245.06 357.41 241.99C357.41 243.72 357.41 257.56 357.41 259.29C357.41 261.42 358.78 263.36 360.81 264.02C361.51 264.26 364.88 265.39 370.95 267.39C370.16 269.52 366.24 280.15 359.18 299.29L325.61 299.29C318.57 280.15 314.66 269.52 313.88 267.39C319.28 265.59 322.65 264.49 323.98 264.02C326.05 263.36 327.41 261.42 327.41 259.29ZM329.31 309.29L355.51 309.29L342.41 344.82L329.31 309.29ZM310.95 307.82C312.88 305.86 312.88 302.69 310.95 300.76C310.78 300.59 310.58 300.42 310.41 300.29C309.35 299.49 304.05 295.52 294.55 288.39C295.3 287.45 299.04 282.76 305.78 274.32L329.85 339.66L304.48 314.29C308.5 310.27 310.66 308.11 310.95 307.82ZM373.41 307.29C373.55 307.46 373.71 307.66 373.88 307.82C374.31 308.26 376.45 310.39 380.35 314.29C378.66 315.98 370.2 324.44 354.98 339.66L379.05 274.32C385.79 282.76 389.53 287.45 390.28 288.39C381.81 294.72 376.51 298.69 374.41 300.29C372.21 301.92 371.75 305.09 373.41 307.29ZM427.41 290.16C425.15 290.96 423.15 292.26 421.51 293.99C415.45 287.59 411.11 279.72 408.91 271.19C411.38 273.26 417.55 278.39 427.41 286.62C427.41 288.72 427.41 289.92 427.41 290.16ZM422.41 374.29C422.41 371.66 422.95 369.06 423.98 366.66C424.75 364.86 430.95 350.42 431.71 348.62C433.11 349.06 434.58 349.29 436.08 349.29C437.61 349.29 449.88 349.29 451.41 349.29C451.75 349.29 452.08 349.26 452.41 349.22C452.41 351.72 452.41 371.79 452.41 374.29C452.38 382.56 445.68 389.26 437.41 389.29C429.11 389.29 422.41 382.56 422.41 374.29C422.41 374.29 422.41 374.29 422.41 374.29ZM451.41 339.29C451.41 339.29 451.41 339.29 451.41 339.29C449.88 339.29 437.61 339.29 436.08 339.29C433.58 339.26 431.48 337.46 431.11 334.99C430.75 332.42 427.81 311.86 427.45 309.29C427.41 309.06 427.41 308.82 427.41 308.59C427.41 308.16 427.41 304.72 427.41 304.29C427.41 301.52 429.65 299.29 432.41 299.29C434.31 299.29 449.51 299.29 451.41 299.29C451.95 299.29 452.41 299.72 452.41 300.29C452.41 300.29 452.41 300.29 452.41 300.29C452.41 307.89 452.41 330.69 452.41 338.29C452.41 338.82 451.95 339.29 451.41 339.29Z" id="knYPhpU3X"></path><path d="M435.05 205.02C433.41 204.02 431.38 204.02 429.78 205.02C418.28 212.12 409.28 221.69 403.78 232.69C399.58 240.96 397.41 250.06 397.41 259.29C397.41 260.72 397.45 262.19 397.58 263.66C394.56 262.86 370.43 256.49 367.41 255.69C367.41 244.82 367.41 238.79 367.41 237.59C380.85 229.82 389.95 216.22 391.98 200.82C392.55 200.32 393.11 199.82 393.61 199.26C404.61 198.59 413.01 189.12 412.38 178.09C411.98 171.39 408.21 165.32 402.41 161.99C402.41 161.56 402.41 158.02 402.41 157.56C418.01 152.06 426.21 134.92 420.71 119.32C415.21 103.69 398.08 95.49 382.45 100.99C379.25 102.12 376.25 103.79 373.61 105.92C365.55 101.56 356.55 99.29 347.41 99.29C346.41 99.29 338.41 99.29 337.41 99.29C307.05 99.32 282.45 123.92 282.41 154.29C282.41 155.06 282.41 161.22 282.41 161.99C272.85 167.49 269.58 179.72 275.08 189.29C278.45 195.09 284.51 198.86 291.21 199.26C291.71 199.82 292.25 200.32 292.85 200.82C294.88 216.22 303.95 229.82 317.41 237.59C317.41 238.79 317.41 244.82 317.41 255.69C313.41 256.7 281.41 264.81 277.41 265.82C277.41 233.39 277.41 215.39 277.41 211.79C277.41 202.12 269.58 194.29 259.91 194.29C250.25 194.29 242.41 202.12 242.41 211.79C242.41 215.62 242.41 234.79 242.41 269.29C237.01 269.29 234.01 269.29 233.41 269.29C227.35 269.29 222.41 274.22 222.41 280.29C222.41 289.69 222.41 364.89 222.41 374.29C222.45 388.09 233.68 399.22 247.48 399.19C260.85 399.16 271.78 388.62 272.38 375.29C273.25 373.12 280.25 355.69 281.11 353.49C282.51 357.96 284.65 362.19 287.41 365.96C287.41 368.19 287.41 379.29 287.41 399.29C288.41 399.29 296.41 399.29 297.41 399.29C297.41 378.29 297.41 366.62 297.41 364.29C297.41 363.16 297.01 362.06 296.31 361.16C289.35 352.36 287.18 340.72 290.51 330.02C290.61 329.76 291.11 328.46 292.05 326.12C286.55 323.72 283.51 322.39 282.88 322.12C282.21 323.56 281.65 325.02 281.15 326.49C280.35 328.49 276.31 338.52 269.11 356.56C263.78 336.96 260.81 326.06 260.21 323.89C262.01 321.76 263.18 319.16 263.58 316.39C263.68 315.62 264.58 309.39 264.68 308.62C272.25 306.52 277.45 299.62 277.41 291.79C277.41 290.72 277.41 285.49 277.41 276.06C279.14 275.68 292.92 272.64 294.65 272.26C287.95 280.59 284.25 285.22 283.51 286.16C281.78 288.32 282.11 291.46 284.28 293.19C284.31 293.22 284.38 293.26 284.41 293.29C285.45 294.06 290.55 297.89 299.78 304.82C296.25 308.39 294.28 310.36 293.88 310.76C291.91 312.69 291.91 315.86 293.88 317.82C293.88 317.82 293.88 317.82 293.88 317.82C296.78 320.72 311.28 335.22 337.41 361.36C337.41 363.89 337.41 376.53 337.41 399.29L347.41 399.29C347.41 376.53 347.41 363.89 347.41 361.36C373.51 335.22 388.05 320.72 390.95 317.82C392.88 315.86 392.88 312.69 390.95 310.76C390.95 310.76 390.95 310.76 390.95 310.76C390.55 310.36 388.58 308.39 385.01 304.82C394.25 297.89 399.38 294.06 400.41 293.29C402.61 291.62 403.08 288.49 401.41 286.29C401.38 286.26 401.35 286.19 401.31 286.16C400.58 285.22 396.85 280.59 390.18 272.26C395.71 273.46 398.78 274.16 399.38 274.29C402.35 285.42 408.51 295.66 417.41 304.06C417.41 304.12 417.41 304.22 417.41 304.29C417.41 304.72 417.41 308.16 417.41 308.56C417.41 309.29 421.21 336.39 421.21 336.39C421.55 338.52 422.31 340.59 423.48 342.39C423.01 343.49 420.71 348.89 416.55 358.62C408.81 339.36 404.55 328.66 403.68 326.49C403.18 325.02 402.58 323.56 401.91 322.12C401.31 322.39 398.25 323.72 392.78 326.12C393.68 328.46 394.21 329.76 394.31 330.02C397.65 340.72 395.48 352.36 388.51 361.16C387.78 362.06 387.41 363.16 387.41 364.29C387.41 366.62 387.41 378.29 387.41 399.29C388.41 399.29 396.41 399.29 397.41 399.29C397.41 379.29 397.41 368.19 397.41 365.96C400.18 362.19 402.28 357.96 403.71 353.49C404.58 355.69 411.55 373.12 412.45 375.29C413.05 389.09 424.71 399.79 438.51 399.16C451.85 398.56 462.35 387.62 462.41 374.29C462.41 366.89 462.41 307.69 462.41 300.29C462.41 296.79 460.71 293.49 457.88 291.42C469.35 273.82 470.55 251.42 461.05 232.69C455.51 221.69 446.55 212.12 435.05 205.02ZM252.41 244.29C252.41 234.26 252.41 228.69 252.41 227.59C257.15 229.86 262.65 229.86 267.41 227.59C267.41 229.82 267.41 235.39 267.41 244.29C264.41 244.29 253.91 244.29 252.41 244.29ZM259.91 219.29C255.78 219.29 252.41 215.92 252.41 211.79C252.41 207.66 255.78 204.29 259.91 204.29C264.05 204.29 267.41 207.66 267.41 211.79C267.41 215.92 264.05 219.29 259.91 219.29ZM233.41 279.29C233.41 279.29 233.41 279.29 233.41 279.29C235.31 279.29 250.51 279.29 252.41 279.29C255.18 279.29 257.41 281.52 257.41 284.29C257.41 284.72 257.41 288.16 257.41 288.56C257.41 288.82 257.38 289.06 257.35 289.29C256.98 291.86 254.05 312.42 253.68 314.99C253.31 317.46 251.21 319.26 248.75 319.29C247.21 319.29 234.95 319.29 233.41 319.29C232.85 319.29 232.41 318.82 232.41 318.29C232.41 318.29 232.41 318.29 232.41 318.29C232.41 310.69 232.41 287.89 232.41 280.29C232.41 279.72 232.85 279.29 233.41 279.29ZM232.41 374.29C232.41 369.79 232.41 333.72 232.41 329.22C232.75 329.26 233.08 329.29 233.41 329.29C234.95 329.29 247.21 329.29 248.75 329.29C249.58 329.29 250.41 329.19 251.25 329.06C252.25 332.72 260.28 362.09 261.28 365.76C262.01 368.56 262.41 371.39 262.41 374.29C262.41 382.56 255.68 389.29 247.41 389.29C239.11 389.29 232.41 382.56 232.41 374.29ZM252.41 269.29C252.41 268.29 252.41 263.29 252.41 254.29C253.91 254.29 265.91 254.29 267.41 254.29C267.41 270.29 267.41 280.29 267.41 284.29C267.41 275.99 260.68 269.29 252.41 269.29ZM410.25 242.96C411.38 243.86 417.11 248.46 427.41 256.69C427.41 258.38 427.41 271.93 427.41 273.62C416.78 264.76 410.11 259.19 407.48 256.99C407.68 252.19 408.61 247.46 410.25 242.96ZM457.35 256.99C456.01 258.09 449.38 263.62 437.41 273.62C437.41 271.93 437.41 258.38 437.41 256.69C446.55 249.36 452.28 244.79 454.58 242.96C456.18 247.46 457.11 252.19 457.35 256.99ZM455.91 271.19C454.25 277.76 451.28 283.89 447.21 289.29C446.58 289.29 443.31 289.29 437.41 289.29C437.41 289.11 437.41 288.22 437.41 286.62C448.92 277.02 455.09 271.88 455.91 271.19ZM437.41 243.89C437.41 242.92 437.41 238.05 437.41 229.29L427.41 229.29C427.41 238.05 427.41 242.92 427.41 243.89C419.75 237.76 415.51 234.36 414.65 233.69C419.18 226.32 425.25 220.02 432.41 215.26C439.58 220.06 445.65 226.32 450.15 233.69C449.31 234.36 445.05 237.76 437.41 243.89ZM297.41 189.29C297.41 187.29 297.41 171.29 297.41 169.29C297.41 166.52 299.65 164.29 302.41 164.29C310.41 164.29 374.41 164.29 382.41 164.29C385.18 164.29 387.41 166.52 387.41 169.29C387.41 171.29 387.41 187.29 387.41 189.29C387.41 192.06 385.18 194.29 382.41 194.29C380.41 194.29 364.41 194.29 362.41 194.29C360.95 194.29 359.61 193.56 358.78 192.36C358.35 191.69 354.78 186.36 354.35 185.66C349.95 179.09 341.05 177.29 334.45 181.69C332.88 182.76 331.51 184.09 330.48 185.66C330.01 186.36 326.48 191.69 326.01 192.36C325.21 193.56 323.85 194.29 322.41 194.29C318.41 194.29 306.41 194.29 302.41 194.29C299.65 194.29 297.41 192.06 297.41 189.29ZM368.95 138.52C370.11 143.99 371.95 149.29 374.45 154.29C368.21 154.29 349.51 154.29 343.28 154.29C352.35 149.89 360.95 144.59 368.95 138.52ZM397.41 170.62C402.18 173.39 403.81 179.49 401.08 184.29C400.65 185.02 400.08 185.72 399.48 186.36C398.85 186.96 398.15 187.49 397.41 187.92C397.41 186.19 397.41 172.36 397.41 170.62ZM401.91 146.89C400.05 133.19 393.08 120.72 382.45 111.92C385.48 110.19 388.91 109.29 392.41 109.29C403.45 109.29 412.41 118.26 412.41 129.29C412.41 136.62 408.38 143.39 401.91 146.89ZM392.41 154.29C392.41 154.66 392.41 157.72 392.41 158.12C390.61 156.52 388.48 155.36 386.15 154.76C382.15 148.36 379.45 141.26 378.21 133.79C378.15 133.26 377.41 128.99 377.35 128.46C376.88 125.76 374.31 123.89 371.58 124.36C370.68 124.49 369.85 124.89 369.15 125.49C353.51 138.86 335.15 148.69 315.35 154.29C314.08 154.29 303.71 154.29 302.41 154.29C298.71 154.29 295.15 155.66 292.41 158.12C292.41 157.72 292.41 154.66 292.41 154.29C292.45 129.46 312.58 109.32 337.41 109.29C337.41 109.29 346.41 109.29 347.41 109.29C372.25 109.32 392.38 129.46 392.41 154.29ZM287.41 187.92C284.31 186.16 282.41 182.86 282.41 179.29C282.41 175.72 284.31 172.42 287.41 170.62C287.41 172.36 287.41 186.22 287.41 187.92ZM334.35 197.89C334.78 197.22 338.35 191.89 338.78 191.22C340.11 189.22 342.81 188.69 344.81 190.02C345.28 190.32 345.71 190.76 346.01 191.22C346.48 191.89 350.01 197.22 350.48 197.89C353.11 201.89 357.61 204.29 362.41 204.29C364.28 204.29 379.25 204.29 381.15 204.29C375.61 225.69 353.78 238.52 332.41 232.99C318.31 229.36 307.31 218.36 303.68 204.29C307.41 204.29 320.55 204.29 322.41 204.29C327.21 204.29 331.68 201.89 334.35 197.89ZM327.41 259.29C327.41 257.56 327.41 243.72 327.41 241.99C337.18 245.06 347.65 245.06 357.41 241.99C357.41 243.72 357.41 257.56 357.41 259.29C357.41 261.42 358.78 263.36 360.81 264.02C361.51 264.26 364.88 265.39 370.95 267.39C370.16 269.52 366.24 280.15 359.18 299.29L325.61 299.29C318.57 280.15 314.66 269.52 313.88 267.39C319.28 265.59 322.65 264.49 323.98 264.02C326.05 263.36 327.41 261.42 327.41 259.29ZM329.31 309.29L355.51 309.29L342.41 344.82L329.31 309.29ZM310.95 307.82C312.88 305.86 312.88 302.69 310.95 300.76C310.78 300.59 310.58 300.42 310.41 300.29C309.35 299.49 304.05 295.52 294.55 288.39C295.3 287.45 299.04 282.76 305.78 274.32L329.85 339.66L304.48 314.29C308.5 310.27 310.66 308.11 310.95 307.82ZM373.41 307.29C373.55 307.46 373.71 307.66 373.88 307.82C374.31 308.26 376.45 310.39 380.35 314.29C378.66 315.98 370.2 324.44 354.98 339.66L379.05 274.32C385.79 282.76 389.53 287.45 390.28 288.39C381.81 294.72 376.51 298.69 374.41 300.29C372.21 301.92 371.75 305.09 373.41 307.29ZM427.41 290.16C425.15 290.96 423.15 292.26 421.51 293.99C415.45 287.59 411.11 279.72 408.91 271.19C411.38 273.26 417.55 278.39 427.41 286.62C427.41 288.72 427.41 289.92 427.41 290.16ZM422.41 374.29C422.41 371.66 422.95 369.06 423.98 366.66C424.75 364.86 430.95 350.42 431.71 348.62C433.11 349.06 434.58 349.29 436.08 349.29C437.61 349.29 449.88 349.29 451.41 349.29C451.75 349.29 452.08 349.26 452.41 349.22C452.41 351.72 452.41 371.79 452.41 374.29C452.38 382.56 445.68 389.26 437.41 389.29C429.11 389.29 422.41 382.56 422.41 374.29C422.41 374.29 422.41 374.29 422.41 374.29ZM451.41 339.29C451.41 339.29 451.41 339.29 451.41 339.29C449.88 339.29 437.61 339.29 436.08 339.29C433.58 339.26 431.48 337.46 431.11 334.99C430.75 332.42 427.81 311.86 427.45 309.29C427.41 309.06 427.41 308.82 427.41 308.59C427.41 308.16 427.41 304.72 427.41 304.29C427.41 301.52 429.65 299.29 432.41 299.29C434.31 299.29 449.51 299.29 451.41 299.29C451.95 299.29 452.41 299.72 452.41 300.29C452.41 300.29 452.41 300.29 452.41 300.29C452.41 307.89 452.41 330.69 452.41 338.29C452.41 338.82 451.95 339.29 451.41 339.29Z" id="b2JF4MWaq"></path></defs><g><g><use xlink:href="#h3DEToMvvy" opacity="1" fill="#ffffff" fill-opacity="1"></use><g><use xlink:href="#h3DEToMvvy" opacity="1" fill-opacity="0" stroke="#000000" stroke-width="1" stroke-opacity="0"></use></g></g><g><use xlink:href="#a2n0gfPyW" opacity="1" fill="#000000" fill-opacity="0"></use><g><use xlink:href="#a2n0gfPyW" opacity="1" fill-opacity="0" stroke="#003068" stroke-width="4" stroke-opacity="1"></use></g></g><g><use xlink:href="#b1U9keWskk" opacity="1" fill="#7a432a" fill-opacity="1"></use><g><use xlink:href="#b1U9keWskk" opacity="1" fill-opacity="0" stroke="#000000" stroke-width="1" stroke-opacity="0"></use></g></g><g><use xlink:href="#a1lmRwV51I" opacity="1" fill="#000000" fill-opacity="0"></use><g><use xlink:href="#a1lmRwV51I" opacity="1" fill-opacity="0" stroke="#000000" stroke-width="1" stroke-opacity="0"></use></g></g><g><use xlink:href="#b3vn2Cbqmv" opacity="1" fill="#fec9a3" fill-opacity="1"></use><g><use xlink:href="#b3vn2Cbqmv" opacity="1" fill-opacity="0" stroke="#000000" stroke-width="1" stroke-opacity="0"></use></g></g><g><use xlink:href="#aoMumySf" opacity="1" fill="#000000" fill-opacity="0"></use><g><use xlink:href="#aoMumySf" opacity="1" fill-opacity="0" stroke="#000000" stroke-width="1" stroke-opacity="0"></use></g></g><g><use xlink:href="#b18YGV4eQ2" opacity="1" fill="#feb784" fill-opacity="1"></use><g><use xlink:href="#b18YGV4eQ2" opacity="1" fill-opacity="0" stroke="#000000" stroke-width="1" stroke-opacity="0"></use></g></g><g><use xlink:href="#h1inghgFwV" opacity="1" fill="#000000" fill-opacity="0"></use><g><use xlink:href="#h1inghgFwV" opacity="1" fill-opacity="0" stroke="#000000" stroke-width="1" stroke-opacity="0"></use></g></g><g><use xlink:href="#e1dgDdigG" opacity="1" fill="#e0e0de" fill-opacity="1"></use><g><use xlink:href="#e1dgDdigG" opacity="1" fill-opacity="0" stroke="#000000" stroke-width="1" stroke-opacity="0"></use></g></g><g><use xlink:href="#azMcpt1Im" opacity="1" fill="#000000" fill-opacity="0"></use><g><use xlink:href="#azMcpt1Im" opacity="1" fill-opacity="0" stroke="#000000" stroke-width="1" stroke-opacity="0"></use></g></g><g><use xlink:href="#bHWJbXzYa" opacity="1" fill="#d6d6d4" fill-opacity="1"></use><g><use xlink:href="#bHWJbXzYa" opacity="1" fill-opacity="0" stroke="#000000" stroke-width="1" stroke-opacity="0"></use></g></g><g><use xlink:href="#f3txOQpFl" opacity="1" fill="#000000" fill-opacity="0"></use><g><use xlink:href="#f3txOQpFl" opacity="1" fill-opacity="0" stroke="#000000" stroke-width="1" stroke-opacity="0"></use></g></g><g><use xlink:href="#a1EeMutfP" opacity="1" fill="#7eb457" fill-opacity="1"></use><g><use xlink:href="#a1EeMutfP" opacity="1" fill-opacity="0" stroke="#000000" stroke-width="1" stroke-opacity="0"></use></g></g><g><use xlink:href="#j1pkRPuj6A" opacity="1" fill="#000000" fill-opacity="0"></use><g><use xlink:href="#j1pkRPuj6A" opacity="1" fill-opacity="0" stroke="#000000" stroke-width="1" stroke-opacity="0"></use></g></g><g><use xlink:href="#bSHjqIYdM" opacity="1" fill="#61311b" fill-opacity="1"></use><g><use xlink:href="#bSHjqIYdM" opacity="1" fill-opacity="0" stroke="#000000" stroke-width="1" stroke-opacity="0"></use></g></g><g><use xlink:href="#fdQoGp295" opacity="1" fill="#000000" fill-opacity="0"></use><g><use xlink:href="#fdQoGp295" opacity="1" fill-opacity="0" stroke="#000000" stroke-width="1" stroke-opacity="0"></use></g></g><g><use xlink:href="#bOEGZlNi5" opacity="1" fill="#feb784" fill-opacity="1"></use><g><use xlink:href="#bOEGZlNi5" opacity="1" fill-opacity="0" stroke="#000000" stroke-width="1" stroke-opacity="0"></use></g></g><g><use xlink:href="#aIe8V0KkS" opacity="1" fill="#000000" fill-opacity="0"></use><g><use xlink:href="#aIe8V0KkS" opacity="1" fill-opacity="0" stroke="#000000" stroke-width="1" stroke-opacity="0"></use></g></g><g><use xlink:href="#cul0YoCO" opacity="1" fill="#fec9a3" fill-opacity="1"></use><g><use xlink:href="#cul0YoCO" opacity="1" fill-opacity="0" stroke="#000000" stroke-width="1" stroke-opacity="0"></use></g></g><g><use xlink:href="#a1ZOtbsFFq" opacity="1" fill="#000000" fill-opacity="0"></use><g><use xlink:href="#a1ZOtbsFFq" opacity="1" fill-opacity="0" stroke="#000000" stroke-width="1" stroke-opacity="0"></use></g></g><g><use xlink:href="#bkOwPBtCj" opacity="1" fill="#7a432a" fill-opacity="1"></use><g><use xlink:href="#bkOwPBtCj" opacity="1" fill-opacity="0" stroke="#000000" stroke-width="1" stroke-opacity="0"></use></g></g><g><use xlink:href="#b1jiunak8C" opacity="1" fill="#000000" fill-opacity="0"></use><g><use xlink:href="#b1jiunak8C" opacity="1" fill-opacity="0" stroke="#000000" stroke-width="1" stroke-opacity="0"></use></g></g><g><use xlink:href="#d5JPlT0p2L" opacity="1" fill="#feb784" fill-opacity="1"></use><g><use xlink:href="#d5JPlT0p2L" opacity="1" fill-opacity="0" stroke="#000000" stroke-width="1" stroke-opacity="0"></use></g></g><g><use xlink:href="#b2bMsh94B" opacity="1" fill="#000000" fill-opacity="0"></use><g><use xlink:href="#b2bMsh94B" opacity="1" fill-opacity="0" stroke="#000000" stroke-width="1" stroke-opacity="0"></use></g></g><g><use xlink:href="#aFHf47U4G" opacity="1" fill="#ebebe9" fill-opacity="1"></use><g><use xlink:href="#aFHf47U4G" opacity="1" fill-opacity="0" stroke="#000000" stroke-width="1" stroke-opacity="0"></use></g></g><g><use xlink:href="#a1xVQleZyi" opacity="1" fill="#000000" fill-opacity="0"></use><g><use xlink:href="#a1xVQleZyi" opacity="1" fill-opacity="0" stroke="#000000" stroke-width="1" stroke-opacity="0"></use></g></g><g><use xlink:href="#d2VJ2WdokP" opacity="1" fill="#ebebe9" fill-opacity="1"></use><g><use xlink:href="#d2VJ2WdokP" opacity="1" fill-opacity="0" stroke="#000000" stroke-width="1" stroke-opacity="0"></use></g></g><g><use xlink:href="#a1vzYrv400" opacity="1" fill="#000000" fill-opacity="0"></use><g><use xlink:href="#a1vzYrv400" opacity="1" fill-opacity="0" stroke="#000000" stroke-width="1" stroke-opacity="0"></use></g></g><g><use xlink:href="#c1i6IcPTkB" opacity="1" fill="#4db7e5" fill-opacity="1"></use><g><use xlink:href="#c1i6IcPTkB" opacity="1" fill-opacity="0" stroke="#000000" stroke-width="1" stroke-opacity="0"></use></g></g><g><use xlink:href="#b8QDwhyA9V" opacity="1" fill="#000000" fill-opacity="0"></use><g><use xlink:href="#b8QDwhyA9V" opacity="1" fill-opacity="0" stroke="#000000" stroke-width="1" stroke-opacity="0"></use></g></g><g><use xlink:href="#e2Clqn0D8L" opacity="1" fill="#60d1e0" fill-opacity="1"></use><g><use xlink:href="#e2Clqn0D8L" opacity="1" fill-opacity="0" stroke="#000000" stroke-width="1" stroke-opacity="0"></use></g></g><g><use xlink:href="#f4nonjvFS" opacity="1" fill="#000000" fill-opacity="0"></use><g><use xlink:href="#f4nonjvFS" opacity="1" fill-opacity="0" stroke="#000000" stroke-width="1" stroke-opacity="0"></use></g></g><g><use xlink:href="#c3EpJECp1y" opacity="1" fill="#7eb457" fill-opacity="1"></use><g><use xlink:href="#c3EpJECp1y" opacity="1" fill-opacity="0" stroke="#000000" stroke-width="1" stroke-opacity="0"></use></g></g><g><use xlink:href="#badPp2esDj" opacity="1" fill="#000000" fill-opacity="0"></use><g><use xlink:href="#badPp2esDj" opacity="1" fill-opacity="0" stroke="#000000" stroke-width="1" stroke-opacity="0"></use></g></g><g><use xlink:href="#bbniuV23p" opacity="1" fill="#4eb9c7" fill-opacity="1"></use><g><use xlink:href="#bbniuV23p" opacity="1" fill-opacity="0" stroke="#000000" stroke-width="1" stroke-opacity="0"></use></g></g><g><use xlink:href="#f2eDDOGFO8" opacity="1" fill="#000000" fill-opacity="0"></use><g><use xlink:href="#f2eDDOGFO8" opacity="1" fill-opacity="0" stroke="#000000" stroke-width="1" stroke-opacity="0"></use></g></g><g><use xlink:href="#b2axUWTt4z" opacity="1" fill="#ebebe9" fill-opacity="1"></use><g><use xlink:href="#b2axUWTt4z" opacity="1" fill-opacity="0" stroke="#000000" stroke-width="1" stroke-opacity="0"></use></g></g><g><use xlink:href="#i1QNPIzM1c" opacity="1" fill="#000000" fill-opacity="0"></use><g><use xlink:href="#i1QNPIzM1c" opacity="1" fill-opacity="0" stroke="#000000" stroke-width="1" stroke-opacity="0"></use></g></g><g><use xlink:href="#a1rHDtelKj" opacity="1" fill="#fec9a3" fill-opacity="1"></use><g><use xlink:href="#a1rHDtelKj" opacity="1" fill-opacity="0" stroke="#000000" stroke-width="1" stroke-opacity="0"></use></g></g><g><use xlink:href="#h3WT1wbp7v" opacity="1" fill="#000000" fill-opacity="0"></use><g><use xlink:href="#h3WT1wbp7v" opacity="1" fill-opacity="0" stroke="#000000" stroke-width="1" stroke-opacity="0"></use></g></g><g><use xlink:href="#cRSJMP96D" opacity="1" fill="#69a340" fill-opacity="1"></use><g><use xlink:href="#cRSJMP96D" opacity="1" fill-opacity="0" stroke="#000000" stroke-width="1" stroke-opacity="0"></use></g></g><g><use xlink:href="#a16giXtMK" opacity="1" fill="#000000" fill-opacity="0"></use><g><use xlink:href="#a16giXtMK" opacity="1" fill-opacity="0" stroke="#000000" stroke-width="1" stroke-opacity="0"></use></g></g><g><use xlink:href="#a7bENiM3i" opacity="1" fill="#ebebe9" fill-opacity="1"></use><g><use xlink:href="#a7bENiM3i" opacity="1" fill-opacity="0" stroke="#000000" stroke-width="1" stroke-opacity="0"></use></g></g><g><use xlink:href="#dFL3aMody" opacity="1" fill="#000000" fill-opacity="0"></use><g><use xlink:href="#dFL3aMody" opacity="1" fill-opacity="0" stroke="#000000" stroke-width="1" stroke-opacity="0"></use></g></g><g><use xlink:href="#acgAST0dV" opacity="1" fill="#fec9a3" fill-opacity="1"></use><g><use xlink:href="#acgAST0dV" opacity="1" fill-opacity="0" stroke="#000000" stroke-width="1" stroke-opacity="0"></use></g></g><g><use xlink:href="#dD6EHy56" opacity="1" fill="#000000" fill-opacity="0"></use><g><use xlink:href="#dD6EHy56" opacity="1" fill-opacity="0" stroke="#000000" stroke-width="1" stroke-opacity="0"></use></g></g><g><use xlink:href="#a4s2eWiJXI" opacity="1" fill="#000000" fill-opacity="1"></use><g><use xlink:href="#a4s2eWiJXI" opacity="1" fill-opacity="0" stroke="#000000" stroke-width="1" stroke-opacity="0"></use></g></g><g><use xlink:href="#dBHk0mTMM" opacity="1" fill="#000000" fill-opacity="0"></use><g><use xlink:href="#dBHk0mTMM" opacity="1" fill-opacity="0" stroke="#000000" stroke-width="1" stroke-opacity="0"></use></g></g><g><use xlink:href="#a9mnRrbPS" opacity="1" fill="#000000" fill-opacity="1"></use><g><use xlink:href="#a9mnRrbPS" opacity="1" fill-opacity="0" stroke="#000000" stroke-width="1" stroke-opacity="0"></use></g></g><g><use xlink:href="#c16oAk4Nbq" opacity="1" fill="#000000" fill-opacity="0"></use><g><use xlink:href="#c16oAk4Nbq" opacity="1" fill-opacity="0" stroke="#000000" stroke-width="1" stroke-opacity="0"></use></g></g><g><use xlink:href="#a2nzuMWddM" opacity="1" fill="#000000" fill-opacity="1"></use><g><use xlink:href="#a2nzuMWddM" opacity="1" fill-opacity="0" stroke="#000000" stroke-width="1" stroke-opacity="0"></use></g></g><g><use xlink:href="#h2snLY5oi" opacity="1" fill="#000000" fill-opacity="0"></use><g><use xlink:href="#h2snLY5oi" opacity="1" fill-opacity="0" stroke="#000000" stroke-width="1" stroke-opacity="0"></use></g></g><g><use xlink:href="#cVBvCPoVN" opacity="1" fill="#000000" fill-opacity="1"></use><g><use xlink:href="#cVBvCPoVN" opacity="1" fill-opacity="0" stroke="#000000" stroke-width="1" stroke-opacity="0"></use></g></g><g><use xlink:href="#a1yIC5U7Ua" opacity="1" fill="#000000" fill-opacity="0"></use><g><use xlink:href="#a1yIC5U7Ua" opacity="1" fill-opacity="0" stroke="#000000" stroke-width="1" stroke-opacity="0"></use></g></g><g><use xlink:href="#knYPhpU3X" opacity="1" fill="#000000" fill-opacity="1"></use><g><use xlink:href="#knYPhpU3X" opacity="1" fill-opacity="0" stroke="#000000" stroke-width="1" stroke-opacity="0"></use></g></g><g><use xlink:href="#b2JF4MWaq" opacity="1" fill="#000000" fill-opacity="0"></use><g><use xlink:href="#b2JF4MWaq" opacity="1" fill-opacity="0" stroke="#000000" stroke-width="1" stroke-opacity="0"></use></g></g></g></svg>