<?xml version="1.0" encoding="UTF-8" standalone="no"?>
<!DOCTYPE svg PUBLIC "-//W3C//DTD SVG 1.1//EN" "http://www.w3.org/Graphics/SVG/1.1/DTD/svg11.dtd">
<svg version="1.1" xmlns="http://www.w3.org/2000/svg" xmlns:xlink="http://www.w3.org/1999/xlink" preserveAspectRatio="xMidYMid meet" viewBox="158.45999999999998 110.32999999999998 405.00000000000006 404.99999999999994" width="400" height="400"><defs><path d="M160.46 312.33C160.46 422.8 250.03 512.33 360.46 512.33C470.93 512.33 560.46 422.8 560.46 312.33C560.46 201.9 470.93 112.33 360.46 112.33C250.03 112.33 160.46 201.9 160.46 312.33Z" id="b11d7b9LY1"></path><path d="M160.46 312.33C160.46 422.8 250.03 512.33 360.46 512.33C470.93 512.33 560.46 422.8 560.46 312.33C560.46 201.9 470.93 112.33 360.46 112.33C250.03 112.33 160.46 201.9 160.46 312.33Z" id="cyYXcCaGS"></path><path d="M481.26 431.86C473.93 431.86 466.99 428.43 462.59 422.56C460.13 419.33 447.76 403.23 425.46 374.23C425.46 378.56 425.46 400.23 425.46 439.23L290.46 439.23L290.46 374.23L260.46 414.23C236.46 414.23 223.13 414.23 220.46 414.23C240.69 368.73 251.93 343.46 254.16 338.4C258.13 329.5 266.16 323.06 275.69 321.16C278.66 320.56 293.53 317.6 320.29 312.26C321.3 312.06 326.36 311.05 335.46 309.23L335.46 259.23L385.46 259.23L385.46 309.23L400.66 312.26C419.9 316.1 430.59 318.24 432.73 318.66C441.26 320.36 446.03 321.33 446.96 321.53C455.53 323.23 462.93 328.6 467.23 336.23C470.66 342.26 498.16 390.53 501.59 396.56C503.56 400.03 504.59 404 504.59 408C504.59 408.1 504.59 408.5 504.59 408.56C504.59 421.43 494.16 431.9 481.26 431.86Z" id="b1kYPZDMHy"></path><path d="M481.26 431.86C473.93 431.86 466.99 428.43 462.59 422.56C460.13 419.33 447.76 403.23 425.46 374.23C425.46 378.56 425.46 400.23 425.46 439.23L290.46 439.23L290.46 374.23L260.46 414.23C236.46 414.23 223.13 414.23 220.46 414.23C240.69 368.73 251.93 343.46 254.16 338.4C258.13 329.5 266.16 323.06 275.69 321.16C278.66 320.56 293.53 317.6 320.29 312.26C321.3 312.06 326.36 311.05 335.46 309.23L335.46 259.23L385.46 259.23L385.46 309.23L400.66 312.26C419.9 316.1 430.59 318.24 432.73 318.66C441.26 320.36 446.03 321.33 446.96 321.53C455.53 323.23 462.93 328.6 467.23 336.23C470.66 342.26 498.16 390.53 501.59 396.56C503.56 400.03 504.59 404 504.59 408C504.59 408.1 504.59 408.5 504.59 408.56C504.59 421.43 494.16 431.9 481.26 431.86Z" id="b1ltLsKg8r"></path><path d="M481.26 431.86C473.93 431.86 466.99 428.43 462.59 422.56C460.13 419.33 447.76 403.23 425.46 374.23C425.46 378.56 425.46 400.23 425.46 439.23L290.46 439.23L290.46 374.23L260.46 414.23C236.46 414.23 223.13 414.23 220.46 414.23C240.69 368.73 251.93 343.46 254.16 338.4C258.13 329.5 266.16 323.06 275.69 321.16C278.66 320.56 293.53 317.6 320.29 312.26C322.97 318.06 336.36 347.05 360.46 399.23L400.66 312.26C419.9 316.1 430.59 318.24 432.73 318.66C441.26 320.36 446.03 321.33 446.96 321.53C455.53 323.23 462.93 328.6 467.23 336.23C470.66 342.26 498.16 390.53 501.59 396.56C503.56 400.03 504.59 404 504.59 408C504.59 408 504.59 408.5 504.59 408.56C504.59 421.43 494.16 431.9 481.26 431.86Z" id="b13f9DTnjW"></path><path d="M481.26 431.86C473.93 431.86 466.99 428.43 462.59 422.56C460.13 419.33 447.76 403.23 425.46 374.23C425.46 378.56 425.46 400.23 425.46 439.23L290.46 439.23L290.46 374.23L260.46 414.23C236.46 414.23 223.13 414.23 220.46 414.23C240.69 368.73 251.93 343.46 254.16 338.4C258.13 329.5 266.16 323.06 275.69 321.16C278.66 320.56 293.53 317.6 320.29 312.26C322.97 318.06 336.36 347.05 360.46 399.23L400.66 312.26C419.9 316.1 430.59 318.24 432.73 318.66C441.26 320.36 446.03 321.33 446.96 321.53C455.53 323.23 462.93 328.6 467.23 336.23C470.66 342.26 498.16 390.53 501.59 396.56C503.56 400.03 504.59 404 504.59 408C504.59 408 504.59 408.5 504.59 408.56C504.59 421.43 494.16 431.9 481.26 431.86Z" id="d1vOWUbik"></path><path d="M335.46 259.2C335.46 272.66 335.46 280.13 335.46 281.63C350.59 291.73 370.33 291.73 385.46 281.63C385.46 278.63 385.46 271.16 385.46 259.2C375.46 259.2 340.46 259.2 335.46 259.2Z" id="bH92yhkHz"></path><path d="M335.46 259.2C335.46 272.66 335.46 280.13 335.46 281.63C350.59 291.73 370.33 291.73 385.46 281.63C385.46 278.63 385.46 271.16 385.46 259.2C375.46 259.2 340.46 259.2 335.46 259.2Z" id="h1bTHi0S7q"></path><path d="M395.46 329.2L395.46 399.2L325.46 399.2L325.46 329.2L395.46 329.2Z" id="bD6oPnSXg"></path><path d="M395.46 329.2L395.46 399.2L325.46 399.2L325.46 329.2L395.46 329.2Z" id="c8HWRX8hA"></path><path d="M481.26 431.86C473.93 431.86 466.99 428.43 462.59 422.53C460.13 419.33 447.76 403.23 425.46 374.23C425.46 378.56 425.46 400.23 425.46 439.23L290.46 439.23L290.46 374.23L260.46 414.23C236.46 414.23 223.13 414.23 220.46 414.23C240.69 368.73 251.93 343.46 254.16 338.4C258.13 329.5 266.16 323.06 275.69 321.16C278.66 320.56 293.53 317.6 320.29 312.26C322.97 318.06 336.36 347.05 360.46 399.23L400.66 312.26L432.73 318.66C433.25 318.76 433.54 318.82 433.59 318.83C441.63 320.43 446.06 321.33 446.96 321.53C455.53 323.23 462.93 328.6 467.23 336.23C470.66 342.26 498.16 390.53 501.59 396.56C503.56 400.03 504.59 404 504.59 408C504.59 408.1 504.59 408.5 504.59 408.53C504.59 421.43 494.16 431.86 481.26 431.86Z" id="e45hHj3oVT"></path><path d="M481.26 431.86C473.93 431.86 466.99 428.43 462.59 422.53C460.13 419.33 447.76 403.23 425.46 374.23C425.46 378.56 425.46 400.23 425.46 439.23L290.46 439.23L290.46 374.23L260.46 414.23C236.46 414.23 223.13 414.23 220.46 414.23C240.69 368.73 251.93 343.46 254.16 338.4C258.13 329.5 266.16 323.06 275.69 321.16C278.66 320.56 293.53 317.6 320.29 312.26C322.97 318.06 336.36 347.05 360.46 399.23L400.66 312.26L432.73 318.66C433.25 318.76 433.54 318.82 433.59 318.83C441.63 320.43 446.06 321.33 446.96 321.53C455.53 323.23 462.93 328.6 467.23 336.23C470.66 342.26 498.16 390.53 501.59 396.56C503.56 400.03 504.59 404 504.59 408C504.59 408.1 504.59 408.5 504.59 408.53C504.59 421.43 494.16 431.86 481.26 431.86Z" id="f5dijQtfcT"></path><path d="M481.26 431.86C473.93 431.86 466.99 428.43 462.59 422.53C460.13 419.33 447.76 403.23 425.46 374.23C425.46 380.73 425.46 432.73 425.46 439.23C368.19 439.23 336.39 439.23 330.03 439.23C364.49 419.33 410.16 382.4 433.59 318.83C434.93 319.1 445.63 321.26 446.96 321.53C455.53 323.23 462.93 328.6 467.23 336.23C470.66 342.26 498.16 390.53 501.59 396.56C503.56 400.03 504.59 404 504.59 408C504.59 408.1 504.59 408.5 504.59 408.53C504.59 421.43 494.16 431.86 481.26 431.86Z" id="bSSFHzF5I"></path><path d="M481.26 431.86C473.93 431.86 466.99 428.43 462.59 422.53C460.13 419.33 447.76 403.23 425.46 374.23C425.46 380.73 425.46 432.73 425.46 439.23C368.19 439.23 336.39 439.23 330.03 439.23C364.49 419.33 410.16 382.4 433.59 318.83C434.93 319.1 445.63 321.26 446.96 321.53C455.53 323.23 462.93 328.6 467.23 336.23C470.66 342.26 498.16 390.53 501.59 396.56C503.56 400.03 504.59 404 504.59 408C504.59 408.1 504.59 408.5 504.59 408.53C504.59 421.43 494.16 431.86 481.26 431.86Z" id="ff4JJN9Pa"></path><path d="M218.66 410.43C219.09 407.03 221.39 389.93 225.46 359.23C228.96 359.23 256.96 359.23 260.46 359.23C260.46 391.6 260.46 409.6 260.46 413.2C260.46 424.8 251.06 434.23 239.46 434.23C227.86 434.23 218.46 424.8 218.46 413.2C218.46 412.26 218.53 411.36 218.66 410.43Z" id="c1XF8Wg7zp"></path><path d="M218.66 410.43C219.09 407.03 221.39 389.93 225.46 359.23C228.96 359.23 256.96 359.23 260.46 359.23C260.46 391.6 260.46 409.6 260.46 413.2C260.46 424.8 251.06 434.23 239.46 434.23C227.86 434.23 218.46 424.8 218.46 413.2C218.46 412.26 218.53 411.36 218.66 410.43Z" id="b9eIgHsUK"></path><path d="M280.46 334.23C280.46 342.5 273.76 349.23 265.46 349.23C257.19 349.23 250.46 342.5 250.46 334.23C250.46 328.56 250.46 300.23 250.46 249.23C252.46 249.23 262.46 249.23 280.46 249.23C280.46 302.12 280.46 330.45 280.46 334.23Z" id="a1gxdZker"></path><path d="M280.46 334.23C280.46 342.5 273.76 349.23 265.46 349.23C257.19 349.23 250.46 342.5 250.46 334.23C250.46 328.56 250.46 300.23 250.46 249.23C252.46 249.23 262.46 249.23 280.46 249.23C280.46 302.12 280.46 330.45 280.46 334.23Z" id="a2EPV3Kn5"></path><path d="M280.46 334.23C280.46 342.5 273.76 349.23 265.46 349.23C257.19 349.23 250.46 342.5 250.46 334.23C250.46 331.9 250.46 320.23 250.46 299.23C252.46 299.23 262.46 299.23 280.46 299.23C280.46 321.01 280.46 332.67 280.46 334.23Z" id="axtKdyxin"></path><path d="M280.46 334.23C280.46 342.5 273.76 349.23 265.46 349.23C257.19 349.23 250.46 342.5 250.46 334.23C250.46 331.9 250.46 320.23 250.46 299.23C252.46 299.23 262.46 299.23 280.46 299.23C280.46 321.01 280.46 332.67 280.46 334.23Z" id="h15odmtAWi"></path><path d="M260.46 369.23C257.56 369.23 234.36 369.23 231.46 369.23C228.16 369.23 225.46 366.53 225.46 363.23C225.46 363.23 225.46 363.23 225.46 363.23C225.46 359.43 225.46 329.03 225.46 325.23C225.46 321.9 228.16 319.23 231.46 319.23C231.46 319.23 231.46 319.23 231.46 319.23C234.36 319.23 257.56 319.23 260.46 319.23C265.99 319.23 270.46 323.7 270.46 329.23C270.46 335.23 270.46 356.23 270.46 359.23C270.46 364.73 265.99 369.23 260.46 369.23Z" id="b9v4cFPeYb"></path><path d="M260.46 369.23C257.56 369.23 234.36 369.23 231.46 369.23C228.16 369.23 225.46 366.53 225.46 363.23C225.46 363.23 225.46 363.23 225.46 363.23C225.46 359.43 225.46 329.03 225.46 325.23C225.46 321.9 228.16 319.23 231.46 319.23C231.46 319.23 231.46 319.23 231.46 319.23C234.36 319.23 257.56 319.23 260.46 319.23C265.99 319.23 270.46 323.7 270.46 329.23C270.46 335.23 270.46 356.23 270.46 359.23C270.46 364.73 265.99 369.23 260.46 369.23Z" id="a4QcJclRm"></path><path d="M405.46 234.23C408.46 234.23 410.13 234.23 410.46 234.23C418.76 234.23 425.46 227.5 425.46 219.23C425.46 210.93 418.76 204.23 410.46 204.23C409.79 204.23 408.13 204.23 405.46 204.23C405.46 210.23 405.46 231.23 405.46 234.23Z" id="drEEUqD82"></path><path d="M405.46 234.23C408.46 234.23 410.13 234.23 410.46 234.23C418.76 234.23 425.46 227.5 425.46 219.23C425.46 210.93 418.76 204.23 410.46 204.23C409.79 204.23 408.13 204.23 405.46 204.23C405.46 210.23 405.46 231.23 405.46 234.23Z" id="baJFLBR7b"></path><path d="M310.46 204.23C302.19 204.23 295.49 210.93 295.46 219.23C295.49 227.5 302.19 234.2 310.46 234.23C310.79 234.23 312.46 234.23 315.46 234.23C315.46 232.23 315.46 222.23 315.46 204.23L310.73 204.23C310.57 204.23 310.48 204.23 310.46 204.23Z" id="b4Rvxh3ZG"></path><path d="M310.46 204.23C302.19 204.23 295.49 210.93 295.46 219.23C295.49 227.5 302.19 234.2 310.46 234.23C310.79 234.23 312.46 234.23 315.46 234.23C315.46 232.23 315.46 222.23 315.46 204.23L310.73 204.23C310.57 204.23 310.48 204.23 310.46 204.23Z" id="fgTszE3L9"></path><path d="M360.46 279.23C335.63 279.23 315.46 259.06 315.46 234.23C315.46 230.73 315.46 202.73 315.46 199.23C315.46 174.36 335.63 154.23 360.46 154.23C385.33 154.23 405.46 174.36 405.46 199.23C405.46 206.23 405.46 230.73 405.46 234.23C405.46 259.06 385.33 279.23 360.46 279.23Z" id="d6YU5sDQTL"></path><path d="M360.46 279.23C335.63 279.23 315.46 259.06 315.46 234.23C315.46 230.73 315.46 202.73 315.46 199.23C315.46 174.36 335.63 154.23 360.46 154.23C385.33 154.23 405.46 174.36 405.46 199.23C405.46 206.23 405.46 230.73 405.46 234.23C405.46 259.06 385.33 279.23 360.46 279.23Z" id="e55qiB9T2"></path><path d="M340.46 154.23C340.39 154.53 339.69 157.06 339.59 157.4C334.69 175.03 326.43 191.06 315.46 204.23C315.46 200.23 315.46 186.23 315.46 184.23C315.46 167.63 326.66 154.23 340.46 154.23Z" id="bsiYV8EBs"></path><path d="M340.46 154.23C340.39 154.53 339.69 157.06 339.59 157.4C334.69 175.03 326.43 191.06 315.46 204.23C315.46 200.23 315.46 186.23 315.46 184.23C315.46 167.63 326.66 154.23 340.46 154.23Z" id="a7cFJRWqr4"></path><path d="M360.36 279.23C357.03 279.2 353.73 278.83 350.46 278.1C370.96 273.43 385.46 255.23 385.46 234.23C385.46 228.73 385.46 184.73 385.46 179.23C385.49 172.2 383.86 165.26 380.69 159C395.89 166.66 405.46 182.2 405.46 199.23C405.46 206.23 405.46 230.73 405.46 234.23C405.46 259.1 385.26 279.23 360.36 279.23Z" id="b1jWCLfGd7"></path><path d="M360.36 279.23C357.03 279.2 353.73 278.83 350.46 278.1C370.96 273.43 385.46 255.23 385.46 234.23C385.46 228.73 385.46 184.73 385.46 179.23C385.49 172.2 383.86 165.26 380.69 159C395.89 166.66 405.46 182.2 405.46 199.23C405.46 206.23 405.46 230.73 405.46 234.23C405.46 259.1 385.26 279.23 360.36 279.23Z" id="c14UVcUq4y"></path><path d="M389.39 153.73C388.06 153.73 386.76 153.9 385.46 154.23C385.46 155.73 385.46 167.73 385.46 169.23C385.46 169.23 394.53 191.06 405.46 204.23C405.46 197.33 405.46 173.26 405.46 169.83C405.46 160.93 398.26 153.73 389.39 153.73Z" id="c1sDYWXM3v"></path><path d="M389.39 153.73C388.06 153.73 386.76 153.9 385.46 154.23C385.46 155.73 385.46 167.73 385.46 169.23C385.46 169.23 394.53 191.06 405.46 204.23C405.46 197.33 405.46 173.26 405.46 169.83C405.46 160.93 398.26 153.73 389.39 153.73Z" id="iA6YCxLTe"></path><path d="M315.46 169.23C315.46 163.1 317.73 157.16 321.83 152.6C322.13 152.23 322.46 151.86 322.79 151.53C327.49 146.86 333.86 144.23 340.46 144.23C342.56 144.23 359.26 144.23 361.33 144.23C370.39 144.23 379.06 147.8 385.46 154.23C385.46 156.23 385.46 161.23 385.46 169.23C343.46 169.23 320.13 169.23 315.46 169.23Z" id="d25BbKUVe2"></path><path d="M315.46 169.23C315.46 163.1 317.73 157.16 321.83 152.6C322.13 152.23 322.46 151.86 322.79 151.53C327.49 146.86 333.86 144.23 340.46 144.23C342.56 144.23 359.26 144.23 361.33 144.23C370.39 144.23 379.06 147.8 385.46 154.23C385.46 156.23 385.46 161.23 385.46 169.23C343.46 169.23 320.13 169.23 315.46 169.23Z" id="c67MUfqRCD"></path><path d="M435.69 404.23C424.53 404.23 415.46 395.16 415.46 384C415.46 380.86 416.19 377.76 417.63 374.93C418.29 373.56 421.76 366.66 427.96 354.23C429.13 351.9 434.96 340.23 445.46 319.23L445.46 269.23L475.46 269.23L475.46 319.23C485.96 340.23 491.79 351.9 492.96 354.23C499.19 366.66 502.66 373.56 503.33 374.93C504.73 377.76 505.46 380.86 505.46 384C505.46 395.16 496.43 404.23 485.26 404.23C480.29 404.23 440.66 404.23 435.69 404.23Z" id="g1miEYpF8F"></path><path d="M435.69 404.23C424.53 404.23 415.46 395.16 415.46 384C415.46 380.86 416.19 377.76 417.63 374.93C418.29 373.56 421.76 366.66 427.96 354.23C429.13 351.9 434.96 340.23 445.46 319.23L445.46 269.23L475.46 269.23L475.46 319.23C485.96 340.23 491.79 351.9 492.96 354.23C499.19 366.66 502.66 373.56 503.33 374.93C504.73 377.76 505.46 380.86 505.46 384C505.46 395.16 496.43 404.23 485.26 404.23C480.29 404.23 440.66 404.23 435.69 404.23Z" id="b29eRQIWPM"></path><path d="M435.69 404.23C424.53 404.23 415.46 395.16 415.46 384C415.46 380.86 416.19 377.76 417.63 374.93C418.29 373.56 421.76 366.66 427.96 354.23C434.46 354.23 486.46 354.23 492.96 354.23C499.19 366.66 502.66 373.56 503.33 374.93C504.73 377.76 505.46 380.86 505.46 384C505.46 395.16 496.43 404.23 485.26 404.23C480.29 404.23 440.66 404.23 435.69 404.23Z" id="a3vyfA0sXl"></path><path d="M435.69 404.23C424.53 404.23 415.46 395.16 415.46 384C415.46 380.86 416.19 377.76 417.63 374.93C418.29 373.56 421.76 366.66 427.96 354.23C434.46 354.23 486.46 354.23 492.96 354.23C499.19 366.66 502.66 373.56 503.33 374.93C504.73 377.76 505.46 380.86 505.46 384C505.46 395.16 496.43 404.23 485.26 404.23C480.29 404.23 440.66 404.23 435.69 404.23Z" id="atfIcB905"></path><path d="M320.29 312.26L339.46 353.73L360.46 329.23L335.46 299.23L320.29 312.26Z" id="kMunx2aD"></path><path d="M320.29 312.26L339.46 353.73L360.46 329.23L335.46 299.23L320.29 312.26Z" id="a3PhGgP05y"></path><path d="M400.66 312.26L381.49 353.73L360.46 329.23L385.46 299.23L400.66 312.26Z" id="aplpdZftM"></path><path d="M400.66 312.26L381.49 353.73L360.46 329.23L385.46 299.23L400.66 312.26Z" id="bhwVAqfY1"></path><path d="M350.46 340.9L350.46 377.56L360.46 399.23L370.46 377.56L370.46 340.9L360.46 329.23L350.46 340.9Z" id="e8oe3CK2bA"></path><path d="M350.46 340.9L350.46 377.56L360.46 399.23L370.46 377.56L370.46 340.9L360.46 329.23L350.46 340.9Z" id="ambH9oQ6W"></path><path d="M305.46 354.23L320.46 354.23L315.46 374.23L360.46 399.23L320.29 312.26L305.46 354.23Z" id="a34bXeOTU"></path><path d="M305.46 354.23L320.46 354.23L315.46 374.23L360.46 399.23L320.29 312.26L305.46 354.23Z" id="bPUkTOBds"></path><path d="M415.46 354.23L400.46 354.23L405.46 374.23L360.46 399.23L400.66 312.26L415.46 354.23Z" id="bdAL7rvVY"></path><path d="M415.46 354.23L400.46 354.23L405.46 374.23L360.46 399.23L400.66 312.26L415.46 354.23Z" id="b1SpGeGnRX"></path><path d="M400.46 234.23C398.46 234.23 382.46 234.23 380.46 234.23C377.36 234.23 374.43 232.66 372.69 230.06C372.26 229.4 368.69 224.03 368.26 223.36C365.39 219.1 359.59 217.93 355.29 220.76C354.26 221.46 353.39 222.36 352.69 223.36C352.26 224.03 348.69 229.4 348.26 230.06C346.53 232.66 343.59 234.23 340.46 234.23C338.46 234.23 322.46 234.23 320.46 234.23C314.96 234.23 310.46 229.73 310.46 224.23C310.46 221.73 310.46 201.73 310.46 199.23C310.46 193.7 314.96 189.23 320.46 189.23C328.46 189.23 392.46 189.23 400.46 189.23C405.99 189.23 410.46 193.7 410.46 199.23C410.46 204.23 410.46 221.73 410.46 224.23C410.46 229.73 405.99 234.23 400.46 234.23Z" id="a6rjLyirS"></path><path d="M400.46 234.23C398.46 234.23 382.46 234.23 380.46 234.23C377.36 234.23 374.43 232.66 372.69 230.06C372.26 229.4 368.69 224.03 368.26 223.36C365.39 219.1 359.59 217.93 355.29 220.76C354.26 221.46 353.39 222.36 352.69 223.36C352.26 224.03 348.69 229.4 348.26 230.06C346.53 232.66 343.59 234.23 340.46 234.23C338.46 234.23 322.46 234.23 320.46 234.23C314.96 234.23 310.46 229.73 310.46 224.23C310.46 221.73 310.46 201.73 310.46 199.23C310.46 193.7 314.96 189.23 320.46 189.23C328.46 189.23 392.46 189.23 400.46 189.23C405.99 189.23 410.46 193.7 410.46 199.23C410.46 204.23 410.46 221.73 410.46 224.23C410.46 229.73 405.99 234.23 400.46 234.23Z" id="ba92jrlx3"></path><path d="M400.46 234.23C398.46 234.23 382.46 234.23 380.46 234.23C377.36 234.23 374.43 232.66 372.69 230.06C372.26 229.4 368.69 224.03 368.26 223.36C366.99 221.5 365.09 220.13 362.93 219.53C364.86 217.53 374.63 207.4 392.16 189.23C397.16 189.23 399.93 189.23 400.46 189.23C405.99 189.23 410.46 193.7 410.46 199.23C410.46 204.23 410.46 221.73 410.46 224.23C410.46 229.73 405.99 234.23 400.46 234.23Z" id="aourSy1K7"></path><path d="M400.46 234.23C398.46 234.23 382.46 234.23 380.46 234.23C377.36 234.23 374.43 232.66 372.69 230.06C372.26 229.4 368.69 224.03 368.26 223.36C366.99 221.5 365.09 220.13 362.93 219.53C364.86 217.53 374.63 207.4 392.16 189.23C397.16 189.23 399.93 189.23 400.46 189.23C405.99 189.23 410.46 193.7 410.46 199.23C410.46 204.23 410.46 221.73 410.46 224.23C410.46 229.73 405.99 234.23 400.46 234.23Z" id="b3Oq6MyW2"></path><path d="M477.96 354.23C484.19 366.66 487.66 373.56 488.33 374.93C493.33 384.93 489.29 397.1 479.29 402.06C476.49 403.5 473.39 404.23 470.26 404.23C471.76 404.23 483.76 404.23 485.26 404.23C496.43 404.23 505.46 395.16 505.46 384C505.46 380.86 504.73 377.76 503.33 374.93C501.96 372.2 498.49 365.26 492.96 354.23C489.96 354.23 479.46 354.23 477.96 354.23Z" id="f4ymoU9AD"></path><path d="M477.96 354.23C484.19 366.66 487.66 373.56 488.33 374.93C493.33 384.93 489.29 397.1 479.29 402.06C476.49 403.5 473.39 404.23 470.26 404.23C471.76 404.23 483.76 404.23 485.26 404.23C496.43 404.23 505.46 395.16 505.46 384C505.46 380.86 504.73 377.76 503.33 374.93C501.96 372.2 498.49 365.26 492.96 354.23C489.96 354.23 479.46 354.23 477.96 354.23Z" id="b2TCk23nNQ"></path><path d="M475.46 269.23L460.46 269.23L460.46 319.23L477.96 354.23L492.96 354.23L475.46 319.23L475.46 269.23Z" id="b2e0xmqhKU"></path><path d="M475.46 269.23L460.46 269.23L460.46 319.23L477.96 354.23L492.96 354.23L475.46 319.23L475.46 269.23Z" id="a5oCY7seoe"></path><path d="M482.63 434.23C477.23 434.2 471.96 432.3 467.86 428.8C467.63 428.6 466.56 427.66 464.59 426.03C452.46 415.7 445.73 410 444.39 408.83C440.56 405.9 439.39 400.66 441.56 396.36C442.66 394.2 451.49 377 452.59 374.83C455.29 369.7 461.66 367.73 466.83 370.43C467.53 370.8 468.16 371.23 468.76 371.76C470.03 372.83 476.29 378.2 487.53 387.9C489.33 380.86 490.33 376.96 490.53 376.16C491.66 372.1 495.83 369.73 499.89 370.83C500.29 370.93 500.66 371.06 501.03 371.23C502.36 371.8 503.46 372.76 504.26 373.96C505.06 375.16 505.46 376.53 505.46 377.96C505.46 384.66 505.46 408.03 505.46 411.36C505.46 424 495.26 434.23 482.63 434.23Z" id="a9bbqcDvS"></path><path d="M482.63 434.23C477.23 434.2 471.96 432.3 467.86 428.8C467.63 428.6 466.56 427.66 464.59 426.03C452.46 415.7 445.73 410 444.39 408.83C440.56 405.9 439.39 400.66 441.56 396.36C442.66 394.2 451.49 377 452.59 374.83C455.29 369.7 461.66 367.73 466.83 370.43C467.53 370.8 468.16 371.23 468.76 371.76C470.03 372.83 476.29 378.2 487.53 387.9C489.33 380.86 490.33 376.96 490.53 376.16C491.66 372.1 495.83 369.73 499.89 370.83C500.29 370.93 500.66 371.06 501.03 371.23C502.36 371.8 503.46 372.76 504.26 373.96C505.06 375.16 505.46 376.53 505.46 377.96C505.46 384.66 505.46 408.03 505.46 411.36C505.46 424 495.26 434.23 482.63 434.23Z" id="a75i6Vc5Uz"></path><path d="M482.63 434.23C477.23 434.2 471.96 432.3 467.86 428.8C467.53 428.5 464.93 426.3 464.59 426.03C480.69 412.6 494.49 396.66 505.46 378.8C505.46 385.33 505.46 408.13 505.46 411.36C505.46 424 495.26 434.23 482.63 434.23Z" id="a5Mf3LkzI4"></path><path d="M482.63 434.23C477.23 434.2 471.96 432.3 467.86 428.8C467.53 428.5 464.93 426.3 464.59 426.03C480.69 412.6 494.49 396.66 505.46 378.8C505.46 385.33 505.46 408.13 505.46 411.36C505.46 424 495.26 434.23 482.63 434.23Z" id="c1w8nDuQ7"></path><path d="M260.46 369.23C258.96 369.23 246.96 369.23 245.46 369.23C250.99 369.23 255.46 364.73 255.46 359.23C255.46 356.23 255.46 332.23 255.46 329.23C255.46 323.7 250.99 319.23 245.46 319.23C246.96 319.23 258.96 319.23 260.46 319.23C265.99 319.23 270.46 323.7 270.46 329.23C270.46 335.23 270.46 356.23 270.46 359.23C270.46 364.73 265.99 369.23 260.46 369.23Z" id="a5Mg0s9n1Z"></path><path d="M260.46 369.23C258.96 369.23 246.96 369.23 245.46 369.23C250.99 369.23 255.46 364.73 255.46 359.23C255.46 356.23 255.46 332.23 255.46 329.23C255.46 323.7 250.99 319.23 245.46 319.23C246.96 319.23 258.96 319.23 260.46 319.23C265.99 319.23 270.46 323.7 270.46 329.23C270.46 335.23 270.46 356.23 270.46 359.23C270.46 364.73 265.99 369.23 260.46 369.23Z" id="c8T1ICtoM"></path><path d="M345.46 409.23L345.46 419.23L335.46 419.23L335.46 409.23L345.46 409.23Z" id="akdobpBPY"></path><path d="M345.46 409.23L345.46 419.23L335.46 419.23L335.46 409.23L345.46 409.23Z" id="f4kkPTBh73"></path><path d="M356.06 244.23C355.36 244.23 351.83 244.23 345.46 244.23C345.46 245.23 345.46 253.23 345.46 254.23C351.83 254.23 355.36 254.23 356.06 254.23C363.13 254.23 370.16 253.2 376.93 251.16C376.36 249.23 374.33 242.53 374.03 241.6C368.19 243.33 362.16 244.23 356.06 244.23Z" id="d6N5EijDP"></path><path d="M356.06 244.23C355.36 244.23 351.83 244.23 345.46 244.23C345.46 245.23 345.46 253.23 345.46 254.23C351.83 254.23 355.36 254.23 356.06 254.23C363.13 254.23 370.16 253.2 376.93 251.16C376.36 249.23 374.33 242.53 374.03 241.6C368.19 243.33 362.16 244.23 356.06 244.23Z" id="euCNg0sbJ"></path><path d="M225.46 214.23C217.19 214.23 210.46 220.93 210.46 229.23C210.49 237.5 217.19 244.2 225.46 244.23C233.76 244.23 240.46 237.5 240.46 229.23C240.46 220.93 233.76 214.23 225.46 214.23ZM225.46 234.23C222.73 234.23 220.46 231.96 220.46 229.23C220.49 226.46 222.73 224.23 225.46 224.23C228.23 224.23 230.46 226.46 230.46 229.23C230.46 231.96 228.23 234.23 225.46 234.23Z" id="d3qzxzXXcR"></path><path d="M225.46 214.23C217.19 214.23 210.46 220.93 210.46 229.23C210.49 237.5 217.19 244.2 225.46 244.23C233.76 244.23 240.46 237.5 240.46 229.23C240.46 220.93 233.76 214.23 225.46 214.23ZM225.46 234.23C222.73 234.23 220.46 231.96 220.46 229.23C220.49 226.46 222.73 224.23 225.46 224.23C228.23 224.23 230.46 226.46 230.46 229.23C230.46 231.96 228.23 234.23 225.46 234.23Z" id="a1bmNHn2Yb"></path><path d="M270.46 214.23L270.46 204.23L280.46 204.23L280.46 194.23L270.46 194.23L270.46 184.23L260.46 184.23L260.46 194.23L250.46 194.23L250.46 204.23L260.46 204.23L260.46 214.23L270.46 214.23Z" id="aV3Vf7Fti"></path><path d="M270.46 214.23L270.46 204.23L280.46 204.23L280.46 194.23L270.46 194.23L270.46 184.23L260.46 184.23L260.46 194.23L250.46 194.23L250.46 204.23L260.46 204.23L260.46 214.23L270.46 214.23Z" id="ajI849pjE"></path><path d="M332.96 219.23C337.13 219.23 340.46 215.86 340.46 211.73C340.46 207.56 337.13 204.23 332.96 204.23C328.83 204.23 325.46 207.56 325.46 211.73C325.46 215.86 328.83 219.23 332.96 219.23Z" id="a1dD5Ennoe"></path><path d="M332.96 219.23C337.13 219.23 340.46 215.86 340.46 211.73C340.46 207.56 337.13 204.23 332.96 204.23C328.83 204.23 325.46 207.56 325.46 211.73C325.46 215.86 328.83 219.23 332.96 219.23Z" id="i2o5EvyEaB"></path><path d="M387.96 204.23C383.83 204.23 380.46 207.56 380.46 211.73C380.49 215.86 383.83 219.2 387.96 219.23C392.13 219.23 395.46 215.86 395.46 211.73C395.46 207.56 392.13 204.23 387.96 204.23Z" id="a64y6AS9Q"></path><path d="M387.96 204.23C383.83 204.23 380.46 207.56 380.46 211.73C380.49 215.86 383.83 219.2 387.96 219.23C392.13 219.23 395.46 215.86 395.46 211.73C395.46 207.56 392.13 204.23 387.96 204.23Z" id="bsHbffneK"></path><path d="M480.46 318.03C480.46 288.73 480.46 272.46 480.46 269.23C480.46 266.46 478.23 264.23 475.46 264.23C472.46 264.23 448.46 264.23 445.46 264.23C442.73 264.23 440.46 266.46 440.46 269.23C440.46 272.26 440.46 287.56 440.46 315.13C437.96 314.63 425.45 312.12 402.93 307.6C395.45 301.2 391.29 297.64 390.46 296.93C390.46 283.3 390.46 275.73 390.46 274.2C401.66 265.83 408.83 253.13 410.23 239.23C410.26 239.23 410.46 239.23 410.46 239.23C421.53 239.23 430.49 230.26 430.49 219.23C430.49 210.1 424.33 202.13 415.46 199.86C415.46 199.8 415.46 199.26 415.46 199.23C415.46 194.96 413.66 190.9 410.46 188.06C410.46 186.23 410.46 171.66 410.46 169.83C410.46 158.16 401.03 148.73 389.39 148.73C388.59 148.73 387.83 148.8 387.06 148.86C379.93 142.63 370.79 139.2 361.33 139.23C359.26 139.23 342.56 139.23 340.46 139.23C323.93 139.23 310.49 152.66 310.46 169.23C310.46 170.6 311.06 171.93 312.09 172.9C311.03 176.56 310.46 180.4 310.46 184.23C310.46 184.6 310.46 187.66 310.46 188.06C307.29 190.9 305.46 194.96 305.46 199.23C305.46 199.26 305.46 199.8 305.46 199.86C294.79 202.63 288.36 213.53 291.13 224.23C293.43 233.06 301.36 239.2 310.46 239.23C310.49 239.23 310.69 239.23 310.73 239.23C312.13 253.13 319.29 265.83 330.46 274.2C330.46 275.73 330.46 283.3 330.46 296.93C329.63 297.64 325.49 301.2 318.03 307.6C298.49 311.52 287.63 313.69 285.46 314.13C285.46 275.16 285.46 253.53 285.46 249.23C285.46 246.46 283.23 244.23 280.46 244.23C277.46 244.23 253.46 244.23 250.46 244.23C247.73 244.23 245.46 246.46 245.46 249.23C245.46 253.56 245.46 275.23 245.46 314.23C237.06 314.23 232.39 314.23 231.46 314.23C225.39 314.23 220.49 319.13 220.46 325.23C220.46 327.46 220.46 338.7 220.46 358.9C216.39 389.43 214.13 406.4 213.69 409.76C211.83 424.03 221.86 437.06 236.13 438.93C250.36 440.8 263.39 430.73 265.26 416.5C265.29 416.36 265.29 416.23 265.33 416.1C266.66 414.3 273.39 405.36 285.46 389.23C285.46 392.56 285.46 409.23 285.46 439.23C291.46 439.23 294.79 439.23 295.46 439.23C295.46 400.23 295.46 378.56 295.46 374.23C295.46 371.46 293.23 369.23 290.46 369.23C288.89 369.23 287.43 369.96 286.46 371.23C285.06 373.1 278.06 382.43 265.46 399.23C265.46 383.7 265.46 375.06 265.46 373.36C271.46 371.23 275.46 365.56 275.46 359.23C275.46 358.43 275.46 352.3 275.46 351.53C281.66 347.93 285.46 341.36 285.46 334.23C285.46 333.56 285.46 330.26 285.46 324.33C288.18 323.78 309.94 319.41 312.66 318.86C305.53 339.1 301.56 350.3 300.76 352.56C299.83 355.16 301.19 358 303.79 358.93C304.36 359.13 304.89 359.23 305.46 359.23C306.06 359.23 308.93 359.23 314.06 359.23C311.99 367.5 310.86 372.1 310.63 373C310.06 375.2 311.06 377.5 313.06 378.6C315.86 380.16 330.03 388.03 355.46 402.16C355.46 404.63 355.46 416.99 355.46 439.23L365.46 439.23C365.46 416.99 365.46 404.63 365.46 402.16C390.93 388.03 405.06 380.16 407.89 378.6C409.89 377.5 410.86 375.2 410.33 373C410.09 372.1 408.96 367.5 406.89 359.23C412.03 359.23 414.89 359.23 415.46 359.23C418.23 359.23 420.46 356.96 420.46 354.23C420.46 353.66 420.39 353.1 420.19 352.56C419.39 350.3 415.43 339.1 408.29 318.86C411.18 319.44 434.27 324.08 437.16 324.66C428.96 341.03 424.43 350.13 423.53 351.96C423.53 351.96 423.49 351.96 423.49 352C422.46 354.06 414.19 370.63 413.13 372.7C407.69 383.56 410.79 396.76 420.46 404.1C420.46 406.43 420.46 418.13 420.46 439.23C421.46 439.23 429.46 439.23 430.46 439.23C430.46 420.9 430.46 410.7 430.46 408.66C432.19 409.03 433.93 409.2 435.69 409.23C435.93 409.23 437.79 409.23 438.03 409.23C438.89 410.53 439.96 411.73 441.23 412.73C443.56 414.7 462.26 430.6 464.63 432.6C476.33 442.53 493.89 441.13 503.86 429.4C508.13 424.36 510.46 418 510.46 411.36C510.46 408.03 510.46 381.3 510.46 377.96C510.46 374.06 508.63 370.43 505.49 368.1C505.49 368.1 502.83 362.73 497.46 351.96C494.06 345.18 482.16 321.42 480.46 318.03ZM470.46 274.23C470.46 301.23 470.46 316.23 470.46 319.23C470.46 320 470.66 320.76 470.99 321.46C471.93 323.3 476.56 332.56 484.89 349.23C480.01 349.23 440.94 349.23 436.06 349.23C443.86 333.66 448.16 325 449.03 323.26C449.03 323.26 450.46 320 450.46 319.23C450.46 313.23 450.46 298.23 450.46 274.23C454.46 274.23 468.46 274.23 470.46 274.23ZM380.46 297.4C379.13 299 372.46 307 360.46 321.4C348.46 307 341.79 299 340.46 297.4C340.46 287 340.46 281.2 340.46 280.03C346.79 282.8 353.59 284.23 360.46 284.23C367.36 284.23 374.16 282.8 380.46 280.03C380.46 281.2 380.46 287 380.46 297.4ZM355.46 376.46L355.46 342.73L360.46 336.9L365.46 342.73L365.46 376.46L360.46 387.3L355.46 376.46ZM367.03 329.16L386.06 306.33L394.53 313.6L380.23 344.56L367.03 329.16ZM340.73 344.56L326.43 313.6L334.89 306.33L353.93 329.16L340.73 344.56ZM320.46 194.23C328.46 194.23 392.46 194.23 400.46 194.23C403.23 194.23 405.46 196.46 405.46 199.23C405.46 201.73 405.46 221.73 405.46 224.23C405.46 226.96 403.23 229.2 400.46 229.23C398.46 229.23 382.46 229.23 380.46 229.23C379.03 229.23 377.66 228.5 376.86 227.3C376.43 226.6 372.86 221.26 372.39 220.6C368.03 214 359.09 212.23 352.53 216.63C350.93 217.66 349.59 219.03 348.53 220.6C348.09 221.26 344.53 226.6 344.09 227.3C343.29 228.5 341.93 229.23 340.46 229.23C338.46 229.23 322.46 229.23 320.46 229.23C317.73 229.2 315.49 226.96 315.46 224.23C315.46 219.23 315.46 201.73 315.46 199.23C315.49 196.46 317.73 194.23 320.46 194.23ZM386.99 184.23C381.73 184.23 339.76 184.23 334.53 184.23C335.53 182.23 338.56 175.53 339.09 174.23C347.73 174.23 377.89 174.23 382.19 174.23C383.26 176.6 384.89 180.13 386.99 184.23ZM414.96 228.16C415.29 226.86 415.46 225.53 415.46 224.23C415.46 222.86 415.46 211.93 415.46 210.56C418.56 212.36 420.46 215.66 420.46 219.23C420.49 221.86 419.43 224.4 417.56 226.3C416.79 227.03 415.89 227.66 414.96 228.16ZM398.29 184.23C394.36 177.03 391.46 170.5 390.46 168.2C390.46 167.26 390.46 159.73 390.46 158.8C396.16 159.36 400.46 164.13 400.46 169.83C400.46 171.73 400.46 176.53 400.46 184.23C399.16 184.23 398.46 184.23 398.29 184.23ZM372.89 164.23C365.69 155.23 361.69 150.23 360.89 149.23C361.16 149.23 361.29 149.23 361.33 149.23C368.36 149.2 375.19 151.73 380.46 156.4C380.46 157.43 380.46 160.03 380.46 164.23C379.45 164.23 376.93 164.23 372.89 164.23ZM360.06 164.23C352.56 164.23 348.39 164.23 347.56 164.23C339.26 155.93 334.66 151.3 333.73 150.4C335.89 149.6 338.16 149.23 340.46 149.23C341.49 149.23 344.03 149.23 348.06 149.23C349.66 151.23 353.66 156.23 360.06 164.23ZM321.09 164.23C321.89 161.23 323.33 158.46 325.33 156.16C326.43 157.23 329.09 159.93 333.39 164.23C326.03 164.23 321.93 164.23 321.09 164.23ZM323.19 184.23C322.89 184.23 320.76 184.23 320.46 184.23C320.46 180.8 321.03 177.43 322.16 174.23C322.16 174.23 327.63 174.23 328.23 174.23C326.73 177.6 325.03 180.93 323.19 184.23ZM305.46 224.23C305.46 225.53 305.66 226.86 305.99 228.13C305.06 227.66 304.16 227.03 303.43 226.26C301.53 224.4 300.46 221.86 300.46 219.23C300.49 215.66 302.39 212.36 305.46 210.56C305.46 211.93 305.46 222.86 305.46 224.23ZM352.39 232.83C352.86 232.16 356.43 226.83 356.86 226.16C358.19 224.16 360.89 223.63 362.89 224.93C363.36 225.26 363.76 225.66 364.09 226.16C364.53 226.83 368.09 232.16 368.53 232.83C371.19 236.83 375.69 239.23 380.46 239.23C382.43 239.23 398.19 239.23 400.16 239.23C397.39 261.13 377.39 276.66 355.49 273.9C337.36 271.63 323.06 257.36 320.79 239.23C324.73 239.23 338.49 239.23 340.46 239.23C345.26 239.23 349.76 236.83 352.39 232.83ZM275.46 294.23L255.46 294.23L255.46 254.23L275.46 254.23L275.46 294.23ZM223.49 412.43C223.49 411.96 223.53 411.53 223.59 411.1C224.09 407.36 228.06 377.53 228.56 373.83C229.49 374.06 255.46 374.23 255.46 374.23C255.46 378.13 255.46 409.3 255.46 413.2C255.46 413.46 255.46 413.7 255.46 413.96C255.03 422.8 247.53 429.63 238.69 429.2C229.86 428.76 223.06 421.26 223.49 412.43ZM260.46 364.23C257.56 364.23 234.36 364.23 231.46 364.23C230.93 364.23 230.46 363.76 230.46 363.23C230.46 363.23 230.46 363.23 230.46 363.23C230.46 359.43 230.46 329.03 230.46 325.23C230.46 324.66 230.93 324.23 231.46 324.23C231.46 324.23 231.46 324.23 231.46 324.23C234.36 324.23 257.56 324.23 260.46 324.23C263.23 324.23 265.46 326.46 265.46 329.23C265.46 335.23 265.46 353.23 265.46 359.23C265.46 361.96 263.23 364.2 260.46 364.23ZM260.46 314.23C260.13 314.23 258.46 314.23 255.46 314.23C255.46 313.56 255.46 310.23 255.46 304.23C267.46 304.23 274.13 304.23 275.46 304.23C275.46 317.56 275.46 325.9 275.46 329.23C275.46 320.93 268.76 314.23 260.46 314.23ZM312.53 349.23C313.09 347.65 315.89 339.75 320.93 325.53L349.49 387.4C332.55 377.98 323.14 372.74 321.26 371.7C323.69 361.93 325.06 356.5 325.33 355.43C325.69 353.93 325.36 352.36 324.43 351.13C323.46 349.93 322.03 349.23 320.46 349.23C319.96 349.23 317.29 349.23 312.53 349.23ZM395.46 354.23C395.46 354.63 395.53 355.03 395.63 355.43C395.89 356.5 397.26 361.93 399.69 371.7C397.81 372.74 388.39 377.98 371.43 387.4L400.03 325.53C405.05 339.75 407.84 347.65 408.39 349.23C404.16 349.23 401.53 349.23 400.46 349.23C397.73 349.23 395.46 351.46 395.46 354.23ZM435.59 399.2C427.19 399.16 420.43 392.3 420.46 383.9C420.49 381.56 421.03 379.26 422.09 377.2C422.69 376 425.69 370 431.06 359.23C436.94 359.23 484.01 359.23 489.89 359.23C492.03 363.5 493.23 365.9 493.46 366.36C493.09 366.5 492.69 366.66 492.36 366.83C489.03 368.43 486.63 371.4 485.69 374.93C485.63 375.2 485.29 376.5 484.69 378.86C477.09 372.33 472.89 368.7 472.03 367.96C468.43 364.83 463.56 363.56 458.89 364.5C454.26 365.4 450.29 368.36 448.13 372.56C445.93 376.86 439.33 389.76 437.13 394.06C436.29 395.66 435.79 397.43 435.59 399.2ZM482.63 429.23C478.39 429.23 474.33 427.7 471.09 424.96C468.73 422.96 449.96 407.03 447.63 405.03C447.56 405 447.53 404.93 447.46 404.9C445.53 403.43 444.93 400.8 446.03 398.63C447.13 396.5 455.93 379.26 457.03 377.13C457.79 375.66 459.19 374.63 460.79 374.33C461.16 374.26 461.56 374.23 461.93 374.23C463.23 374.2 464.53 374.7 465.53 375.53C467.39 377.16 482.39 390.06 484.29 391.7C486.36 393.5 489.53 393.23 491.33 391.16C491.83 390.56 492.19 389.86 492.39 389.13C492.69 387.96 495.09 378.6 495.39 377.4C495.56 376.73 496.06 376.13 496.69 375.83C497.43 375.5 498.26 375.46 498.99 375.8C499.89 376.16 500.46 377.03 500.46 377.96C500.46 384.66 500.46 404.7 500.46 411.36C500.46 421.23 492.49 429.23 482.63 429.23Z" id="a15jHf4O2W"></path><path d="M480.46 318.03C480.46 288.73 480.46 272.46 480.46 269.23C480.46 266.46 478.23 264.23 475.46 264.23C472.46 264.23 448.46 264.23 445.46 264.23C442.73 264.23 440.46 266.46 440.46 269.23C440.46 272.26 440.46 287.56 440.46 315.13C437.96 314.63 425.45 312.12 402.93 307.6C395.45 301.2 391.29 297.64 390.46 296.93C390.46 283.3 390.46 275.73 390.46 274.2C401.66 265.83 408.83 253.13 410.23 239.23C410.26 239.23 410.46 239.23 410.46 239.23C421.53 239.23 430.49 230.26 430.49 219.23C430.49 210.1 424.33 202.13 415.46 199.86C415.46 199.8 415.46 199.26 415.46 199.23C415.46 194.96 413.66 190.9 410.46 188.06C410.46 186.23 410.46 171.66 410.46 169.83C410.46 158.16 401.03 148.73 389.39 148.73C388.59 148.73 387.83 148.8 387.06 148.86C379.93 142.63 370.79 139.2 361.33 139.23C359.26 139.23 342.56 139.23 340.46 139.23C323.93 139.23 310.49 152.66 310.46 169.23C310.46 170.6 311.06 171.93 312.09 172.9C311.03 176.56 310.46 180.4 310.46 184.23C310.46 184.6 310.46 187.66 310.46 188.06C307.29 190.9 305.46 194.96 305.46 199.23C305.46 199.26 305.46 199.8 305.46 199.86C294.79 202.63 288.36 213.53 291.13 224.23C293.43 233.06 301.36 239.2 310.46 239.23C310.49 239.23 310.69 239.23 310.73 239.23C312.13 253.13 319.29 265.83 330.46 274.2C330.46 275.73 330.46 283.3 330.46 296.93C329.63 297.64 325.49 301.2 318.03 307.6C298.49 311.52 287.63 313.69 285.46 314.13C285.46 275.16 285.46 253.53 285.46 249.23C285.46 246.46 283.23 244.23 280.46 244.23C277.46 244.23 253.46 244.23 250.46 244.23C247.73 244.23 245.46 246.46 245.46 249.23C245.46 253.56 245.46 275.23 245.46 314.23C237.06 314.23 232.39 314.23 231.46 314.23C225.39 314.23 220.49 319.13 220.46 325.23C220.46 327.46 220.46 338.7 220.46 358.9C216.39 389.43 214.13 406.4 213.69 409.76C211.83 424.03 221.86 437.06 236.13 438.93C250.36 440.8 263.39 430.73 265.26 416.5C265.29 416.36 265.29 416.23 265.33 416.1C266.66 414.3 273.39 405.36 285.46 389.23C285.46 392.56 285.46 409.23 285.46 439.23C291.46 439.23 294.79 439.23 295.46 439.23C295.46 400.23 295.46 378.56 295.46 374.23C295.46 371.46 293.23 369.23 290.46 369.23C288.89 369.23 287.43 369.96 286.46 371.23C285.06 373.1 278.06 382.43 265.46 399.23C265.46 383.7 265.46 375.06 265.46 373.36C271.46 371.23 275.46 365.56 275.46 359.23C275.46 358.43 275.46 352.3 275.46 351.53C281.66 347.93 285.46 341.36 285.46 334.23C285.46 333.56 285.46 330.26 285.46 324.33C288.18 323.78 309.94 319.41 312.66 318.86C305.53 339.1 301.56 350.3 300.76 352.56C299.83 355.16 301.19 358 303.79 358.93C304.36 359.13 304.89 359.23 305.46 359.23C306.06 359.23 308.93 359.23 314.06 359.23C311.99 367.5 310.86 372.1 310.63 373C310.06 375.2 311.06 377.5 313.06 378.6C315.86 380.16 330.03 388.03 355.46 402.16C355.46 404.63 355.46 416.99 355.46 439.23L365.46 439.23C365.46 416.99 365.46 404.63 365.46 402.16C390.93 388.03 405.06 380.16 407.89 378.6C409.89 377.5 410.86 375.2 410.33 373C410.09 372.1 408.96 367.5 406.89 359.23C412.03 359.23 414.89 359.23 415.46 359.23C418.23 359.23 420.46 356.96 420.46 354.23C420.46 353.66 420.39 353.1 420.19 352.56C419.39 350.3 415.43 339.1 408.29 318.86C411.18 319.44 434.27 324.08 437.16 324.66C428.96 341.03 424.43 350.13 423.53 351.96C423.53 351.96 423.49 351.96 423.49 352C422.46 354.06 414.19 370.63 413.13 372.7C407.69 383.56 410.79 396.76 420.46 404.1C420.46 406.43 420.46 418.13 420.46 439.23C421.46 439.23 429.46 439.23 430.46 439.23C430.46 420.9 430.46 410.7 430.46 408.66C432.19 409.03 433.93 409.2 435.69 409.23C435.93 409.23 437.79 409.23 438.03 409.23C438.89 410.53 439.96 411.73 441.23 412.73C443.56 414.7 462.26 430.6 464.63 432.6C476.33 442.53 493.89 441.13 503.86 429.4C508.13 424.36 510.46 418 510.46 411.36C510.46 408.03 510.46 381.3 510.46 377.96C510.46 374.06 508.63 370.43 505.49 368.1C505.49 368.1 502.83 362.73 497.46 351.96C494.06 345.18 482.16 321.42 480.46 318.03ZM470.46 274.23C470.46 301.23 470.46 316.23 470.46 319.23C470.46 320 470.66 320.76 470.99 321.46C471.93 323.3 476.56 332.56 484.89 349.23C480.01 349.23 440.94 349.23 436.06 349.23C443.86 333.66 448.16 325 449.03 323.26C449.03 323.26 450.46 320 450.46 319.23C450.46 313.23 450.46 298.23 450.46 274.23C454.46 274.23 468.46 274.23 470.46 274.23ZM380.46 297.4C379.13 299 372.46 307 360.46 321.4C348.46 307 341.79 299 340.46 297.4C340.46 287 340.46 281.2 340.46 280.03C346.79 282.8 353.59 284.23 360.46 284.23C367.36 284.23 374.16 282.8 380.46 280.03C380.46 281.2 380.46 287 380.46 297.4ZM355.46 376.46L355.46 342.73L360.46 336.9L365.46 342.73L365.46 376.46L360.46 387.3L355.46 376.46ZM367.03 329.16L386.06 306.33L394.53 313.6L380.23 344.56L367.03 329.16ZM340.73 344.56L326.43 313.6L334.89 306.33L353.93 329.16L340.73 344.56ZM320.46 194.23C328.46 194.23 392.46 194.23 400.46 194.23C403.23 194.23 405.46 196.46 405.46 199.23C405.46 201.73 405.46 221.73 405.46 224.23C405.46 226.96 403.23 229.2 400.46 229.23C398.46 229.23 382.46 229.23 380.46 229.23C379.03 229.23 377.66 228.5 376.86 227.3C376.43 226.6 372.86 221.26 372.39 220.6C368.03 214 359.09 212.23 352.53 216.63C350.93 217.66 349.59 219.03 348.53 220.6C348.09 221.26 344.53 226.6 344.09 227.3C343.29 228.5 341.93 229.23 340.46 229.23C338.46 229.23 322.46 229.23 320.46 229.23C317.73 229.2 315.49 226.96 315.46 224.23C315.46 219.23 315.46 201.73 315.46 199.23C315.49 196.46 317.73 194.23 320.46 194.23ZM386.99 184.23C381.73 184.23 339.76 184.23 334.53 184.23C335.53 182.23 338.56 175.53 339.09 174.23C347.73 174.23 377.89 174.23 382.19 174.23C383.26 176.6 384.89 180.13 386.99 184.23ZM414.96 228.16C415.29 226.86 415.46 225.53 415.46 224.23C415.46 222.86 415.46 211.93 415.46 210.56C418.56 212.36 420.46 215.66 420.46 219.23C420.49 221.86 419.43 224.4 417.56 226.3C416.79 227.03 415.89 227.66 414.96 228.16ZM398.29 184.23C394.36 177.03 391.46 170.5 390.46 168.2C390.46 167.26 390.46 159.73 390.46 158.8C396.16 159.36 400.46 164.13 400.46 169.83C400.46 171.73 400.46 176.53 400.46 184.23C399.16 184.23 398.46 184.23 398.29 184.23ZM372.89 164.23C365.69 155.23 361.69 150.23 360.89 149.23C361.16 149.23 361.29 149.23 361.33 149.23C368.36 149.2 375.19 151.73 380.46 156.4C380.46 157.43 380.46 160.03 380.46 164.23C379.45 164.23 376.93 164.23 372.89 164.23ZM360.06 164.23C352.56 164.23 348.39 164.23 347.56 164.23C339.26 155.93 334.66 151.3 333.73 150.4C335.89 149.6 338.16 149.23 340.46 149.23C341.49 149.23 344.03 149.23 348.06 149.23C349.66 151.23 353.66 156.23 360.06 164.23ZM321.09 164.23C321.89 161.23 323.33 158.46 325.33 156.16C326.43 157.23 329.09 159.93 333.39 164.23C326.03 164.23 321.93 164.23 321.09 164.23ZM323.19 184.23C322.89 184.23 320.76 184.23 320.46 184.23C320.46 180.8 321.03 177.43 322.16 174.23C322.16 174.23 327.63 174.23 328.23 174.23C326.73 177.6 325.03 180.93 323.19 184.23ZM305.46 224.23C305.46 225.53 305.66 226.86 305.99 228.13C305.06 227.66 304.16 227.03 303.43 226.26C301.53 224.4 300.46 221.86 300.46 219.23C300.49 215.66 302.39 212.36 305.46 210.56C305.46 211.93 305.46 222.86 305.46 224.23ZM352.39 232.83C352.86 232.16 356.43 226.83 356.86 226.16C358.19 224.16 360.89 223.63 362.89 224.93C363.36 225.26 363.76 225.66 364.09 226.16C364.53 226.83 368.09 232.16 368.53 232.83C371.19 236.83 375.69 239.23 380.46 239.23C382.43 239.23 398.19 239.23 400.16 239.23C397.39 261.13 377.39 276.66 355.49 273.9C337.36 271.63 323.06 257.36 320.79 239.23C324.73 239.23 338.49 239.23 340.46 239.23C345.26 239.23 349.76 236.83 352.39 232.83ZM275.46 294.23L255.46 294.23L255.46 254.23L275.46 254.23L275.46 294.23ZM223.49 412.43C223.49 411.96 223.53 411.53 223.59 411.1C224.09 407.36 228.06 377.53 228.56 373.83C229.49 374.06 255.46 374.23 255.46 374.23C255.46 378.13 255.46 409.3 255.46 413.2C255.46 413.46 255.46 413.7 255.46 413.96C255.03 422.8 247.53 429.63 238.69 429.2C229.86 428.76 223.06 421.26 223.49 412.43ZM260.46 364.23C257.56 364.23 234.36 364.23 231.46 364.23C230.93 364.23 230.46 363.76 230.46 363.23C230.46 363.23 230.46 363.23 230.46 363.23C230.46 359.43 230.46 329.03 230.46 325.23C230.46 324.66 230.93 324.23 231.46 324.23C231.46 324.23 231.46 324.23 231.46 324.23C234.36 324.23 257.56 324.23 260.46 324.23C263.23 324.23 265.46 326.46 265.46 329.23C265.46 335.23 265.46 353.23 265.46 359.23C265.46 361.96 263.23 364.2 260.46 364.23ZM260.46 314.23C260.13 314.23 258.46 314.23 255.46 314.23C255.46 313.56 255.46 310.23 255.46 304.23C267.46 304.23 274.13 304.23 275.46 304.23C275.46 317.56 275.46 325.9 275.46 329.23C275.46 320.93 268.76 314.23 260.46 314.23ZM312.53 349.23C313.09 347.65 315.89 339.75 320.93 325.53L349.49 387.4C332.55 377.98 323.14 372.74 321.26 371.7C323.69 361.93 325.06 356.5 325.33 355.43C325.69 353.93 325.36 352.36 324.43 351.13C323.46 349.93 322.03 349.23 320.46 349.23C319.96 349.23 317.29 349.23 312.53 349.23ZM395.46 354.23C395.46 354.63 395.53 355.03 395.63 355.43C395.89 356.5 397.26 361.93 399.69 371.7C397.81 372.74 388.39 377.98 371.43 387.4L400.03 325.53C405.05 339.75 407.84 347.65 408.39 349.23C404.16 349.23 401.53 349.23 400.46 349.23C397.73 349.23 395.46 351.46 395.46 354.23ZM435.59 399.2C427.19 399.16 420.43 392.3 420.46 383.9C420.49 381.56 421.03 379.26 422.09 377.2C422.69 376 425.69 370 431.06 359.23C436.94 359.23 484.01 359.23 489.89 359.23C492.03 363.5 493.23 365.9 493.46 366.36C493.09 366.5 492.69 366.66 492.36 366.83C489.03 368.43 486.63 371.4 485.69 374.93C485.63 375.2 485.29 376.5 484.69 378.86C477.09 372.33 472.89 368.7 472.03 367.96C468.43 364.83 463.56 363.56 458.89 364.5C454.26 365.4 450.29 368.36 448.13 372.56C445.93 376.86 439.33 389.76 437.13 394.06C436.29 395.66 435.79 397.43 435.59 399.2ZM482.63 429.23C478.39 429.23 474.33 427.7 471.09 424.96C468.73 422.96 449.96 407.03 447.63 405.03C447.56 405 447.53 404.93 447.46 404.9C445.53 403.43 444.93 400.8 446.03 398.63C447.13 396.5 455.93 379.26 457.03 377.13C457.79 375.66 459.19 374.63 460.79 374.33C461.16 374.26 461.56 374.23 461.93 374.23C463.23 374.2 464.53 374.7 465.53 375.53C467.39 377.16 482.39 390.06 484.29 391.7C486.36 393.5 489.53 393.23 491.33 391.16C491.83 390.56 492.19 389.86 492.39 389.13C492.69 387.96 495.09 378.6 495.39 377.4C495.56 376.73 496.06 376.13 496.69 375.83C497.43 375.5 498.26 375.46 498.99 375.8C499.89 376.16 500.46 377.03 500.46 377.96C500.46 384.66 500.46 404.7 500.46 411.36C500.46 421.23 492.49 429.23 482.63 429.23Z" id="anAYG39db"></path></defs><g><g><use xlink:href="#b11d7b9LY1" opacity="1" fill="#ffffff" fill-opacity="1"></use><g><use xlink:href="#b11d7b9LY1" opacity="1" fill-opacity="0" stroke="#000000" stroke-width="1" stroke-opacity="0"></use></g></g><g><use xlink:href="#cyYXcCaGS" opacity="1" fill="#000000" fill-opacity="0"></use><g><use xlink:href="#cyYXcCaGS" opacity="1" fill-opacity="0" stroke="#003068" stroke-width="4" stroke-opacity="1"></use></g></g><g><use xlink:href="#b1kYPZDMHy" opacity="1" fill="#7a432a" fill-opacity="1"></use><g><use xlink:href="#b1kYPZDMHy" opacity="1" fill-opacity="0" stroke="#000000" stroke-width="1" stroke-opacity="0"></use></g></g><g><use xlink:href="#b1ltLsKg8r" opacity="1" fill="#000000" fill-opacity="0"></use><g><use xlink:href="#b1ltLsKg8r" opacity="1" fill-opacity="0" stroke="#000000" stroke-width="1" stroke-opacity="0"></use></g></g><g><use xlink:href="#b13f9DTnjW" opacity="1" fill="#348fd9" fill-opacity="1"></use><g><use xlink:href="#b13f9DTnjW" opacity="1" fill-opacity="0" stroke="#000000" stroke-width="1" stroke-opacity="0"></use></g></g><g><use xlink:href="#d1vOWUbik" opacity="1" fill="#000000" fill-opacity="0"></use><g><use xlink:href="#d1vOWUbik" opacity="1" fill-opacity="0" stroke="#000000" stroke-width="1" stroke-opacity="0"></use></g></g><g><use xlink:href="#bH92yhkHz" opacity="1" fill="#7a432a" fill-opacity="1"></use><g><use xlink:href="#bH92yhkHz" opacity="1" fill-opacity="0" stroke="#000000" stroke-width="1" stroke-opacity="0"></use></g></g><g><use xlink:href="#h1bTHi0S7q" opacity="1" fill="#000000" fill-opacity="0"></use><g><use xlink:href="#h1bTHi0S7q" opacity="1" fill-opacity="0" stroke="#000000" stroke-width="1" stroke-opacity="0"></use></g></g><g><use xlink:href="#bD6oPnSXg" opacity="1" fill="#348fd9" fill-opacity="1"></use><g><use xlink:href="#bD6oPnSXg" opacity="1" fill-opacity="0" stroke="#000000" stroke-width="1" stroke-opacity="0"></use></g></g><g><use xlink:href="#c8HWRX8hA" opacity="1" fill="#000000" fill-opacity="0"></use><g><use xlink:href="#c8HWRX8hA" opacity="1" fill-opacity="0" stroke="#000000" stroke-width="1" stroke-opacity="0"></use></g></g><g><use xlink:href="#e45hHj3oVT" opacity="1" fill="#e0e0de" fill-opacity="1"></use><g><use xlink:href="#e45hHj3oVT" opacity="1" fill-opacity="0" stroke="#000000" stroke-width="1" stroke-opacity="0"></use></g></g><g><use xlink:href="#f5dijQtfcT" opacity="1" fill="#000000" fill-opacity="0"></use><g><use xlink:href="#f5dijQtfcT" opacity="1" fill-opacity="0" stroke="#000000" stroke-width="1" stroke-opacity="0"></use></g></g><g><use xlink:href="#bSSFHzF5I" opacity="1" fill="#d6d6d4" fill-opacity="1"></use><g><use xlink:href="#bSSFHzF5I" opacity="1" fill-opacity="0" stroke="#000000" stroke-width="1" stroke-opacity="0"></use></g></g><g><use xlink:href="#ff4JJN9Pa" opacity="1" fill="#000000" fill-opacity="0"></use><g><use xlink:href="#ff4JJN9Pa" opacity="1" fill-opacity="0" stroke="#000000" stroke-width="1" stroke-opacity="0"></use></g></g><g><use xlink:href="#c1XF8Wg7zp" opacity="1" fill="#ebebe9" fill-opacity="1"></use><g><use xlink:href="#c1XF8Wg7zp" opacity="1" fill-opacity="0" stroke="#000000" stroke-width="1" stroke-opacity="0"></use></g></g><g><use xlink:href="#b9eIgHsUK" opacity="1" fill="#000000" fill-opacity="0"></use><g><use xlink:href="#b9eIgHsUK" opacity="1" fill-opacity="0" stroke="#000000" stroke-width="1" stroke-opacity="0"></use></g></g><g><use xlink:href="#a1gxdZker" opacity="1" fill="#4db7e5" fill-opacity="1"></use><g><use xlink:href="#a1gxdZker" opacity="1" fill-opacity="0" stroke="#000000" stroke-width="1" stroke-opacity="0"></use></g></g><g><use xlink:href="#a2EPV3Kn5" opacity="1" fill="#000000" fill-opacity="0"></use><g><use xlink:href="#a2EPV3Kn5" opacity="1" fill-opacity="0" stroke="#000000" stroke-width="1" stroke-opacity="0"></use></g></g><g><use xlink:href="#axtKdyxin" opacity="1" fill="#ffb531" fill-opacity="1"></use><g><use xlink:href="#axtKdyxin" opacity="1" fill-opacity="0" stroke="#000000" stroke-width="1" stroke-opacity="0"></use></g></g><g><use xlink:href="#h15odmtAWi" opacity="1" fill="#000000" fill-opacity="0"></use><g><use xlink:href="#h15odmtAWi" opacity="1" fill-opacity="0" stroke="#000000" stroke-width="1" stroke-opacity="0"></use></g></g><g><use xlink:href="#b9v4cFPeYb" opacity="1" fill="#7a432a" fill-opacity="1"></use><g><use xlink:href="#b9v4cFPeYb" opacity="1" fill-opacity="0" stroke="#000000" stroke-width="1" stroke-opacity="0"></use></g></g><g><use xlink:href="#a4QcJclRm" opacity="1" fill="#000000" fill-opacity="0"></use><g><use xlink:href="#a4QcJclRm" opacity="1" fill-opacity="0" stroke="#000000" stroke-width="1" stroke-opacity="0"></use></g></g><g><use xlink:href="#drEEUqD82" opacity="1" fill="#7a432a" fill-opacity="1"></use><g><use xlink:href="#drEEUqD82" opacity="1" fill-opacity="0" stroke="#000000" stroke-width="1" stroke-opacity="0"></use></g></g><g><use xlink:href="#baJFLBR7b" opacity="1" fill="#000000" fill-opacity="0"></use><g><use xlink:href="#baJFLBR7b" opacity="1" fill-opacity="0" stroke="#000000" stroke-width="1" stroke-opacity="0"></use></g></g><g><use xlink:href="#b4Rvxh3ZG" opacity="1" fill="#7a432a" fill-opacity="1"></use><g><use xlink:href="#b4Rvxh3ZG" opacity="1" fill-opacity="0" stroke="#000000" stroke-width="1" stroke-opacity="0"></use></g></g><g><use xlink:href="#fgTszE3L9" opacity="1" fill="#000000" fill-opacity="0"></use><g><use xlink:href="#fgTszE3L9" opacity="1" fill-opacity="0" stroke="#000000" stroke-width="1" stroke-opacity="0"></use></g></g><g><use xlink:href="#d6YU5sDQTL" opacity="1" fill="#7a432a" fill-opacity="1"></use><g><use xlink:href="#d6YU5sDQTL" opacity="1" fill-opacity="0" stroke="#000000" stroke-width="1" stroke-opacity="0"></use></g></g><g><use xlink:href="#e55qiB9T2" opacity="1" fill="#000000" fill-opacity="0"></use><g><use xlink:href="#e55qiB9T2" opacity="1" fill-opacity="0" stroke="#000000" stroke-width="1" stroke-opacity="0"></use></g></g><g><use xlink:href="#bsiYV8EBs" opacity="1" fill="#f27900" fill-opacity="1"></use><g><use xlink:href="#bsiYV8EBs" opacity="1" fill-opacity="0" stroke="#000000" stroke-width="1" stroke-opacity="0"></use></g></g><g><use xlink:href="#a7cFJRWqr4" opacity="1" fill="#000000" fill-opacity="0"></use><g><use xlink:href="#a7cFJRWqr4" opacity="1" fill-opacity="0" stroke="#000000" stroke-width="1" stroke-opacity="0"></use></g></g><g><use xlink:href="#b1jWCLfGd7" opacity="1" fill="#7a432a" fill-opacity="1"></use><g><use xlink:href="#b1jWCLfGd7" opacity="1" fill-opacity="0" stroke="#000000" stroke-width="1" stroke-opacity="0"></use></g></g><g><use xlink:href="#c14UVcUq4y" opacity="1" fill="#000000" fill-opacity="0"></use><g><use xlink:href="#c14UVcUq4y" opacity="1" fill-opacity="0" stroke="#000000" stroke-width="1" stroke-opacity="0"></use></g></g><g><use xlink:href="#c1sDYWXM3v" opacity="1" fill="#f98500" fill-opacity="1"></use><g><use xlink:href="#c1sDYWXM3v" opacity="1" fill-opacity="0" stroke="#000000" stroke-width="1" stroke-opacity="0"></use></g></g><g><use xlink:href="#iA6YCxLTe" opacity="1" fill="#000000" fill-opacity="0"></use><g><use xlink:href="#iA6YCxLTe" opacity="1" fill-opacity="0" stroke="#000000" stroke-width="1" stroke-opacity="0"></use></g></g><g><use xlink:href="#d25BbKUVe2" opacity="1" fill="#f98500" fill-opacity="1"></use><g><use xlink:href="#d25BbKUVe2" opacity="1" fill-opacity="0" stroke="#000000" stroke-width="1" stroke-opacity="0"></use></g></g><g><use xlink:href="#c67MUfqRCD" opacity="1" fill="#000000" fill-opacity="0"></use><g><use xlink:href="#c67MUfqRCD" opacity="1" fill-opacity="0" stroke="#000000" stroke-width="1" stroke-opacity="0"></use></g></g><g><use xlink:href="#g1miEYpF8F" opacity="1" fill="#4db7e5" fill-opacity="1"></use><g><use xlink:href="#g1miEYpF8F" opacity="1" fill-opacity="0" stroke="#000000" stroke-width="1" stroke-opacity="0"></use></g></g><g><use xlink:href="#b29eRQIWPM" opacity="1" fill="#000000" fill-opacity="0"></use><g><use xlink:href="#b29eRQIWPM" opacity="1" fill-opacity="0" stroke="#000000" stroke-width="1" stroke-opacity="0"></use></g></g><g><use xlink:href="#a3vyfA0sXl" opacity="1" fill="#db6ea2" fill-opacity="1"></use><g><use xlink:href="#a3vyfA0sXl" opacity="1" fill-opacity="0" stroke="#000000" stroke-width="1" stroke-opacity="0"></use></g></g><g><use xlink:href="#atfIcB905" opacity="1" fill="#000000" fill-opacity="0"></use><g><use xlink:href="#atfIcB905" opacity="1" fill-opacity="0" stroke="#000000" stroke-width="1" stroke-opacity="0"></use></g></g><g><use xlink:href="#kMunx2aD" opacity="1" fill="#62a9e6" fill-opacity="1"></use><g><use xlink:href="#kMunx2aD" opacity="1" fill-opacity="0" stroke="#000000" stroke-width="1" stroke-opacity="0"></use></g></g><g><use xlink:href="#a3PhGgP05y" opacity="1" fill="#000000" fill-opacity="0"></use><g><use xlink:href="#a3PhGgP05y" opacity="1" fill-opacity="0" stroke="#000000" stroke-width="1" stroke-opacity="0"></use></g></g><g><use xlink:href="#aplpdZftM" opacity="1" fill="#62a9e6" fill-opacity="1"></use><g><use xlink:href="#aplpdZftM" opacity="1" fill-opacity="0" stroke="#000000" stroke-width="1" stroke-opacity="0"></use></g></g><g><use xlink:href="#bhwVAqfY1" opacity="1" fill="#000000" fill-opacity="0"></use><g><use xlink:href="#bhwVAqfY1" opacity="1" fill-opacity="0" stroke="#000000" stroke-width="1" stroke-opacity="0"></use></g></g><g><use xlink:href="#e8oe3CK2bA" opacity="1" fill="#95573a" fill-opacity="1"></use><g><use xlink:href="#e8oe3CK2bA" opacity="1" fill-opacity="0" stroke="#000000" stroke-width="1" stroke-opacity="0"></use></g></g><g><use xlink:href="#ambH9oQ6W" opacity="1" fill="#000000" fill-opacity="0"></use><g><use xlink:href="#ambH9oQ6W" opacity="1" fill-opacity="0" stroke="#000000" stroke-width="1" stroke-opacity="0"></use></g></g><g><use xlink:href="#a34bXeOTU" opacity="1" fill="#ebebe9" fill-opacity="1"></use><g><use xlink:href="#a34bXeOTU" opacity="1" fill-opacity="0" stroke="#000000" stroke-width="1" stroke-opacity="0"></use></g></g><g><use xlink:href="#bPUkTOBds" opacity="1" fill="#000000" fill-opacity="0"></use><g><use xlink:href="#bPUkTOBds" opacity="1" fill-opacity="0" stroke="#000000" stroke-width="1" stroke-opacity="0"></use></g></g><g><use xlink:href="#bdAL7rvVY" opacity="1" fill="#ebebe9" fill-opacity="1"></use><g><use xlink:href="#bdAL7rvVY" opacity="1" fill-opacity="0" stroke="#000000" stroke-width="1" stroke-opacity="0"></use></g></g><g><use xlink:href="#b1SpGeGnRX" opacity="1" fill="#000000" fill-opacity="0"></use><g><use xlink:href="#b1SpGeGnRX" opacity="1" fill-opacity="0" stroke="#000000" stroke-width="1" stroke-opacity="0"></use></g></g><g><use xlink:href="#a6rjLyirS" opacity="1" fill="#4db7e5" fill-opacity="1"></use><g><use xlink:href="#a6rjLyirS" opacity="1" fill-opacity="0" stroke="#000000" stroke-width="1" stroke-opacity="0"></use></g></g><g><use xlink:href="#ba92jrlx3" opacity="1" fill="#000000" fill-opacity="0"></use><g><use xlink:href="#ba92jrlx3" opacity="1" fill-opacity="0" stroke="#000000" stroke-width="1" stroke-opacity="0"></use></g></g><g><use xlink:href="#aourSy1K7" opacity="1" fill="#48add9" fill-opacity="1"></use><g><use xlink:href="#aourSy1K7" opacity="1" fill-opacity="0" stroke="#000000" stroke-width="1" stroke-opacity="0"></use></g></g><g><use xlink:href="#b3Oq6MyW2" opacity="1" fill="#000000" fill-opacity="0"></use><g><use xlink:href="#b3Oq6MyW2" opacity="1" fill-opacity="0" stroke="#000000" stroke-width="1" stroke-opacity="0"></use></g></g><g><use xlink:href="#f4ymoU9AD" opacity="1" fill="#d3669a" fill-opacity="1"></use><g><use xlink:href="#f4ymoU9AD" opacity="1" fill-opacity="0" stroke="#000000" stroke-width="1" stroke-opacity="0"></use></g></g><g><use xlink:href="#b2TCk23nNQ" opacity="1" fill="#000000" fill-opacity="0"></use><g><use xlink:href="#b2TCk23nNQ" opacity="1" fill-opacity="0" stroke="#000000" stroke-width="1" stroke-opacity="0"></use></g></g><g><use xlink:href="#b2e0xmqhKU" opacity="1" fill="#48add9" fill-opacity="1"></use><g><use xlink:href="#b2e0xmqhKU" opacity="1" fill-opacity="0" stroke="#000000" stroke-width="1" stroke-opacity="0"></use></g></g><g><use xlink:href="#a5oCY7seoe" opacity="1" fill="#000000" fill-opacity="0"></use><g><use xlink:href="#a5oCY7seoe" opacity="1" fill-opacity="0" stroke="#000000" stroke-width="1" stroke-opacity="0"></use></g></g><g><use xlink:href="#a9bbqcDvS" opacity="1" fill="#7a432a" fill-opacity="1"></use><g><use xlink:href="#a9bbqcDvS" opacity="1" fill-opacity="0" stroke="#000000" stroke-width="1" stroke-opacity="0"></use></g></g><g><use xlink:href="#a75i6Vc5Uz" opacity="1" fill="#000000" fill-opacity="0"></use><g><use xlink:href="#a75i6Vc5Uz" opacity="1" fill-opacity="0" stroke="#000000" stroke-width="1" stroke-opacity="0"></use></g></g><g><use xlink:href="#a5Mf3LkzI4" opacity="1" fill="#7a432a" fill-opacity="1"></use><g><use xlink:href="#a5Mf3LkzI4" opacity="1" fill-opacity="0" stroke="#000000" stroke-width="1" stroke-opacity="0"></use></g></g><g><use xlink:href="#c1w8nDuQ7" opacity="1" fill="#000000" fill-opacity="0"></use><g><use xlink:href="#c1w8nDuQ7" opacity="1" fill-opacity="0" stroke="#000000" stroke-width="1" stroke-opacity="0"></use></g></g><g><use xlink:href="#a5Mg0s9n1Z" opacity="1" fill="#7a432a" fill-opacity="1"></use><g><use xlink:href="#a5Mg0s9n1Z" opacity="1" fill-opacity="0" stroke="#000000" stroke-width="1" stroke-opacity="0"></use></g></g><g><use xlink:href="#c8T1ICtoM" opacity="1" fill="#000000" fill-opacity="0"></use><g><use xlink:href="#c8T1ICtoM" opacity="1" fill-opacity="0" stroke="#000000" stroke-width="1" stroke-opacity="0"></use></g></g><g><use xlink:href="#akdobpBPY" opacity="1" fill="#000000" fill-opacity="1"></use><g><use xlink:href="#akdobpBPY" opacity="1" fill-opacity="0" stroke="#000000" stroke-width="1" stroke-opacity="0"></use></g></g><g><use xlink:href="#f4kkPTBh73" opacity="1" fill="#000000" fill-opacity="0"></use><g><use xlink:href="#f4kkPTBh73" opacity="1" fill-opacity="0" stroke="#000000" stroke-width="1" stroke-opacity="0"></use></g></g><g><use xlink:href="#d6N5EijDP" opacity="1" fill="#000000" fill-opacity="1"></use><g><use xlink:href="#d6N5EijDP" opacity="1" fill-opacity="0" stroke="#000000" stroke-width="1" stroke-opacity="0"></use></g></g><g><use xlink:href="#euCNg0sbJ" opacity="1" fill="#000000" fill-opacity="0"></use><g><use xlink:href="#euCNg0sbJ" opacity="1" fill-opacity="0" stroke="#000000" stroke-width="1" stroke-opacity="0"></use></g></g><g><use xlink:href="#d3qzxzXXcR" opacity="1" fill="#000000" fill-opacity="1"></use><g><use xlink:href="#d3qzxzXXcR" opacity="1" fill-opacity="0" stroke="#000000" stroke-width="1" stroke-opacity="0"></use></g></g><g><use xlink:href="#a1bmNHn2Yb" opacity="1" fill="#000000" fill-opacity="0"></use><g><use xlink:href="#a1bmNHn2Yb" opacity="1" fill-opacity="0" stroke="#000000" stroke-width="1" stroke-opacity="0"></use></g></g><g><use xlink:href="#aV3Vf7Fti" opacity="1" fill="#000000" fill-opacity="1"></use><g><use xlink:href="#aV3Vf7Fti" opacity="1" fill-opacity="0" stroke="#000000" stroke-width="1" stroke-opacity="0"></use></g></g><g><use xlink:href="#ajI849pjE" opacity="1" fill="#000000" fill-opacity="0"></use><g><use xlink:href="#ajI849pjE" opacity="1" fill-opacity="0" stroke="#000000" stroke-width="1" stroke-opacity="0"></use></g></g><g><use xlink:href="#a1dD5Ennoe" opacity="1" fill="#000000" fill-opacity="1"></use><g><use xlink:href="#a1dD5Ennoe" opacity="1" fill-opacity="0" stroke="#000000" stroke-width="1" stroke-opacity="0"></use></g></g><g><use xlink:href="#i2o5EvyEaB" opacity="1" fill="#000000" fill-opacity="0"></use><g><use xlink:href="#i2o5EvyEaB" opacity="1" fill-opacity="0" stroke="#000000" stroke-width="1" stroke-opacity="0"></use></g></g><g><use xlink:href="#a64y6AS9Q" opacity="1" fill="#000000" fill-opacity="1"></use><g><use xlink:href="#a64y6AS9Q" opacity="1" fill-opacity="0" stroke="#000000" stroke-width="1" stroke-opacity="0"></use></g></g><g><use xlink:href="#bsHbffneK" opacity="1" fill="#000000" fill-opacity="0"></use><g><use xlink:href="#bsHbffneK" opacity="1" fill-opacity="0" stroke="#000000" stroke-width="1" stroke-opacity="0"></use></g></g><g><use xlink:href="#a15jHf4O2W" opacity="1" fill="#000000" fill-opacity="1"></use><g><use xlink:href="#a15jHf4O2W" opacity="1" fill-opacity="0" stroke="#000000" stroke-width="1" stroke-opacity="0"></use></g></g><g><use xlink:href="#anAYG39db" opacity="1" fill="#000000" fill-opacity="0"></use><g><use xlink:href="#anAYG39db" opacity="1" fill-opacity="0" stroke="#000000" stroke-width="1" stroke-opacity="0"></use></g></g></g></svg>