<?xml version="1.0" encoding="UTF-8" standalone="no"?>
<!DOCTYPE svg PUBLIC "-//W3C//DTD SVG 1.1//EN" "http://www.w3.org/Graphics/SVG/1.1/DTD/svg11.dtd">
<svg version="1.1" xmlns="http://www.w3.org/2000/svg" xmlns:xlink="http://www.w3.org/1999/xlink" preserveAspectRatio="xMidYMid meet" viewBox="356.27 70.96000000000001 405 405" width="400" height="400"><defs><path d="M358.27 272.96C358.27 383.43 447.8 472.96 558.27 472.96C668.7 472.96 758.27 383.43 758.27 272.96C758.27 162.53 668.7 72.96 558.27 72.96C447.8 72.96 358.27 162.53 358.27 272.96Z" id="agcChVOof"></path><path d="M358.27 272.96C358.27 383.43 447.8 472.96 558.27 472.96C668.7 472.96 758.27 383.43 758.27 272.96C758.27 162.53 668.7 72.96 558.27 72.96C447.8 72.96 358.27 162.53 358.27 272.96Z" id="i1dHLps9Wy"></path><path d="M679.04 391.86C671.7 391.86 664.8 388.43 660.37 382.53C657.9 379.33 645.54 363.19 623.27 334.19C623.27 338.53 623.27 360.19 623.27 399.19L488.27 399.19L488.27 334.19L458.27 374.19C434.27 374.19 420.94 374.19 418.27 374.19C438.47 328.73 449.7 303.46 451.94 298.39C455.9 289.49 463.94 283.06 473.47 281.16C476.47 280.56 491.34 277.59 518.07 272.26C519.08 272.06 524.15 271.03 533.27 269.19L533.27 219.19L583.27 219.19L583.27 269.19L598.44 272.26C617.68 276.1 628.37 278.23 630.5 278.66C639.04 280.36 643.8 281.33 644.74 281.49C653.34 283.23 660.74 288.59 665 296.23C668.44 302.26 695.94 350.53 699.4 356.56C701.34 360.03 702.37 363.99 702.37 367.99C702.37 368.09 702.37 368.49 702.37 368.53C702.37 381.43 691.94 391.86 679.04 391.86Z" id="bsXCIlPs0"></path><path d="M679.04 391.86C671.7 391.86 664.8 388.43 660.37 382.53C657.9 379.33 645.54 363.19 623.27 334.19C623.27 338.53 623.27 360.19 623.27 399.19L488.27 399.19L488.27 334.19L458.27 374.19C434.27 374.19 420.94 374.19 418.27 374.19C438.47 328.73 449.7 303.46 451.94 298.39C455.9 289.49 463.94 283.06 473.47 281.16C476.47 280.56 491.34 277.59 518.07 272.26C519.08 272.06 524.15 271.03 533.27 269.19L533.27 219.19L583.27 219.19L583.27 269.19L598.44 272.26C617.68 276.1 628.37 278.23 630.5 278.66C639.04 280.36 643.8 281.33 644.74 281.49C653.34 283.23 660.74 288.59 665 296.23C668.44 302.26 695.94 350.53 699.4 356.56C701.34 360.03 702.37 363.99 702.37 367.99C702.37 368.09 702.37 368.49 702.37 368.53C702.37 381.43 691.94 391.86 679.04 391.86Z" id="a2jHbPglSP"></path><path d="M679.04 391.86C671.7 391.86 664.8 388.43 660.37 382.53C657.9 379.33 645.54 363.19 623.27 334.19C623.27 338.53 623.27 360.19 623.27 399.19L488.27 399.19L488.27 334.19L458.27 374.19C434.27 374.19 420.94 374.19 418.27 374.19C438.47 328.73 449.7 303.46 451.94 298.39C455.9 289.49 463.94 283.06 473.47 281.16C476.47 280.56 491.34 277.59 518.07 272.26C520.75 278.06 534.15 307.03 558.27 359.19L598.44 272.26C617.68 276.1 628.37 278.23 630.5 278.66C639.04 280.36 643.8 281.33 644.74 281.49C653.34 283.23 660.74 288.59 665 296.23C668.44 302.26 695.94 350.53 699.4 356.56C701.34 360.03 702.37 363.99 702.37 367.99C702.37 367.99 702.37 368.49 702.37 368.53C702.37 381.43 691.94 391.86 679.04 391.86Z" id="btujXtUFl"></path><path d="M679.04 391.86C671.7 391.86 664.8 388.43 660.37 382.53C657.9 379.33 645.54 363.19 623.27 334.19C623.27 338.53 623.27 360.19 623.27 399.19L488.27 399.19L488.27 334.19L458.27 374.19C434.27 374.19 420.94 374.19 418.27 374.19C438.47 328.73 449.7 303.46 451.94 298.39C455.9 289.49 463.94 283.06 473.47 281.16C476.47 280.56 491.34 277.59 518.07 272.26C520.75 278.06 534.15 307.03 558.27 359.19L598.44 272.26C617.68 276.1 628.37 278.23 630.5 278.66C639.04 280.36 643.8 281.33 644.74 281.49C653.34 283.23 660.74 288.59 665 296.23C668.44 302.26 695.94 350.53 699.4 356.56C701.34 360.03 702.37 363.99 702.37 367.99C702.37 367.99 702.37 368.49 702.37 368.53C702.37 381.43 691.94 391.86 679.04 391.86Z" id="dVm7ca5H4"></path><path d="M533.27 219.19C533.27 232.66 533.27 240.13 533.27 241.63C548.4 251.73 568.14 251.73 583.27 241.63C583.27 238.63 583.27 231.16 583.27 219.19C573.27 219.19 538.27 219.19 533.27 219.19Z" id="d9QWjDTWs"></path><path d="M533.27 219.19C533.27 232.66 533.27 240.13 533.27 241.63C548.4 251.73 568.14 251.73 583.27 241.63C583.27 238.63 583.27 231.16 583.27 219.19C573.27 219.19 538.27 219.19 533.27 219.19Z" id="bfN1fqDyL"></path><path d="M593.27 289.19L593.27 359.19L523.27 359.19L523.27 289.19L593.27 289.19Z" id="a4Yl4peA14"></path><path d="M593.27 289.19L593.27 359.19L523.27 359.19L523.27 289.19L593.27 289.19Z" id="d1cLiQbhRw"></path><path d="M679.04 391.86C671.7 391.86 664.8 388.43 660.37 382.53C657.9 379.33 645.54 363.19 623.27 334.19C623.27 338.53 623.27 360.19 623.27 399.19L488.27 399.19L488.27 334.19L458.27 374.19C434.27 374.19 420.94 374.19 418.27 374.19C438.47 328.73 449.7 303.46 451.94 298.39C455.9 289.49 463.94 283.06 473.47 281.16C476.47 280.56 491.34 277.59 518.07 272.26C520.75 278.06 534.15 307.03 558.27 359.19L598.44 272.26L630.5 278.66C631.02 278.76 631.31 278.82 631.37 278.83C639.4 280.43 643.87 281.33 644.74 281.49C653.34 283.23 660.74 288.59 665 296.23C668.44 302.26 695.94 350.53 699.4 356.56C701.34 360.03 702.37 363.99 702.37 367.99C702.37 368.09 702.37 368.49 702.37 368.53C702.37 381.43 691.94 391.86 679.04 391.86Z" id="g4v4kD8xQ"></path><path d="M679.04 391.86C671.7 391.86 664.8 388.43 660.37 382.53C657.9 379.33 645.54 363.19 623.27 334.19C623.27 338.53 623.27 360.19 623.27 399.19L488.27 399.19L488.27 334.19L458.27 374.19C434.27 374.19 420.94 374.19 418.27 374.19C438.47 328.73 449.7 303.46 451.94 298.39C455.9 289.49 463.94 283.06 473.47 281.16C476.47 280.56 491.34 277.59 518.07 272.26C520.75 278.06 534.15 307.03 558.27 359.19L598.44 272.26L630.5 278.66C631.02 278.76 631.31 278.82 631.37 278.83C639.4 280.43 643.87 281.33 644.74 281.49C653.34 283.23 660.74 288.59 665 296.23C668.44 302.26 695.94 350.53 699.4 356.56C701.34 360.03 702.37 363.99 702.37 367.99C702.37 368.09 702.37 368.49 702.37 368.53C702.37 381.43 691.94 391.86 679.04 391.86Z" id="e1fiWoa965"></path><path d="M679.04 391.86C671.7 391.86 664.8 388.43 660.37 382.53C657.9 379.33 645.54 363.19 623.27 334.19C623.27 340.69 623.27 392.69 623.27 399.19C565.97 399.19 534.17 399.19 527.8 399.19C562.27 379.33 607.94 342.39 631.37 278.83C632.7 279.09 643.4 281.23 644.74 281.49C653.34 283.23 660.74 288.59 665 296.23C668.44 302.26 695.94 350.53 699.4 356.56C701.34 360.03 702.37 363.99 702.37 367.99C702.37 368.09 702.37 368.49 702.37 368.53C702.37 381.43 691.94 391.86 679.04 391.86Z" id="b2w1Jn3qG"></path><path d="M679.04 391.86C671.7 391.86 664.8 388.43 660.37 382.53C657.9 379.33 645.54 363.19 623.27 334.19C623.27 340.69 623.27 392.69 623.27 399.19C565.97 399.19 534.17 399.19 527.8 399.19C562.27 379.33 607.94 342.39 631.37 278.83C632.7 279.09 643.4 281.23 644.74 281.49C653.34 283.23 660.74 288.59 665 296.23C668.44 302.26 695.94 350.53 699.4 356.56C701.34 360.03 702.37 363.99 702.37 367.99C702.37 368.09 702.37 368.49 702.37 368.53C702.37 381.43 691.94 391.86 679.04 391.86Z" id="b34emry6lr"></path><path d="M416.44 370.43C416.87 367.03 419.17 349.93 423.27 319.19C426.77 319.19 454.77 319.19 458.27 319.19C458.27 351.59 458.27 369.59 458.27 373.19C458.27 384.79 448.84 394.19 437.24 394.19C425.64 394.19 416.24 384.79 416.24 373.19C416.24 372.26 416.3 371.36 416.44 370.43Z" id="ar0tc3qG"></path><path d="M416.44 370.43C416.87 367.03 419.17 349.93 423.27 319.19C426.77 319.19 454.77 319.19 458.27 319.19C458.27 351.59 458.27 369.59 458.27 373.19C458.27 384.79 448.84 394.19 437.24 394.19C425.64 394.19 416.24 384.79 416.24 373.19C416.24 372.26 416.3 371.36 416.44 370.43Z" id="f1PKhQOmZU"></path><path d="M478.27 294.19C478.27 302.49 471.54 309.19 463.27 309.19C454.97 309.19 448.27 302.49 448.27 294.19C448.27 288.53 448.27 260.19 448.27 209.19C450.27 209.19 460.27 209.19 478.27 209.19C478.27 262.08 478.27 290.42 478.27 294.19Z" id="cUGZ9EJp"></path><path d="M478.27 294.19C478.27 302.49 471.54 309.19 463.27 309.19C454.97 309.19 448.27 302.49 448.27 294.19C448.27 288.53 448.27 260.19 448.27 209.19C450.27 209.19 460.27 209.19 478.27 209.19C478.27 262.08 478.27 290.42 478.27 294.19Z" id="aB9d78Vha"></path><path d="M478.27 294.19C478.27 302.49 471.54 309.19 463.27 309.19C454.97 309.19 448.27 302.49 448.27 294.19C448.27 291.86 448.27 280.19 448.27 259.19C450.27 259.19 460.27 259.19 478.27 259.19C478.27 280.97 478.27 292.64 478.27 294.19Z" id="a14GylI7To"></path><path d="M478.27 294.19C478.27 302.49 471.54 309.19 463.27 309.19C454.97 309.19 448.27 302.49 448.27 294.19C448.27 291.86 448.27 280.19 448.27 259.19C450.27 259.19 460.27 259.19 478.27 259.19C478.27 280.97 478.27 292.64 478.27 294.19Z" id="f8NTW0vqWk"></path><path d="M458.27 329.19C455.37 329.19 432.17 329.19 429.27 329.19C425.94 329.19 423.27 326.53 423.27 323.19C423.27 323.19 423.27 323.19 423.27 323.19C423.27 319.39 423.27 288.99 423.27 285.19C423.27 281.89 425.94 279.19 429.27 279.19C429.27 279.19 429.27 279.19 429.27 279.19C432.17 279.19 455.37 279.19 458.27 279.19C463.77 279.19 468.27 283.69 468.27 289.19C468.27 295.19 468.27 316.19 468.27 319.19C468.27 324.73 463.77 329.19 458.27 329.19Z" id="d3KGj7W5Fo"></path><path d="M458.27 329.19C455.37 329.19 432.17 329.19 429.27 329.19C425.94 329.19 423.27 326.53 423.27 323.19C423.27 323.19 423.27 323.19 423.27 323.19C423.27 319.39 423.27 288.99 423.27 285.19C423.27 281.89 425.94 279.19 429.27 279.19C429.27 279.19 429.27 279.19 429.27 279.19C432.17 279.19 455.37 279.19 458.27 279.19C463.77 279.19 468.27 283.69 468.27 289.19C468.27 295.19 468.27 316.19 468.27 319.19C468.27 324.73 463.77 329.19 458.27 329.19Z" id="b4lKmvl1mZ"></path><path d="M603.27 194.19C606.27 194.19 607.94 194.19 608.27 194.19C616.54 194.19 623.27 187.49 623.27 179.19C623.27 170.93 616.54 164.19 608.27 164.19C607.6 164.19 605.94 164.19 603.27 164.19C603.27 170.19 603.27 191.19 603.27 194.19Z" id="d2hZaW0lFD"></path><path d="M603.27 194.19C606.27 194.19 607.94 194.19 608.27 194.19C616.54 194.19 623.27 187.49 623.27 179.19C623.27 170.93 616.54 164.19 608.27 164.19C607.6 164.19 605.94 164.19 603.27 164.19C603.27 170.19 603.27 191.19 603.27 194.19Z" id="d1nW1xtKQg"></path><path d="M508.27 164.19C499.97 164.23 493.27 170.93 493.27 179.19C493.27 187.49 499.97 194.19 508.27 194.19C508.6 194.19 510.27 194.19 513.27 194.19C513.27 192.19 513.27 182.19 513.27 164.19L508.5 164.19C508.38 164.19 508.3 164.19 508.27 164.19Z" id="b23x1iI557"></path><path d="M508.27 164.19C499.97 164.23 493.27 170.93 493.27 179.19C493.27 187.49 499.97 194.19 508.27 194.19C508.6 194.19 510.27 194.19 513.27 194.19C513.27 192.19 513.27 182.19 513.27 164.19L508.5 164.19C508.38 164.19 508.3 164.19 508.27 164.19Z" id="b2iUnjOMnJ"></path><path d="M558.27 239.19C533.4 239.19 513.27 219.06 513.27 194.19C513.27 190.69 513.27 162.73 513.27 159.23C513.27 134.36 533.4 114.23 558.27 114.23C583.1 114.23 603.27 134.36 603.27 159.23C603.27 166.19 603.27 190.69 603.27 194.19C603.27 219.06 583.1 239.19 558.27 239.19Z" id="d54kptn7I3"></path><path d="M558.27 239.19C533.4 239.19 513.27 219.06 513.27 194.19C513.27 190.69 513.27 162.73 513.27 159.23C513.27 134.36 533.4 114.23 558.27 114.23C583.1 114.23 603.27 134.36 603.27 159.23C603.27 166.19 603.27 190.69 603.27 194.19C603.27 219.06 583.1 239.19 558.27 239.19Z" id="jd1mBzM7M"></path><path d="M538.27 114.23C538.17 114.53 537.47 117.06 537.37 117.39C532.47 135.03 524.2 151.06 513.27 164.19C513.27 160.23 513.27 146.23 513.27 144.23C513.27 127.63 524.44 114.23 538.27 114.23Z" id="jLQ4CtZAh"></path><path d="M538.27 114.23C538.17 114.53 537.47 117.06 537.37 117.39C532.47 135.03 524.2 151.06 513.27 164.19C513.27 160.23 513.27 146.23 513.27 144.23C513.27 127.63 524.44 114.23 538.27 114.23Z" id="d1WmYH9Gso"></path><path d="M558.17 239.19C554.84 239.19 551.5 238.83 548.27 238.09C568.74 233.43 583.27 215.23 583.27 194.19C583.27 188.69 583.27 144.73 583.27 139.23C583.27 132.19 581.64 125.26 578.47 118.99C593.67 126.66 603.24 142.19 603.27 159.23C603.27 166.19 603.27 190.69 603.27 194.19C603.24 219.09 583.04 239.23 558.17 239.19Z" id="b4DDSMqga"></path><path d="M558.17 239.19C554.84 239.19 551.5 238.83 548.27 238.09C568.74 233.43 583.27 215.23 583.27 194.19C583.27 188.69 583.27 144.73 583.27 139.23C583.27 132.19 581.64 125.26 578.47 118.99C593.67 126.66 603.24 142.19 603.27 159.23C603.27 166.19 603.27 190.69 603.27 194.19C603.24 219.09 583.04 239.23 558.17 239.19Z" id="b5CoG1gROK"></path><path d="M587.17 113.73C585.84 113.73 584.54 113.89 583.27 114.23C583.27 115.73 583.27 127.73 583.27 129.23C583.27 129.23 592.3 151.06 603.27 164.19C603.27 157.33 603.27 133.26 603.27 129.83C603.27 120.93 596.04 113.73 587.17 113.73Z" id="ams06SP0A"></path><path d="M587.17 113.73C585.84 113.73 584.54 113.89 583.27 114.23C583.27 115.73 583.27 127.73 583.27 129.23C583.27 129.23 592.3 151.06 603.27 164.19C603.27 157.33 603.27 133.26 603.27 129.83C603.27 120.93 596.04 113.73 587.17 113.73Z" id="aGhr2RlTb"></path><path d="M513.27 129.23C513.24 123.09 515.5 117.16 519.6 112.59C519.9 112.23 520.24 111.86 520.57 111.53C525.27 106.86 531.64 104.23 538.27 104.23C540.34 104.23 557.04 104.23 559.1 104.23C568.17 104.23 576.87 107.79 583.27 114.23C583.27 116.23 583.27 121.23 583.27 129.23C541.27 129.23 517.94 129.23 513.27 129.23Z" id="d3mYXXEkxT"></path><path d="M513.27 129.23C513.24 123.09 515.5 117.16 519.6 112.59C519.9 112.23 520.24 111.86 520.57 111.53C525.27 106.86 531.64 104.23 538.27 104.23C540.34 104.23 557.04 104.23 559.1 104.23C568.17 104.23 576.87 107.79 583.27 114.23C583.27 116.23 583.27 121.23 583.27 129.23C541.27 129.23 517.94 129.23 513.27 129.23Z" id="aGaT2V0f0"></path><path d="M633.47 364.19C622.3 364.23 613.27 355.16 613.27 343.99C613.27 340.86 614 337.76 615.4 334.93C616.07 333.56 619.54 326.66 625.77 314.19C626.94 311.86 632.77 300.19 643.27 279.19L643.27 229.19L673.27 229.19L673.27 279.19C683.77 300.19 689.6 311.86 690.77 314.19C696.97 326.66 700.44 333.56 701.14 334.93C702.54 337.76 703.27 340.86 703.27 343.99C703.27 355.16 694.2 364.19 683.04 364.19C678.07 364.19 638.44 364.19 633.47 364.19Z" id="b7COtKcQl"></path><path d="M633.47 364.19C622.3 364.23 613.27 355.16 613.27 343.99C613.27 340.86 614 337.76 615.4 334.93C616.07 333.56 619.54 326.66 625.77 314.19C626.94 311.86 632.77 300.19 643.27 279.19L643.27 229.19L673.27 229.19L673.27 279.19C683.77 300.19 689.6 311.86 690.77 314.19C696.97 326.66 700.44 333.56 701.14 334.93C702.54 337.76 703.27 340.86 703.27 343.99C703.27 355.16 694.2 364.19 683.04 364.19C678.07 364.19 638.44 364.19 633.47 364.19Z" id="b2XnzuyITf"></path><path d="M633.47 364.19C622.3 364.23 613.27 355.16 613.27 343.99C613.27 340.86 614 337.76 615.4 334.93C616.07 333.56 619.54 326.66 625.77 314.19C632.27 314.19 684.27 314.19 690.77 314.19C696.97 326.66 700.44 333.56 701.14 334.93C702.54 337.76 703.27 340.86 703.27 343.99C703.27 355.16 694.2 364.19 683.04 364.19C678.07 364.19 638.44 364.19 633.47 364.19Z" id="b1dDUEsojV"></path><path d="M633.47 364.19C622.3 364.23 613.27 355.16 613.27 343.99C613.27 340.86 614 337.76 615.4 334.93C616.07 333.56 619.54 326.66 625.77 314.19C632.27 314.19 684.27 314.19 690.77 314.19C696.97 326.66 700.44 333.56 701.14 334.93C702.54 337.76 703.27 340.86 703.27 343.99C703.27 355.16 694.2 364.19 683.04 364.19C678.07 364.19 638.44 364.19 633.47 364.19Z" id="a1HQ6kZx7"></path><path d="M518.07 272.26L537.24 313.73L558.27 289.19L533.27 259.19L518.07 272.26Z" id="bv9GNzAqV"></path><path d="M518.07 272.26L537.24 313.73L558.27 289.19L533.27 259.19L518.07 272.26Z" id="bPL0Tq8F"></path><path d="M598.44 272.26L579.27 313.73L558.27 289.19L583.27 259.19L598.44 272.26Z" id="anih1Tfvw"></path><path d="M598.44 272.26L579.27 313.73L558.27 289.19L583.27 259.19L598.44 272.26Z" id="a4cf3qHQrT"></path><path d="M548.27 300.89L548.27 337.56L558.27 359.19L568.27 337.56L568.27 300.89L558.27 289.19L548.27 300.89Z" id="f14CYuAC7J"></path><path d="M548.27 300.89L548.27 337.56L558.27 359.19L568.27 337.56L568.27 300.89L558.27 289.19L548.27 300.89Z" id="a2X2tkBi2j"></path><path d="M503.27 314.19L518.27 314.19L513.27 334.19L558.27 359.19L518.07 272.26L503.27 314.19Z" id="d1MV2TVVml"></path><path d="M503.27 314.19L518.27 314.19L513.27 334.19L558.27 359.19L518.07 272.26L503.27 314.19Z" id="c9lp9HWZ3K"></path><path d="M613.27 314.19L598.27 314.19L603.27 334.19L558.27 359.19L598.44 272.26L613.27 314.19Z" id="aOkDD4Ouq"></path><path d="M613.27 314.19L598.27 314.19L603.27 334.19L558.27 359.19L598.44 272.26L613.27 314.19Z" id="bBL6RkWwV"></path><path d="M598.27 194.19C596.27 194.19 580.27 194.19 578.27 194.19C575.14 194.23 572.2 192.66 570.47 190.06C570.04 189.39 566.47 184.03 566.04 183.36C563.17 179.09 557.37 177.93 553.07 180.76C552.04 181.46 551.17 182.33 550.47 183.36C550.04 184.03 546.47 189.39 546.04 190.06C544.3 192.66 541.37 194.23 538.27 194.19C536.27 194.19 520.27 194.19 518.27 194.19C512.74 194.19 508.27 189.73 508.27 184.19C508.27 181.69 508.27 161.73 508.27 159.23C508.27 153.69 512.74 149.23 518.27 149.23C526.27 149.23 590.27 149.23 598.27 149.23C603.77 149.23 608.27 153.69 608.27 159.23C608.27 164.19 608.27 181.69 608.27 184.19C608.27 189.73 603.77 194.19 598.27 194.19Z" id="aP6QDw18y"></path><path d="M598.27 194.19C596.27 194.19 580.27 194.19 578.27 194.19C575.14 194.23 572.2 192.66 570.47 190.06C570.04 189.39 566.47 184.03 566.04 183.36C563.17 179.09 557.37 177.93 553.07 180.76C552.04 181.46 551.17 182.33 550.47 183.36C550.04 184.03 546.47 189.39 546.04 190.06C544.3 192.66 541.37 194.23 538.27 194.19C536.27 194.19 520.27 194.19 518.27 194.19C512.74 194.19 508.27 189.73 508.27 184.19C508.27 181.69 508.27 161.73 508.27 159.23C508.27 153.69 512.74 149.23 518.27 149.23C526.27 149.23 590.27 149.23 598.27 149.23C603.77 149.23 608.27 153.69 608.27 159.23C608.27 164.19 608.27 181.69 608.27 184.19C608.27 189.73 603.77 194.19 598.27 194.19Z" id="a9pCn3ITU4"></path><path d="M598.27 194.19C596.27 194.19 580.27 194.19 578.27 194.19C575.14 194.23 572.2 192.66 570.47 190.06C570.04 189.39 566.47 184.03 566.04 183.36C564.77 181.49 562.87 180.13 560.7 179.53C562.64 177.53 572.4 167.39 589.97 149.23C594.94 149.23 597.7 149.23 598.27 149.23C603.77 149.23 608.27 153.69 608.27 159.23C608.27 164.19 608.27 181.69 608.27 184.19C608.27 189.73 603.77 194.19 598.27 194.19Z" id="c1p6SVc38h"></path><path d="M598.27 194.19C596.27 194.19 580.27 194.19 578.27 194.19C575.14 194.23 572.2 192.66 570.47 190.06C570.04 189.39 566.47 184.03 566.04 183.36C564.77 181.49 562.87 180.13 560.7 179.53C562.64 177.53 572.4 167.39 589.97 149.23C594.94 149.23 597.7 149.23 598.27 149.23C603.77 149.23 608.27 153.69 608.27 159.23C608.27 164.19 608.27 181.69 608.27 184.19C608.27 189.73 603.77 194.19 598.27 194.19Z" id="bOsVqIjq7"></path><path d="M675.77 314.19C681.97 326.66 685.44 333.56 686.14 334.93C691.1 344.93 687.07 357.09 677.07 362.06C674.27 363.49 671.17 364.19 668.04 364.19C669.54 364.19 681.54 364.19 683.04 364.19C694.2 364.23 703.27 355.16 703.27 343.99C703.27 340.86 702.54 337.76 701.14 334.93C699.74 332.19 696.27 325.26 690.77 314.19C687.77 314.19 677.27 314.19 675.77 314.19Z" id="bEd3Dh1MB"></path><path d="M675.77 314.19C681.97 326.66 685.44 333.56 686.14 334.93C691.1 344.93 687.07 357.09 677.07 362.06C674.27 363.49 671.17 364.19 668.04 364.19C669.54 364.19 681.54 364.19 683.04 364.19C694.2 364.23 703.27 355.16 703.27 343.99C703.27 340.86 702.54 337.76 701.14 334.93C699.74 332.19 696.27 325.26 690.77 314.19C687.77 314.19 677.27 314.19 675.77 314.19Z" id="adn8b7FnU"></path><path d="M673.27 229.19L658.27 229.19L658.27 279.19L675.77 314.19L690.77 314.19L673.27 279.19L673.27 229.19Z" id="b3VnnsKUIx"></path><path d="M673.27 229.19L658.27 229.19L658.27 279.19L675.77 314.19L690.77 314.19L673.27 279.19L673.27 229.19Z" id="keudeYa0h"></path><path d="M680.4 394.19C675 394.19 669.77 392.29 665.64 388.79C665.4 388.59 664.34 387.66 662.37 385.99C650.24 375.69 643.5 369.99 642.17 368.83C638.34 365.89 637.17 360.63 639.37 356.36C640.47 354.19 649.27 336.99 650.37 334.83C653.07 329.69 659.47 327.69 664.6 330.43C665.3 330.79 665.97 331.23 666.57 331.76C667.8 332.83 674.07 338.19 685.34 347.89C687.14 340.86 688.14 336.96 688.34 336.16C689.44 332.09 693.6 329.69 697.67 330.83C698.07 330.93 698.44 331.06 698.8 331.23C700.14 331.79 701.27 332.76 702.04 333.96C702.84 335.16 703.27 336.53 703.27 337.96C703.27 344.66 703.27 368.03 703.27 371.36C703.27 383.99 693.04 394.23 680.4 394.19Z" id="d2kI6ysJm"></path><path d="M680.4 394.19C675 394.19 669.77 392.29 665.64 388.79C665.4 388.59 664.34 387.66 662.37 385.99C650.24 375.69 643.5 369.99 642.17 368.83C638.34 365.89 637.17 360.63 639.37 356.36C640.47 354.19 649.27 336.99 650.37 334.83C653.07 329.69 659.47 327.69 664.6 330.43C665.3 330.79 665.97 331.23 666.57 331.76C667.8 332.83 674.07 338.19 685.34 347.89C687.14 340.86 688.14 336.96 688.34 336.16C689.44 332.09 693.6 329.69 697.67 330.83C698.07 330.93 698.44 331.06 698.8 331.23C700.14 331.79 701.27 332.76 702.04 333.96C702.84 335.16 703.27 336.53 703.27 337.96C703.27 344.66 703.27 368.03 703.27 371.36C703.27 383.99 693.04 394.23 680.4 394.19Z" id="g1wZTrby2g"></path><path d="M680.4 394.19C675 394.19 669.77 392.29 665.64 388.79C665.3 388.49 662.7 386.29 662.37 385.99C678.47 372.59 692.27 356.66 703.27 338.79C703.27 345.33 703.27 368.13 703.27 371.36C703.27 383.99 693.04 394.23 680.4 394.19Z" id="fcR9eKCUA"></path><path d="M680.4 394.19C675 394.19 669.77 392.29 665.64 388.79C665.3 388.49 662.7 386.29 662.37 385.99C678.47 372.59 692.27 356.66 703.27 338.79C703.27 345.33 703.27 368.13 703.27 371.36C703.27 383.99 693.04 394.23 680.4 394.19Z" id="b2VXI1srg"></path><path d="M458.27 329.19C456.77 329.19 444.77 329.19 443.27 329.19C448.77 329.19 453.27 324.73 453.27 319.19C453.27 316.19 453.27 292.19 453.27 289.19C453.27 283.69 448.77 279.19 443.27 279.19C444.77 279.19 456.77 279.19 458.27 279.19C463.77 279.19 468.27 283.69 468.27 289.19C468.27 295.19 468.27 316.19 468.27 319.19C468.27 324.73 463.77 329.19 458.27 329.19Z" id="eFtTsV6sE"></path><path d="M458.27 329.19C456.77 329.19 444.77 329.19 443.27 329.19C448.77 329.19 453.27 324.73 453.27 319.19C453.27 316.19 453.27 292.19 453.27 289.19C453.27 283.69 448.77 279.19 443.27 279.19C444.77 279.19 456.77 279.19 458.27 279.19C463.77 279.19 468.27 283.69 468.27 289.19C468.27 295.19 468.27 316.19 468.27 319.19C468.27 324.73 463.77 329.19 458.27 329.19Z" id="bvhir9r90"></path><path d="M543.27 369.19L543.27 379.19L533.27 379.19L533.27 369.19L543.27 369.19Z" id="cfQnGTEr9"></path><path d="M543.27 369.19L543.27 379.19L533.27 379.19L533.27 369.19L543.27 369.19Z" id="b107Ky4eNw"></path><path d="M553.84 204.19C553.14 204.19 549.6 204.19 543.27 204.19C543.27 205.19 543.27 213.19 543.27 214.19C549.6 214.19 553.14 214.19 553.84 214.19C560.9 214.23 567.94 213.19 574.7 211.16C574.14 209.23 572.1 202.53 571.8 201.59C565.97 203.33 559.94 204.23 553.84 204.19Z" id="dh9R2b6n5"></path><path d="M553.84 204.19C553.14 204.19 549.6 204.19 543.27 204.19C543.27 205.19 543.27 213.19 543.27 214.19C549.6 214.19 553.14 214.19 553.84 214.19C560.9 214.23 567.94 213.19 574.7 211.16C574.14 209.23 572.1 202.53 571.8 201.59C565.97 203.33 559.94 204.23 553.84 204.19Z" id="bjxskkORn"></path><path d="M423.27 174.19C414.97 174.19 408.27 180.93 408.27 189.19C408.27 197.49 414.97 204.19 423.27 204.19C431.54 204.19 438.27 197.49 438.27 189.19C438.27 180.93 431.54 174.19 423.27 174.19ZM423.27 194.19C420.5 194.19 418.27 191.96 418.27 189.19C418.27 186.46 420.5 184.23 423.27 184.19C426 184.19 428.27 186.46 428.27 189.19C428.27 191.96 426 194.19 423.27 194.19Z" id="ahoRJNJhD"></path><path d="M423.27 174.19C414.97 174.19 408.27 180.93 408.27 189.19C408.27 197.49 414.97 204.19 423.27 204.19C431.54 204.19 438.27 197.49 438.27 189.19C438.27 180.93 431.54 174.19 423.27 174.19ZM423.27 194.19C420.5 194.19 418.27 191.96 418.27 189.19C418.27 186.46 420.5 184.23 423.27 184.19C426 184.19 428.27 186.46 428.27 189.19C428.27 191.96 426 194.19 423.27 194.19Z" id="b3BwznB9gf"></path><path d="M468.27 174.19L468.27 164.19L478.27 164.19L478.27 154.23L468.27 154.23L468.27 144.23L458.27 144.23L458.27 154.23L448.27 154.23L448.27 164.19L458.27 164.19L458.27 174.19L468.27 174.19Z" id="guipZipHj"></path><path d="M468.27 174.19L468.27 164.19L478.27 164.19L478.27 154.23L468.27 154.23L468.27 144.23L458.27 144.23L458.27 154.23L448.27 154.23L448.27 164.19L458.27 164.19L458.27 174.19L468.27 174.19Z" id="e23wAcBi"></path><path d="M530.77 179.19C534.9 179.19 538.27 175.86 538.27 171.69C538.27 167.56 534.9 164.23 530.77 164.19C526.6 164.19 523.27 167.56 523.27 171.69C523.27 175.86 526.6 179.19 530.77 179.19Z" id="bEwm9HYLJ"></path><path d="M530.77 179.19C534.9 179.19 538.27 175.86 538.27 171.69C538.27 167.56 534.9 164.23 530.77 164.19C526.6 164.19 523.27 167.56 523.27 171.69C523.27 175.86 526.6 179.19 530.77 179.19Z" id="crCfAICh"></path><path d="M585.77 164.19C581.6 164.19 578.27 167.56 578.27 171.69C578.27 175.86 581.6 179.19 585.77 179.19C589.9 179.19 593.27 175.86 593.27 171.69C593.27 167.56 589.9 164.19 585.77 164.19Z" id="b1vlMp1Pao"></path><path d="M585.77 164.19C581.6 164.19 578.27 167.56 578.27 171.69C578.27 175.86 581.6 179.19 585.77 179.19C589.9 179.19 593.27 175.86 593.27 171.69C593.27 167.56 589.9 164.19 585.77 164.19Z" id="a7KQDP6Lvb"></path><path d="M678.27 278.03C678.27 248.73 678.27 232.46 678.27 229.19C678.27 226.46 676 224.19 673.27 224.19C670.27 224.19 646.27 224.19 643.27 224.19C640.5 224.19 638.27 226.46 638.27 229.19C638.27 232.26 638.27 247.56 638.27 275.13C635.77 274.62 623.24 272.11 600.7 267.59C593.24 261.19 589.1 257.64 588.27 256.93C588.27 243.29 588.27 235.73 588.27 234.19C599.44 225.83 606.6 213.13 608 199.19C608.04 199.19 608.24 199.19 608.27 199.19C619.3 199.23 628.27 190.26 628.27 179.23C628.27 170.09 622.1 162.13 613.27 159.83C613.27 159.79 613.27 159.26 613.27 159.23C613.27 154.96 611.44 150.89 608.27 148.03C608.27 146.23 608.27 131.66 608.27 129.83C608.27 118.16 598.8 108.73 587.17 108.73C586.4 108.73 585.6 108.76 584.84 108.86C577.74 102.63 568.57 99.19 559.1 99.23C557.04 99.23 540.34 99.23 538.27 99.23C521.7 99.23 508.27 112.66 508.27 129.23C508.27 130.59 508.84 131.93 509.87 132.89C508.8 136.56 508.27 140.36 508.27 144.23C508.27 144.59 508.27 147.66 508.27 148.03C505.07 150.89 503.27 154.96 503.27 159.23C503.27 159.26 503.27 159.79 503.27 159.83C492.57 162.63 486.14 173.53 488.94 184.23C491.2 193.03 499.17 199.19 508.27 199.19C508.27 199.19 508.47 199.19 508.5 199.19C509.9 213.13 517.07 225.83 528.27 234.19C528.27 235.73 528.27 243.29 528.27 256.93C527.44 257.64 523.28 261.19 515.8 267.59C496.28 271.51 485.44 273.69 483.27 274.13C483.27 235.16 483.27 213.53 483.27 209.19C483.27 206.46 481 204.19 478.27 204.19C475.27 204.19 451.27 204.19 448.27 204.19C445.5 204.19 443.27 206.46 443.27 209.19C443.27 213.53 443.27 235.19 443.27 274.19C434.87 274.19 430.2 274.19 429.27 274.19C423.17 274.23 418.27 279.13 418.27 285.19C418.27 287.46 418.27 298.69 418.27 318.89C414.17 349.43 411.94 366.39 411.47 369.76C409.6 384.03 419.67 397.06 433.9 398.93C448.14 400.79 461.2 390.73 463.04 376.49C463.07 376.36 463.07 376.23 463.1 376.09C464.44 374.29 471.17 365.33 483.27 349.19C483.27 352.53 483.27 369.19 483.27 399.19C489.27 399.19 492.6 399.19 493.27 399.19C493.27 360.19 493.27 338.53 493.27 334.19C493.27 331.46 491 329.19 488.27 329.19C486.67 329.19 485.2 329.96 484.27 331.19C482.87 333.06 475.87 342.39 463.27 359.19C463.27 343.69 463.27 335.06 463.27 333.36C469.24 331.23 473.24 325.56 473.27 319.19C473.27 318.43 473.27 312.29 473.27 311.53C479.44 307.93 483.24 301.36 483.27 294.19C483.27 293.56 483.27 290.26 483.27 284.29C485.99 283.75 507.72 279.4 510.44 278.86C503.3 299.09 499.34 310.29 498.54 312.56C497.64 315.16 499 317.99 501.6 318.93C502.14 319.13 502.7 319.19 503.27 319.19C503.84 319.19 506.7 319.19 511.87 319.19C509.77 327.49 508.64 332.09 508.4 332.99C507.87 335.19 508.84 337.49 510.84 338.59C513.67 340.16 527.8 347.99 553.27 362.16C553.27 364.63 553.27 376.97 553.27 399.19L563.27 399.19C563.27 376.97 563.27 364.63 563.27 362.16C588.7 347.99 602.87 340.16 605.67 338.59C607.67 337.49 608.67 335.19 608.1 332.99C607.87 332.09 606.74 327.49 604.67 319.19C609.8 319.19 612.67 319.19 613.27 319.19C616 319.19 618.27 316.96 618.27 314.19C618.27 313.63 618.17 313.09 617.97 312.56C617.17 310.29 613.2 299.09 606.07 278.86C608.96 279.44 632.05 284.08 634.94 284.66C626.77 301.03 622.2 310.13 621.3 311.96C621.3 311.96 621.3 311.96 621.27 311.99C620.24 314.06 611.97 330.63 610.94 332.69C605.5 343.56 608.57 356.76 618.27 364.09C618.27 366.43 618.27 378.13 618.27 399.19C619.27 399.19 627.27 399.19 628.27 399.19C628.27 380.89 628.27 370.69 628.27 368.66C629.97 369.03 631.74 369.19 633.47 369.19C633.7 369.19 635.57 369.19 635.8 369.19C636.67 370.53 637.77 371.73 639 372.69C641.34 374.69 660.07 390.59 662.4 392.59C674.1 402.53 691.67 401.13 701.64 389.39C705.9 384.36 708.27 377.96 708.27 371.36C708.27 368.03 708.27 341.29 708.27 337.96C708.24 334.06 706.4 330.43 703.3 328.09C703.3 328.09 700.6 322.73 695.24 311.96C691.84 305.17 679.97 281.42 678.27 278.03ZM668.27 234.19C668.27 261.19 668.27 276.19 668.27 279.19C668.27 279.99 668.44 280.76 668.77 281.46C669.7 283.29 674.34 292.56 682.67 309.19C677.79 309.19 638.72 309.19 633.84 309.19C641.64 293.66 645.94 284.99 646.8 283.26C646.8 283.26 648.27 279.99 648.27 279.19C648.27 273.19 648.27 258.19 648.27 234.19C652.27 234.19 666.27 234.19 668.27 234.19ZM578.27 257.39C576.94 258.99 570.27 266.99 558.27 281.39C546.27 266.99 539.6 258.99 538.27 257.39C538.27 246.99 538.27 241.19 538.27 240.03C544.57 242.79 551.37 244.23 558.27 244.19C565.14 244.23 571.94 242.79 578.27 240.03C578.27 241.19 578.27 246.99 578.27 257.39ZM553.27 336.46L553.27 302.73L558.27 296.89L563.27 302.73L563.27 336.46L558.27 347.29L553.27 336.46ZM564.8 289.16L583.84 266.29L592.3 273.59L578 304.56L564.8 289.16ZM538.5 304.56L524.2 273.59L532.67 266.29L551.7 289.16L538.5 304.56ZM518.27 154.23C526.27 154.23 590.27 154.23 598.27 154.23C601 154.23 603.27 156.46 603.27 159.23C603.27 161.73 603.27 181.69 603.27 184.19C603.27 186.96 601 189.19 598.27 189.19C596.27 189.19 580.27 189.19 578.27 189.19C576.8 189.23 575.44 188.49 574.64 187.26C574.2 186.59 570.64 181.26 570.2 180.59C565.8 173.99 556.9 172.23 550.3 176.63C548.74 177.66 547.37 179.03 546.34 180.59C545.87 181.26 542.3 186.59 541.87 187.26C541.07 188.49 539.7 189.23 538.27 189.19C536.27 189.19 520.27 189.19 518.27 189.19C515.5 189.19 513.27 186.96 513.27 184.19C513.27 179.19 513.27 161.73 513.27 159.23C513.27 156.46 515.5 154.23 518.27 154.23ZM584.77 144.23C579.54 144.23 537.54 144.23 532.3 144.23C533.3 142.23 536.34 135.53 536.9 134.23C545.5 134.23 575.67 134.23 579.97 134.23C581.04 136.59 582.67 140.13 584.77 144.23ZM612.74 188.16C613.07 186.86 613.27 185.53 613.27 184.19C613.27 182.86 613.27 171.93 613.27 170.56C616.34 172.36 618.24 175.63 618.27 179.19C618.27 181.86 617.2 184.39 615.34 186.29C614.57 187.03 613.7 187.66 612.74 188.16ZM596.1 144.23C592.14 137.03 589.27 130.49 588.27 128.19C588.27 127.26 588.27 119.73 588.27 118.79C593.94 119.36 598.24 124.13 598.27 129.83C598.27 131.73 598.27 136.53 598.27 144.23C596.97 144.23 596.24 144.23 596.1 144.23ZM570.67 124.23C563.47 115.23 559.47 110.23 558.67 109.23C558.94 109.23 559.07 109.23 559.1 109.23C566.17 109.19 572.97 111.73 578.27 116.36C578.27 117.43 578.27 120.03 578.27 124.23C577.26 124.23 574.72 124.23 570.67 124.23ZM557.87 124.23C550.35 124.23 546.17 124.23 545.34 124.23C537.04 115.93 532.44 111.29 531.5 110.39C533.67 109.59 535.97 109.19 538.27 109.23C539.27 109.23 541.8 109.23 545.87 109.23C547.47 111.23 551.47 116.23 557.87 124.23ZM518.9 124.23C519.67 121.23 521.1 118.46 523.14 116.16C524.2 117.23 526.9 119.93 531.2 124.23C523.8 124.23 519.7 124.23 518.9 124.23ZM520.97 144.23C520.7 144.23 518.54 144.23 518.27 144.23C518.24 140.79 518.84 137.43 519.94 134.23C519.94 134.23 525.4 134.23 526 134.23C524.5 137.59 522.8 140.93 520.97 144.23ZM503.27 184.19C503.27 185.53 503.44 186.86 503.77 188.13C502.84 187.66 501.97 187.03 501.2 186.26C499.3 184.39 498.27 181.86 498.27 179.19C498.27 175.63 500.17 172.36 503.27 170.56C503.27 171.93 503.27 182.86 503.27 184.19ZM550.2 192.83C550.64 192.16 554.2 186.83 554.64 186.16C555.97 184.16 558.67 183.59 560.67 184.93C561.14 185.26 561.54 185.66 561.87 186.16C562.3 186.83 565.87 192.16 566.34 192.83C568.97 196.83 573.47 199.23 578.27 199.19C580.24 199.19 595.97 199.19 597.94 199.19C595.2 221.13 575.17 236.66 553.27 233.89C535.14 231.63 520.84 217.36 518.57 199.19C522.5 199.19 536.3 199.19 538.27 199.19C543.07 199.23 547.54 196.83 550.2 192.83ZM473.27 254.19L453.27 254.19L453.27 214.19L473.27 214.19L473.27 254.19ZM421.27 372.43C421.27 371.96 421.34 371.53 421.37 371.09C421.87 367.36 425.87 337.53 426.37 333.79C427.27 334.06 453.27 334.19 453.27 334.19C453.27 338.09 453.27 369.29 453.27 373.19C453.27 373.46 453.27 373.69 453.24 373.96C452.8 382.79 445.3 389.63 436.47 389.19C427.64 388.76 420.84 381.26 421.27 372.43ZM458.27 324.19C455.37 324.19 432.17 324.19 429.27 324.19C428.7 324.19 428.27 323.76 428.27 323.19C428.27 323.19 428.27 323.19 428.27 323.19C428.27 319.39 428.27 288.99 428.27 285.19C428.27 284.66 428.7 284.19 429.27 284.19C429.27 284.19 429.27 284.19 429.27 284.19C432.17 284.19 455.37 284.19 458.27 284.19C461 284.23 463.27 286.46 463.27 289.19C463.27 295.19 463.27 313.19 463.27 319.19C463.27 321.96 461 324.19 458.27 324.19ZM458.27 274.19C457.94 274.19 456.27 274.19 453.27 274.19C453.27 273.53 453.27 270.19 453.27 264.19C465.27 264.19 471.94 264.19 473.27 264.19C473.27 277.53 473.27 285.86 473.27 289.19C473.24 280.93 466.54 274.23 458.27 274.19ZM510.34 309.19C510.89 307.62 513.68 299.73 518.7 285.53L547.3 347.39C530.34 337.97 520.92 332.74 519.04 331.69C521.47 321.93 522.84 316.49 523.1 315.43C523.47 313.93 523.14 312.36 522.2 311.13C521.24 309.93 519.8 309.19 518.27 309.19C517.74 309.19 515.07 309.19 510.34 309.19ZM593.27 314.23C593.27 314.63 593.3 315.03 593.4 315.43C593.67 316.49 595.04 321.93 597.47 331.69C595.59 332.74 586.18 337.97 569.24 347.39L597.8 285.49C602.84 299.71 605.64 307.61 606.2 309.19C601.97 309.19 599.3 309.19 598.27 309.19C595.5 309.23 593.27 311.46 593.27 314.23ZM633.37 359.19C624.97 359.16 618.2 352.29 618.27 343.89C618.27 341.56 618.84 339.26 619.87 337.19C620.47 335.99 623.47 329.99 628.84 319.19C634.72 319.19 681.79 319.19 687.67 319.19C689.8 323.49 691 325.89 691.24 326.36C690.87 326.49 690.5 326.66 690.14 326.83C686.84 328.43 684.4 331.39 683.47 334.93C683.4 335.19 683.07 336.49 682.47 338.83C674.87 332.33 670.67 328.69 669.84 327.96C666.2 324.83 661.34 323.56 656.67 324.49C652.04 325.39 648.07 328.36 645.9 332.56C643.7 336.86 637.1 349.76 634.9 354.06C634.1 355.66 633.57 357.43 633.37 359.19ZM680.4 389.19C676.2 389.19 672.1 387.69 668.87 384.96C666.54 382.96 647.74 367.03 645.4 365.03C645.34 364.99 645.3 364.93 645.24 364.89C643.3 363.43 642.7 360.79 643.8 358.63C644.9 356.46 653.7 339.26 654.84 337.13C655.57 335.66 656.97 334.63 658.6 334.33C658.97 334.26 659.34 334.19 659.7 334.19C661.04 334.19 662.3 334.69 663.3 335.53C665.17 337.16 680.2 350.06 682.07 351.66C684.17 353.46 687.3 353.23 689.1 351.16C689.6 350.56 689.97 349.86 690.17 349.13C690.47 347.96 692.87 338.59 693.17 337.39C693.37 336.73 693.84 336.13 694.5 335.83C695.2 335.49 696.07 335.46 696.8 335.79C697.67 336.16 698.24 337.03 698.27 337.96C698.27 344.66 698.27 364.69 698.27 371.36C698.27 381.23 690.27 389.23 680.4 389.19Z" id="b1eBa6ALV6"></path><path d="M678.27 278.03C678.27 248.73 678.27 232.46 678.27 229.19C678.27 226.46 676 224.19 673.27 224.19C670.27 224.19 646.27 224.19 643.27 224.19C640.5 224.19 638.27 226.46 638.27 229.19C638.27 232.26 638.27 247.56 638.27 275.13C635.77 274.62 623.24 272.11 600.7 267.59C593.24 261.19 589.1 257.64 588.27 256.93C588.27 243.29 588.27 235.73 588.27 234.19C599.44 225.83 606.6 213.13 608 199.19C608.04 199.19 608.24 199.19 608.27 199.19C619.3 199.23 628.27 190.26 628.27 179.23C628.27 170.09 622.1 162.13 613.27 159.83C613.27 159.79 613.27 159.26 613.27 159.23C613.27 154.96 611.44 150.89 608.27 148.03C608.27 146.23 608.27 131.66 608.27 129.83C608.27 118.16 598.8 108.73 587.17 108.73C586.4 108.73 585.6 108.76 584.84 108.86C577.74 102.63 568.57 99.19 559.1 99.23C557.04 99.23 540.34 99.23 538.27 99.23C521.7 99.23 508.27 112.66 508.27 129.23C508.27 130.59 508.84 131.93 509.87 132.89C508.8 136.56 508.27 140.36 508.27 144.23C508.27 144.59 508.27 147.66 508.27 148.03C505.07 150.89 503.27 154.96 503.27 159.23C503.27 159.26 503.27 159.79 503.27 159.83C492.57 162.63 486.14 173.53 488.94 184.23C491.2 193.03 499.17 199.19 508.27 199.19C508.27 199.19 508.47 199.19 508.5 199.19C509.9 213.13 517.07 225.83 528.27 234.19C528.27 235.73 528.27 243.29 528.27 256.93C527.44 257.64 523.28 261.19 515.8 267.59C496.28 271.51 485.44 273.69 483.27 274.13C483.27 235.16 483.27 213.53 483.27 209.19C483.27 206.46 481 204.19 478.27 204.19C475.27 204.19 451.27 204.19 448.27 204.19C445.5 204.19 443.27 206.46 443.27 209.19C443.27 213.53 443.27 235.19 443.27 274.19C434.87 274.19 430.2 274.19 429.27 274.19C423.17 274.23 418.27 279.13 418.27 285.19C418.27 287.46 418.27 298.69 418.27 318.89C414.17 349.43 411.94 366.39 411.47 369.76C409.6 384.03 419.67 397.06 433.9 398.93C448.14 400.79 461.2 390.73 463.04 376.49C463.07 376.36 463.07 376.23 463.1 376.09C464.44 374.29 471.17 365.33 483.27 349.19C483.27 352.53 483.27 369.19 483.27 399.19C489.27 399.19 492.6 399.19 493.27 399.19C493.27 360.19 493.27 338.53 493.27 334.19C493.27 331.46 491 329.19 488.27 329.19C486.67 329.19 485.2 329.96 484.27 331.19C482.87 333.06 475.87 342.39 463.27 359.19C463.27 343.69 463.27 335.06 463.27 333.36C469.24 331.23 473.24 325.56 473.27 319.19C473.27 318.43 473.27 312.29 473.27 311.53C479.44 307.93 483.24 301.36 483.27 294.19C483.27 293.56 483.27 290.26 483.27 284.29C485.99 283.75 507.72 279.4 510.44 278.86C503.3 299.09 499.34 310.29 498.54 312.56C497.64 315.16 499 317.99 501.6 318.93C502.14 319.13 502.7 319.19 503.27 319.19C503.84 319.19 506.7 319.19 511.87 319.19C509.77 327.49 508.64 332.09 508.4 332.99C507.87 335.19 508.84 337.49 510.84 338.59C513.67 340.16 527.8 347.99 553.27 362.16C553.27 364.63 553.27 376.97 553.27 399.19L563.27 399.19C563.27 376.97 563.27 364.63 563.27 362.16C588.7 347.99 602.87 340.16 605.67 338.59C607.67 337.49 608.67 335.19 608.1 332.99C607.87 332.09 606.74 327.49 604.67 319.19C609.8 319.19 612.67 319.19 613.27 319.19C616 319.19 618.27 316.96 618.27 314.19C618.27 313.63 618.17 313.09 617.97 312.56C617.17 310.29 613.2 299.09 606.07 278.86C608.96 279.44 632.05 284.08 634.94 284.66C626.77 301.03 622.2 310.13 621.3 311.96C621.3 311.96 621.3 311.96 621.27 311.99C620.24 314.06 611.97 330.63 610.94 332.69C605.5 343.56 608.57 356.76 618.27 364.09C618.27 366.43 618.27 378.13 618.27 399.19C619.27 399.19 627.27 399.19 628.27 399.19C628.27 380.89 628.27 370.69 628.27 368.66C629.97 369.03 631.74 369.19 633.47 369.19C633.7 369.19 635.57 369.19 635.8 369.19C636.67 370.53 637.77 371.73 639 372.69C641.34 374.69 660.07 390.59 662.4 392.59C674.1 402.53 691.67 401.13 701.64 389.39C705.9 384.36 708.27 377.96 708.27 371.36C708.27 368.03 708.27 341.29 708.27 337.96C708.24 334.06 706.4 330.43 703.3 328.09C703.3 328.09 700.6 322.73 695.24 311.96C691.84 305.17 679.97 281.42 678.27 278.03ZM668.27 234.19C668.27 261.19 668.27 276.19 668.27 279.19C668.27 279.99 668.44 280.76 668.77 281.46C669.7 283.29 674.34 292.56 682.67 309.19C677.79 309.19 638.72 309.19 633.84 309.19C641.64 293.66 645.94 284.99 646.8 283.26C646.8 283.26 648.27 279.99 648.27 279.19C648.27 273.19 648.27 258.19 648.27 234.19C652.27 234.19 666.27 234.19 668.27 234.19ZM578.27 257.39C576.94 258.99 570.27 266.99 558.27 281.39C546.27 266.99 539.6 258.99 538.27 257.39C538.27 246.99 538.27 241.19 538.27 240.03C544.57 242.79 551.37 244.23 558.27 244.19C565.14 244.23 571.94 242.79 578.27 240.03C578.27 241.19 578.27 246.99 578.27 257.39ZM553.27 336.46L553.27 302.73L558.27 296.89L563.27 302.73L563.27 336.46L558.27 347.29L553.27 336.46ZM564.8 289.16L583.84 266.29L592.3 273.59L578 304.56L564.8 289.16ZM538.5 304.56L524.2 273.59L532.67 266.29L551.7 289.16L538.5 304.56ZM518.27 154.23C526.27 154.23 590.27 154.23 598.27 154.23C601 154.23 603.27 156.46 603.27 159.23C603.27 161.73 603.27 181.69 603.27 184.19C603.27 186.96 601 189.19 598.27 189.19C596.27 189.19 580.27 189.19 578.27 189.19C576.8 189.23 575.44 188.49 574.64 187.26C574.2 186.59 570.64 181.26 570.2 180.59C565.8 173.99 556.9 172.23 550.3 176.63C548.74 177.66 547.37 179.03 546.34 180.59C545.87 181.26 542.3 186.59 541.87 187.26C541.07 188.49 539.7 189.23 538.27 189.19C536.27 189.19 520.27 189.19 518.27 189.19C515.5 189.19 513.27 186.96 513.27 184.19C513.27 179.19 513.27 161.73 513.27 159.23C513.27 156.46 515.5 154.23 518.27 154.23ZM584.77 144.23C579.54 144.23 537.54 144.23 532.3 144.23C533.3 142.23 536.34 135.53 536.9 134.23C545.5 134.23 575.67 134.23 579.97 134.23C581.04 136.59 582.67 140.13 584.77 144.23ZM612.74 188.16C613.07 186.86 613.27 185.53 613.27 184.19C613.27 182.86 613.27 171.93 613.27 170.56C616.34 172.36 618.24 175.63 618.27 179.19C618.27 181.86 617.2 184.39 615.34 186.29C614.57 187.03 613.7 187.66 612.74 188.16ZM596.1 144.23C592.14 137.03 589.27 130.49 588.27 128.19C588.27 127.26 588.27 119.73 588.27 118.79C593.94 119.36 598.24 124.13 598.27 129.83C598.27 131.73 598.27 136.53 598.27 144.23C596.97 144.23 596.24 144.23 596.1 144.23ZM570.67 124.23C563.47 115.23 559.47 110.23 558.67 109.23C558.94 109.23 559.07 109.23 559.1 109.23C566.17 109.19 572.97 111.73 578.27 116.36C578.27 117.43 578.27 120.03 578.27 124.23C577.26 124.23 574.72 124.23 570.67 124.23ZM557.87 124.23C550.35 124.23 546.17 124.23 545.34 124.23C537.04 115.93 532.44 111.29 531.5 110.39C533.67 109.59 535.97 109.19 538.27 109.23C539.27 109.23 541.8 109.23 545.87 109.23C547.47 111.23 551.47 116.23 557.87 124.23ZM518.9 124.23C519.67 121.23 521.1 118.46 523.14 116.16C524.2 117.23 526.9 119.93 531.2 124.23C523.8 124.23 519.7 124.23 518.9 124.23ZM520.97 144.23C520.7 144.23 518.54 144.23 518.27 144.23C518.24 140.79 518.84 137.43 519.94 134.23C519.94 134.23 525.4 134.23 526 134.23C524.5 137.59 522.8 140.93 520.97 144.23ZM503.27 184.19C503.27 185.53 503.44 186.86 503.77 188.13C502.84 187.66 501.97 187.03 501.2 186.26C499.3 184.39 498.27 181.86 498.27 179.19C498.27 175.63 500.17 172.36 503.27 170.56C503.27 171.93 503.27 182.86 503.27 184.19ZM550.2 192.83C550.64 192.16 554.2 186.83 554.64 186.16C555.97 184.16 558.67 183.59 560.67 184.93C561.14 185.26 561.54 185.66 561.87 186.16C562.3 186.83 565.87 192.16 566.34 192.83C568.97 196.83 573.47 199.23 578.27 199.19C580.24 199.19 595.97 199.19 597.94 199.19C595.2 221.13 575.17 236.66 553.27 233.89C535.14 231.63 520.84 217.36 518.57 199.19C522.5 199.19 536.3 199.19 538.27 199.19C543.07 199.23 547.54 196.83 550.2 192.83ZM473.27 254.19L453.27 254.19L453.27 214.19L473.27 214.19L473.27 254.19ZM421.27 372.43C421.27 371.96 421.34 371.53 421.37 371.09C421.87 367.36 425.87 337.53 426.37 333.79C427.27 334.06 453.27 334.19 453.27 334.19C453.27 338.09 453.27 369.29 453.27 373.19C453.27 373.46 453.27 373.69 453.24 373.96C452.8 382.79 445.3 389.63 436.47 389.19C427.64 388.76 420.84 381.26 421.27 372.43ZM458.27 324.19C455.37 324.19 432.17 324.19 429.27 324.19C428.7 324.19 428.27 323.76 428.27 323.19C428.27 323.19 428.27 323.19 428.27 323.19C428.27 319.39 428.27 288.99 428.27 285.19C428.27 284.66 428.7 284.19 429.27 284.19C429.27 284.19 429.27 284.19 429.27 284.19C432.17 284.19 455.37 284.19 458.27 284.19C461 284.23 463.27 286.46 463.27 289.19C463.27 295.19 463.27 313.19 463.27 319.19C463.27 321.96 461 324.19 458.27 324.19ZM458.27 274.19C457.94 274.19 456.27 274.19 453.27 274.19C453.27 273.53 453.27 270.19 453.27 264.19C465.27 264.19 471.94 264.19 473.27 264.19C473.27 277.53 473.27 285.86 473.27 289.19C473.24 280.93 466.54 274.23 458.27 274.19ZM510.34 309.19C510.89 307.62 513.68 299.73 518.7 285.53L547.3 347.39C530.34 337.97 520.92 332.74 519.04 331.69C521.47 321.93 522.84 316.49 523.1 315.43C523.47 313.93 523.14 312.36 522.2 311.13C521.24 309.93 519.8 309.19 518.27 309.19C517.74 309.19 515.07 309.19 510.34 309.19ZM593.27 314.23C593.27 314.63 593.3 315.03 593.4 315.43C593.67 316.49 595.04 321.93 597.47 331.69C595.59 332.74 586.18 337.97 569.24 347.39L597.8 285.49C602.84 299.71 605.64 307.61 606.2 309.19C601.97 309.19 599.3 309.19 598.27 309.19C595.5 309.23 593.27 311.46 593.27 314.23ZM633.37 359.19C624.97 359.16 618.2 352.29 618.27 343.89C618.27 341.56 618.84 339.26 619.87 337.19C620.47 335.99 623.47 329.99 628.84 319.19C634.72 319.19 681.79 319.19 687.67 319.19C689.8 323.49 691 325.89 691.24 326.36C690.87 326.49 690.5 326.66 690.14 326.83C686.84 328.43 684.4 331.39 683.47 334.93C683.4 335.19 683.07 336.49 682.47 338.83C674.87 332.33 670.67 328.69 669.84 327.96C666.2 324.83 661.34 323.56 656.67 324.49C652.04 325.39 648.07 328.36 645.9 332.56C643.7 336.86 637.1 349.76 634.9 354.06C634.1 355.66 633.57 357.43 633.37 359.19ZM680.4 389.19C676.2 389.19 672.1 387.69 668.87 384.96C666.54 382.96 647.74 367.03 645.4 365.03C645.34 364.99 645.3 364.93 645.24 364.89C643.3 363.43 642.7 360.79 643.8 358.63C644.9 356.46 653.7 339.26 654.84 337.13C655.57 335.66 656.97 334.63 658.6 334.33C658.97 334.26 659.34 334.19 659.7 334.19C661.04 334.19 662.3 334.69 663.3 335.53C665.17 337.16 680.2 350.06 682.07 351.66C684.17 353.46 687.3 353.23 689.1 351.16C689.6 350.56 689.97 349.86 690.17 349.13C690.47 347.96 692.87 338.59 693.17 337.39C693.37 336.73 693.84 336.13 694.5 335.83C695.2 335.49 696.07 335.46 696.8 335.79C697.67 336.16 698.24 337.03 698.27 337.96C698.27 344.66 698.27 364.69 698.27 371.36C698.27 381.23 690.27 389.23 680.4 389.19Z" id="f6A9ID70jc"></path></defs><g><g><use xlink:href="#agcChVOof" opacity="1" fill="#ffffff" fill-opacity="1"></use><g><use xlink:href="#agcChVOof" opacity="1" fill-opacity="0" stroke="#000000" stroke-width="1" stroke-opacity="0"></use></g></g><g><use xlink:href="#i1dHLps9Wy" opacity="1" fill="#000000" fill-opacity="0"></use><g><use xlink:href="#i1dHLps9Wy" opacity="1" fill-opacity="0" stroke="#003068" stroke-width="4" stroke-opacity="1"></use></g></g><g><use xlink:href="#bsXCIlPs0" opacity="1" fill="#fec9a3" fill-opacity="1"></use><g><use xlink:href="#bsXCIlPs0" opacity="1" fill-opacity="0" stroke="#000000" stroke-width="1" stroke-opacity="0"></use></g></g><g><use xlink:href="#a2jHbPglSP" opacity="1" fill="#000000" fill-opacity="0"></use><g><use xlink:href="#a2jHbPglSP" opacity="1" fill-opacity="0" stroke="#000000" stroke-width="1" stroke-opacity="0"></use></g></g><g><use xlink:href="#btujXtUFl" opacity="1" fill="#348fd9" fill-opacity="1"></use><g><use xlink:href="#btujXtUFl" opacity="1" fill-opacity="0" stroke="#000000" stroke-width="1" stroke-opacity="0"></use></g></g><g><use xlink:href="#dVm7ca5H4" opacity="1" fill="#000000" fill-opacity="0"></use><g><use xlink:href="#dVm7ca5H4" opacity="1" fill-opacity="0" stroke="#000000" stroke-width="1" stroke-opacity="0"></use></g></g><g><use xlink:href="#d9QWjDTWs" opacity="1" fill="#feb784" fill-opacity="1"></use><g><use xlink:href="#d9QWjDTWs" opacity="1" fill-opacity="0" stroke="#000000" stroke-width="1" stroke-opacity="0"></use></g></g><g><use xlink:href="#bfN1fqDyL" opacity="1" fill="#000000" fill-opacity="0"></use><g><use xlink:href="#bfN1fqDyL" opacity="1" fill-opacity="0" stroke="#000000" stroke-width="1" stroke-opacity="0"></use></g></g><g><use xlink:href="#a4Yl4peA14" opacity="1" fill="#348fd9" fill-opacity="1"></use><g><use xlink:href="#a4Yl4peA14" opacity="1" fill-opacity="0" stroke="#000000" stroke-width="1" stroke-opacity="0"></use></g></g><g><use xlink:href="#d1cLiQbhRw" opacity="1" fill="#000000" fill-opacity="0"></use><g><use xlink:href="#d1cLiQbhRw" opacity="1" fill-opacity="0" stroke="#000000" stroke-width="1" stroke-opacity="0"></use></g></g><g><use xlink:href="#g4v4kD8xQ" opacity="1" fill="#e0e0de" fill-opacity="1"></use><g><use xlink:href="#g4v4kD8xQ" opacity="1" fill-opacity="0" stroke="#000000" stroke-width="1" stroke-opacity="0"></use></g></g><g><use xlink:href="#e1fiWoa965" opacity="1" fill="#000000" fill-opacity="0"></use><g><use xlink:href="#e1fiWoa965" opacity="1" fill-opacity="0" stroke="#000000" stroke-width="1" stroke-opacity="0"></use></g></g><g><use xlink:href="#b2w1Jn3qG" opacity="1" fill="#d6d6d4" fill-opacity="1"></use><g><use xlink:href="#b2w1Jn3qG" opacity="1" fill-opacity="0" stroke="#000000" stroke-width="1" stroke-opacity="0"></use></g></g><g><use xlink:href="#b34emry6lr" opacity="1" fill="#000000" fill-opacity="0"></use><g><use xlink:href="#b34emry6lr" opacity="1" fill-opacity="0" stroke="#000000" stroke-width="1" stroke-opacity="0"></use></g></g><g><use xlink:href="#ar0tc3qG" opacity="1" fill="#ebebe9" fill-opacity="1"></use><g><use xlink:href="#ar0tc3qG" opacity="1" fill-opacity="0" stroke="#000000" stroke-width="1" stroke-opacity="0"></use></g></g><g><use xlink:href="#f1PKhQOmZU" opacity="1" fill="#000000" fill-opacity="0"></use><g><use xlink:href="#f1PKhQOmZU" opacity="1" fill-opacity="0" stroke="#000000" stroke-width="1" stroke-opacity="0"></use></g></g><g><use xlink:href="#cUGZ9EJp" opacity="1" fill="#4db7e5" fill-opacity="1"></use><g><use xlink:href="#cUGZ9EJp" opacity="1" fill-opacity="0" stroke="#000000" stroke-width="1" stroke-opacity="0"></use></g></g><g><use xlink:href="#aB9d78Vha" opacity="1" fill="#000000" fill-opacity="0"></use><g><use xlink:href="#aB9d78Vha" opacity="1" fill-opacity="0" stroke="#000000" stroke-width="1" stroke-opacity="0"></use></g></g><g><use xlink:href="#a14GylI7To" opacity="1" fill="#ffb531" fill-opacity="1"></use><g><use xlink:href="#a14GylI7To" opacity="1" fill-opacity="0" stroke="#000000" stroke-width="1" stroke-opacity="0"></use></g></g><g><use xlink:href="#f8NTW0vqWk" opacity="1" fill="#000000" fill-opacity="0"></use><g><use xlink:href="#f8NTW0vqWk" opacity="1" fill-opacity="0" stroke="#000000" stroke-width="1" stroke-opacity="0"></use></g></g><g><use xlink:href="#d3KGj7W5Fo" opacity="1" fill="#fec9a3" fill-opacity="1"></use><g><use xlink:href="#d3KGj7W5Fo" opacity="1" fill-opacity="0" stroke="#000000" stroke-width="1" stroke-opacity="0"></use></g></g><g><use xlink:href="#b4lKmvl1mZ" opacity="1" fill="#000000" fill-opacity="0"></use><g><use xlink:href="#b4lKmvl1mZ" opacity="1" fill-opacity="0" stroke="#000000" stroke-width="1" stroke-opacity="0"></use></g></g><g><use xlink:href="#d2hZaW0lFD" opacity="1" fill="#feb784" fill-opacity="1"></use><g><use xlink:href="#d2hZaW0lFD" opacity="1" fill-opacity="0" stroke="#000000" stroke-width="1" stroke-opacity="0"></use></g></g><g><use xlink:href="#d1nW1xtKQg" opacity="1" fill="#000000" fill-opacity="0"></use><g><use xlink:href="#d1nW1xtKQg" opacity="1" fill-opacity="0" stroke="#000000" stroke-width="1" stroke-opacity="0"></use></g></g><g><use xlink:href="#b23x1iI557" opacity="1" fill="#feb784" fill-opacity="1"></use><g><use xlink:href="#b23x1iI557" opacity="1" fill-opacity="0" stroke="#000000" stroke-width="1" stroke-opacity="0"></use></g></g><g><use xlink:href="#b2iUnjOMnJ" opacity="1" fill="#000000" fill-opacity="0"></use><g><use xlink:href="#b2iUnjOMnJ" opacity="1" fill-opacity="0" stroke="#000000" stroke-width="1" stroke-opacity="0"></use></g></g><g><use xlink:href="#d54kptn7I3" opacity="1" fill="#fec9a3" fill-opacity="1"></use><g><use xlink:href="#d54kptn7I3" opacity="1" fill-opacity="0" stroke="#000000" stroke-width="1" stroke-opacity="0"></use></g></g><g><use xlink:href="#jd1mBzM7M" opacity="1" fill="#000000" fill-opacity="0"></use><g><use xlink:href="#jd1mBzM7M" opacity="1" fill-opacity="0" stroke="#000000" stroke-width="1" stroke-opacity="0"></use></g></g><g><use xlink:href="#jLQ4CtZAh" opacity="1" fill="#f27900" fill-opacity="1"></use><g><use xlink:href="#jLQ4CtZAh" opacity="1" fill-opacity="0" stroke="#000000" stroke-width="1" stroke-opacity="0"></use></g></g><g><use xlink:href="#d1WmYH9Gso" opacity="1" fill="#000000" fill-opacity="0"></use><g><use xlink:href="#d1WmYH9Gso" opacity="1" fill-opacity="0" stroke="#000000" stroke-width="1" stroke-opacity="0"></use></g></g><g><use xlink:href="#b4DDSMqga" opacity="1" fill="#fec093" fill-opacity="1"></use><g><use xlink:href="#b4DDSMqga" opacity="1" fill-opacity="0" stroke="#000000" stroke-width="1" stroke-opacity="0"></use></g></g><g><use xlink:href="#b5CoG1gROK" opacity="1" fill="#000000" fill-opacity="0"></use><g><use xlink:href="#b5CoG1gROK" opacity="1" fill-opacity="0" stroke="#000000" stroke-width="1" stroke-opacity="0"></use></g></g><g><use xlink:href="#ams06SP0A" opacity="1" fill="#f98500" fill-opacity="1"></use><g><use xlink:href="#ams06SP0A" opacity="1" fill-opacity="0" stroke="#000000" stroke-width="1" stroke-opacity="0"></use></g></g><g><use xlink:href="#aGhr2RlTb" opacity="1" fill="#000000" fill-opacity="0"></use><g><use xlink:href="#aGhr2RlTb" opacity="1" fill-opacity="0" stroke="#000000" stroke-width="1" stroke-opacity="0"></use></g></g><g><use xlink:href="#d3mYXXEkxT" opacity="1" fill="#f98500" fill-opacity="1"></use><g><use xlink:href="#d3mYXXEkxT" opacity="1" fill-opacity="0" stroke="#000000" stroke-width="1" stroke-opacity="0"></use></g></g><g><use xlink:href="#aGaT2V0f0" opacity="1" fill="#000000" fill-opacity="0"></use><g><use xlink:href="#aGaT2V0f0" opacity="1" fill-opacity="0" stroke="#000000" stroke-width="1" stroke-opacity="0"></use></g></g><g><use xlink:href="#b7COtKcQl" opacity="1" fill="#4db7e5" fill-opacity="1"></use><g><use xlink:href="#b7COtKcQl" opacity="1" fill-opacity="0" stroke="#000000" stroke-width="1" stroke-opacity="0"></use></g></g><g><use xlink:href="#b2XnzuyITf" opacity="1" fill="#000000" fill-opacity="0"></use><g><use xlink:href="#b2XnzuyITf" opacity="1" fill-opacity="0" stroke="#000000" stroke-width="1" stroke-opacity="0"></use></g></g><g><use xlink:href="#b1dDUEsojV" opacity="1" fill="#db6ea2" fill-opacity="1"></use><g><use xlink:href="#b1dDUEsojV" opacity="1" fill-opacity="0" stroke="#000000" stroke-width="1" stroke-opacity="0"></use></g></g><g><use xlink:href="#a1HQ6kZx7" opacity="1" fill="#000000" fill-opacity="0"></use><g><use xlink:href="#a1HQ6kZx7" opacity="1" fill-opacity="0" stroke="#000000" stroke-width="1" stroke-opacity="0"></use></g></g><g><use xlink:href="#bv9GNzAqV" opacity="1" fill="#62a9e6" fill-opacity="1"></use><g><use xlink:href="#bv9GNzAqV" opacity="1" fill-opacity="0" stroke="#000000" stroke-width="1" stroke-opacity="0"></use></g></g><g><use xlink:href="#bPL0Tq8F" opacity="1" fill="#000000" fill-opacity="0"></use><g><use xlink:href="#bPL0Tq8F" opacity="1" fill-opacity="0" stroke="#000000" stroke-width="1" stroke-opacity="0"></use></g></g><g><use xlink:href="#anih1Tfvw" opacity="1" fill="#62a9e6" fill-opacity="1"></use><g><use xlink:href="#anih1Tfvw" opacity="1" fill-opacity="0" stroke="#000000" stroke-width="1" stroke-opacity="0"></use></g></g><g><use xlink:href="#a4cf3qHQrT" opacity="1" fill="#000000" fill-opacity="0"></use><g><use xlink:href="#a4cf3qHQrT" opacity="1" fill-opacity="0" stroke="#000000" stroke-width="1" stroke-opacity="0"></use></g></g><g><use xlink:href="#f14CYuAC7J" opacity="1" fill="#95573a" fill-opacity="1"></use><g><use xlink:href="#f14CYuAC7J" opacity="1" fill-opacity="0" stroke="#000000" stroke-width="1" stroke-opacity="0"></use></g></g><g><use xlink:href="#a2X2tkBi2j" opacity="1" fill="#000000" fill-opacity="0"></use><g><use xlink:href="#a2X2tkBi2j" opacity="1" fill-opacity="0" stroke="#000000" stroke-width="1" stroke-opacity="0"></use></g></g><g><use xlink:href="#d1MV2TVVml" opacity="1" fill="#ebebe9" fill-opacity="1"></use><g><use xlink:href="#d1MV2TVVml" opacity="1" fill-opacity="0" stroke="#000000" stroke-width="1" stroke-opacity="0"></use></g></g><g><use xlink:href="#c9lp9HWZ3K" opacity="1" fill="#000000" fill-opacity="0"></use><g><use xlink:href="#c9lp9HWZ3K" opacity="1" fill-opacity="0" stroke="#000000" stroke-width="1" stroke-opacity="0"></use></g></g><g><use xlink:href="#aOkDD4Ouq" opacity="1" fill="#ebebe9" fill-opacity="1"></use><g><use xlink:href="#aOkDD4Ouq" opacity="1" fill-opacity="0" stroke="#000000" stroke-width="1" stroke-opacity="0"></use></g></g><g><use xlink:href="#bBL6RkWwV" opacity="1" fill="#000000" fill-opacity="0"></use><g><use xlink:href="#bBL6RkWwV" opacity="1" fill-opacity="0" stroke="#000000" stroke-width="1" stroke-opacity="0"></use></g></g><g><use xlink:href="#aP6QDw18y" opacity="1" fill="#4db7e5" fill-opacity="1"></use><g><use xlink:href="#aP6QDw18y" opacity="1" fill-opacity="0" stroke="#000000" stroke-width="1" stroke-opacity="0"></use></g></g><g><use xlink:href="#a9pCn3ITU4" opacity="1" fill="#000000" fill-opacity="0"></use><g><use xlink:href="#a9pCn3ITU4" opacity="1" fill-opacity="0" stroke="#000000" stroke-width="1" stroke-opacity="0"></use></g></g><g><use xlink:href="#c1p6SVc38h" opacity="1" fill="#48add9" fill-opacity="1"></use><g><use xlink:href="#c1p6SVc38h" opacity="1" fill-opacity="0" stroke="#000000" stroke-width="1" stroke-opacity="0"></use></g></g><g><use xlink:href="#bOsVqIjq7" opacity="1" fill="#000000" fill-opacity="0"></use><g><use xlink:href="#bOsVqIjq7" opacity="1" fill-opacity="0" stroke="#000000" stroke-width="1" stroke-opacity="0"></use></g></g><g><use xlink:href="#bEd3Dh1MB" opacity="1" fill="#d3669a" fill-opacity="1"></use><g><use xlink:href="#bEd3Dh1MB" opacity="1" fill-opacity="0" stroke="#000000" stroke-width="1" stroke-opacity="0"></use></g></g><g><use xlink:href="#adn8b7FnU" opacity="1" fill="#000000" fill-opacity="0"></use><g><use xlink:href="#adn8b7FnU" opacity="1" fill-opacity="0" stroke="#000000" stroke-width="1" stroke-opacity="0"></use></g></g><g><use xlink:href="#b3VnnsKUIx" opacity="1" fill="#48add9" fill-opacity="1"></use><g><use xlink:href="#b3VnnsKUIx" opacity="1" fill-opacity="0" stroke="#000000" stroke-width="1" stroke-opacity="0"></use></g></g><g><use xlink:href="#keudeYa0h" opacity="1" fill="#000000" fill-opacity="0"></use><g><use xlink:href="#keudeYa0h" opacity="1" fill-opacity="0" stroke="#000000" stroke-width="1" stroke-opacity="0"></use></g></g><g><use xlink:href="#d2kI6ysJm" opacity="1" fill="#fec9a3" fill-opacity="1"></use><g><use xlink:href="#d2kI6ysJm" opacity="1" fill-opacity="0" stroke="#000000" stroke-width="1" stroke-opacity="0"></use></g></g><g><use xlink:href="#g1wZTrby2g" opacity="1" fill="#000000" fill-opacity="0"></use><g><use xlink:href="#g1wZTrby2g" opacity="1" fill-opacity="0" stroke="#000000" stroke-width="1" stroke-opacity="0"></use></g></g><g><use xlink:href="#fcR9eKCUA" opacity="1" fill="#fec093" fill-opacity="1"></use><g><use xlink:href="#fcR9eKCUA" opacity="1" fill-opacity="0" stroke="#000000" stroke-width="1" stroke-opacity="0"></use></g></g><g><use xlink:href="#b2VXI1srg" opacity="1" fill="#000000" fill-opacity="0"></use><g><use xlink:href="#b2VXI1srg" opacity="1" fill-opacity="0" stroke="#000000" stroke-width="1" stroke-opacity="0"></use></g></g><g><use xlink:href="#eFtTsV6sE" opacity="1" fill="#fec093" fill-opacity="1"></use><g><use xlink:href="#eFtTsV6sE" opacity="1" fill-opacity="0" stroke="#000000" stroke-width="1" stroke-opacity="0"></use></g></g><g><use xlink:href="#bvhir9r90" opacity="1" fill="#000000" fill-opacity="0"></use><g><use xlink:href="#bvhir9r90" opacity="1" fill-opacity="0" stroke="#000000" stroke-width="1" stroke-opacity="0"></use></g></g><g><use xlink:href="#cfQnGTEr9" opacity="1" fill="#000000" fill-opacity="1"></use><g><use xlink:href="#cfQnGTEr9" opacity="1" fill-opacity="0" stroke="#000000" stroke-width="1" stroke-opacity="0"></use></g></g><g><use xlink:href="#b107Ky4eNw" opacity="1" fill="#000000" fill-opacity="0"></use><g><use xlink:href="#b107Ky4eNw" opacity="1" fill-opacity="0" stroke="#000000" stroke-width="1" stroke-opacity="0"></use></g></g><g><use xlink:href="#dh9R2b6n5" opacity="1" fill="#000000" fill-opacity="1"></use><g><use xlink:href="#dh9R2b6n5" opacity="1" fill-opacity="0" stroke="#000000" stroke-width="1" stroke-opacity="0"></use></g></g><g><use xlink:href="#bjxskkORn" opacity="1" fill="#000000" fill-opacity="0"></use><g><use xlink:href="#bjxskkORn" opacity="1" fill-opacity="0" stroke="#000000" stroke-width="1" stroke-opacity="0"></use></g></g><g><use xlink:href="#ahoRJNJhD" opacity="1" fill="#000000" fill-opacity="1"></use><g><use xlink:href="#ahoRJNJhD" opacity="1" fill-opacity="0" stroke="#000000" stroke-width="1" stroke-opacity="0"></use></g></g><g><use xlink:href="#b3BwznB9gf" opacity="1" fill="#000000" fill-opacity="0"></use><g><use xlink:href="#b3BwznB9gf" opacity="1" fill-opacity="0" stroke="#000000" stroke-width="1" stroke-opacity="0"></use></g></g><g><use xlink:href="#guipZipHj" opacity="1" fill="#000000" fill-opacity="1"></use><g><use xlink:href="#guipZipHj" opacity="1" fill-opacity="0" stroke="#000000" stroke-width="1" stroke-opacity="0"></use></g></g><g><use xlink:href="#e23wAcBi" opacity="1" fill="#000000" fill-opacity="0"></use><g><use xlink:href="#e23wAcBi" opacity="1" fill-opacity="0" stroke="#000000" stroke-width="1" stroke-opacity="0"></use></g></g><g><use xlink:href="#bEwm9HYLJ" opacity="1" fill="#000000" fill-opacity="1"></use><g><use xlink:href="#bEwm9HYLJ" opacity="1" fill-opacity="0" stroke="#000000" stroke-width="1" stroke-opacity="0"></use></g></g><g><use xlink:href="#crCfAICh" opacity="1" fill="#000000" fill-opacity="0"></use><g><use xlink:href="#crCfAICh" opacity="1" fill-opacity="0" stroke="#000000" stroke-width="1" stroke-opacity="0"></use></g></g><g><use xlink:href="#b1vlMp1Pao" opacity="1" fill="#000000" fill-opacity="1"></use><g><use xlink:href="#b1vlMp1Pao" opacity="1" fill-opacity="0" stroke="#000000" stroke-width="1" stroke-opacity="0"></use></g></g><g><use xlink:href="#a7KQDP6Lvb" opacity="1" fill="#000000" fill-opacity="0"></use><g><use xlink:href="#a7KQDP6Lvb" opacity="1" fill-opacity="0" stroke="#000000" stroke-width="1" stroke-opacity="0"></use></g></g><g><use xlink:href="#b1eBa6ALV6" opacity="1" fill="#000000" fill-opacity="1"></use><g><use xlink:href="#b1eBa6ALV6" opacity="1" fill-opacity="0" stroke="#000000" stroke-width="1" stroke-opacity="0"></use></g></g><g><use xlink:href="#f6A9ID70jc" opacity="1" fill="#000000" fill-opacity="0"></use><g><use xlink:href="#f6A9ID70jc" opacity="1" fill-opacity="0" stroke="#000000" stroke-width="1" stroke-opacity="0"></use></g></g></g></svg>