<?xml version="1.0" encoding="UTF-8" standalone="no"?>
<!DOCTYPE svg PUBLIC "-//W3C//DTD SVG 1.1//EN" "http://www.w3.org/Graphics/SVG/1.1/DTD/svg11.dtd">
<svg version="1.1" xmlns="http://www.w3.org/2000/svg" xmlns:xlink="http://www.w3.org/1999/xlink" preserveAspectRatio="xMidYMid meet" viewBox="184.07 62.339999999999975 404.9999999999997 405.00000000000006" width="400" height="400"><defs><path d="M186.07 264.34C186.07 374.77 275.6 464.34 386.07 464.34C496.54 464.34 586.07 374.77 586.07 264.34C586.07 153.87 496.54 64.34 386.07 64.34C275.6 64.34 186.07 153.87 186.07 264.34Z" id="j2eiE9iq0"></path><path d="M186.07 264.34C186.07 374.77 275.6 464.34 386.07 464.34C496.54 464.34 586.07 374.77 586.07 264.34C586.07 153.87 496.54 64.34 386.07 64.34C275.6 64.34 186.07 153.87 186.07 264.34Z" id="e9GioFUvi"></path><path d="M318.5 152.11L318.5 386.77L250.07 386.77L250.07 152.11L318.5 152.11Z" id="bMpvSFwzR"></path><path d="M318.5 152.11L318.5 386.77L250.07 386.77L250.07 152.11L318.5 152.11Z" id="j5XeCpbP3"></path><path d="M318.5 386.77C318.5 282.21 318.5 224.14 318.5 212.51C299.4 257.27 271.84 295.21 250.07 321.01C250.07 329.77 250.07 351.71 250.07 386.77C263.76 386.77 311.66 386.77 318.5 386.77Z" id="d41ZTWryJh"></path><path d="M318.5 386.77C318.5 282.21 318.5 224.14 318.5 212.51C299.4 257.27 271.84 295.21 250.07 321.01C250.07 329.77 250.07 351.71 250.07 386.77C263.76 386.77 311.66 386.77 318.5 386.77Z" id="a8QUs6cvP"></path><path d="M250.07 152.11C250.07 171.01 265.4 186.34 284.3 186.34C303.2 186.34 318.5 171.01 318.5 152.11C318.5 133.21 303.2 117.87 284.3 117.87C265.4 117.87 250.07 133.21 250.07 152.11Z" id="bJWEWO92z"></path><path d="M250.07 152.11C250.07 171.01 265.4 186.34 284.3 186.34C303.2 186.34 318.5 171.01 318.5 152.11C318.5 133.21 303.2 117.87 284.3 117.87C265.4 117.87 250.07 133.21 250.07 152.11Z" id="c1gaDjliH8"></path><path d="M269.64 152.11C269.64 160.21 276.2 166.77 284.3 166.77C292.4 166.77 298.97 160.21 298.97 152.11C298.97 144.01 292.4 137.44 284.3 137.44C276.2 137.44 269.64 144.01 269.64 152.11Z" id="b1kAdbklSV"></path><path d="M269.64 152.11C269.64 160.21 276.2 166.77 284.3 166.77C292.4 166.77 298.97 160.21 298.97 152.11C298.97 144.01 292.4 137.44 284.3 137.44C276.2 137.44 269.64 144.01 269.64 152.11Z" id="b2bAqeZhcH"></path><path d="M318.5 205.87L318.5 225.44L250.07 225.44L250.07 205.87L318.5 205.87Z" id="a6Z4uJnliO"></path><path d="M318.5 205.87L318.5 225.44L250.07 225.44L250.07 205.87L318.5 205.87Z" id="c4SgmONoy"></path><path d="M318.5 323.21L318.5 342.77L250.07 342.77L250.07 323.21L318.5 323.21Z" id="a39IwoQMOV"></path><path d="M318.5 323.21L318.5 342.77L250.07 342.77L250.07 323.21L318.5 323.21Z" id="b5mLDZnh7"></path><path d="M303.84 225.44L303.84 205.87L342.97 205.87L357.64 225.44L303.84 225.44Z" id="a19usR7Drw"></path><path d="M303.84 225.44L303.84 205.87L342.97 205.87L357.64 225.44L303.84 225.44Z" id="b2IydTC2MT"></path><path d="M303.84 342.77L303.84 323.21L357.64 323.21L342.97 342.77L303.84 342.77Z" id="a3HoESTHfJ"></path><path d="M303.84 342.77L303.84 323.21L357.64 323.21L342.97 342.77L303.84 342.77Z" id="a6xgs2UTwG"></path><path d="M357.64 225.44L357.64 323.21L338.07 323.21L338.07 225.44L357.64 225.44Z" id="b1tNXXkeAB"></path><path d="M357.64 225.44L357.64 323.21L338.07 323.21L338.07 225.44L357.64 225.44Z" id="a4sXnMKbu6"></path><path d="M372.3 161.87L372.3 171.67L357.64 171.67L357.64 161.87L372.3 161.87Z" id="d2TAM9Hls"></path><path d="M372.3 161.87L372.3 171.67L357.64 171.67L357.64 161.87L372.3 161.87Z" id="arzIxJYnl"></path><path d="M502.6 378.04C500.8 375.44 491.84 362.41 475.67 338.97C475.15 338.22 472.56 334.47 467.9 327.71L460.3 327.71L460.3 391.64L362.5 391.64L362.5 327.71L354.9 327.71C349.86 335.05 347.06 339.12 346.5 339.94C330.74 362.81 321.97 375.51 320.2 378.04C315.94 386.07 305.94 389.11 297.94 384.84C290.5 380.87 287.27 371.97 290.37 364.17C290.87 363.17 293.24 358.21 297.54 349.24C317.54 307.44 328.64 284.24 330.87 279.57C335.34 270.27 344.37 263.97 354.67 263.04C355.44 262.97 359.24 262.64 366.04 262.01C367.91 261.84 382.93 260.48 384.8 260.31C386.37 260.14 387.24 260.07 387.4 260.07C389.94 259.84 391.87 257.71 391.84 255.21C391.84 252.87 391.84 241.34 391.84 220.54C395.75 220.54 427.06 220.54 430.97 220.54C430.97 241.34 430.97 252.87 430.97 255.21C430.97 257.71 432.9 259.84 435.4 260.07C435.6 260.07 436.5 260.17 438.1 260.31C439.95 260.47 454.75 261.81 456.6 261.97C463.54 262.61 467.37 262.97 468.14 263.04C478.44 263.97 487.47 270.27 491.94 279.57C494.14 284.17 505.14 307.17 524.94 348.54C529.44 357.91 531.94 363.14 532.44 364.17C533.24 366.11 533.64 368.21 533.64 370.31C533.6 379.41 526.24 386.77 517.1 386.77C511.04 386.74 505.47 383.41 502.6 378.04Z" id="d4anLQOkdp"></path><path d="M502.6 378.04C500.8 375.44 491.84 362.41 475.67 338.97C475.15 338.22 472.56 334.47 467.9 327.71L460.3 327.71L460.3 391.64L362.5 391.64L362.5 327.71L354.9 327.71C349.86 335.05 347.06 339.12 346.5 339.94C330.74 362.81 321.97 375.51 320.2 378.04C315.94 386.07 305.94 389.11 297.94 384.84C290.5 380.87 287.27 371.97 290.37 364.17C290.87 363.17 293.24 358.21 297.54 349.24C317.54 307.44 328.64 284.24 330.87 279.57C335.34 270.27 344.37 263.97 354.67 263.04C355.44 262.97 359.24 262.64 366.04 262.01C367.91 261.84 382.93 260.48 384.8 260.31C386.37 260.14 387.24 260.07 387.4 260.07C389.94 259.84 391.87 257.71 391.84 255.21C391.84 252.87 391.84 241.34 391.84 220.54C395.75 220.54 427.06 220.54 430.97 220.54C430.97 241.34 430.97 252.87 430.97 255.21C430.97 257.71 432.9 259.84 435.4 260.07C435.6 260.07 436.5 260.17 438.1 260.31C439.95 260.47 454.75 261.81 456.6 261.97C463.54 262.61 467.37 262.97 468.14 263.04C478.44 263.97 487.47 270.27 491.94 279.57C494.14 284.17 505.14 307.17 524.94 348.54C529.44 357.91 531.94 363.14 532.44 364.17C533.24 366.11 533.64 368.21 533.64 370.31C533.6 379.41 526.24 386.77 517.1 386.77C511.04 386.74 505.47 383.41 502.6 378.04Z" id="cMpcjsjZp"></path><path d="M502.6 378.04C500.8 375.44 491.84 362.41 475.67 338.97C480.6 339.93 520.01 347.58 524.94 348.54C529.44 357.91 531.94 363.14 532.44 364.17C533.24 366.11 533.64 368.21 533.64 370.31C533.6 379.41 526.24 386.77 517.1 386.77C511.04 386.74 505.47 383.41 502.6 378.04Z" id="d3FRr1d1wX"></path><path d="M502.6 378.04C500.8 375.44 491.84 362.41 475.67 338.97C480.6 339.93 520.01 347.58 524.94 348.54C529.44 357.91 531.94 363.14 532.44 364.17C533.24 366.11 533.64 368.21 533.64 370.31C533.6 379.41 526.24 386.77 517.1 386.77C511.04 386.74 505.47 383.41 502.6 378.04Z" id="eUQhFdJga"></path><path d="M391.84 220.54C391.84 232.44 391.84 239.04 391.84 240.37C404.17 246.54 418.67 246.54 430.97 240.37C430.97 237.71 430.97 231.11 430.97 220.54C423.14 220.54 395.75 220.54 391.84 220.54Z" id="b1UzQtgTx"></path><path d="M391.84 220.54C391.84 232.44 391.84 239.04 391.84 240.37C404.17 246.54 418.67 246.54 430.97 240.37C430.97 237.71 430.97 231.11 430.97 220.54C423.14 220.54 395.75 220.54 391.84 220.54Z" id="b26yLVKbjF"></path><path d="M445.64 147.21C448.57 147.21 450.2 147.21 450.5 147.21C455.9 147.21 460.3 151.61 460.3 157.01C460.3 162.37 460.3 205.41 460.3 210.77C460.3 226.97 473.44 240.11 489.64 240.11C489.64 231.81 489.64 165.31 489.64 157.01C489.64 140.81 476.5 127.67 460.3 127.67C458.34 127.67 453.44 127.67 445.64 127.67C445.64 131.58 445.64 145.25 445.64 147.21Z" id="a4OPX8YbM"></path><path d="M445.64 147.21C448.57 147.21 450.2 147.21 450.5 147.21C455.9 147.21 460.3 151.61 460.3 157.01C460.3 162.37 460.3 205.41 460.3 210.77C460.3 226.97 473.44 240.11 489.64 240.11C489.64 231.81 489.64 165.31 489.64 157.01C489.64 140.81 476.5 127.67 460.3 127.67C458.34 127.67 453.44 127.67 445.64 127.67C445.64 131.58 445.64 145.25 445.64 147.21Z" id="b2ywe0kLQZ"></path><path d="M411.4 235.21C410.77 235.21 410.1 235.21 409.47 235.17C385.94 234.14 367.4 214.74 367.4 191.21C367.4 187.81 367.4 160.41 367.4 157.01C367.4 135.41 384.9 117.87 406.5 117.87C407.5 117.87 415.3 117.87 416.3 117.87C437.9 117.87 455.4 135.37 455.4 156.97C455.4 156.97 455.4 157.01 455.4 157.01C455.4 163.84 455.4 187.81 455.4 191.21C455.4 215.51 435.7 235.21 411.4 235.21Z" id="b2s4eg7HZv"></path><path d="M411.4 235.21C410.77 235.21 410.1 235.21 409.47 235.17C385.94 234.14 367.4 214.74 367.4 191.21C367.4 187.81 367.4 160.41 367.4 157.01C367.4 135.41 384.9 117.87 406.5 117.87C407.5 117.87 415.3 117.87 416.3 117.87C437.9 117.87 455.4 135.37 455.4 156.97C455.4 156.97 455.4 157.01 455.4 157.01C455.4 163.84 455.4 187.81 455.4 191.21C455.4 215.51 435.7 235.21 411.4 235.21Z" id="j6HluLMDdK"></path><path d="M411.4 235.21C410.77 235.21 410.1 235.21 409.47 235.17C424.04 227.61 433.2 212.54 433.2 196.11C433.2 191.21 433.2 152.11 433.2 147.21C433.24 136.61 429.4 126.37 422.44 118.37C441.44 121.37 455.4 137.77 455.4 157.01C455.4 163.84 455.4 187.81 455.4 191.21C455.4 215.51 435.7 235.21 411.4 235.21Z" id="f18mG4DR3C"></path><path d="M411.4 235.21C410.77 235.21 410.1 235.21 409.47 235.17C424.04 227.61 433.2 212.54 433.2 196.11C433.2 191.21 433.2 152.11 433.2 147.21C433.24 136.61 429.4 126.37 422.44 118.37C441.44 121.37 455.4 137.77 455.4 157.01C455.4 163.84 455.4 187.81 455.4 191.21C455.4 215.51 435.7 235.21 411.4 235.21Z" id="bkVmGDugz"></path><path d="M455.4 166.77C443.67 143.31 437.17 130.27 435.84 127.67C435.84 127.67 432.07 130.67 426 135.04C410.2 146.37 378.8 166.77 357.64 166.77C357.64 165.31 357.64 153.57 357.64 152.11C357.64 125.11 379.5 103.21 406.5 103.21C407.5 103.21 415.3 103.21 416.3 103.21C443.3 103.21 465.17 125.11 465.17 152.11C465.17 154.71 465.17 161.24 465.17 171.67C463.22 170.69 456.38 167.26 455.4 166.77Z" id="baalLRudgl"></path><path d="M455.4 166.77C443.67 143.31 437.17 130.27 435.84 127.67C435.84 127.67 432.07 130.67 426 135.04C410.2 146.37 378.8 166.77 357.64 166.77C357.64 165.31 357.64 153.57 357.64 152.11C357.64 125.11 379.5 103.21 406.5 103.21C407.5 103.21 415.3 103.21 416.3 103.21C443.3 103.21 465.17 125.11 465.17 152.11C465.17 154.71 465.17 161.24 465.17 171.67C463.22 170.69 456.38 167.26 455.4 166.77Z" id="a7MRPg9RF"></path><path d="M455.4 166.77C443.67 143.31 437.17 130.27 435.84 127.67C435.84 127.67 432.07 130.67 426 135.04C425.44 124.21 420.87 113.97 413.2 106.34C412.1 105.24 410.94 104.21 409.74 103.21C410.37 103.21 415.64 103.21 416.3 103.21C443.3 103.21 465.17 125.11 465.17 152.11C465.17 154.71 465.17 161.24 465.17 171.67C463.22 170.69 456.38 167.26 455.4 166.77Z" id="a2NHWyOIKc"></path><path d="M455.4 166.77C443.67 143.31 437.17 130.27 435.84 127.67C435.84 127.67 432.07 130.67 426 135.04C425.44 124.21 420.87 113.97 413.2 106.34C412.1 105.24 410.94 104.21 409.74 103.21C410.37 103.21 415.64 103.21 416.3 103.21C443.3 103.21 465.17 125.11 465.17 152.11C465.17 154.71 465.17 161.24 465.17 171.67C463.22 170.69 456.38 167.26 455.4 166.77Z" id="cIHy1y2rY"></path><path d="M362.5 391.64C362.5 374.04 362.5 364.27 362.5 362.31C350.64 348.21 350.64 327.57 362.5 313.44C362.5 313.44 364.57 282.57 366.04 262.01C367.3 261.91 373.54 261.31 384.8 260.31C387.3 277.64 388.7 287.27 389 289.21C390.84 301.57 402.34 310.14 414.7 308.31C424.6 306.84 432.37 299.07 433.84 289.21C434.1 287.27 435.54 277.64 438.1 260.31C449.2 261.31 455.37 261.87 456.6 261.97C458.07 282.17 460.3 313.44 460.3 313.44C472.17 327.57 472.17 348.21 460.3 362.31C460.3 366.24 460.3 376.01 460.3 391.64C440.74 391.64 372.28 391.64 362.5 391.64Z" id="e2hP9cXxyl"></path><path d="M362.5 391.64C362.5 374.04 362.5 364.27 362.5 362.31C350.64 348.21 350.64 327.57 362.5 313.44C362.5 313.44 364.57 282.57 366.04 262.01C367.3 261.91 373.54 261.31 384.8 260.31C387.3 277.64 388.7 287.27 389 289.21C390.84 301.57 402.34 310.14 414.7 308.31C424.6 306.84 432.37 299.07 433.84 289.21C434.1 287.27 435.54 277.64 438.1 260.31C449.2 261.31 455.37 261.87 456.6 261.97C458.07 282.17 460.3 313.44 460.3 313.44C472.17 327.57 472.17 348.21 460.3 362.31C460.3 366.24 460.3 376.01 460.3 391.64C440.74 391.64 372.28 391.64 362.5 391.64Z" id="a1vBgLmnbN"></path><path d="M381.67 391.64C409.04 376.31 439.24 354.04 465.74 321.97C471.9 335.34 469.77 351.07 460.3 362.31C460.3 366.24 460.3 376.01 460.3 391.64C413.14 391.64 386.9 391.64 381.67 391.64Z" id="cMMsqTdYy"></path><path d="M381.67 391.64C409.04 376.31 439.24 354.04 465.74 321.97C471.9 335.34 469.77 351.07 460.3 362.31C460.3 366.24 460.3 376.01 460.3 391.64C413.14 391.64 386.9 391.64 381.67 391.64Z" id="b1eVOzCTqo"></path><path d="M320.2 378.04C315.94 386.07 305.94 389.11 297.94 384.84C290.5 380.87 287.27 371.97 290.37 364.17C290.87 363.17 293.24 358.21 297.54 349.24C300.8 348.62 317.12 345.52 346.5 339.94C330.15 363.65 321.38 376.35 320.2 378.04Z" id="a2CcNyrp91"></path><path d="M320.2 378.04C315.94 386.07 305.94 389.11 297.94 384.84C290.5 380.87 287.27 371.97 290.37 364.17C290.87 363.17 293.24 358.21 297.54 349.24C300.8 348.62 317.12 345.52 346.5 339.94C330.15 363.65 321.38 376.35 320.2 378.04Z" id="cq5jYCtRh"></path><path d="M302.24 354.94C294.67 356.41 289.17 363.01 289.17 370.71C289.17 379.57 296.37 386.77 305.24 386.77C305.84 386.77 310.67 386.77 311.27 386.77C312.84 386.77 314.4 386.54 315.9 386.07C322.27 384.17 354.1 374.64 411.4 357.44C411.4 328.11 411.4 311.81 411.4 308.54C411.4 305.41 408.87 302.87 405.74 302.87C405.74 302.87 405.74 302.87 405.74 302.87C403.27 302.87 401.1 304.44 400.34 306.74C399.2 310.91 396.37 321.27 391.84 337.87C338.07 348.11 308.2 353.81 302.24 354.94Z" id="beTColp0"></path><path d="M302.24 354.94C294.67 356.41 289.17 363.01 289.17 370.71C289.17 379.57 296.37 386.77 305.24 386.77C305.84 386.77 310.67 386.77 311.27 386.77C312.84 386.77 314.4 386.54 315.9 386.07C322.27 384.17 354.1 374.64 411.4 357.44C411.4 328.11 411.4 311.81 411.4 308.54C411.4 305.41 408.87 302.87 405.74 302.87C405.74 302.87 405.74 302.87 405.74 302.87C403.27 302.87 401.1 304.44 400.34 306.74C399.2 310.91 396.37 321.27 391.84 337.87C338.07 348.11 308.2 353.81 302.24 354.94Z" id="cpawGwgSS"></path><path d="M520.57 354.94C528.17 356.41 533.64 363.01 533.64 370.71C533.64 379.57 526.44 386.77 517.57 386.77C516.97 386.77 512.14 386.77 511.54 386.77C509.97 386.77 508.44 386.54 506.94 386.07C500.57 384.17 468.74 374.64 411.4 357.44C411.4 328.11 411.4 311.81 411.4 308.54C411.4 305.41 413.94 302.87 417.1 302.87C417.1 302.87 417.1 302.87 417.1 302.87C419.54 302.87 421.7 304.44 422.47 306.74C423.6 310.91 426.44 321.27 430.97 337.87C484.74 348.11 514.6 353.81 520.57 354.94Z" id="dkLHIO622"></path><path d="M520.57 354.94C528.17 356.41 533.64 363.01 533.64 370.71C533.64 379.57 526.44 386.77 517.57 386.77C516.97 386.77 512.14 386.77 511.54 386.77C509.97 386.77 508.44 386.54 506.94 386.07C500.57 384.17 468.74 374.64 411.4 357.44C411.4 328.11 411.4 311.81 411.4 308.54C411.4 305.41 413.94 302.87 417.1 302.87C417.1 302.87 417.1 302.87 417.1 302.87C419.54 302.87 421.7 304.44 422.47 306.74C423.6 310.91 426.44 321.27 430.97 337.87C484.74 348.11 514.6 353.81 520.57 354.94Z" id="a2ZNzAcKX6"></path><path d="M362.5 166.77C354.4 166.77 347.84 173.34 347.84 181.44C347.84 189.54 354.4 196.11 362.5 196.11C363.04 196.11 367.17 196.11 367.7 196.11C367.5 194.47 367.4 192.84 367.4 191.21C367.4 187.94 367.4 179.81 367.4 166.77C364.47 166.77 362.84 166.77 362.5 166.77Z" id="b2gG7nYXx"></path><path d="M362.5 166.77C354.4 166.77 347.84 173.34 347.84 181.44C347.84 189.54 354.4 196.11 362.5 196.11C363.04 196.11 367.17 196.11 367.7 196.11C367.5 194.47 367.4 192.84 367.4 191.21C367.4 187.94 367.4 179.81 367.4 166.77C364.47 166.77 362.84 166.77 362.5 166.77Z" id="fdx0RgKE7"></path><path d="M455.4 191.21C455.4 192.84 455.3 194.47 455.14 196.11C455.64 196.11 459.77 196.11 460.3 196.11C468.4 196.11 474.97 189.54 474.97 181.44C474.97 173.34 468.4 166.77 460.3 166.77C459.64 166.77 458 166.77 455.4 166.77C455.4 181.44 455.4 189.57 455.4 191.21Z" id="b2CzXvhC9"></path><path d="M455.4 191.21C455.4 192.84 455.3 194.47 455.14 196.11C455.64 196.11 459.77 196.11 460.3 196.11C468.4 196.11 474.97 189.54 474.97 181.44C474.97 173.34 468.4 166.77 460.3 166.77C459.64 166.77 458 166.77 455.4 166.77C455.4 181.44 455.4 189.57 455.4 191.21Z" id="aUVhnTCMY"></path><path d="M284.3 132.54C273.5 132.54 264.74 141.31 264.74 152.11C264.77 162.91 273.5 171.64 284.3 171.67C295.1 171.67 303.84 162.91 303.84 152.11C303.84 141.31 295.1 132.54 284.3 132.54ZM284.3 161.87C278.9 161.87 274.5 157.51 274.5 152.11C274.54 146.71 278.9 142.34 284.3 142.34C289.7 142.34 294.07 146.71 294.07 152.11C294.07 157.51 289.7 161.87 284.3 161.87Z" id="hVJdAt8g"></path><path d="M284.3 132.54C273.5 132.54 264.74 141.31 264.74 152.11C264.77 162.91 273.5 171.64 284.3 171.67C295.1 171.67 303.84 162.91 303.84 152.11C303.84 141.31 295.1 132.54 284.3 132.54ZM284.3 161.87C278.9 161.87 274.5 157.51 274.5 152.11C274.54 146.71 278.9 142.34 284.3 142.34C289.7 142.34 294.07 146.71 294.07 152.11C294.07 157.51 289.7 161.87 284.3 161.87Z" id="bnN8WKnKm"></path><path d="M538.47 368.91C538.34 366.64 537.84 364.41 536.97 362.31C536.94 362.24 536.9 362.14 536.87 362.07C532.8 353.61 500.4 285.97 496.34 277.51C491.14 266.61 480.57 259.27 468.54 258.17C466.37 257.97 455.5 256.97 435.94 255.17C435.93 255.17 435.85 255.17 435.84 255.17C435.84 242.21 435.84 234.97 435.84 233.54C444.37 228.67 451.17 221.34 455.44 212.54C456.4 230.71 471.44 244.97 489.64 245.01C492.34 245.01 494.5 242.81 494.5 240.11C494.5 231.81 494.5 165.31 494.5 157.01C494.5 138.54 479.84 123.41 461.37 122.81C451.44 107.57 434.5 98.37 416.3 98.34C415.3 98.34 407.5 98.34 406.5 98.34C376.84 98.37 352.77 122.41 352.74 152.11C352.74 153.34 352.74 163.27 352.74 164.51C343.4 169.91 340.17 181.87 345.57 191.21C349.07 197.27 355.54 201.01 362.5 201.01C362.6 201.01 363.4 201.01 363.5 201.01C366.27 214.71 374.8 226.57 386.97 233.54C386.97 234.97 386.97 242.21 386.97 255.17C386.97 255.17 386.94 255.17 386.9 255.17C372.26 256.53 364.13 257.29 362.5 257.44C362.5 238.24 362.5 227.57 362.5 225.44C362.5 224.37 362.17 223.37 361.54 222.54C361.54 222.51 361.54 222.51 361.54 222.51C360.07 220.54 348.34 204.91 346.87 202.94C345.94 201.71 344.5 201.01 342.97 201.01C341.67 201.01 335.14 201.01 323.4 201.01C323.4 171.67 323.4 155.37 323.4 152.11C323.4 130.51 305.9 113.01 284.3 113.01C262.7 113.01 245.17 130.51 245.17 152.11C245.17 175.57 245.17 363.31 245.17 386.77C245.17 389.47 247.37 391.64 250.07 391.64C256.2 391.64 305.17 391.64 311.27 391.64C313.3 391.64 315.34 391.37 317.3 390.77C319.97 389.97 333.34 385.94 357.44 378.74C357.45 379.61 357.52 383.94 357.64 391.74L367.4 391.57L367.17 375.81L411.4 362.54L455.64 375.81L455.4 391.57L465.17 391.74C465.29 383.94 465.36 379.61 465.37 378.74C489.47 385.94 502.84 389.97 505.54 390.77C507.47 391.37 509.5 391.64 511.54 391.64C512.14 391.64 516.97 391.64 517.57 391.64C528.77 391.64 537.97 382.84 538.5 371.64C538.5 371.31 538.5 371.01 538.5 370.74C538.5 370.74 538.5 370.71 538.5 370.71C538.5 370.17 538.5 369.57 538.47 368.91ZM484.47 343.11C477.1 332.41 473 326.47 472.2 325.31C470.67 320.31 468.27 315.67 465.07 311.57C464.64 305.61 463.04 283.44 461.84 267.37C462.4 267.44 467.1 267.84 467.67 267.91C476.27 268.71 483.8 273.94 487.5 281.71C491.87 290.81 502.77 313.54 520.2 349.91C513.06 348.55 488.04 343.79 484.47 343.11ZM455.44 313.77C455.5 314.81 455.9 315.77 456.54 316.57C461.87 322.91 464.6 331.01 464.27 339.24C462.3 338.87 452.5 337.01 434.87 333.64C430.67 318.24 428.34 309.67 427.87 307.97C428.4 307.61 428.9 307.21 429.44 306.77C434.44 302.44 437.7 296.44 438.67 289.91C439.04 287.54 441.8 268.64 442.17 266.27C442.17 266.21 442.17 266.14 442.17 266.07C442.2 266.04 442.2 265.87 442.27 265.57C447.44 266.07 450.67 266.37 451.97 266.47C453.34 285.07 455.4 313.47 455.44 313.77ZM393.8 288.47C393.47 286.07 390.6 266.81 390.27 264.37C394.14 263.01 396.74 259.34 396.74 255.21C396.74 253.47 396.74 239.57 396.74 237.84C406.3 240.84 416.54 240.84 426.07 237.84C426.07 239.57 426.07 253.47 426.07 255.21C426.1 259.31 428.67 262.97 432.54 264.37C432.54 264.44 432.5 264.77 432.47 264.81C432.47 264.87 432.47 264.97 432.47 265.04C432.1 267.41 429.37 286.14 429 288.47C428.4 292.67 426.27 296.54 423.07 299.34C422.97 299.44 422.84 299.51 422.74 299.61C419.27 297.41 414.87 297.44 411.4 299.64C407.97 297.44 403.57 297.41 400.14 299.57C396.7 296.81 394.47 292.84 393.8 288.47ZM254.97 210.77L298.97 210.77L298.97 220.54L254.97 220.54L254.97 210.77ZM313.64 230.34L313.64 304.31L306.94 318.31L254.97 318.31L254.97 230.34L313.64 230.34ZM352.74 258.34C349.37 258.81 346.07 259.77 342.97 261.21C342.97 259.17 342.97 248.87 342.97 230.34C343.62 230.34 346.88 230.34 352.74 230.34C352.74 247.76 352.74 257.1 352.74 258.34ZM326.47 277.51C326.27 277.91 325.24 280.04 323.4 283.91C323.4 280.34 323.4 262.48 323.4 230.34C329.26 230.34 332.52 230.34 333.17 230.34C333.17 250.44 333.17 263.01 333.17 268.04C330.4 270.77 328.14 273.97 326.47 277.51ZM298.97 328.11L298.97 334.94L297.57 337.87L254.97 337.87L254.97 328.11L298.97 328.11ZM341.24 273.87C341.24 273.87 341.3 273.84 341.3 273.84C345.17 270.47 350 268.37 355.1 267.91C355.67 267.84 360.17 267.44 360.74 267.37C359.54 284.14 358.14 305.67 357.74 311.57C354.5 315.74 352.07 320.44 350.5 325.47C349.7 326.64 345.64 332.51 338.37 343.11C334.8 343.79 306.21 349.23 302.64 349.91C320.07 313.51 330.97 290.77 335.3 281.67C336.7 278.67 338.74 276.04 341.24 273.87ZM358.27 339.17C358.27 339.11 358.27 339.07 358.27 339.04C358.17 330.84 360.97 322.87 366.27 316.57C366.94 315.77 367.34 314.81 367.4 313.74C367.4 313.44 369.2 286.07 370.6 266.47C371.27 266.44 374.6 266.14 380.57 265.57C382.7 280.17 383.9 288.27 384.14 289.91C385.2 297.11 389.1 303.57 394.94 307.94C394.47 309.64 392.14 318.21 387.94 333.64C372.14 336.67 362.24 338.54 358.3 339.31C358.3 339.24 358.3 339.21 358.27 339.17ZM470.07 181.44C470.07 186.84 465.7 191.21 460.3 191.21C460.3 187.31 460.3 173.61 460.3 171.67C465.7 171.67 470.07 176.04 470.07 181.44ZM465.17 210.77C465.17 209.74 465.17 201.41 465.17 200.37C475.64 197.67 481.94 187.01 479.24 176.57C477.94 171.47 474.64 167.14 470.07 164.51C470.07 163.27 470.07 153.34 470.07 152.11C470.07 145.71 468.94 139.37 466.7 133.41C477.34 136.31 484.74 145.97 484.74 157.01C484.74 172.54 484.74 226.94 484.74 234.74C473.37 232.37 465.2 222.37 465.17 210.77ZM406.5 108.11C407.5 108.11 415.3 108.11 416.3 108.11C431.87 108.14 446.24 116.37 454.17 129.74C454.24 129.87 454.34 130.01 454.4 130.17C458.27 136.84 460.3 144.41 460.3 152.11C460.3 152.77 460.3 156.01 460.3 161.87C460.12 161.87 458.62 161.87 458.44 161.87C447.5 140.04 441.44 127.91 440.24 125.47C439 123.07 436.07 122.07 433.67 123.27C433.37 123.44 433.07 123.64 432.8 123.84C432.4 124.14 394.14 154.54 366.3 160.77C365 161.07 363.74 161.31 362.5 161.51C362.5 156.47 362.5 153.37 362.5 152.11C362.54 127.81 382.24 108.14 406.5 108.11ZM362.5 191.21C357.14 191.21 352.74 186.84 352.74 181.44C352.74 176.04 357.14 171.67 362.5 171.67C362.5 173.61 362.5 189.27 362.5 191.21ZM434.14 135.14C435.24 137.34 440.7 148.27 450.5 167.94C450.5 181.91 450.5 189.67 450.5 191.21C450.5 212.81 433 230.34 411.4 230.34C389.8 230.34 372.3 212.81 372.3 191.21C372.3 186.84 372.3 171.54 372.3 169.34C395.74 162.74 423.2 143.34 434.14 135.14ZM308.74 220.54L308.74 210.77L340.5 210.77L347.84 220.54L308.74 220.54ZM284.3 181.44C268.1 181.44 254.97 168.31 254.97 152.11C254.97 135.91 268.1 122.81 284.3 122.77C300.5 122.77 313.64 135.91 313.64 152.11C313.64 168.31 300.5 181.44 284.3 181.44ZM313.64 201.01C307.77 201.01 260.84 201.01 254.97 201.01C254.97 187.17 254.97 179.47 254.97 177.94C262.37 186.37 273.07 191.21 284.3 191.21C295.54 191.21 306.24 186.37 313.64 177.94C313.64 179.47 313.64 187.17 313.64 201.01ZM292.87 347.64C288.7 356.31 286.4 361.11 285.94 362.07C285.9 362.14 285.87 362.24 285.84 362.31C285 364.41 284.5 366.64 284.37 368.91C284.3 369.57 284.3 370.17 284.3 370.71C284.3 370.71 284.3 370.71 284.3 370.74C284.3 370.74 284.3 370.77 284.3 370.77C284.3 374.71 285.44 378.54 287.54 381.87C285.37 381.87 274.5 381.87 254.97 381.87C254.97 379.59 254.97 368.18 254.97 347.64C277.71 347.64 290.34 347.64 292.87 347.64ZM311.27 381.87C310.67 381.87 305.84 381.87 305.24 381.87C299.4 381.87 294.57 377.37 294.1 371.57C294.1 371.57 294.14 371.57 294.17 371.57C294.1 370.97 294.07 370.67 294.07 370.61C294.14 365.31 297.94 360.74 303.14 359.74C312.1 358.04 383.8 344.37 392.77 342.67C394.6 342.34 396.07 340.97 396.57 339.17C397.4 336.07 404.17 311.31 405 308.24C405.2 307.84 405.67 307.64 406.07 307.84C406.34 307.97 406.5 308.24 406.5 308.54C406.5 311.57 406.5 326.64 406.5 353.81C357.44 368.51 326.77 377.74 314.47 381.41C313.44 381.71 312.37 381.87 311.27 381.87ZM508.34 381.41C502.2 379.57 471.5 370.37 416.3 353.81C416.3 326.64 416.3 311.57 416.3 308.54C416.3 308.11 416.67 307.74 417.1 307.74C417.4 307.77 417.7 307.94 417.8 308.24C418.67 311.31 425.4 336.07 426.24 339.17C426.74 340.97 428.2 342.34 430.04 342.67C439 344.37 510.7 358.04 519.67 359.74C524.94 360.77 528.74 365.37 528.74 370.71C528.74 376.87 523.74 381.87 517.57 381.87C517.57 381.87 512.14 381.87 511.54 381.87C510.47 381.87 509.37 381.71 508.34 381.41Z" id="c133PTabBC"></path><path d="M538.47 368.91C538.34 366.64 537.84 364.41 536.97 362.31C536.94 362.24 536.9 362.14 536.87 362.07C532.8 353.61 500.4 285.97 496.34 277.51C491.14 266.61 480.57 259.27 468.54 258.17C466.37 257.97 455.5 256.97 435.94 255.17C435.93 255.17 435.85 255.17 435.84 255.17C435.84 242.21 435.84 234.97 435.84 233.54C444.37 228.67 451.17 221.34 455.44 212.54C456.4 230.71 471.44 244.97 489.64 245.01C492.34 245.01 494.5 242.81 494.5 240.11C494.5 231.81 494.5 165.31 494.5 157.01C494.5 138.54 479.84 123.41 461.37 122.81C451.44 107.57 434.5 98.37 416.3 98.34C415.3 98.34 407.5 98.34 406.5 98.34C376.84 98.37 352.77 122.41 352.74 152.11C352.74 153.34 352.74 163.27 352.74 164.51C343.4 169.91 340.17 181.87 345.57 191.21C349.07 197.27 355.54 201.01 362.5 201.01C362.6 201.01 363.4 201.01 363.5 201.01C366.27 214.71 374.8 226.57 386.97 233.54C386.97 234.97 386.97 242.21 386.97 255.17C386.97 255.17 386.94 255.17 386.9 255.17C372.26 256.53 364.13 257.29 362.5 257.44C362.5 238.24 362.5 227.57 362.5 225.44C362.5 224.37 362.17 223.37 361.54 222.54C361.54 222.51 361.54 222.51 361.54 222.51C360.07 220.54 348.34 204.91 346.87 202.94C345.94 201.71 344.5 201.01 342.97 201.01C341.67 201.01 335.14 201.01 323.4 201.01C323.4 171.67 323.4 155.37 323.4 152.11C323.4 130.51 305.9 113.01 284.3 113.01C262.7 113.01 245.17 130.51 245.17 152.11C245.17 175.57 245.17 363.31 245.17 386.77C245.17 389.47 247.37 391.64 250.07 391.64C256.2 391.64 305.17 391.64 311.27 391.64C313.3 391.64 315.34 391.37 317.3 390.77C319.97 389.97 333.34 385.94 357.44 378.74C357.45 379.61 357.52 383.94 357.64 391.74L367.4 391.57L367.17 375.81L411.4 362.54L455.64 375.81L455.4 391.57L465.17 391.74C465.29 383.94 465.36 379.61 465.37 378.74C489.47 385.94 502.84 389.97 505.54 390.77C507.47 391.37 509.5 391.64 511.54 391.64C512.14 391.64 516.97 391.64 517.57 391.64C528.77 391.64 537.97 382.84 538.5 371.64C538.5 371.31 538.5 371.01 538.5 370.74C538.5 370.74 538.5 370.71 538.5 370.71C538.5 370.17 538.5 369.57 538.47 368.91ZM484.47 343.11C477.1 332.41 473 326.47 472.2 325.31C470.67 320.31 468.27 315.67 465.07 311.57C464.64 305.61 463.04 283.44 461.84 267.37C462.4 267.44 467.1 267.84 467.67 267.91C476.27 268.71 483.8 273.94 487.5 281.71C491.87 290.81 502.77 313.54 520.2 349.91C513.06 348.55 488.04 343.79 484.47 343.11ZM455.44 313.77C455.5 314.81 455.9 315.77 456.54 316.57C461.87 322.91 464.6 331.01 464.27 339.24C462.3 338.87 452.5 337.01 434.87 333.64C430.67 318.24 428.34 309.67 427.87 307.97C428.4 307.61 428.9 307.21 429.44 306.77C434.44 302.44 437.7 296.44 438.67 289.91C439.04 287.54 441.8 268.64 442.17 266.27C442.17 266.21 442.17 266.14 442.17 266.07C442.2 266.04 442.2 265.87 442.27 265.57C447.44 266.07 450.67 266.37 451.97 266.47C453.34 285.07 455.4 313.47 455.44 313.77ZM393.8 288.47C393.47 286.07 390.6 266.81 390.27 264.37C394.14 263.01 396.74 259.34 396.74 255.21C396.74 253.47 396.74 239.57 396.74 237.84C406.3 240.84 416.54 240.84 426.07 237.84C426.07 239.57 426.07 253.47 426.07 255.21C426.1 259.31 428.67 262.97 432.54 264.37C432.54 264.44 432.5 264.77 432.47 264.81C432.47 264.87 432.47 264.97 432.47 265.04C432.1 267.41 429.37 286.14 429 288.47C428.4 292.67 426.27 296.54 423.07 299.34C422.97 299.44 422.84 299.51 422.74 299.61C419.27 297.41 414.87 297.44 411.4 299.64C407.97 297.44 403.57 297.41 400.14 299.57C396.7 296.81 394.47 292.84 393.8 288.47ZM254.97 210.77L298.97 210.77L298.97 220.54L254.97 220.54L254.97 210.77ZM313.64 230.34L313.64 304.31L306.94 318.31L254.97 318.31L254.97 230.34L313.64 230.34ZM352.74 258.34C349.37 258.81 346.07 259.77 342.97 261.21C342.97 259.17 342.97 248.87 342.97 230.34C343.62 230.34 346.88 230.34 352.74 230.34C352.74 247.76 352.74 257.1 352.74 258.34ZM326.47 277.51C326.27 277.91 325.24 280.04 323.4 283.91C323.4 280.34 323.4 262.48 323.4 230.34C329.26 230.34 332.52 230.34 333.17 230.34C333.17 250.44 333.17 263.01 333.17 268.04C330.4 270.77 328.14 273.97 326.47 277.51ZM298.97 328.11L298.97 334.94L297.57 337.87L254.97 337.87L254.97 328.11L298.97 328.11ZM341.24 273.87C341.24 273.87 341.3 273.84 341.3 273.84C345.17 270.47 350 268.37 355.1 267.91C355.67 267.84 360.17 267.44 360.74 267.37C359.54 284.14 358.14 305.67 357.74 311.57C354.5 315.74 352.07 320.44 350.5 325.47C349.7 326.64 345.64 332.51 338.37 343.11C334.8 343.79 306.21 349.23 302.64 349.91C320.07 313.51 330.97 290.77 335.3 281.67C336.7 278.67 338.74 276.04 341.24 273.87ZM358.27 339.17C358.27 339.11 358.27 339.07 358.27 339.04C358.17 330.84 360.97 322.87 366.27 316.57C366.94 315.77 367.34 314.81 367.4 313.74C367.4 313.44 369.2 286.07 370.6 266.47C371.27 266.44 374.6 266.14 380.57 265.57C382.7 280.17 383.9 288.27 384.14 289.91C385.2 297.11 389.1 303.57 394.94 307.94C394.47 309.64 392.14 318.21 387.94 333.64C372.14 336.67 362.24 338.54 358.3 339.31C358.3 339.24 358.3 339.21 358.27 339.17ZM470.07 181.44C470.07 186.84 465.7 191.21 460.3 191.21C460.3 187.31 460.3 173.61 460.3 171.67C465.7 171.67 470.07 176.04 470.07 181.44ZM465.17 210.77C465.17 209.74 465.17 201.41 465.17 200.37C475.64 197.67 481.94 187.01 479.24 176.57C477.94 171.47 474.64 167.14 470.07 164.51C470.07 163.27 470.07 153.34 470.07 152.11C470.07 145.71 468.94 139.37 466.7 133.41C477.34 136.31 484.74 145.97 484.74 157.01C484.74 172.54 484.74 226.94 484.74 234.74C473.37 232.37 465.2 222.37 465.17 210.77ZM406.5 108.11C407.5 108.11 415.3 108.11 416.3 108.11C431.87 108.14 446.24 116.37 454.17 129.74C454.24 129.87 454.34 130.01 454.4 130.17C458.27 136.84 460.3 144.41 460.3 152.11C460.3 152.77 460.3 156.01 460.3 161.87C460.12 161.87 458.62 161.87 458.44 161.87C447.5 140.04 441.44 127.91 440.24 125.47C439 123.07 436.07 122.07 433.67 123.27C433.37 123.44 433.07 123.64 432.8 123.84C432.4 124.14 394.14 154.54 366.3 160.77C365 161.07 363.74 161.31 362.5 161.51C362.5 156.47 362.5 153.37 362.5 152.11C362.54 127.81 382.24 108.14 406.5 108.11ZM362.5 191.21C357.14 191.21 352.74 186.84 352.74 181.44C352.74 176.04 357.14 171.67 362.5 171.67C362.5 173.61 362.5 189.27 362.5 191.21ZM434.14 135.14C435.24 137.34 440.7 148.27 450.5 167.94C450.5 181.91 450.5 189.67 450.5 191.21C450.5 212.81 433 230.34 411.4 230.34C389.8 230.34 372.3 212.81 372.3 191.21C372.3 186.84 372.3 171.54 372.3 169.34C395.74 162.74 423.2 143.34 434.14 135.14ZM308.74 220.54L308.74 210.77L340.5 210.77L347.84 220.54L308.74 220.54ZM284.3 181.44C268.1 181.44 254.97 168.31 254.97 152.11C254.97 135.91 268.1 122.81 284.3 122.77C300.5 122.77 313.64 135.91 313.64 152.11C313.64 168.31 300.5 181.44 284.3 181.44ZM313.64 201.01C307.77 201.01 260.84 201.01 254.97 201.01C254.97 187.17 254.97 179.47 254.97 177.94C262.37 186.37 273.07 191.21 284.3 191.21C295.54 191.21 306.24 186.37 313.64 177.94C313.64 179.47 313.64 187.17 313.64 201.01ZM292.87 347.64C288.7 356.31 286.4 361.11 285.94 362.07C285.9 362.14 285.87 362.24 285.84 362.31C285 364.41 284.5 366.64 284.37 368.91C284.3 369.57 284.3 370.17 284.3 370.71C284.3 370.71 284.3 370.71 284.3 370.74C284.3 370.74 284.3 370.77 284.3 370.77C284.3 374.71 285.44 378.54 287.54 381.87C285.37 381.87 274.5 381.87 254.97 381.87C254.97 379.59 254.97 368.18 254.97 347.64C277.71 347.64 290.34 347.64 292.87 347.64ZM311.27 381.87C310.67 381.87 305.84 381.87 305.24 381.87C299.4 381.87 294.57 377.37 294.1 371.57C294.1 371.57 294.14 371.57 294.17 371.57C294.1 370.97 294.07 370.67 294.07 370.61C294.14 365.31 297.94 360.74 303.14 359.74C312.1 358.04 383.8 344.37 392.77 342.67C394.6 342.34 396.07 340.97 396.57 339.17C397.4 336.07 404.17 311.31 405 308.24C405.2 307.84 405.67 307.64 406.07 307.84C406.34 307.97 406.5 308.24 406.5 308.54C406.5 311.57 406.5 326.64 406.5 353.81C357.44 368.51 326.77 377.74 314.47 381.41C313.44 381.71 312.37 381.87 311.27 381.87ZM508.34 381.41C502.2 379.57 471.5 370.37 416.3 353.81C416.3 326.64 416.3 311.57 416.3 308.54C416.3 308.11 416.67 307.74 417.1 307.74C417.4 307.77 417.7 307.94 417.8 308.24C418.67 311.31 425.4 336.07 426.24 339.17C426.74 340.97 428.2 342.34 430.04 342.67C439 344.37 510.7 358.04 519.67 359.74C524.94 360.77 528.74 365.37 528.74 370.71C528.74 376.87 523.74 381.87 517.57 381.87C517.57 381.87 512.14 381.87 511.54 381.87C510.47 381.87 509.37 381.71 508.34 381.41Z" id="a5SdlDCEIr"></path><path d="M382.07 174.11C382.07 178.14 385.37 181.44 389.4 181.44C393.47 181.44 396.74 178.14 396.74 174.11C396.74 170.04 393.47 166.77 389.4 166.77C385.37 166.77 382.07 170.04 382.07 174.11Z" id="j8JSEGpz"></path><path d="M382.07 174.11C382.07 178.14 385.37 181.44 389.4 181.44C393.47 181.44 396.74 178.14 396.74 174.11C396.74 170.04 393.47 166.77 389.4 166.77C385.37 166.77 382.07 170.04 382.07 174.11Z" id="ad7udhd7b"></path><path d="M433.4 166.77C429.37 166.77 426.07 170.04 426.07 174.11C426.07 178.14 429.37 181.44 433.4 181.44C437.47 181.44 440.74 178.14 440.74 174.11C440.74 170.04 437.47 166.77 433.4 166.77Z" id="c6T6zNbsa"></path><path d="M433.4 166.77C429.37 166.77 426.07 170.04 426.07 174.11C426.07 178.14 429.37 181.44 433.4 181.44C437.47 181.44 440.74 178.14 440.74 174.11C440.74 170.04 437.47 166.77 433.4 166.77Z" id="l1UnT53MZQ"></path><path d="M416.3 196.11C416.3 198.81 414.1 201.01 411.4 201.01C408.7 201.01 406.5 198.81 406.5 196.11C405.54 196.11 397.7 196.11 396.74 196.11C396.74 204.21 403.3 210.77 411.4 210.77C419.5 210.77 426.07 204.21 426.07 196.11C425.1 196.11 417.27 196.11 416.3 196.11Z" id="e1Rj8TjFyk"></path><path d="M416.3 196.11C416.3 198.81 414.1 201.01 411.4 201.01C408.7 201.01 406.5 198.81 406.5 196.11C405.54 196.11 397.7 196.11 396.74 196.11C396.74 204.21 403.3 210.77 411.4 210.77C419.5 210.77 426.07 204.21 426.07 196.11C425.1 196.11 417.27 196.11 416.3 196.11Z" id="d19j3ukp6M"></path></defs><g><g><use xlink:href="#j2eiE9iq0" opacity="1" fill="#ffffff" fill-opacity="1"></use><g><use xlink:href="#j2eiE9iq0" opacity="1" fill-opacity="0" stroke="#000000" stroke-width="1" stroke-opacity="0"></use></g></g><g><use xlink:href="#e9GioFUvi" opacity="1" fill="#000000" fill-opacity="0"></use><g><use xlink:href="#e9GioFUvi" opacity="1" fill-opacity="0" stroke="#003068" stroke-width="4" stroke-opacity="1"></use></g></g><g><use xlink:href="#bMpvSFwzR" opacity="1" fill="#d3669a" fill-opacity="1"></use><g><use xlink:href="#bMpvSFwzR" opacity="1" fill-opacity="0" stroke="#000000" stroke-width="1" stroke-opacity="0"></use></g></g><g><use xlink:href="#j5XeCpbP3" opacity="1" fill="#000000" fill-opacity="0"></use><g><use xlink:href="#j5XeCpbP3" opacity="1" fill-opacity="0" stroke="#000000" stroke-width="1" stroke-opacity="0"></use></g></g><g><use xlink:href="#d41ZTWryJh" opacity="1" fill="#cc5e93" fill-opacity="1"></use><g><use xlink:href="#d41ZTWryJh" opacity="1" fill-opacity="0" stroke="#000000" stroke-width="1" stroke-opacity="0"></use></g></g><g><use xlink:href="#a8QUs6cvP" opacity="1" fill="#000000" fill-opacity="0"></use><g><use xlink:href="#a8QUs6cvP" opacity="1" fill-opacity="0" stroke="#000000" stroke-width="1" stroke-opacity="0"></use></g></g><g><use xlink:href="#bJWEWO92z" opacity="1" fill="#e080b3" fill-opacity="1"></use><g><use xlink:href="#bJWEWO92z" opacity="1" fill-opacity="0" stroke="#000000" stroke-width="1" stroke-opacity="0"></use></g></g><g><use xlink:href="#c1gaDjliH8" opacity="1" fill="#000000" fill-opacity="0"></use><g><use xlink:href="#c1gaDjliH8" opacity="1" fill-opacity="0" stroke="#000000" stroke-width="1" stroke-opacity="0"></use></g></g><g><use xlink:href="#b1kAdbklSV" opacity="1" fill="#c7568c" fill-opacity="1"></use><g><use xlink:href="#b1kAdbklSV" opacity="1" fill-opacity="0" stroke="#000000" stroke-width="1" stroke-opacity="0"></use></g></g><g><use xlink:href="#b2bAqeZhcH" opacity="1" fill="#000000" fill-opacity="0"></use><g><use xlink:href="#b2bAqeZhcH" opacity="1" fill-opacity="0" stroke="#000000" stroke-width="1" stroke-opacity="0"></use></g></g><g><use xlink:href="#a6Z4uJnliO" opacity="1" fill="#82489c" fill-opacity="1"></use><g><use xlink:href="#a6Z4uJnliO" opacity="1" fill-opacity="0" stroke="#000000" stroke-width="1" stroke-opacity="0"></use></g></g><g><use xlink:href="#c4SgmONoy" opacity="1" fill="#000000" fill-opacity="0"></use><g><use xlink:href="#c4SgmONoy" opacity="1" fill-opacity="0" stroke="#000000" stroke-width="1" stroke-opacity="0"></use></g></g><g><use xlink:href="#a39IwoQMOV" opacity="1" fill="#82489c" fill-opacity="1"></use><g><use xlink:href="#a39IwoQMOV" opacity="1" fill-opacity="0" stroke="#000000" stroke-width="1" stroke-opacity="0"></use></g></g><g><use xlink:href="#b5mLDZnh7" opacity="1" fill="#000000" fill-opacity="0"></use><g><use xlink:href="#b5mLDZnh7" opacity="1" fill-opacity="0" stroke="#000000" stroke-width="1" stroke-opacity="0"></use></g></g><g><use xlink:href="#a19usR7Drw" opacity="1" fill="#8d5fa1" fill-opacity="1"></use><g><use xlink:href="#a19usR7Drw" opacity="1" fill-opacity="0" stroke="#000000" stroke-width="1" stroke-opacity="0"></use></g></g><g><use xlink:href="#b2IydTC2MT" opacity="1" fill="#000000" fill-opacity="0"></use><g><use xlink:href="#b2IydTC2MT" opacity="1" fill-opacity="0" stroke="#000000" stroke-width="1" stroke-opacity="0"></use></g></g><g><use xlink:href="#a3HoESTHfJ" opacity="1" fill="#8d5fa1" fill-opacity="1"></use><g><use xlink:href="#a3HoESTHfJ" opacity="1" fill-opacity="0" stroke="#000000" stroke-width="1" stroke-opacity="0"></use></g></g><g><use xlink:href="#a6xgs2UTwG" opacity="1" fill="#000000" fill-opacity="0"></use><g><use xlink:href="#a6xgs2UTwG" opacity="1" fill-opacity="0" stroke="#000000" stroke-width="1" stroke-opacity="0"></use></g></g><g><use xlink:href="#b1tNXXkeAB" opacity="1" fill="#82489c" fill-opacity="1"></use><g><use xlink:href="#b1tNXXkeAB" opacity="1" fill-opacity="0" stroke="#000000" stroke-width="1" stroke-opacity="0"></use></g></g><g><use xlink:href="#a4sXnMKbu6" opacity="1" fill="#000000" fill-opacity="0"></use><g><use xlink:href="#a4sXnMKbu6" opacity="1" fill-opacity="0" stroke="#000000" stroke-width="1" stroke-opacity="0"></use></g></g><g><use xlink:href="#d2TAM9Hls" opacity="1" fill="#95573a" fill-opacity="1"></use><g><use xlink:href="#d2TAM9Hls" opacity="1" fill-opacity="0" stroke="#000000" stroke-width="1" stroke-opacity="0"></use></g></g><g><use xlink:href="#arzIxJYnl" opacity="1" fill="#000000" fill-opacity="0"></use><g><use xlink:href="#arzIxJYnl" opacity="1" fill-opacity="0" stroke="#000000" stroke-width="1" stroke-opacity="0"></use></g></g><g><use xlink:href="#d4anLQOkdp" opacity="1" fill="#fec9a3" fill-opacity="1"></use><g><use xlink:href="#d4anLQOkdp" opacity="1" fill-opacity="0" stroke="#000000" stroke-width="1" stroke-opacity="0"></use></g></g><g><use xlink:href="#cMpcjsjZp" opacity="1" fill="#000000" fill-opacity="0"></use><g><use xlink:href="#cMpcjsjZp" opacity="1" fill-opacity="0" stroke="#000000" stroke-width="1" stroke-opacity="0"></use></g></g><g><use xlink:href="#d3FRr1d1wX" opacity="1" fill="#fec093" fill-opacity="1"></use><g><use xlink:href="#d3FRr1d1wX" opacity="1" fill-opacity="0" stroke="#000000" stroke-width="1" stroke-opacity="0"></use></g></g><g><use xlink:href="#eUQhFdJga" opacity="1" fill="#000000" fill-opacity="0"></use><g><use xlink:href="#eUQhFdJga" opacity="1" fill-opacity="0" stroke="#000000" stroke-width="1" stroke-opacity="0"></use></g></g><g><use xlink:href="#b1UzQtgTx" opacity="1" fill="#feb784" fill-opacity="1"></use><g><use xlink:href="#b1UzQtgTx" opacity="1" fill-opacity="0" stroke="#000000" stroke-width="1" stroke-opacity="0"></use></g></g><g><use xlink:href="#b26yLVKbjF" opacity="1" fill="#000000" fill-opacity="0"></use><g><use xlink:href="#b26yLVKbjF" opacity="1" fill-opacity="0" stroke="#000000" stroke-width="1" stroke-opacity="0"></use></g></g><g><use xlink:href="#a4OPX8YbM" opacity="1" fill="#82462a" fill-opacity="1"></use><g><use xlink:href="#a4OPX8YbM" opacity="1" fill-opacity="0" stroke="#000000" stroke-width="1" stroke-opacity="0"></use></g></g><g><use xlink:href="#b2ywe0kLQZ" opacity="1" fill="#000000" fill-opacity="0"></use><g><use xlink:href="#b2ywe0kLQZ" opacity="1" fill-opacity="0" stroke="#000000" stroke-width="1" stroke-opacity="0"></use></g></g><g><use xlink:href="#b2s4eg7HZv" opacity="1" fill="#fec9a3" fill-opacity="1"></use><g><use xlink:href="#b2s4eg7HZv" opacity="1" fill-opacity="0" stroke="#000000" stroke-width="1" stroke-opacity="0"></use></g></g><g><use xlink:href="#j6HluLMDdK" opacity="1" fill="#000000" fill-opacity="0"></use><g><use xlink:href="#j6HluLMDdK" opacity="1" fill-opacity="0" stroke="#000000" stroke-width="1" stroke-opacity="0"></use></g></g><g><use xlink:href="#f18mG4DR3C" opacity="1" fill="#fec093" fill-opacity="1"></use><g><use xlink:href="#f18mG4DR3C" opacity="1" fill-opacity="0" stroke="#000000" stroke-width="1" stroke-opacity="0"></use></g></g><g><use xlink:href="#bkVmGDugz" opacity="1" fill="#000000" fill-opacity="0"></use><g><use xlink:href="#bkVmGDugz" opacity="1" fill-opacity="0" stroke="#000000" stroke-width="1" stroke-opacity="0"></use></g></g><g><use xlink:href="#baalLRudgl" opacity="1" fill="#95573a" fill-opacity="1"></use><g><use xlink:href="#baalLRudgl" opacity="1" fill-opacity="0" stroke="#000000" stroke-width="1" stroke-opacity="0"></use></g></g><g><use xlink:href="#a7MRPg9RF" opacity="1" fill="#000000" fill-opacity="0"></use><g><use xlink:href="#a7MRPg9RF" opacity="1" fill-opacity="0" stroke="#000000" stroke-width="1" stroke-opacity="0"></use></g></g><g><use xlink:href="#a2NHWyOIKc" opacity="1" fill="#8f4d2e" fill-opacity="1"></use><g><use xlink:href="#a2NHWyOIKc" opacity="1" fill-opacity="0" stroke="#000000" stroke-width="1" stroke-opacity="0"></use></g></g><g><use xlink:href="#cIHy1y2rY" opacity="1" fill="#000000" fill-opacity="0"></use><g><use xlink:href="#cIHy1y2rY" opacity="1" fill-opacity="0" stroke="#000000" stroke-width="1" stroke-opacity="0"></use></g></g><g><use xlink:href="#e2hP9cXxyl" opacity="1" fill="#c7ae71" fill-opacity="1"></use><g><use xlink:href="#e2hP9cXxyl" opacity="1" fill-opacity="0" stroke="#000000" stroke-width="1" stroke-opacity="0"></use></g></g><g><use xlink:href="#a1vBgLmnbN" opacity="1" fill="#000000" fill-opacity="0"></use><g><use xlink:href="#a1vBgLmnbN" opacity="1" fill-opacity="0" stroke="#000000" stroke-width="1" stroke-opacity="0"></use></g></g><g><use xlink:href="#cMMsqTdYy" opacity="1" fill="#c2a667" fill-opacity="1"></use><g><use xlink:href="#cMMsqTdYy" opacity="1" fill-opacity="0" stroke="#000000" stroke-width="1" stroke-opacity="0"></use></g></g><g><use xlink:href="#b1eVOzCTqo" opacity="1" fill="#000000" fill-opacity="0"></use><g><use xlink:href="#b1eVOzCTqo" opacity="1" fill-opacity="0" stroke="#000000" stroke-width="1" stroke-opacity="0"></use></g></g><g><use xlink:href="#a2CcNyrp91" opacity="1" fill="#fec093" fill-opacity="1"></use><g><use xlink:href="#a2CcNyrp91" opacity="1" fill-opacity="0" stroke="#000000" stroke-width="1" stroke-opacity="0"></use></g></g><g><use xlink:href="#cq5jYCtRh" opacity="1" fill="#000000" fill-opacity="0"></use><g><use xlink:href="#cq5jYCtRh" opacity="1" fill-opacity="0" stroke="#000000" stroke-width="1" stroke-opacity="0"></use></g></g><g><use xlink:href="#beTColp0" opacity="1" fill="#fec9a3" fill-opacity="1"></use><g><use xlink:href="#beTColp0" opacity="1" fill-opacity="0" stroke="#000000" stroke-width="1" stroke-opacity="0"></use></g></g><g><use xlink:href="#cpawGwgSS" opacity="1" fill="#000000" fill-opacity="0"></use><g><use xlink:href="#cpawGwgSS" opacity="1" fill-opacity="0" stroke="#000000" stroke-width="1" stroke-opacity="0"></use></g></g><g><use xlink:href="#dkLHIO622" opacity="1" fill="#fec9a3" fill-opacity="1"></use><g><use xlink:href="#dkLHIO622" opacity="1" fill-opacity="0" stroke="#000000" stroke-width="1" stroke-opacity="0"></use></g></g><g><use xlink:href="#a2ZNzAcKX6" opacity="1" fill="#000000" fill-opacity="0"></use><g><use xlink:href="#a2ZNzAcKX6" opacity="1" fill-opacity="0" stroke="#000000" stroke-width="1" stroke-opacity="0"></use></g></g><g><use xlink:href="#b2gG7nYXx" opacity="1" fill="#feb784" fill-opacity="1"></use><g><use xlink:href="#b2gG7nYXx" opacity="1" fill-opacity="0" stroke="#000000" stroke-width="1" stroke-opacity="0"></use></g></g><g><use xlink:href="#fdx0RgKE7" opacity="1" fill="#000000" fill-opacity="0"></use><g><use xlink:href="#fdx0RgKE7" opacity="1" fill-opacity="0" stroke="#000000" stroke-width="1" stroke-opacity="0"></use></g></g><g><use xlink:href="#b2CzXvhC9" opacity="1" fill="#feb784" fill-opacity="1"></use><g><use xlink:href="#b2CzXvhC9" opacity="1" fill-opacity="0" stroke="#000000" stroke-width="1" stroke-opacity="0"></use></g></g><g><use xlink:href="#aUVhnTCMY" opacity="1" fill="#000000" fill-opacity="0"></use><g><use xlink:href="#aUVhnTCMY" opacity="1" fill-opacity="0" stroke="#000000" stroke-width="1" stroke-opacity="0"></use></g></g><g><use xlink:href="#hVJdAt8g" opacity="1" fill="#000000" fill-opacity="1"></use><g><use xlink:href="#hVJdAt8g" opacity="1" fill-opacity="0" stroke="#000000" stroke-width="1" stroke-opacity="0"></use></g></g><g><use xlink:href="#bnN8WKnKm" opacity="1" fill="#000000" fill-opacity="0"></use><g><use xlink:href="#bnN8WKnKm" opacity="1" fill-opacity="0" stroke="#000000" stroke-width="1" stroke-opacity="0"></use></g></g><g><use xlink:href="#c133PTabBC" opacity="1" fill="#000000" fill-opacity="1"></use><g><use xlink:href="#c133PTabBC" opacity="1" fill-opacity="0" stroke="#000000" stroke-width="1" stroke-opacity="0"></use></g></g><g><use xlink:href="#a5SdlDCEIr" opacity="1" fill="#000000" fill-opacity="0"></use><g><use xlink:href="#a5SdlDCEIr" opacity="1" fill-opacity="0" stroke="#000000" stroke-width="1" stroke-opacity="0"></use></g></g><g><use xlink:href="#j8JSEGpz" opacity="1" fill="#000000" fill-opacity="1"></use><g><use xlink:href="#j8JSEGpz" opacity="1" fill-opacity="0" stroke="#000000" stroke-width="1" stroke-opacity="0"></use></g></g><g><use xlink:href="#ad7udhd7b" opacity="1" fill="#000000" fill-opacity="0"></use><g><use xlink:href="#ad7udhd7b" opacity="1" fill-opacity="0" stroke="#000000" stroke-width="1" stroke-opacity="0"></use></g></g><g><use xlink:href="#c6T6zNbsa" opacity="1" fill="#000000" fill-opacity="1"></use><g><use xlink:href="#c6T6zNbsa" opacity="1" fill-opacity="0" stroke="#000000" stroke-width="1" stroke-opacity="0"></use></g></g><g><use xlink:href="#l1UnT53MZQ" opacity="1" fill="#000000" fill-opacity="0"></use><g><use xlink:href="#l1UnT53MZQ" opacity="1" fill-opacity="0" stroke="#000000" stroke-width="1" stroke-opacity="0"></use></g></g><g><use xlink:href="#e1Rj8TjFyk" opacity="1" fill="#000000" fill-opacity="1"></use><g><use xlink:href="#e1Rj8TjFyk" opacity="1" fill-opacity="0" stroke="#000000" stroke-width="1" stroke-opacity="0"></use></g></g><g><use xlink:href="#d19j3ukp6M" opacity="1" fill="#000000" fill-opacity="0"></use><g><use xlink:href="#d19j3ukp6M" opacity="1" fill-opacity="0" stroke="#000000" stroke-width="1" stroke-opacity="0"></use></g></g></g></svg>