<?xml version="1.0" encoding="UTF-8" standalone="no"?>
<!DOCTYPE svg PUBLIC "-//W3C//DTD SVG 1.1//EN" "http://www.w3.org/Graphics/SVG/1.1/DTD/svg11.dtd">
<svg version="1.1" xmlns="http://www.w3.org/2000/svg" xmlns:xlink="http://www.w3.org/1999/xlink" preserveAspectRatio="xMidYMid meet" viewBox="49.11 181.88 405.00000000000006 405.0000000000001" width="400" height="400"><defs><path d="M51.11 383.88C51.11 494.35 140.68 583.88 251.11 583.88C361.58 583.88 451.11 494.35 451.11 383.88C451.11 273.45 361.58 183.88 251.11 183.88C140.68 183.88 51.11 273.45 51.11 383.88Z" id="cLI9pZJoL"></path><path d="M51.11 383.88C51.11 494.35 140.68 583.88 251.11 583.88C361.58 583.88 451.11 494.35 451.11 383.88C451.11 273.45 361.58 183.88 251.11 183.88C140.68 183.88 51.11 273.45 51.11 383.88Z" id="f18gsdFXsO"></path><path d="M182.34 273.38L182.34 504.21L115.04 504.21L115.04 273.38L182.34 273.38Z" id="acEgp82JR"></path><path d="M182.34 273.38L182.34 504.21L115.04 504.21L115.04 273.38L182.34 273.38Z" id="eeD7NMS0J"></path><path d="M182.34 504.21C182.34 401.38 182.34 344.21 182.34 332.81C163.58 376.85 136.44 414.15 115.04 439.55C115.04 448.15 115.04 469.71 115.04 504.21C128.5 504.21 175.61 504.21 182.34 504.21Z" id="d21947JUD"></path><path d="M182.34 504.21C182.34 401.38 182.34 344.21 182.34 332.81C163.58 376.85 136.44 414.15 115.04 439.55C115.04 448.15 115.04 469.71 115.04 504.21C128.5 504.21 175.61 504.21 182.34 504.21Z" id="a15bj3sHha"></path><path d="M115.04 273.38C115.04 291.98 130.11 307.05 148.71 307.05C167.28 307.05 182.34 291.98 182.34 273.38C182.34 254.78 167.28 239.71 148.71 239.71C130.11 239.71 115.04 254.78 115.04 273.38Z" id="a1cSF8qKI5"></path><path d="M115.04 273.38C115.04 291.98 130.11 307.05 148.71 307.05C167.28 307.05 182.34 291.98 182.34 273.38C182.34 254.78 167.28 239.71 148.71 239.71C130.11 239.71 115.04 254.78 115.04 273.38Z" id="a4nnXssKhs"></path><path d="M134.28 273.38C134.28 281.35 140.74 287.81 148.71 287.81C156.68 287.81 163.11 281.35 163.11 273.38C163.11 265.41 156.68 258.95 148.71 258.95C140.74 258.95 134.28 265.41 134.28 273.38Z" id="a3L0lAlkc8"></path><path d="M134.28 273.38C134.28 281.35 140.74 287.81 148.71 287.81C156.68 287.81 163.11 281.35 163.11 273.38C163.11 265.41 156.68 258.95 148.71 258.95C140.74 258.95 134.28 265.41 134.28 273.38Z" id="a27LZvXUQI"></path><path d="M182.34 326.28L182.34 345.51L115.04 345.51L115.04 326.28L182.34 326.28Z" id="c7mwELRESQ"></path><path d="M182.34 326.28L182.34 345.51L115.04 345.51L115.04 326.28L182.34 326.28Z" id="a9dz7PfpY"></path><path d="M182.34 446.51L182.34 465.75L115.04 465.75L115.04 446.51L182.34 446.51Z" id="d66cY997eV"></path><path d="M182.34 446.51L182.34 465.75L115.04 465.75L115.04 446.51L182.34 446.51Z" id="b55gwnKCi"></path><path d="M167.94 345.51L167.94 326.28L206.41 326.28L220.84 345.51L167.94 345.51Z" id="hPVo7qIxs"></path><path d="M167.94 345.51L167.94 326.28L206.41 326.28L220.84 345.51L167.94 345.51Z" id="c1vJdcRsh"></path><path d="M167.94 465.75L167.94 446.51L220.84 446.51L206.41 465.75L167.94 465.75Z" id="hatE2lQ2q"></path><path d="M167.94 465.75L167.94 446.51L220.84 446.51L206.41 465.75L167.94 465.75Z" id="bdjhReUMY"></path><path d="M220.84 350.31L220.84 446.51L201.61 446.51L201.61 350.31L220.84 350.31Z" id="i1aDGyCSUh"></path><path d="M220.84 350.31L220.84 446.51L201.61 446.51L201.61 350.31L220.84 350.31Z" id="cW5B9TzJ"></path><path d="M312.21 412.85L312.21 376.91L297.78 374.38L297.78 340.71L273.71 340.71L249.68 340.71L249.68 374.38L235.24 376.91L235.24 412.85L312.21 412.85Z" id="bei3iaIgZ"></path><path d="M312.21 412.85L312.21 376.91L297.78 374.38L297.78 340.71L273.71 340.71L249.68 340.71L249.68 374.38L235.24 376.91L235.24 412.85L312.21 412.85Z" id="b5m85bdlD8"></path><path d="M346.94 454.15L341.04 432.08L341.04 509.01L206.41 509.01L206.41 432.08L200.54 453.98C174.78 445.54 160.47 440.85 157.61 439.91C161.24 422.98 163.24 413.58 163.64 411.68C166.21 397.91 177.08 387.18 190.88 384.75C196.28 383.78 239.48 376.18 244.88 375.21C244.88 390.68 257.41 403.21 272.88 403.21C273.04 403.21 274.41 403.21 274.58 403.21C290.04 403.21 302.58 390.68 302.58 375.21C305.74 375.78 321.61 378.58 350.14 383.61C354.01 384.28 356.14 384.68 356.58 384.75C370.38 387.18 381.24 397.91 383.81 411.68C384.61 415.45 386.61 424.78 389.81 439.75C384.09 441.67 369.81 446.47 346.94 454.15Z" id="b9DMmi1V1"></path><path d="M346.94 454.15L341.04 432.08L341.04 509.01L206.41 509.01L206.41 432.08L200.54 453.98C174.78 445.54 160.47 440.85 157.61 439.91C161.24 422.98 163.24 413.58 163.64 411.68C166.21 397.91 177.08 387.18 190.88 384.75C196.28 383.78 239.48 376.18 244.88 375.21C244.88 390.68 257.41 403.21 272.88 403.21C273.04 403.21 274.41 403.21 274.58 403.21C290.04 403.21 302.58 390.68 302.58 375.21C305.74 375.78 321.61 378.58 350.14 383.61C354.01 384.28 356.14 384.68 356.58 384.75C370.38 387.18 381.24 397.91 383.81 411.68C384.61 415.45 386.61 424.78 389.81 439.75C384.09 441.67 369.81 446.47 346.94 454.15Z" id="a1goYSvXRl"></path><path d="M346.94 454.15L341.04 432.08C341.04 478.24 341.04 503.88 341.04 509.01C264.28 509.01 221.64 509.01 213.11 509.01C254.41 486.68 314.01 445.98 350.14 383.61C350.78 383.71 355.94 384.65 356.58 384.75C370.38 387.18 381.24 397.91 383.81 411.68C384.61 415.45 386.61 424.78 389.81 439.75C384.09 441.67 369.81 446.47 346.94 454.15Z" id="a3faYEa7P"></path><path d="M346.94 454.15L341.04 432.08C341.04 478.24 341.04 503.88 341.04 509.01C264.28 509.01 221.64 509.01 213.11 509.01C254.41 486.68 314.01 445.98 350.14 383.61C350.78 383.71 355.94 384.65 356.58 384.75C370.38 387.18 381.24 397.91 383.81 411.68C384.61 415.45 386.61 424.78 389.81 439.75C384.09 441.67 369.81 446.47 346.94 454.15Z" id="d41CmvBTk0"></path><path d="M165.74 503.81C167.24 504.15 168.74 504.28 170.24 504.28C170.31 504.28 170.84 504.28 170.88 504.28C180.51 504.25 188.88 497.78 191.34 488.48C191.98 486.18 195.04 474.68 200.54 453.98C196.25 452.57 161.9 441.32 157.61 439.91C153.21 460.51 150.48 473.41 149.38 478.58C146.91 490.08 154.24 501.38 165.74 503.81Z" id="a4DphXNJ3z"></path><path d="M165.74 503.81C167.24 504.15 168.74 504.28 170.24 504.28C170.31 504.28 170.84 504.28 170.88 504.28C180.51 504.25 188.88 497.78 191.34 488.48C191.98 486.18 195.04 474.68 200.54 453.98C196.25 452.57 161.9 441.32 157.61 439.91C153.21 460.51 150.48 473.41 149.38 478.58C146.91 490.08 154.24 501.38 165.74 503.81Z" id="d19LXwjKO"></path><path d="M346.94 454.15C352.44 474.75 355.48 486.21 356.11 488.48C358.58 497.78 366.94 504.25 376.58 504.28C376.61 504.28 377.14 504.28 377.21 504.28C388.94 504.35 398.51 494.85 398.54 483.08C398.58 481.58 398.41 480.05 398.08 478.58C396.98 473.38 394.21 460.45 389.81 439.75C381.24 442.63 351.23 452.71 346.94 454.15Z" id="b83iEUe6n"></path><path d="M346.94 454.15C352.44 474.75 355.48 486.21 356.11 488.48C358.58 497.78 366.94 504.25 376.58 504.28C376.61 504.28 377.14 504.28 377.21 504.28C388.94 504.35 398.51 494.85 398.54 483.08C398.58 481.58 398.41 480.05 398.08 478.58C396.98 473.38 394.21 460.45 389.81 439.75C381.24 442.63 351.23 452.71 346.94 454.15Z" id="as7816a4"></path><path d="M167.81 463.61C156.94 464.81 148.71 474.01 148.71 484.98C148.71 495.61 157.31 504.21 167.94 504.21C169.21 504.21 175.64 504.21 187.18 504.21C237.01 492.68 264.71 486.25 270.24 484.98C272.31 484.38 273.71 482.51 273.71 480.35C273.71 474.05 273.71 423.71 273.71 417.45C273.71 414.35 271.21 411.85 268.14 411.85C268.14 411.85 268.14 411.85 268.14 411.85C265.74 411.85 263.61 413.38 262.84 415.68C261.08 420.91 256.71 434.08 249.68 455.11C200.58 460.21 173.28 463.05 167.81 463.61Z" id="a17JhF419E"></path><path d="M167.81 463.61C156.94 464.81 148.71 474.01 148.71 484.98C148.71 495.61 157.31 504.21 167.94 504.21C169.21 504.21 175.64 504.21 187.18 504.21C237.01 492.68 264.71 486.25 270.24 484.98C272.31 484.38 273.71 482.51 273.71 480.35C273.71 474.05 273.71 423.71 273.71 417.45C273.71 414.35 271.21 411.85 268.14 411.85C268.14 411.85 268.14 411.85 268.14 411.85C265.74 411.85 263.61 413.38 262.84 415.68C261.08 420.91 256.71 434.08 249.68 455.11C200.58 460.21 173.28 463.05 167.81 463.61Z" id="a3mbhwHnEs"></path><path d="M379.64 463.61C390.51 464.81 398.74 474.01 398.74 484.98C398.74 495.61 390.14 504.21 379.51 504.21C378.24 504.21 371.81 504.21 360.28 504.21C310.44 492.68 282.74 486.25 277.21 484.98C275.14 484.38 273.71 482.51 273.71 480.35C273.71 474.05 273.71 423.71 273.71 417.45C273.71 414.35 276.24 411.85 279.31 411.85C279.31 411.85 279.31 411.85 279.31 411.85C281.71 411.85 283.84 413.38 284.61 415.68C286.38 420.91 290.74 434.08 297.78 455.11C346.88 460.21 374.18 463.05 379.64 463.61Z" id="a9D9yEvXY"></path><path d="M379.64 463.61C390.51 464.81 398.74 474.01 398.74 484.98C398.74 495.61 390.14 504.21 379.51 504.21C378.24 504.21 371.81 504.21 360.28 504.21C310.44 492.68 282.74 486.25 277.21 484.98C275.14 484.38 273.71 482.51 273.71 480.35C273.71 474.05 273.71 423.71 273.71 417.45C273.71 414.35 276.24 411.85 279.31 411.85C279.31 411.85 279.31 411.85 279.31 411.85C281.71 411.85 283.84 413.38 284.61 415.68C286.38 420.91 290.74 434.08 297.78 455.11C346.88 460.21 374.18 463.05 379.64 463.61Z" id="c1qLsarPVF"></path><path d="M249.68 340.71C249.68 353.65 249.68 360.81 249.68 362.25C264.24 371.98 283.21 371.98 297.78 362.25C297.78 359.38 297.78 352.21 297.78 340.71C288.16 340.71 254.49 340.71 249.68 340.71Z" id="c22TxUc1l5"></path><path d="M249.68 340.71C249.68 353.65 249.68 360.81 249.68 362.25C264.24 371.98 283.21 371.98 297.78 362.25C297.78 359.38 297.78 352.21 297.78 340.71C288.16 340.71 254.49 340.71 249.68 340.71Z" id="a1dVNeC9JW"></path><path d="M211.21 297.41C211.21 305.38 217.68 311.85 225.64 311.85C226.28 311.85 229.48 311.85 235.24 311.85C235.24 309.92 235.24 300.31 235.24 283.01C229.62 283.01 226.5 283.01 225.88 283.01C225.74 283.01 225.68 283.01 225.64 283.01C217.68 283.01 211.21 289.45 211.21 297.41Z" id="cIVqxs5xB"></path><path d="M211.21 297.41C211.21 305.38 217.68 311.85 225.64 311.85C226.28 311.85 229.48 311.85 235.24 311.85C235.24 309.92 235.24 300.31 235.24 283.01C229.62 283.01 226.5 283.01 225.88 283.01C225.74 283.01 225.68 283.01 225.64 283.01C217.68 283.01 211.21 289.45 211.21 297.41Z" id="a1T9JBtafP"></path><path d="M312.21 283.01C312.21 300.31 312.21 309.92 312.21 311.85C317.98 311.85 321.18 311.85 321.81 311.85C329.78 311.85 336.24 305.38 336.24 297.41C336.24 289.45 329.78 283.01 321.81 283.01C321.78 283.01 321.71 283.01 321.58 283.01C320.33 283.01 317.21 283.01 312.21 283.01Z" id="b1hGIYwVlx"></path><path d="M312.21 283.01C312.21 300.31 312.21 309.92 312.21 311.85C317.98 311.85 321.18 311.85 321.81 311.85C329.78 311.85 336.24 305.38 336.24 297.41C336.24 289.45 329.78 283.01 321.81 283.01C321.78 283.01 321.71 283.01 321.58 283.01C320.33 283.01 317.21 283.01 312.21 283.01Z" id="dw7us6Tkv"></path><path d="M313.98 326.95C309.54 349.18 287.91 363.58 265.68 359.15C249.41 355.91 236.71 343.18 233.48 326.95C231.94 319.41 231.44 313.31 231.21 311.78C230.71 306.71 230.44 301.61 230.44 296.48C230.44 285.51 230.44 279.41 230.44 278.18C230.44 254.28 249.81 234.91 273.71 234.91C297.64 234.91 317.01 254.28 317.01 278.18C317.01 278.18 317.01 294.65 317.01 296.48C317.01 306.71 316.01 316.91 313.98 326.95Z" id="jsTNegJ9a"></path><path d="M313.98 326.95C309.54 349.18 287.91 363.58 265.68 359.15C249.41 355.91 236.71 343.18 233.48 326.95C231.94 319.41 231.44 313.31 231.21 311.78C230.71 306.71 230.44 301.61 230.44 296.48C230.44 285.51 230.44 279.41 230.44 278.18C230.44 254.28 249.81 234.91 273.71 234.91C297.64 234.91 317.01 254.28 317.01 278.18C317.01 278.18 317.01 294.65 317.01 296.48C317.01 306.71 316.01 316.91 313.98 326.95Z" id="a9UX1d1de"></path><path d="M313.98 326.95C309.54 349.18 287.88 363.61 265.64 359.15C264.84 358.98 264.04 358.81 263.28 358.58C282.41 353.68 295.78 336.41 295.78 316.65C295.78 311.85 295.78 273.38 295.78 268.58C295.81 257.08 291.24 246.08 283.11 237.98C281.78 236.61 280.58 235.68 280.31 235.41C301.41 238.68 317.01 256.85 317.01 278.18C317.01 281.85 317.01 294.65 317.01 296.48C317.01 306.71 316.01 316.91 313.98 326.95Z" id="a2iCm2lB0u"></path><path d="M313.98 326.95C309.54 349.18 287.88 363.61 265.64 359.15C264.84 358.98 264.04 358.81 263.28 358.58C282.41 353.68 295.78 336.41 295.78 316.65C295.78 311.85 295.78 273.38 295.78 268.58C295.81 257.08 291.24 246.08 283.11 237.98C281.78 236.61 280.58 235.68 280.31 235.41C301.41 238.68 317.01 256.85 317.01 278.18C317.01 281.85 317.01 294.65 317.01 296.48C317.01 306.71 316.01 316.91 313.98 326.95Z" id="c1bYupGpLr"></path><path d="M302.58 249.35L302.58 258.95L240.08 258.95L240.08 249.35L302.58 249.35Z" id="b4xo8rnigW"></path><path d="M302.58 249.35L302.58 258.95L240.08 258.95L240.08 249.35L302.58 249.35Z" id="avvsby8ko"></path><path d="M301.51 234.45C300.24 234.45 299.01 234.61 297.78 234.91C297.78 236.35 297.78 247.88 297.78 249.35C297.78 249.35 306.48 270.35 317.01 283.01C317.01 276.38 317.01 253.25 317.01 249.95C317.01 241.38 310.08 234.45 301.51 234.45Z" id="g1rAma2BNW"></path><path d="M301.51 234.45C300.24 234.45 299.01 234.61 297.78 234.91C297.78 236.35 297.78 247.88 297.78 249.35C297.78 249.35 306.48 270.35 317.01 283.01C317.01 276.38 317.01 253.25 317.01 249.95C317.01 241.38 310.08 234.45 301.51 234.45Z" id="a1aQ37U7Ky"></path><path d="M245.94 234.45C247.18 234.45 248.44 234.61 249.68 234.91C249.68 236.35 249.68 247.88 249.68 249.35C249.68 249.35 240.98 270.35 230.44 283.01C230.44 276.38 230.44 253.25 230.44 249.95C230.44 241.38 237.38 234.45 245.94 234.45Z" id="agCgo6NZs"></path><path d="M245.94 234.45C247.18 234.45 248.44 234.61 249.68 234.91C249.68 236.35 249.68 247.88 249.68 249.35C249.68 249.35 240.98 270.35 230.44 283.01C230.44 276.38 230.44 253.25 230.44 249.95C230.44 241.38 237.38 234.45 245.94 234.45Z" id="a1BOAPLZje"></path><path d="M230.44 249.35C230.44 236.05 241.21 225.28 254.48 225.28C257.28 225.28 279.44 225.28 282.21 225.28C288.81 225.28 294.81 229.01 297.78 234.91C297.78 236.85 297.78 241.65 297.78 249.35C257.38 249.35 234.94 249.35 230.44 249.35Z" id="aDpmo0034"></path><path d="M230.44 249.35C230.44 236.05 241.21 225.28 254.48 225.28C257.28 225.28 279.44 225.28 282.21 225.28C288.81 225.28 294.81 229.01 297.78 234.91C297.78 236.85 297.78 241.65 297.78 249.35C257.38 249.35 234.94 249.35 230.44 249.35Z" id="i1BXVtBB7e"></path><path d="M278.54 417.65C278.54 455.15 278.54 476.01 278.54 480.18C278.54 483.38 276.94 484.98 273.71 484.98C273.71 484.98 273.71 484.98 273.71 484.98C270.51 484.98 268.91 483.38 268.91 480.18C268.91 442.65 268.91 421.81 268.91 417.65C268.91 414.45 270.51 412.85 273.71 412.85C273.71 412.85 273.71 412.85 273.71 412.85C276.94 412.85 278.54 414.45 278.54 417.65Z" id="b1LSvKJH"></path><path d="M278.54 417.65C278.54 455.15 278.54 476.01 278.54 480.18C278.54 483.38 276.94 484.98 273.71 484.98C273.71 484.98 273.71 484.98 273.71 484.98C270.51 484.98 268.91 483.38 268.91 480.18C268.91 442.65 268.91 421.81 268.91 417.65C268.91 414.45 270.51 412.85 273.71 412.85C273.71 412.85 273.71 412.85 273.71 412.85C276.94 412.85 278.54 414.45 278.54 417.65Z" id="e1lJOZfPA7"></path><path d="M148.71 254.15C138.08 254.15 129.48 262.75 129.48 273.38C129.48 284.01 138.08 292.61 148.71 292.61C159.31 292.61 167.94 284.01 167.94 273.38C167.94 262.75 159.31 254.15 148.71 254.15ZM148.71 283.01C143.38 283.01 139.08 278.68 139.08 273.38C139.08 268.08 143.38 263.78 148.71 263.78C154.01 263.78 158.31 268.08 158.31 273.38C158.31 278.68 154.01 283.01 148.71 283.01Z" id="b3rjJNAQsP"></path><path d="M148.71 254.15C138.08 254.15 129.48 262.75 129.48 273.38C129.48 284.01 138.08 292.61 148.71 292.61C159.31 292.61 167.94 284.01 167.94 273.38C167.94 262.75 159.31 254.15 148.71 254.15ZM148.71 283.01C143.38 283.01 139.08 278.68 139.08 273.38C139.08 268.08 143.38 263.78 148.71 263.78C154.01 263.78 158.31 268.08 158.31 273.38C158.31 278.68 154.01 283.01 148.71 283.01Z" id="akBCbL8yq"></path><path d="M359.81 380.01C356.71 379.48 341.24 376.75 313.38 371.85C312.54 371.7 305.82 370.5 304.98 370.35C304.98 360.85 304.98 355.55 304.98 354.48C313.31 347.78 319.01 338.35 321.11 327.88C321.84 324.18 322.44 320.41 322.94 316.65C323.71 316.65 324.14 316.65 324.21 316.65C334.84 316.65 343.44 308.05 343.44 297.41C343.44 286.81 334.84 278.18 324.21 278.18C324.21 275.38 324.21 252.75 324.21 249.95C324.21 238.71 315.14 229.65 303.91 229.65C303.48 229.65 303.04 229.65 302.61 229.68C298.44 223.88 291.74 220.48 284.61 220.48C281.84 220.48 259.68 220.48 256.91 220.48C240.98 220.51 228.08 233.41 228.04 249.35C228.04 249.38 228.04 249.45 228.04 249.51C228.04 249.65 228.04 249.78 228.04 249.91C228.04 252.75 228.04 275.38 228.04 278.18C217.41 278.18 208.81 286.81 208.81 297.41C208.81 308.05 217.41 316.65 228.04 316.65C228.18 316.65 229.21 316.65 229.34 316.65C230.04 322.31 230.98 326.75 231.14 327.88C233.28 338.45 239.04 347.91 247.48 354.61C247.48 355.68 247.48 360.91 247.48 370.35C247.41 370.36 247.06 370.41 246.44 370.51L246.44 370.48C235.4 372.44 229.27 373.53 228.04 373.75C228.04 356.81 228.04 347.41 228.04 345.51C228.04 344.48 227.71 343.48 227.08 342.65C226.94 342.45 226.24 341.55 225.01 339.88C217.61 329.98 213.48 324.48 212.64 323.38C211.74 322.18 210.31 321.48 208.81 321.48C207.51 321.48 201.11 321.48 189.58 321.48C189.58 292.61 189.58 276.58 189.58 273.38C189.58 252.15 172.34 234.91 151.11 234.91C129.84 234.91 112.64 252.15 112.64 273.38C112.64 296.48 112.64 481.11 112.64 504.21C112.64 506.88 114.78 509.01 117.44 509.01C124.64 509.01 182.34 509.01 189.58 509.01C189.94 509.01 190.31 508.98 190.64 508.88C191.54 508.68 196.01 507.65 204.01 505.81C204.01 506.03 204.01 507.09 204.01 509.01L213.61 509.01C213.61 505.75 213.61 503.94 213.61 503.58C249.68 495.21 269.71 490.58 273.71 489.65C273.81 489.65 273.88 489.61 273.98 489.61C274.71 489.38 275.44 489.08 276.11 488.68C276.81 489.08 277.54 489.38 278.28 489.61C278.38 489.61 278.44 489.65 278.51 489.65C282.54 490.58 302.58 495.21 338.64 503.58C338.64 503.94 338.64 505.75 338.64 509.01L348.28 509.01C348.28 507.09 348.28 506.03 348.28 505.81C356.28 507.65 360.71 508.68 361.61 508.88C361.94 508.98 362.31 509.01 362.68 509.01C364.61 509.01 380.01 509.01 381.91 509.01C395.21 509.01 405.94 498.25 405.98 484.98C405.84 482.48 405.58 480.01 405.18 477.58C405.18 477.58 392.34 417.41 390.91 410.75C387.94 395.05 375.54 382.81 359.81 380.01ZM333.84 297.41C333.84 302.75 329.54 307.05 324.21 307.05C324.18 307.05 323.88 307.05 323.84 307.05C324.08 303.51 324.21 300.01 324.21 296.48C324.21 294.75 324.21 288.68 324.21 287.81C329.54 287.81 333.84 292.11 333.84 297.41ZM218.41 297.41C218.41 292.11 222.74 287.81 228.04 287.81C228.04 288.68 228.04 295.61 228.04 296.48C228.04 300.01 228.18 303.51 228.41 307.05C228.34 307.05 228.11 307.05 228.04 307.05C222.74 307.05 218.41 302.75 218.41 297.41ZM382.54 458.85C380.91 458.68 372.74 457.81 358.08 456.31C361.13 455.3 385.59 447.16 388.64 446.15C390.41 454.45 391.54 459.65 391.98 461.75C389.04 460.18 385.84 459.21 382.54 458.85ZM358.14 389.48C369.98 391.58 379.24 400.78 381.48 412.55C381.48 412.61 381.48 412.65 381.51 412.68C381.84 414.28 383.54 422.28 386.61 436.68C383.21 437.81 356.04 446.85 352.64 447.98C349.91 437.68 348.41 431.98 348.11 430.85C347.41 428.28 344.78 426.75 342.21 427.45C340.11 427.98 338.64 429.91 338.64 432.08C338.64 433.55 338.64 440.95 338.64 454.28C335.15 453.92 307.23 451.01 303.74 450.65C296.44 428.75 292.41 416.58 291.58 414.15C290.44 410.68 287.51 408.08 283.94 407.28C296.98 404.45 306.98 394.01 309.31 380.88C309.31 380.88 310.11 381.05 311.71 381.31C339.58 386.21 355.08 388.95 358.14 389.48ZM314.61 249.95C314.61 251.68 314.61 265.71 314.61 267.45C311.04 261.28 307.84 254.91 304.98 248.35C304.98 246.55 304.98 241.11 304.98 239.31C310.44 239.85 314.61 244.45 314.61 249.95ZM295.38 236.15C295.38 236.71 295.38 239.51 295.38 244.51C261.11 244.51 242.08 244.51 238.28 244.51C240.48 236.05 248.14 230.11 256.91 230.11C256.91 230.11 281.84 230.11 284.61 230.11C289.01 230.08 293.08 232.38 295.38 236.15ZM244.64 254.15C242.91 257.81 240.48 262.61 237.68 267.45C237.68 265.68 237.68 261.25 237.68 254.15C241.84 254.15 244.18 254.15 244.64 254.15ZM237.68 284.71C245.78 274.45 252.51 260.25 255.24 254.15C259.41 254.15 292.84 254.15 297.01 254.15C299.74 260.25 306.51 274.45 314.61 284.71C314.61 285.88 314.61 295.31 314.61 296.48C314.61 306.38 313.61 316.28 311.68 325.98C307.74 345.61 288.64 358.35 269.01 354.41C254.68 351.55 243.44 340.35 240.58 325.98C238.64 316.28 237.68 306.38 237.68 296.48C237.68 295.31 237.68 285.88 237.68 284.71ZM268.31 407.28C264.74 408.05 261.84 410.68 260.68 414.15C259.88 416.58 255.81 428.75 248.51 450.65C245.02 451.01 217.1 453.92 213.61 454.28C213.61 440.95 213.61 433.55 213.61 432.08C213.61 429.41 211.48 427.28 208.81 427.28C206.64 427.28 204.71 428.75 204.18 430.85C203.84 431.98 202.34 437.68 199.61 447.98C196.27 446.87 169.55 437.96 166.21 436.85C168.94 422.28 170.48 414.21 170.78 412.58C173.01 400.78 182.31 391.61 194.11 389.48C203.88 387.75 233.18 382.58 242.98 380.85C245.28 393.98 255.28 404.41 268.31 407.28ZM169.71 458.85C166.41 459.21 163.21 460.18 160.28 461.75C160.51 460.71 161.61 455.48 163.64 446.11C165.68 446.79 175.84 450.19 194.14 456.31C178.92 457.89 170.78 458.74 169.71 458.85ZM199.18 350.31C199.18 367.41 199.18 376.91 199.18 378.81C195.14 379.55 192.88 379.95 192.44 380.01C191.48 380.18 190.51 380.38 189.58 380.65C189.58 378.62 189.58 368.51 189.58 350.31L199.18 350.31ZM208.81 377.11L208.81 350.31L218.41 350.31L218.41 375.41L208.81 377.11ZM213.61 340.71L175.14 340.71L175.14 331.08L206.41 331.08L213.61 340.71ZM151.11 302.25C135.18 302.25 122.24 289.31 122.24 273.38C122.28 257.45 135.18 244.55 151.11 244.51C167.04 244.51 179.94 257.45 179.94 273.38C179.94 289.31 167.04 302.25 151.11 302.25ZM176.44 302.31C177.68 301.21 178.84 300.05 179.94 298.78C179.94 300.31 179.94 307.85 179.94 321.48C174.17 321.48 128.01 321.48 122.24 321.48C122.24 309.38 122.24 301.81 122.24 298.78C136.24 314.71 160.51 316.31 176.44 302.31ZM165.54 331.08L165.54 340.71L122.24 340.71L122.24 331.08L165.54 331.08ZM179.94 350.31C179.94 370.88 179.94 382.28 179.94 384.58C170.21 390.18 163.41 399.78 161.31 410.81C160.98 412.55 159.38 421.25 156.44 436.88C154.16 436.88 142.76 436.88 122.24 436.88L122.24 350.31C156.86 350.31 176.1 350.31 179.94 350.31ZM122.24 465.75C138.64 465.75 147.75 465.75 149.58 465.75C148.08 472.81 147.24 476.78 147.08 477.55C146.68 480.01 146.41 482.48 146.31 484.98C146.28 490.18 147.98 495.25 151.11 499.41C147.28 499.41 137.64 499.41 122.24 499.41C122.24 494.92 122.24 483.7 122.24 465.75ZM122.24 456.11L122.24 446.51L153.71 446.51L151.64 456.11L122.24 456.11ZM189.01 499.41C177.81 499.41 171.58 499.41 170.34 499.41C162.38 499.38 155.91 492.95 155.91 484.98C155.91 476.48 162.28 469.35 170.71 468.41C178.91 467.55 244.41 460.75 252.58 459.91C254.48 459.71 256.04 458.45 256.64 456.65C257.98 452.71 268.48 421.15 269.81 417.18C269.94 416.78 270.38 416.55 270.81 416.71C271.11 416.81 271.31 417.11 271.31 417.45C271.31 425.81 271.31 446.78 271.31 480.35C254.85 484.16 197.24 497.51 189.01 499.41ZM275.28 408.05C275.44 408.05 276.81 408.05 277.01 408.05C277.11 408.05 277.21 408.01 277.31 408.01C276.91 408.21 276.51 408.45 276.14 408.68C275.74 408.45 275.34 408.21 274.94 408.01C275.04 408.01 275.14 408.05 275.28 408.05ZM252.44 379.21C252.51 379.21 253.04 379.11 253.11 379.11C255.41 378.71 257.08 376.71 257.08 374.38C257.08 372.98 257.08 361.95 257.08 360.58C269.24 366.18 283.24 366.15 295.38 360.51C295.38 361.88 295.38 372.98 295.38 374.38C295.38 376.71 297.04 378.68 299.31 379.11C299.38 379.11 299.78 379.18 299.84 379.18C297.88 390.28 288.28 398.41 277.01 398.41C276.64 398.41 275.44 398.41 275.28 398.41C264.01 398.41 254.38 390.31 252.44 379.21ZM280.94 480.35C280.94 442.61 280.94 421.61 280.94 417.45C280.94 417.01 281.31 416.65 281.74 416.65C282.04 416.68 282.34 416.88 282.44 417.18C283.78 421.15 294.31 452.71 295.61 456.65C296.21 458.45 297.81 459.71 299.68 459.91C307.88 460.75 373.34 467.55 381.51 468.41C389.98 469.35 396.34 476.48 396.34 484.98C396.34 492.95 389.88 499.38 381.91 499.41C381.91 499.41 375.71 499.41 363.24 499.41C346.78 495.6 289.17 482.25 280.94 480.35Z" id="i4SrBT346D"></path><path d="M359.81 380.01C356.71 379.48 341.24 376.75 313.38 371.85C312.54 371.7 305.82 370.5 304.98 370.35C304.98 360.85 304.98 355.55 304.98 354.48C313.31 347.78 319.01 338.35 321.11 327.88C321.84 324.18 322.44 320.41 322.94 316.65C323.71 316.65 324.14 316.65 324.21 316.65C334.84 316.65 343.44 308.05 343.44 297.41C343.44 286.81 334.84 278.18 324.21 278.18C324.21 275.38 324.21 252.75 324.21 249.95C324.21 238.71 315.14 229.65 303.91 229.65C303.48 229.65 303.04 229.65 302.61 229.68C298.44 223.88 291.74 220.48 284.61 220.48C281.84 220.48 259.68 220.48 256.91 220.48C240.98 220.51 228.08 233.41 228.04 249.35C228.04 249.38 228.04 249.45 228.04 249.51C228.04 249.65 228.04 249.78 228.04 249.91C228.04 252.75 228.04 275.38 228.04 278.18C217.41 278.18 208.81 286.81 208.81 297.41C208.81 308.05 217.41 316.65 228.04 316.65C228.18 316.65 229.21 316.65 229.34 316.65C230.04 322.31 230.98 326.75 231.14 327.88C233.28 338.45 239.04 347.91 247.48 354.61C247.48 355.68 247.48 360.91 247.48 370.35C247.41 370.36 247.06 370.41 246.44 370.51L246.44 370.48C235.4 372.44 229.27 373.53 228.04 373.75C228.04 356.81 228.04 347.41 228.04 345.51C228.04 344.48 227.71 343.48 227.08 342.65C226.94 342.45 226.24 341.55 225.01 339.88C217.61 329.98 213.48 324.48 212.64 323.38C211.74 322.18 210.31 321.48 208.81 321.48C207.51 321.48 201.11 321.48 189.58 321.48C189.58 292.61 189.58 276.58 189.58 273.38C189.58 252.15 172.34 234.91 151.11 234.91C129.84 234.91 112.64 252.15 112.64 273.38C112.64 296.48 112.64 481.11 112.64 504.21C112.64 506.88 114.78 509.01 117.44 509.01C124.64 509.01 182.34 509.01 189.58 509.01C189.94 509.01 190.31 508.98 190.64 508.88C191.54 508.68 196.01 507.65 204.01 505.81C204.01 506.03 204.01 507.09 204.01 509.01L213.61 509.01C213.61 505.75 213.61 503.94 213.61 503.58C249.68 495.21 269.71 490.58 273.71 489.65C273.81 489.65 273.88 489.61 273.98 489.61C274.71 489.38 275.44 489.08 276.11 488.68C276.81 489.08 277.54 489.38 278.28 489.61C278.38 489.61 278.44 489.65 278.51 489.65C282.54 490.58 302.58 495.21 338.64 503.58C338.64 503.94 338.64 505.75 338.64 509.01L348.28 509.01C348.28 507.09 348.28 506.03 348.28 505.81C356.28 507.65 360.71 508.68 361.61 508.88C361.94 508.98 362.31 509.01 362.68 509.01C364.61 509.01 380.01 509.01 381.91 509.01C395.21 509.01 405.94 498.25 405.98 484.98C405.84 482.48 405.58 480.01 405.18 477.58C405.18 477.58 392.34 417.41 390.91 410.75C387.94 395.05 375.54 382.81 359.81 380.01ZM333.84 297.41C333.84 302.75 329.54 307.05 324.21 307.05C324.18 307.05 323.88 307.05 323.84 307.05C324.08 303.51 324.21 300.01 324.21 296.48C324.21 294.75 324.21 288.68 324.21 287.81C329.54 287.81 333.84 292.11 333.84 297.41ZM218.41 297.41C218.41 292.11 222.74 287.81 228.04 287.81C228.04 288.68 228.04 295.61 228.04 296.48C228.04 300.01 228.18 303.51 228.41 307.05C228.34 307.05 228.11 307.05 228.04 307.05C222.74 307.05 218.41 302.75 218.41 297.41ZM382.54 458.85C380.91 458.68 372.74 457.81 358.08 456.31C361.13 455.3 385.59 447.16 388.64 446.15C390.41 454.45 391.54 459.65 391.98 461.75C389.04 460.18 385.84 459.21 382.54 458.85ZM358.14 389.48C369.98 391.58 379.24 400.78 381.48 412.55C381.48 412.61 381.48 412.65 381.51 412.68C381.84 414.28 383.54 422.28 386.61 436.68C383.21 437.81 356.04 446.85 352.64 447.98C349.91 437.68 348.41 431.98 348.11 430.85C347.41 428.28 344.78 426.75 342.21 427.45C340.11 427.98 338.64 429.91 338.64 432.08C338.64 433.55 338.64 440.95 338.64 454.28C335.15 453.92 307.23 451.01 303.74 450.65C296.44 428.75 292.41 416.58 291.58 414.15C290.44 410.68 287.51 408.08 283.94 407.28C296.98 404.45 306.98 394.01 309.31 380.88C309.31 380.88 310.11 381.05 311.71 381.31C339.58 386.21 355.08 388.95 358.14 389.48ZM314.61 249.95C314.61 251.68 314.61 265.71 314.61 267.45C311.04 261.28 307.84 254.91 304.98 248.35C304.98 246.55 304.98 241.11 304.98 239.31C310.44 239.85 314.61 244.45 314.61 249.95ZM295.38 236.15C295.38 236.71 295.38 239.51 295.38 244.51C261.11 244.51 242.08 244.51 238.28 244.51C240.48 236.05 248.14 230.11 256.91 230.11C256.91 230.11 281.84 230.11 284.61 230.11C289.01 230.08 293.08 232.38 295.38 236.15ZM244.64 254.15C242.91 257.81 240.48 262.61 237.68 267.45C237.68 265.68 237.68 261.25 237.68 254.15C241.84 254.15 244.18 254.15 244.64 254.15ZM237.68 284.71C245.78 274.45 252.51 260.25 255.24 254.15C259.41 254.15 292.84 254.15 297.01 254.15C299.74 260.25 306.51 274.45 314.61 284.71C314.61 285.88 314.61 295.31 314.61 296.48C314.61 306.38 313.61 316.28 311.68 325.98C307.74 345.61 288.64 358.35 269.01 354.41C254.68 351.55 243.44 340.35 240.58 325.98C238.64 316.28 237.68 306.38 237.68 296.48C237.68 295.31 237.68 285.88 237.68 284.71ZM268.31 407.28C264.74 408.05 261.84 410.68 260.68 414.15C259.88 416.58 255.81 428.75 248.51 450.65C245.02 451.01 217.1 453.92 213.61 454.28C213.61 440.95 213.61 433.55 213.61 432.08C213.61 429.41 211.48 427.28 208.81 427.28C206.64 427.28 204.71 428.75 204.18 430.85C203.84 431.98 202.34 437.68 199.61 447.98C196.27 446.87 169.55 437.96 166.21 436.85C168.94 422.28 170.48 414.21 170.78 412.58C173.01 400.78 182.31 391.61 194.11 389.48C203.88 387.75 233.18 382.58 242.98 380.85C245.28 393.98 255.28 404.41 268.31 407.28ZM169.71 458.85C166.41 459.21 163.21 460.18 160.28 461.75C160.51 460.71 161.61 455.48 163.64 446.11C165.68 446.79 175.84 450.19 194.14 456.31C178.92 457.89 170.78 458.74 169.71 458.85ZM199.18 350.31C199.18 367.41 199.18 376.91 199.18 378.81C195.14 379.55 192.88 379.95 192.44 380.01C191.48 380.18 190.51 380.38 189.58 380.65C189.58 378.62 189.58 368.51 189.58 350.31L199.18 350.31ZM208.81 377.11L208.81 350.31L218.41 350.31L218.41 375.41L208.81 377.11ZM213.61 340.71L175.14 340.71L175.14 331.08L206.41 331.08L213.61 340.71ZM151.11 302.25C135.18 302.25 122.24 289.31 122.24 273.38C122.28 257.45 135.18 244.55 151.11 244.51C167.04 244.51 179.94 257.45 179.94 273.38C179.94 289.31 167.04 302.25 151.11 302.25ZM176.44 302.31C177.68 301.21 178.84 300.05 179.94 298.78C179.94 300.31 179.94 307.85 179.94 321.48C174.17 321.48 128.01 321.48 122.24 321.48C122.24 309.38 122.24 301.81 122.24 298.78C136.24 314.71 160.51 316.31 176.44 302.31ZM165.54 331.08L165.54 340.71L122.24 340.71L122.24 331.08L165.54 331.08ZM179.94 350.31C179.94 370.88 179.94 382.28 179.94 384.58C170.21 390.18 163.41 399.78 161.31 410.81C160.98 412.55 159.38 421.25 156.44 436.88C154.16 436.88 142.76 436.88 122.24 436.88L122.24 350.31C156.86 350.31 176.1 350.31 179.94 350.31ZM122.24 465.75C138.64 465.75 147.75 465.75 149.58 465.75C148.08 472.81 147.24 476.78 147.08 477.55C146.68 480.01 146.41 482.48 146.31 484.98C146.28 490.18 147.98 495.25 151.11 499.41C147.28 499.41 137.64 499.41 122.24 499.41C122.24 494.92 122.24 483.7 122.24 465.75ZM122.24 456.11L122.24 446.51L153.71 446.51L151.64 456.11L122.24 456.11ZM189.01 499.41C177.81 499.41 171.58 499.41 170.34 499.41C162.38 499.38 155.91 492.95 155.91 484.98C155.91 476.48 162.28 469.35 170.71 468.41C178.91 467.55 244.41 460.75 252.58 459.91C254.48 459.71 256.04 458.45 256.64 456.65C257.98 452.71 268.48 421.15 269.81 417.18C269.94 416.78 270.38 416.55 270.81 416.71C271.11 416.81 271.31 417.11 271.31 417.45C271.31 425.81 271.31 446.78 271.31 480.35C254.85 484.16 197.24 497.51 189.01 499.41ZM275.28 408.05C275.44 408.05 276.81 408.05 277.01 408.05C277.11 408.05 277.21 408.01 277.31 408.01C276.91 408.21 276.51 408.45 276.14 408.68C275.74 408.45 275.34 408.21 274.94 408.01C275.04 408.01 275.14 408.05 275.28 408.05ZM252.44 379.21C252.51 379.21 253.04 379.11 253.11 379.11C255.41 378.71 257.08 376.71 257.08 374.38C257.08 372.98 257.08 361.95 257.08 360.58C269.24 366.18 283.24 366.15 295.38 360.51C295.38 361.88 295.38 372.98 295.38 374.38C295.38 376.71 297.04 378.68 299.31 379.11C299.38 379.11 299.78 379.18 299.84 379.18C297.88 390.28 288.28 398.41 277.01 398.41C276.64 398.41 275.44 398.41 275.28 398.41C264.01 398.41 254.38 390.31 252.44 379.21ZM280.94 480.35C280.94 442.61 280.94 421.61 280.94 417.45C280.94 417.01 281.31 416.65 281.74 416.65C282.04 416.68 282.34 416.88 282.44 417.18C283.78 421.15 294.31 452.71 295.61 456.65C296.21 458.45 297.81 459.71 299.68 459.91C307.88 460.75 373.34 467.55 381.51 468.41C389.98 469.35 396.34 476.48 396.34 484.98C396.34 492.95 389.88 499.38 381.91 499.41C381.91 499.41 375.71 499.41 363.24 499.41C346.78 495.6 289.17 482.25 280.94 480.35Z" id="hXFO5iqwE"></path><path d="M269.48 329.01C276.28 329.05 283.04 328.05 289.54 326.08C289.28 325.15 287.04 317.78 286.74 316.88C281.14 318.55 275.34 319.41 269.48 319.41C268.81 319.41 265.41 319.41 259.31 319.41C259.31 320.05 259.31 323.25 259.31 329.01C265.64 329.01 269.03 329.01 269.48 329.01Z" id="a1VwNFuo3g"></path><path d="M269.48 329.01C276.28 329.05 283.04 328.05 289.54 326.08C289.28 325.15 287.04 317.78 286.74 316.88C281.14 318.55 275.34 319.41 269.48 319.41C268.81 319.41 265.41 319.41 259.31 319.41C259.31 320.05 259.31 323.25 259.31 329.01C265.64 329.01 269.03 329.01 269.48 329.01Z" id="afl4pUrbK"></path><path d="M244.88 290.21C244.88 294.21 248.11 297.41 252.08 297.41C256.08 297.41 259.31 294.21 259.31 290.21C259.31 286.25 256.08 283.01 252.08 283.01C248.11 283.01 244.88 286.25 244.88 290.21Z" id="adyjhadj"></path><path d="M244.88 290.21C244.88 294.21 248.11 297.41 252.08 297.41C256.08 297.41 259.31 294.21 259.31 290.21C259.31 286.25 256.08 283.01 252.08 283.01C248.11 283.01 244.88 286.25 244.88 290.21Z" id="c2rh4gCaTp"></path><path d="M288.14 290.21C288.14 294.21 291.38 297.41 295.38 297.41C299.34 297.41 302.58 294.21 302.58 290.21C302.58 286.25 299.34 283.01 295.38 283.01C291.38 283.01 288.14 286.25 288.14 290.21Z" id="aqkk8Pb2S"></path><path d="M288.14 290.21C288.14 294.21 291.38 297.41 295.38 297.41C299.34 297.41 302.58 294.21 302.58 290.21C302.58 286.25 299.34 283.01 295.38 283.01C291.38 283.01 288.14 286.25 288.14 290.21Z" id="a11L8dZxXE"></path></defs><g><g><use xlink:href="#cLI9pZJoL" opacity="1" fill="#ffffff" fill-opacity="1"></use><g><use xlink:href="#cLI9pZJoL" opacity="1" fill-opacity="0" stroke="#000000" stroke-width="1" stroke-opacity="0"></use></g></g><g><use xlink:href="#f18gsdFXsO" opacity="1" fill="#000000" fill-opacity="0"></use><g><use xlink:href="#f18gsdFXsO" opacity="1" fill-opacity="0" stroke="#003068" stroke-width="4" stroke-opacity="1"></use></g></g><g><use xlink:href="#acEgp82JR" opacity="1" fill="#e2ffe2" fill-opacity="1"></use><g><use xlink:href="#acEgp82JR" opacity="1" fill-opacity="0" stroke="#000000" stroke-width="1" stroke-opacity="0"></use></g></g><g><use xlink:href="#eeD7NMS0J" opacity="1" fill="#000000" fill-opacity="0"></use><g><use xlink:href="#eeD7NMS0J" opacity="1" fill-opacity="0" stroke="#000000" stroke-width="1" stroke-opacity="0"></use></g></g><g><use xlink:href="#d21947JUD" opacity="1" fill="#3b9dc7" fill-opacity="1"></use><g><use xlink:href="#d21947JUD" opacity="1" fill-opacity="0" stroke="#000000" stroke-width="1" stroke-opacity="0"></use></g></g><g><use xlink:href="#a15bj3sHha" opacity="1" fill="#000000" fill-opacity="0"></use><g><use xlink:href="#a15bj3sHha" opacity="1" fill-opacity="0" stroke="#000000" stroke-width="1" stroke-opacity="0"></use></g></g><g><use xlink:href="#a1cSF8qKI5" opacity="1" fill="#4db7e5" fill-opacity="1"></use><g><use xlink:href="#a1cSF8qKI5" opacity="1" fill-opacity="0" stroke="#000000" stroke-width="1" stroke-opacity="0"></use></g></g><g><use xlink:href="#a4nnXssKhs" opacity="1" fill="#000000" fill-opacity="0"></use><g><use xlink:href="#a4nnXssKhs" opacity="1" fill-opacity="0" stroke="#000000" stroke-width="1" stroke-opacity="0"></use></g></g><g><use xlink:href="#a3L0lAlkc8" opacity="1" fill="#3291ba" fill-opacity="1"></use><g><use xlink:href="#a3L0lAlkc8" opacity="1" fill-opacity="0" stroke="#000000" stroke-width="1" stroke-opacity="0"></use></g></g><g><use xlink:href="#a27LZvXUQI" opacity="1" fill="#000000" fill-opacity="0"></use><g><use xlink:href="#a27LZvXUQI" opacity="1" fill-opacity="0" stroke="#000000" stroke-width="1" stroke-opacity="0"></use></g></g><g><use xlink:href="#c7mwELRESQ" opacity="1" fill="#404f66" fill-opacity="1"></use><g><use xlink:href="#c7mwELRESQ" opacity="1" fill-opacity="0" stroke="#000000" stroke-width="1" stroke-opacity="0"></use></g></g><g><use xlink:href="#a9dz7PfpY" opacity="1" fill="#000000" fill-opacity="0"></use><g><use xlink:href="#a9dz7PfpY" opacity="1" fill-opacity="0" stroke="#000000" stroke-width="1" stroke-opacity="0"></use></g></g><g><use xlink:href="#d66cY997eV" opacity="1" fill="#404f66" fill-opacity="1"></use><g><use xlink:href="#d66cY997eV" opacity="1" fill-opacity="0" stroke="#000000" stroke-width="1" stroke-opacity="0"></use></g></g><g><use xlink:href="#b55gwnKCi" opacity="1" fill="#000000" fill-opacity="0"></use><g><use xlink:href="#b55gwnKCi" opacity="1" fill-opacity="0" stroke="#000000" stroke-width="1" stroke-opacity="0"></use></g></g><g><use xlink:href="#hPVo7qIxs" opacity="1" fill="#ffe529" fill-opacity="1"></use><g><use xlink:href="#hPVo7qIxs" opacity="1" fill-opacity="0" stroke="#000000" stroke-width="1" stroke-opacity="0"></use></g></g><g><use xlink:href="#c1vJdcRsh" opacity="1" fill="#000000" fill-opacity="0"></use><g><use xlink:href="#c1vJdcRsh" opacity="1" fill-opacity="0" stroke="#000000" stroke-width="1" stroke-opacity="0"></use></g></g><g><use xlink:href="#hatE2lQ2q" opacity="1" fill="#ffe529" fill-opacity="1"></use><g><use xlink:href="#hatE2lQ2q" opacity="1" fill-opacity="0" stroke="#000000" stroke-width="1" stroke-opacity="0"></use></g></g><g><use xlink:href="#bdjhReUMY" opacity="1" fill="#000000" fill-opacity="0"></use><g><use xlink:href="#bdjhReUMY" opacity="1" fill-opacity="0" stroke="#000000" stroke-width="1" stroke-opacity="0"></use></g></g><g><use xlink:href="#i1aDGyCSUh" opacity="1" fill="#404f66" fill-opacity="1"></use><g><use xlink:href="#i1aDGyCSUh" opacity="1" fill-opacity="0" stroke="#000000" stroke-width="1" stroke-opacity="0"></use></g></g><g><use xlink:href="#cW5B9TzJ" opacity="1" fill="#000000" fill-opacity="0"></use><g><use xlink:href="#cW5B9TzJ" opacity="1" fill-opacity="0" stroke="#000000" stroke-width="1" stroke-opacity="0"></use></g></g><g><use xlink:href="#bei3iaIgZ" opacity="1" fill="#754100" fill-opacity="1"></use><g><use xlink:href="#bei3iaIgZ" opacity="1" fill-opacity="0" stroke="#000000" stroke-width="1" stroke-opacity="0"></use></g></g><g><use xlink:href="#b5m85bdlD8" opacity="1" fill="#000000" fill-opacity="0"></use><g><use xlink:href="#b5m85bdlD8" opacity="1" fill-opacity="0" stroke="#000000" stroke-width="1" stroke-opacity="0"></use></g></g><g><use xlink:href="#b9DMmi1V1" opacity="1" fill="#ffe529" fill-opacity="1"></use><g><use xlink:href="#b9DMmi1V1" opacity="1" fill-opacity="0" stroke="#000000" stroke-width="1" stroke-opacity="0"></use></g></g><g><use xlink:href="#a1goYSvXRl" opacity="1" fill="#000000" fill-opacity="0"></use><g><use xlink:href="#a1goYSvXRl" opacity="1" fill-opacity="0" stroke="#000000" stroke-width="1" stroke-opacity="0"></use></g></g><g><use xlink:href="#a3faYEa7P" opacity="1" fill="#ffe529" fill-opacity="1"></use><g><use xlink:href="#a3faYEa7P" opacity="1" fill-opacity="0" stroke="#000000" stroke-width="1" stroke-opacity="0"></use></g></g><g><use xlink:href="#d41CmvBTk0" opacity="1" fill="#000000" fill-opacity="0"></use><g><use xlink:href="#d41CmvBTk0" opacity="1" fill-opacity="0" stroke="#000000" stroke-width="1" stroke-opacity="0"></use></g></g><g><use xlink:href="#a4DphXNJ3z" opacity="1" fill="#754100" fill-opacity="1"></use><g><use xlink:href="#a4DphXNJ3z" opacity="1" fill-opacity="0" stroke="#000000" stroke-width="1" stroke-opacity="0"></use></g></g><g><use xlink:href="#d19LXwjKO" opacity="1" fill="#000000" fill-opacity="0"></use><g><use xlink:href="#d19LXwjKO" opacity="1" fill-opacity="0" stroke="#000000" stroke-width="1" stroke-opacity="0"></use></g></g><g><use xlink:href="#b83iEUe6n" opacity="1" fill="#754100" fill-opacity="1"></use><g><use xlink:href="#b83iEUe6n" opacity="1" fill-opacity="0" stroke="#000000" stroke-width="1" stroke-opacity="0"></use></g></g><g><use xlink:href="#as7816a4" opacity="1" fill="#000000" fill-opacity="0"></use><g><use xlink:href="#as7816a4" opacity="1" fill-opacity="0" stroke="#000000" stroke-width="1" stroke-opacity="0"></use></g></g><g><use xlink:href="#a17JhF419E" opacity="1" fill="#754100" fill-opacity="1"></use><g><use xlink:href="#a17JhF419E" opacity="1" fill-opacity="0" stroke="#000000" stroke-width="1" stroke-opacity="0"></use></g></g><g><use xlink:href="#a3mbhwHnEs" opacity="1" fill="#000000" fill-opacity="0"></use><g><use xlink:href="#a3mbhwHnEs" opacity="1" fill-opacity="0" stroke="#000000" stroke-width="1" stroke-opacity="0"></use></g></g><g><use xlink:href="#a9D9yEvXY" opacity="1" fill="#754100" fill-opacity="1"></use><g><use xlink:href="#a9D9yEvXY" opacity="1" fill-opacity="0" stroke="#000000" stroke-width="1" stroke-opacity="0"></use></g></g><g><use xlink:href="#c1qLsarPVF" opacity="1" fill="#000000" fill-opacity="0"></use><g><use xlink:href="#c1qLsarPVF" opacity="1" fill-opacity="0" stroke="#000000" stroke-width="1" stroke-opacity="0"></use></g></g><g><use xlink:href="#c22TxUc1l5" opacity="1" fill="#754100" fill-opacity="1"></use><g><use xlink:href="#c22TxUc1l5" opacity="1" fill-opacity="0" stroke="#000000" stroke-width="1" stroke-opacity="0"></use></g></g><g><use xlink:href="#a1dVNeC9JW" opacity="1" fill="#000000" fill-opacity="0"></use><g><use xlink:href="#a1dVNeC9JW" opacity="1" fill-opacity="0" stroke="#000000" stroke-width="1" stroke-opacity="0"></use></g></g><g><use xlink:href="#cIVqxs5xB" opacity="1" fill="#754100" fill-opacity="1"></use><g><use xlink:href="#cIVqxs5xB" opacity="1" fill-opacity="0" stroke="#000000" stroke-width="1" stroke-opacity="0"></use></g></g><g><use xlink:href="#a1T9JBtafP" opacity="1" fill="#000000" fill-opacity="0"></use><g><use xlink:href="#a1T9JBtafP" opacity="1" fill-opacity="0" stroke="#000000" stroke-width="1" stroke-opacity="0"></use></g></g><g><use xlink:href="#b1hGIYwVlx" opacity="1" fill="#754100" fill-opacity="1"></use><g><use xlink:href="#b1hGIYwVlx" opacity="1" fill-opacity="0" stroke="#000000" stroke-width="1" stroke-opacity="0"></use></g></g><g><use xlink:href="#dw7us6Tkv" opacity="1" fill="#000000" fill-opacity="0"></use><g><use xlink:href="#dw7us6Tkv" opacity="1" fill-opacity="0" stroke="#000000" stroke-width="1" stroke-opacity="0"></use></g></g><g><use xlink:href="#jsTNegJ9a" opacity="1" fill="#754100" fill-opacity="1"></use><g><use xlink:href="#jsTNegJ9a" opacity="1" fill-opacity="0" stroke="#000000" stroke-width="1" stroke-opacity="0"></use></g></g><g><use xlink:href="#a9UX1d1de" opacity="1" fill="#000000" fill-opacity="0"></use><g><use xlink:href="#a9UX1d1de" opacity="1" fill-opacity="0" stroke="#000000" stroke-width="1" stroke-opacity="0"></use></g></g><g><use xlink:href="#a2iCm2lB0u" opacity="1" fill="#754100" fill-opacity="1"></use><g><use xlink:href="#a2iCm2lB0u" opacity="1" fill-opacity="0" stroke="#000000" stroke-width="1" stroke-opacity="0"></use></g></g><g><use xlink:href="#c1bYupGpLr" opacity="1" fill="#000000" fill-opacity="0"></use><g><use xlink:href="#c1bYupGpLr" opacity="1" fill-opacity="0" stroke="#000000" stroke-width="1" stroke-opacity="0"></use></g></g><g><use xlink:href="#b4xo8rnigW" opacity="1" fill="#754100" fill-opacity="1"></use><g><use xlink:href="#b4xo8rnigW" opacity="1" fill-opacity="0" stroke="#000000" stroke-width="1" stroke-opacity="0"></use></g></g><g><use xlink:href="#avvsby8ko" opacity="1" fill="#000000" fill-opacity="0"></use><g><use xlink:href="#avvsby8ko" opacity="1" fill-opacity="0" stroke="#000000" stroke-width="1" stroke-opacity="0"></use></g></g><g><use xlink:href="#g1rAma2BNW" opacity="1" fill="#000000" fill-opacity="1"></use><g><use xlink:href="#g1rAma2BNW" opacity="1" fill-opacity="0" stroke="#000000" stroke-width="1" stroke-opacity="0"></use></g></g><g><use xlink:href="#a1aQ37U7Ky" opacity="1" fill="#000000" fill-opacity="0"></use><g><use xlink:href="#a1aQ37U7Ky" opacity="1" fill-opacity="0" stroke="#000000" stroke-width="1" stroke-opacity="0"></use></g></g><g><use xlink:href="#agCgo6NZs" opacity="1" fill="#000000" fill-opacity="1"></use><g><use xlink:href="#agCgo6NZs" opacity="1" fill-opacity="0" stroke="#000000" stroke-width="1" stroke-opacity="0"></use></g></g><g><use xlink:href="#a1BOAPLZje" opacity="1" fill="#000000" fill-opacity="0"></use><g><use xlink:href="#a1BOAPLZje" opacity="1" fill-opacity="0" stroke="#000000" stroke-width="1" stroke-opacity="0"></use></g></g><g><use xlink:href="#aDpmo0034" opacity="1" fill="#000000" fill-opacity="1"></use><g><use xlink:href="#aDpmo0034" opacity="1" fill-opacity="0" stroke="#000000" stroke-width="1" stroke-opacity="0"></use></g></g><g><use xlink:href="#i1BXVtBB7e" opacity="1" fill="#000000" fill-opacity="0"></use><g><use xlink:href="#i1BXVtBB7e" opacity="1" fill-opacity="0" stroke="#000000" stroke-width="1" stroke-opacity="0"></use></g></g><g><use xlink:href="#b1LSvKJH" opacity="1" fill="#754100" fill-opacity="1"></use><g><use xlink:href="#b1LSvKJH" opacity="1" fill-opacity="0" stroke="#000000" stroke-width="1" stroke-opacity="0"></use></g></g><g><use xlink:href="#e1lJOZfPA7" opacity="1" fill="#000000" fill-opacity="0"></use><g><use xlink:href="#e1lJOZfPA7" opacity="1" fill-opacity="0" stroke="#000000" stroke-width="1" stroke-opacity="0"></use></g></g><g><use xlink:href="#b3rjJNAQsP" opacity="1" fill="#000000" fill-opacity="1"></use><g><use xlink:href="#b3rjJNAQsP" opacity="1" fill-opacity="0" stroke="#000000" stroke-width="1" stroke-opacity="0"></use></g></g><g><use xlink:href="#akBCbL8yq" opacity="1" fill="#000000" fill-opacity="0"></use><g><use xlink:href="#akBCbL8yq" opacity="1" fill-opacity="0" stroke="#000000" stroke-width="1" stroke-opacity="0"></use></g></g><g><use xlink:href="#i4SrBT346D" opacity="1" fill="#000000" fill-opacity="1"></use><g><use xlink:href="#i4SrBT346D" opacity="1" fill-opacity="0" stroke="#000000" stroke-width="1" stroke-opacity="0"></use></g></g><g><use xlink:href="#hXFO5iqwE" opacity="1" fill="#000000" fill-opacity="0"></use><g><use xlink:href="#hXFO5iqwE" opacity="1" fill-opacity="0" stroke="#000000" stroke-width="1" stroke-opacity="0"></use></g></g><g><use xlink:href="#a1VwNFuo3g" opacity="1" fill="#000000" fill-opacity="1"></use><g><use xlink:href="#a1VwNFuo3g" opacity="1" fill-opacity="0" stroke="#000000" stroke-width="1" stroke-opacity="0"></use></g></g><g><use xlink:href="#afl4pUrbK" opacity="1" fill="#000000" fill-opacity="0"></use><g><use xlink:href="#afl4pUrbK" opacity="1" fill-opacity="0" stroke="#000000" stroke-width="1" stroke-opacity="0"></use></g></g><g><use xlink:href="#adyjhadj" opacity="1" fill="#000000" fill-opacity="1"></use><g><use xlink:href="#adyjhadj" opacity="1" fill-opacity="0" stroke="#000000" stroke-width="1" stroke-opacity="0"></use></g></g><g><use xlink:href="#c2rh4gCaTp" opacity="1" fill="#000000" fill-opacity="0"></use><g><use xlink:href="#c2rh4gCaTp" opacity="1" fill-opacity="0" stroke="#000000" stroke-width="1" stroke-opacity="0"></use></g></g><g><use xlink:href="#aqkk8Pb2S" opacity="1" fill="#000000" fill-opacity="1"></use><g><use xlink:href="#aqkk8Pb2S" opacity="1" fill-opacity="0" stroke="#000000" stroke-width="1" stroke-opacity="0"></use></g></g><g><use xlink:href="#a11L8dZxXE" opacity="1" fill="#000000" fill-opacity="0"></use><g><use xlink:href="#a11L8dZxXE" opacity="1" fill-opacity="0" stroke="#000000" stroke-width="1" stroke-opacity="0"></use></g></g></g></svg>