<?xml version="1.0" encoding="UTF-8" standalone="no"?>
<!DOCTYPE svg PUBLIC "-//W3C//DTD SVG 1.1//EN" "http://www.w3.org/Graphics/SVG/1.1/DTD/svg11.dtd">
<svg version="1.1" xmlns="http://www.w3.org/2000/svg" xmlns:xlink="http://www.w3.org/1999/xlink" preserveAspectRatio="xMidYMid meet" viewBox="27.97 137.13 404.9999999999999 405" width="400" height="400"><defs><path d="M29.97 339.13C29.97 449.6 119.54 539.13 229.97 539.13C340.44 539.13 429.97 449.6 429.97 339.13C429.97 228.66 340.44 139.13 229.97 139.13C119.54 139.13 29.97 228.66 29.97 339.13Z" id="b2jlORznuU"></path><path d="M29.97 339.13C29.97 449.6 119.54 539.13 229.97 539.13C340.44 539.13 429.97 449.6 429.97 339.13C429.97 228.66 340.44 139.13 229.97 139.13C119.54 139.13 29.97 228.66 29.97 339.13Z" id="c1y3hAyTTU"></path><path d="M163.04 226.93L163.04 461.56L94.6 461.56L94.6 226.93L163.04 226.93Z" id="etp9oztdA"></path><path d="M163.04 226.93L163.04 461.56L94.6 461.56L94.6 226.93L163.04 226.93Z" id="i5ZTJiJQNb"></path><path d="M163.04 461.56C163.04 357.03 163.04 298.93 163.04 287.33C143.94 332.1 116.37 370 94.6 395.83C94.6 404.6 94.6 426.5 94.6 461.56C108.29 461.56 156.19 461.56 163.04 461.56Z" id="bqI9FFg0x"></path><path d="M163.04 461.56C163.04 357.03 163.04 298.93 163.04 287.33C143.94 332.1 116.37 370 94.6 395.83C94.6 404.6 94.6 426.5 94.6 461.56C108.29 461.56 156.19 461.56 163.04 461.56Z" id="c4u0QWqX3"></path><path d="M94.6 226.93C94.6 245.83 109.94 261.13 128.84 261.13C147.74 261.13 163.04 245.83 163.04 226.93C163.04 208.03 147.74 192.7 128.84 192.7C109.94 192.7 94.6 208.03 94.6 226.93Z" id="bhEXKUluQ"></path><path d="M94.6 226.93C94.6 245.83 109.94 261.13 128.84 261.13C147.74 261.13 163.04 245.83 163.04 226.93C163.04 208.03 147.74 192.7 128.84 192.7C109.94 192.7 94.6 208.03 94.6 226.93Z" id="b133BE4Y4z"></path><path d="M114.17 226.93C114.17 235.03 120.74 241.6 128.84 241.6C136.94 241.6 143.5 235.03 143.5 226.93C143.5 218.83 136.94 212.26 128.84 212.26C120.74 212.26 114.17 218.83 114.17 226.93Z" id="cm60NJa2U"></path><path d="M114.17 226.93C114.17 235.03 120.74 241.6 128.84 241.6C136.94 241.6 143.5 235.03 143.5 226.93C143.5 218.83 136.94 212.26 128.84 212.26C120.74 212.26 114.17 218.83 114.17 226.93Z" id="b1OdKUTAo9"></path><path d="M163.04 280.7L163.04 300.26L94.6 300.26L94.6 280.7L163.04 280.7Z" id="a8B4MpvGLn"></path><path d="M163.04 280.7L163.04 300.26L94.6 300.26L94.6 280.7L163.04 280.7Z" id="g2jBbsNwnt"></path><path d="M163.04 398.03L163.04 417.56L94.6 417.56L94.6 398.03L163.04 398.03Z" id="e1nDiYsJ77"></path><path d="M163.04 398.03L163.04 417.56L94.6 417.56L94.6 398.03L163.04 398.03Z" id="e4KymrHfC"></path><path d="M148.37 300.26L148.37 280.7L187.5 280.7L202.17 300.26L148.37 300.26Z" id="b7mTlmdLNv"></path><path d="M148.37 300.26L148.37 280.7L187.5 280.7L202.17 300.26L148.37 300.26Z" id="a1R84OLM2r"></path><path d="M148.37 417.56L148.37 398.03L202.17 398.03L187.5 417.56L148.37 417.56Z" id="e1ifuOx97t"></path><path d="M148.37 417.56L148.37 398.03L202.17 398.03L187.5 417.56L148.37 417.56Z" id="j1c2M0ACFe"></path><path d="M202.17 300.26L202.17 398.03L182.6 398.03L182.6 300.26L202.17 300.26Z" id="bnzZmDfcr"></path><path d="M202.17 300.26L202.17 398.03L182.6 398.03L182.6 300.26L202.17 300.26Z" id="cbjfroo8K"></path><path d="M216.84 236.7L216.84 246.46L202.17 246.46L202.17 236.7L216.84 236.7Z" id="h11ZuFwy3G"></path><path d="M216.84 236.7L216.84 246.46L202.17 246.46L202.17 236.7L216.84 236.7Z" id="eFe19J6fp"></path><path d="M347.14 452.86C345.34 450.26 336.37 437.23 320.2 413.76C319.69 413.01 317.1 409.27 312.44 402.53L304.84 402.53L304.84 466.46L207.04 466.46L207.04 402.53L199.44 402.53C194.4 409.85 191.6 413.92 191.04 414.73C175.27 437.6 166.5 450.33 164.74 452.86C160.47 460.9 150.47 463.93 142.47 459.63C135.04 455.7 131.8 446.8 134.9 439C135.37 438 137.77 433.03 142.04 424.06C162.07 382.26 173.17 359.03 175.4 354.4C179.87 345.06 188.9 338.8 199.2 337.86C199.97 337.8 203.77 337.43 210.57 336.83C212.45 336.66 227.46 335.27 229.34 335.1C230.9 334.96 231.77 334.9 231.94 334.86C234.47 334.63 236.37 332.53 236.37 330C236.37 327.7 236.37 316.13 236.37 295.36C240.28 295.36 271.59 295.36 275.5 295.36C275.5 316.13 275.5 327.7 275.5 330C275.5 332.53 277.44 334.63 279.94 334.86C280.14 334.9 281.04 334.96 282.64 335.13C284.49 335.3 299.29 336.63 301.14 336.8C308.07 337.43 311.9 337.76 312.67 337.86C322.97 338.8 332 345.06 336.47 354.4C338.67 359 349.67 381.96 369.47 423.36C373.97 432.73 376.47 437.93 376.97 439C377.77 440.93 378.17 443.03 378.17 445.13C378.14 454.23 370.77 461.6 361.64 461.56C355.57 461.56 350 458.23 347.14 452.86Z" id="b3zXsgBzhk"></path><path d="M347.14 452.86C345.34 450.26 336.37 437.23 320.2 413.76C319.69 413.01 317.1 409.27 312.44 402.53L304.84 402.53L304.84 466.46L207.04 466.46L207.04 402.53L199.44 402.53C194.4 409.85 191.6 413.92 191.04 414.73C175.27 437.6 166.5 450.33 164.74 452.86C160.47 460.9 150.47 463.93 142.47 459.63C135.04 455.7 131.8 446.8 134.9 439C135.37 438 137.77 433.03 142.04 424.06C162.07 382.26 173.17 359.03 175.4 354.4C179.87 345.06 188.9 338.8 199.2 337.86C199.97 337.8 203.77 337.43 210.57 336.83C212.45 336.66 227.46 335.27 229.34 335.1C230.9 334.96 231.77 334.9 231.94 334.86C234.47 334.63 236.37 332.53 236.37 330C236.37 327.7 236.37 316.13 236.37 295.36C240.28 295.36 271.59 295.36 275.5 295.36C275.5 316.13 275.5 327.7 275.5 330C275.5 332.53 277.44 334.63 279.94 334.86C280.14 334.9 281.04 334.96 282.64 335.13C284.49 335.3 299.29 336.63 301.14 336.8C308.07 337.43 311.9 337.76 312.67 337.86C322.97 338.8 332 345.06 336.47 354.4C338.67 359 349.67 381.96 369.47 423.36C373.97 432.73 376.47 437.93 376.97 439C377.77 440.93 378.17 443.03 378.17 445.13C378.14 454.23 370.77 461.6 361.64 461.56C355.57 461.56 350 458.23 347.14 452.86Z" id="arze3owMp"></path><path d="M347.14 452.86C345.34 450.26 336.37 437.23 320.2 413.76C325.13 414.72 364.54 422.4 369.47 423.36C373.97 432.73 376.47 437.93 376.97 439C377.77 440.93 378.17 443.03 378.17 445.13C378.14 454.23 370.77 461.6 361.64 461.56C355.57 461.56 350 458.23 347.14 452.86Z" id="aHp93EI6t"></path><path d="M347.14 452.86C345.34 450.26 336.37 437.23 320.2 413.76C325.13 414.72 364.54 422.4 369.47 423.36C373.97 432.73 376.47 437.93 376.97 439C377.77 440.93 378.17 443.03 378.17 445.13C378.14 454.23 370.77 461.6 361.64 461.56C355.57 461.56 350 458.23 347.14 452.86Z" id="c3KS8FUmSU"></path><path d="M236.37 295.36C236.37 307.26 236.37 313.86 236.37 315.16C248.7 321.33 263.2 321.33 275.5 315.16C275.5 312.53 275.5 305.93 275.5 295.36C267.68 295.36 240.28 295.36 236.37 295.36Z" id="d1JiouCgeS"></path><path d="M236.37 295.36C236.37 307.26 236.37 313.86 236.37 315.16C248.7 321.33 263.2 321.33 275.5 315.16C275.5 312.53 275.5 305.93 275.5 295.36C267.68 295.36 240.28 295.36 236.37 295.36Z" id="b1IULNIzyo"></path><path d="M290.17 222.03C293.1 222.03 294.74 222.03 295.04 222.03C300.44 222.03 304.84 226.4 304.84 231.8C304.84 237.2 304.84 280.2 304.84 285.6C304.84 301.8 317.97 314.93 334.17 314.93C334.17 306.6 334.17 240.13 334.17 231.8C334.17 215.6 321.04 202.46 304.84 202.46C302.87 202.46 297.97 202.46 290.17 202.46C290.17 206.38 290.17 220.07 290.17 222.03Z" id="bJ0UNltjf"></path><path d="M290.17 222.03C293.1 222.03 294.74 222.03 295.04 222.03C300.44 222.03 304.84 226.4 304.84 231.8C304.84 237.2 304.84 280.2 304.84 285.6C304.84 301.8 317.97 314.93 334.17 314.93C334.17 306.6 334.17 240.13 334.17 231.8C334.17 215.6 321.04 202.46 304.84 202.46C302.87 202.46 297.97 202.46 290.17 202.46C290.17 206.38 290.17 220.07 290.17 222.03Z" id="bfmfIF6gb"></path><path d="M255.94 310.03C255.27 310.03 254.64 310.03 254 310C230.47 308.93 211.94 289.56 211.94 266.03C211.94 262.6 211.94 235.23 211.94 231.8C211.94 210.2 229.44 192.7 251.04 192.7C252.04 192.7 259.84 192.7 260.84 192.7C282.44 192.7 299.94 210.2 299.94 231.8C299.94 231.8 299.94 231.8 299.94 231.8C299.94 238.66 299.94 262.6 299.94 266.03C299.94 290.33 280.24 310.03 255.94 310.03Z" id="h18ZI9xadi"></path><path d="M255.94 310.03C255.27 310.03 254.64 310.03 254 310C230.47 308.93 211.94 289.56 211.94 266.03C211.94 262.6 211.94 235.23 211.94 231.8C211.94 210.2 229.44 192.7 251.04 192.7C252.04 192.7 259.84 192.7 260.84 192.7C282.44 192.7 299.94 210.2 299.94 231.8C299.94 231.8 299.94 231.8 299.94 231.8C299.94 238.66 299.94 262.6 299.94 266.03C299.94 290.33 280.24 310.03 255.94 310.03Z" id="aufwsS3UU"></path><path d="M255.94 310.03C255.27 310.03 254.64 310.03 254 310C268.57 302.43 277.74 287.36 277.74 270.93C277.74 266.03 277.74 226.93 277.74 222.03C277.77 211.43 273.94 201.16 266.97 193.16C285.97 196.2 299.94 212.56 299.94 231.8C299.94 238.66 299.94 262.6 299.94 266.03C299.94 290.33 280.24 310.03 255.94 310.03Z" id="g1yeUHCOYM"></path><path d="M255.94 310.03C255.27 310.03 254.64 310.03 254 310C268.57 302.43 277.74 287.36 277.74 270.93C277.74 266.03 277.74 226.93 277.74 222.03C277.77 211.43 273.94 201.16 266.97 193.16C285.97 196.2 299.94 212.56 299.94 231.8C299.94 238.66 299.94 262.6 299.94 266.03C299.94 290.33 280.24 310.03 255.94 310.03Z" id="afKgmt2Fd"></path><path d="M299.94 241.6C288.2 218.13 281.7 205.1 280.37 202.46C280.37 202.46 276.6 205.5 270.54 209.86C254.74 221.16 223.34 241.6 202.17 241.6C202.17 240.13 202.17 228.4 202.17 226.93C202.17 199.93 224.04 178.03 251.04 178.03C252.04 178.03 259.84 178.03 260.84 178.03C287.84 178.03 309.7 199.93 309.7 226.93C309.7 229.53 309.7 236.03 309.7 246.46C307.75 245.49 300.91 242.08 299.94 241.6Z" id="f3NwlLC0Wz"></path><path d="M299.94 241.6C288.2 218.13 281.7 205.1 280.37 202.46C280.37 202.46 276.6 205.5 270.54 209.86C254.74 221.16 223.34 241.6 202.17 241.6C202.17 240.13 202.17 228.4 202.17 226.93C202.17 199.93 224.04 178.03 251.04 178.03C252.04 178.03 259.84 178.03 260.84 178.03C287.84 178.03 309.7 199.93 309.7 226.93C309.7 229.53 309.7 236.03 309.7 246.46C307.75 245.49 300.91 242.08 299.94 241.6Z" id="a1k2mgqeWR"></path><path d="M299.94 241.6C288.2 218.13 281.7 205.1 280.37 202.46C280.37 202.46 276.6 205.5 270.54 209.86C269.97 199.03 265.4 188.8 257.7 181.13C256.64 180.03 255.47 179 254.27 178.03C254.9 178.03 260.17 178.03 260.84 178.03C287.84 178.03 309.7 199.93 309.7 226.93C309.7 229.53 309.7 236.03 309.7 246.46C307.75 245.49 300.91 242.08 299.94 241.6Z" id="aduZvKeQC"></path><path d="M299.94 241.6C288.2 218.13 281.7 205.1 280.37 202.46C280.37 202.46 276.6 205.5 270.54 209.86C269.97 199.03 265.4 188.8 257.7 181.13C256.64 180.03 255.47 179 254.27 178.03C254.9 178.03 260.17 178.03 260.84 178.03C287.84 178.03 309.7 199.93 309.7 226.93C309.7 229.53 309.7 236.03 309.7 246.46C307.75 245.49 300.91 242.08 299.94 241.6Z" id="a6rpPhqov1"></path><path d="M207.04 466.46C207.04 448.86 207.04 439.1 207.04 437.13C195.17 423 195.17 402.36 207.04 388.26C207.04 388.26 209.1 357.4 210.57 336.83C211.84 336.7 218.07 336.13 229.34 335.1C231.84 352.46 233.24 362.1 233.54 364C235.34 376.4 246.87 384.93 259.24 383.13C269.14 381.66 276.9 373.9 278.37 364C278.64 362.1 280.07 352.46 282.64 335.13C293.74 336.13 299.9 336.7 301.14 336.8C302.6 357 304.84 388.26 304.84 388.26C316.7 402.36 316.7 423 304.84 437.13C304.84 441.03 304.84 450.83 304.84 466.46C285.28 466.46 216.82 466.46 207.04 466.46Z" id="b5UEBk3qY"></path><path d="M207.04 466.46C207.04 448.86 207.04 439.1 207.04 437.13C195.17 423 195.17 402.36 207.04 388.26C207.04 388.26 209.1 357.4 210.57 336.83C211.84 336.7 218.07 336.13 229.34 335.1C231.84 352.46 233.24 362.1 233.54 364C235.34 376.4 246.87 384.93 259.24 383.13C269.14 381.66 276.9 373.9 278.37 364C278.64 362.1 280.07 352.46 282.64 335.13C293.74 336.13 299.9 336.7 301.14 336.8C302.6 357 304.84 388.26 304.84 388.26C316.7 402.36 316.7 423 304.84 437.13C304.84 441.03 304.84 450.83 304.84 466.46C285.28 466.46 216.82 466.46 207.04 466.46Z" id="b3jCQOXsY1"></path><path d="M226.2 466.46C253.57 451.13 283.77 428.83 310.27 396.8C316.44 410.16 314.3 425.9 304.84 437.13C304.84 441.03 304.84 450.83 304.84 466.46C257.67 466.46 231.44 466.46 226.2 466.46Z" id="a7ocfrrxz7"></path><path d="M226.2 466.46C253.57 451.13 283.77 428.83 310.27 396.8C316.44 410.16 314.3 425.9 304.84 437.13C304.84 441.03 304.84 450.83 304.84 466.46C257.67 466.46 231.44 466.46 226.2 466.46Z" id="hnypreXhn"></path><path d="M164.74 452.86C160.47 460.9 150.47 463.93 142.47 459.63C135.04 455.7 131.8 446.8 134.9 439C135.37 438 137.77 433.03 142.04 424.06C145.3 423.44 161.64 420.33 191.04 414.73C174.68 438.46 165.91 451.17 164.74 452.86Z" id="d1MWh8g6ZC"></path><path d="M164.74 452.86C160.47 460.9 150.47 463.93 142.47 459.63C135.04 455.7 131.8 446.8 134.9 439C135.37 438 137.77 433.03 142.04 424.06C145.3 423.44 161.64 420.33 191.04 414.73C174.68 438.46 165.91 451.17 164.74 452.86Z" id="a1Pqna4ABf"></path><path d="M146.77 429.76C139.2 431.2 133.7 437.83 133.7 445.53C133.7 454.4 140.9 461.56 149.77 461.56C150.37 461.56 155.2 461.56 155.8 461.56C157.37 461.56 158.94 461.36 160.4 460.9C166.77 459 198.64 449.43 255.94 432.23C255.94 402.9 255.94 386.63 255.94 383.36C255.94 380.23 253.4 377.66 250.27 377.66C250.27 377.66 250.27 377.66 250.27 377.66C247.8 377.66 245.64 379.23 244.87 381.56C243.74 385.7 240.9 396.1 236.37 412.7C182.6 422.93 152.74 428.63 146.77 429.76Z" id="b2wy7K95xA"></path><path d="M146.77 429.76C139.2 431.2 133.7 437.83 133.7 445.53C133.7 454.4 140.9 461.56 149.77 461.56C150.37 461.56 155.2 461.56 155.8 461.56C157.37 461.56 158.94 461.36 160.4 460.9C166.77 459 198.64 449.43 255.94 432.23C255.94 402.9 255.94 386.63 255.94 383.36C255.94 380.23 253.4 377.66 250.27 377.66C250.27 377.66 250.27 377.66 250.27 377.66C247.8 377.66 245.64 379.23 244.87 381.56C243.74 385.7 240.9 396.1 236.37 412.7C182.6 422.93 152.74 428.63 146.77 429.76Z" id="dlBRSmamY"></path><path d="M365.1 429.76C372.67 431.2 378.17 437.83 378.17 445.53C378.17 454.4 370.97 461.56 362.1 461.56C361.5 461.56 356.67 461.56 356.07 461.56C354.5 461.56 352.97 461.36 351.47 460.9C345.1 459 313.24 449.43 255.94 432.23C255.94 402.9 255.94 386.63 255.94 383.36C255.94 380.23 258.47 377.66 261.64 377.66C261.64 377.66 261.64 377.66 261.64 377.66C264.07 377.66 266.24 379.23 267 381.56C268.14 385.7 270.97 396.1 275.5 412.7C329.27 422.93 359.14 428.63 365.1 429.76Z" id="hnAMu9RHt"></path><path d="M365.1 429.76C372.67 431.2 378.17 437.83 378.17 445.53C378.17 454.4 370.97 461.56 362.1 461.56C361.5 461.56 356.67 461.56 356.07 461.56C354.5 461.56 352.97 461.36 351.47 460.9C345.1 459 313.24 449.43 255.94 432.23C255.94 402.9 255.94 386.63 255.94 383.36C255.94 380.23 258.47 377.66 261.64 377.66C261.64 377.66 261.64 377.66 261.64 377.66C264.07 377.66 266.24 379.23 267 381.56C268.14 385.7 270.97 396.1 275.5 412.7C329.27 422.93 359.14 428.63 365.1 429.76Z" id="cN986oWG0"></path><path d="M207.04 241.6C198.94 241.6 192.37 248.16 192.37 256.26C192.37 264.36 198.94 270.93 207.04 270.93C207.57 270.93 211.7 270.93 212.24 270.93C212.04 269.3 211.94 267.66 211.94 266.03C211.94 262.76 211.94 254.63 211.94 241.6C209 241.6 207.37 241.6 207.04 241.6Z" id="b9UmAvqVf"></path><path d="M207.04 241.6C198.94 241.6 192.37 248.16 192.37 256.26C192.37 264.36 198.94 270.93 207.04 270.93C207.57 270.93 211.7 270.93 212.24 270.93C212.04 269.3 211.94 267.66 211.94 266.03C211.94 262.76 211.94 254.63 211.94 241.6C209 241.6 207.37 241.6 207.04 241.6Z" id="b5xu9VVkZ8"></path><path d="M299.94 266.03C299.94 267.66 299.84 269.3 299.64 270.93C300.17 270.93 304.3 270.93 304.84 270.93C312.94 270.93 319.5 264.36 319.5 256.26C319.5 248.16 312.94 241.6 304.84 241.6C304.17 241.6 302.54 241.6 299.94 241.6C299.94 256.26 299.94 264.4 299.94 266.03Z" id="c37z4AGt3J"></path><path d="M299.94 266.03C299.94 267.66 299.84 269.3 299.64 270.93C300.17 270.93 304.3 270.93 304.84 270.93C312.94 270.93 319.5 264.36 319.5 256.26C319.5 248.16 312.94 241.6 304.84 241.6C304.17 241.6 302.54 241.6 299.94 241.6C299.94 256.26 299.94 264.4 299.94 266.03Z" id="d5mVUEdssR"></path><path d="M128.84 207.36C118.04 207.36 109.27 216.13 109.27 226.93C109.27 237.7 118.04 246.46 128.84 246.46C139.64 246.46 148.37 237.73 148.37 226.93C148.37 216.13 139.64 207.36 128.84 207.36ZM128.84 236.7C123.44 236.7 119.04 232.33 119.04 226.93C119.07 221.53 123.44 217.13 128.84 217.13C134.24 217.13 138.6 221.53 138.6 226.93C138.6 232.33 134.24 236.7 128.84 236.7Z" id="crWNzQphP"></path><path d="M128.84 207.36C118.04 207.36 109.27 216.13 109.27 226.93C109.27 237.7 118.04 246.46 128.84 246.46C139.64 246.46 148.37 237.73 148.37 226.93C148.37 216.13 139.64 207.36 128.84 207.36ZM128.84 236.7C123.44 236.7 119.04 232.33 119.04 226.93C119.07 221.53 123.44 217.13 128.84 217.13C134.24 217.13 138.6 221.53 138.6 226.93C138.6 232.33 134.24 236.7 128.84 236.7Z" id="c21I6g75tk"></path><path d="M383 443.73C382.87 441.46 382.37 439.23 381.5 437.13C381.47 437.03 381.44 436.96 381.4 436.86C377.34 428.43 344.94 360.76 340.87 352.33C335.67 341.43 325.1 334.1 313.07 332.96C310.9 332.76 300.04 331.8 280.47 330C280.46 330 280.38 330 280.37 330C280.37 317 280.37 309.8 280.37 308.36C288.87 303.5 295.7 296.16 299.97 287.33C300.94 305.53 315.94 319.8 334.17 319.8C336.87 319.8 339.04 317.63 339.04 314.93C339.04 306.6 339.04 240.13 339.04 231.8C339.04 213.33 324.37 198.2 305.9 197.6C295.97 182.4 279 173.2 260.84 173.13C259.84 173.13 252.04 173.13 251.04 173.13C221.37 173.16 197.3 197.23 197.27 226.93C197.27 228.16 197.27 238.1 197.27 239.33C187.94 244.73 184.7 256.66 190.1 266.03C193.6 272.1 200.07 275.8 207.04 275.8C207.14 275.8 207.94 275.8 208.04 275.8C210.8 289.53 219.34 301.4 231.5 308.36C231.5 309.8 231.5 317 231.5 330C231.5 330 231.48 330 231.44 330C216.8 331.34 208.66 332.08 207.04 332.23C207.04 313.03 207.04 302.4 207.04 300.26C207.04 299.2 206.7 298.16 206.07 297.33C206.07 297.33 206.07 297.33 206.07 297.33C204.6 295.36 192.87 279.73 191.4 277.76C190.47 276.53 189.04 275.8 187.5 275.8C186.2 275.8 179.67 275.8 167.94 275.8C167.94 246.46 167.94 230.16 167.94 226.93C167.94 205.33 150.44 187.8 128.84 187.8C107.24 187.8 89.7 205.33 89.7 226.93C89.7 250.4 89.7 438.1 89.7 461.56C89.7 464.26 91.9 466.46 94.6 466.46C100.74 466.46 149.7 466.46 155.8 466.46C157.84 466.46 159.87 466.16 161.84 465.6C164.5 464.8 177.87 460.76 201.97 453.53C201.98 454.4 202.05 458.73 202.17 466.53L211.94 466.4L211.7 450.63L255.94 437.36L300.17 450.63L299.94 466.4L309.7 466.53C309.82 458.73 309.89 454.4 309.9 453.53C334 460.76 347.37 464.8 350.07 465.6C352 466.16 354.04 466.46 356.07 466.46C356.67 466.46 361.5 466.46 362.1 466.46C373.3 466.46 382.5 457.66 383.04 446.46C383.04 446.13 383.04 445.8 383.04 445.53C383.04 445.53 383.04 445.53 383.04 445.53C383.04 444.96 383.04 444.36 383 443.73ZM329 417.9C321.64 407.23 317.54 401.3 316.74 400.1C315.2 395.13 312.77 390.46 309.6 386.36C309.17 380.4 307.54 358.23 306.37 342.2C306.94 342.23 311.64 342.66 312.2 342.7C320.8 343.5 328.34 348.76 332.04 356.53C336.4 365.63 347.3 388.36 364.74 424.7C357.59 423.34 332.58 418.58 329 417.9ZM299.94 388.6C300.04 389.63 300.44 390.6 301.07 391.4C306.4 397.73 309.14 405.8 308.77 414.06C306.84 413.7 297.04 411.83 279.4 408.46C275.2 393.06 272.87 384.5 272.4 382.8C272.94 382.4 273.44 382 273.97 381.6C278.97 377.23 282.24 371.26 283.2 364.73C283.57 362.36 286.34 343.46 286.7 341.1C286.7 341.03 286.7 340.96 286.7 340.86C286.74 340.83 286.74 340.7 286.77 340.4C291.97 340.86 295.2 341.16 296.5 341.3C297.87 359.9 299.94 388.3 299.94 388.6ZM238.34 363.3C237.97 360.86 235.14 341.6 234.8 339.2C238.67 337.8 241.27 334.13 241.27 330.03C241.27 328.3 241.27 314.4 241.27 312.66C250.8 315.66 261.07 315.66 270.6 312.66C270.6 314.4 270.6 328.3 270.6 330.03C270.64 334.13 273.2 337.8 277.07 339.2C277.07 339.23 277.04 339.56 277 339.63C277 339.7 277 339.76 277 339.86C276.64 342.2 273.9 360.93 273.54 363.26C272.94 367.5 270.8 371.36 267.6 374.16C267.5 374.23 267.37 374.33 267.27 374.43C263.8 372.23 259.37 372.23 255.94 374.46C252.5 372.26 248.1 372.23 244.67 374.4C241.24 371.6 239 367.63 238.34 363.3ZM99.5 285.6L143.5 285.6L143.5 295.36L99.5 295.36L99.5 285.6ZM158.17 305.13L158.17 379.13L151.47 393.13L99.5 393.13L99.5 305.13L158.17 305.13ZM197.27 333.16C193.9 333.63 190.6 334.6 187.5 336.03C187.5 333.96 187.5 323.66 187.5 305.13C188.15 305.13 191.41 305.13 197.27 305.13C197.27 322.57 197.27 331.92 197.27 333.16ZM171 352.3C170.8 352.73 169.77 354.86 167.94 358.7C167.94 355.13 167.94 337.27 167.94 305.13C173.8 305.13 177.05 305.13 177.7 305.13C177.7 325.26 177.7 337.83 177.7 342.86C174.94 345.56 172.67 348.8 171 352.3ZM143.5 402.9L143.5 409.76L142.1 412.7L99.5 412.7L99.5 402.9L143.5 402.9ZM185.77 348.7C185.77 348.7 185.84 348.66 185.84 348.66C189.7 345.26 194.54 343.2 199.64 342.73C200.2 342.66 204.7 342.26 205.27 342.2C204.07 358.93 202.67 380.46 202.27 386.36C199.04 390.53 196.6 395.26 195.04 400.26C194.24 401.46 190.17 407.33 182.9 417.9C179.33 418.58 150.74 424.02 147.17 424.7C164.6 388.33 175.5 365.6 179.84 356.5C181.24 353.5 183.27 350.83 185.77 348.7ZM202.8 413.96C202.8 413.93 202.8 413.9 202.8 413.86C202.67 405.66 205.5 397.7 210.8 391.4C211.47 390.6 211.87 389.6 211.94 388.56C211.94 388.26 213.74 360.9 215.14 341.3C215.8 341.23 219.14 340.93 225.07 340.4C227.24 355 228.44 363.1 228.67 364.7C229.74 371.9 233.64 378.4 239.47 382.76C239 384.46 236.67 393.03 232.47 408.46C216.67 411.46 206.77 413.36 202.84 414.1C202.84 414.06 202.8 414.03 202.8 413.96ZM314.6 256.26C314.6 261.66 310.24 266.03 304.84 266.03C304.84 262.13 304.84 248.43 304.84 246.46C310.24 246.46 314.6 250.86 314.6 256.26ZM309.7 285.6C309.7 284.53 309.7 276.23 309.7 275.2C320.17 272.5 326.47 261.83 323.77 251.36C322.47 246.3 319.17 241.96 314.6 239.33C314.6 238.1 314.6 228.16 314.6 226.93C314.6 220.53 313.47 214.2 311.24 208.23C321.87 211.13 329.27 220.76 329.27 231.8C329.27 247.36 329.27 301.76 329.27 309.53C317.9 307.2 309.74 297.2 309.7 285.6ZM251.04 182.93C252.04 182.93 259.84 182.93 260.84 182.93C276.4 182.96 290.77 191.16 298.7 204.56C298.77 204.7 298.87 204.83 298.94 204.96C302.8 211.63 304.84 219.2 304.84 226.93C304.84 227.56 304.84 230.83 304.84 236.7C304.65 236.7 303.16 236.7 302.97 236.7C292.04 214.86 285.97 202.73 284.77 200.3C283.54 197.86 280.6 196.9 278.2 198.1C277.9 198.26 277.6 198.43 277.34 198.66C276.94 198.96 238.64 229.36 210.84 235.6C209.54 235.9 208.27 236.13 207.04 236.3C207.04 231.3 207.04 228.16 207.04 226.93C207.07 202.63 226.77 182.93 251.04 182.93ZM207.04 266.03C201.67 266.03 197.27 261.66 197.27 256.26C197.27 250.86 201.67 246.46 207.04 246.46C207.04 248.43 207.04 264.06 207.04 266.03ZM278.67 209.96C279.77 212.16 285.2 223.06 295.04 242.73C295.04 256.7 295.04 264.46 295.04 266.03C295.04 287.63 277.54 305.13 255.94 305.13C234.34 305.13 216.84 287.63 216.84 266.03C216.84 261.66 216.84 246.33 216.84 244.16C240.27 237.53 267.74 218.16 278.67 209.96ZM153.27 295.36L153.27 285.6L185.04 285.6L192.37 295.36L153.27 295.36ZM128.84 256.26C112.64 256.26 99.5 243.13 99.5 226.93C99.5 210.73 112.64 197.6 128.84 197.6C145.04 197.6 158.17 210.73 158.17 226.93C158.17 243.13 145.04 256.26 128.84 256.26ZM158.17 275.8C152.3 275.8 105.37 275.8 99.5 275.8C99.5 261.96 99.5 254.3 99.5 252.73C106.9 261.2 117.6 266.03 128.84 266.03C140.07 266.03 150.74 261.2 158.17 252.73C158.17 254.3 158.17 261.96 158.17 275.8ZM137.4 422.46C133.24 431.13 130.94 435.93 130.47 436.86C130.44 436.96 130.4 437.03 130.37 437.13C129.5 439.23 129 441.46 128.9 443.73C128.84 444.36 128.84 444.96 128.84 445.53C128.84 445.53 128.84 445.53 128.84 445.53C128.84 445.56 128.84 445.56 128.84 445.56C128.84 449.5 129.97 453.36 132.07 456.7C129.9 456.7 119.04 456.7 99.5 456.7C99.5 454.41 99.5 443 99.5 422.46C122.24 422.46 134.88 422.46 137.4 422.46ZM155.8 456.7C155.2 456.7 150.37 456.7 149.77 456.7C143.94 456.7 139.1 452.2 138.64 446.36C138.64 446.36 138.67 446.36 138.67 446.36C138.64 445.8 138.6 445.5 138.6 445.43C138.67 440.1 142.47 435.56 147.67 434.56C156.64 432.86 228.34 419.2 237.3 417.5C239.14 417.13 240.6 415.76 241.1 413.96C241.94 410.9 248.7 386.13 249.54 383.03C249.74 382.63 250.2 382.46 250.6 382.66C250.87 382.8 251.04 383.06 251.04 383.36C251.04 386.36 251.04 401.46 251.04 428.6C201.97 443.33 171.27 452.53 159 456.23C157.97 456.53 156.9 456.7 155.8 456.7ZM352.87 456.23C346.74 454.36 316.04 445.16 260.84 428.6C260.84 401.46 260.84 386.36 260.84 383.36C260.84 382.93 261.2 382.56 261.64 382.56C261.94 382.56 262.24 382.76 262.34 383.03C263.2 386.13 269.94 410.9 270.77 413.96C271.27 415.76 272.74 417.13 274.57 417.5C283.54 419.2 355.24 432.86 364.2 434.56C369.47 435.56 373.27 440.16 373.27 445.53C373.27 451.7 368.27 456.7 362.1 456.7C362.1 456.7 356.67 456.7 356.07 456.7C354.97 456.7 353.9 456.53 352.87 456.23Z" id="aemOa1YBM"></path><path d="M383 443.73C382.87 441.46 382.37 439.23 381.5 437.13C381.47 437.03 381.44 436.96 381.4 436.86C377.34 428.43 344.94 360.76 340.87 352.33C335.67 341.43 325.1 334.1 313.07 332.96C310.9 332.76 300.04 331.8 280.47 330C280.46 330 280.38 330 280.37 330C280.37 317 280.37 309.8 280.37 308.36C288.87 303.5 295.7 296.16 299.97 287.33C300.94 305.53 315.94 319.8 334.17 319.8C336.87 319.8 339.04 317.63 339.04 314.93C339.04 306.6 339.04 240.13 339.04 231.8C339.04 213.33 324.37 198.2 305.9 197.6C295.97 182.4 279 173.2 260.84 173.13C259.84 173.13 252.04 173.13 251.04 173.13C221.37 173.16 197.3 197.23 197.27 226.93C197.27 228.16 197.27 238.1 197.27 239.33C187.94 244.73 184.7 256.66 190.1 266.03C193.6 272.1 200.07 275.8 207.04 275.8C207.14 275.8 207.94 275.8 208.04 275.8C210.8 289.53 219.34 301.4 231.5 308.36C231.5 309.8 231.5 317 231.5 330C231.5 330 231.48 330 231.44 330C216.8 331.34 208.66 332.08 207.04 332.23C207.04 313.03 207.04 302.4 207.04 300.26C207.04 299.2 206.7 298.16 206.07 297.33C206.07 297.33 206.07 297.33 206.07 297.33C204.6 295.36 192.87 279.73 191.4 277.76C190.47 276.53 189.04 275.8 187.5 275.8C186.2 275.8 179.67 275.8 167.94 275.8C167.94 246.46 167.94 230.16 167.94 226.93C167.94 205.33 150.44 187.8 128.84 187.8C107.24 187.8 89.7 205.33 89.7 226.93C89.7 250.4 89.7 438.1 89.7 461.56C89.7 464.26 91.9 466.46 94.6 466.46C100.74 466.46 149.7 466.46 155.8 466.46C157.84 466.46 159.87 466.16 161.84 465.6C164.5 464.8 177.87 460.76 201.97 453.53C201.98 454.4 202.05 458.73 202.17 466.53L211.94 466.4L211.7 450.63L255.94 437.36L300.17 450.63L299.94 466.4L309.7 466.53C309.82 458.73 309.89 454.4 309.9 453.53C334 460.76 347.37 464.8 350.07 465.6C352 466.16 354.04 466.46 356.07 466.46C356.67 466.46 361.5 466.46 362.1 466.46C373.3 466.46 382.5 457.66 383.04 446.46C383.04 446.13 383.04 445.8 383.04 445.53C383.04 445.53 383.04 445.53 383.04 445.53C383.04 444.96 383.04 444.36 383 443.73ZM329 417.9C321.64 407.23 317.54 401.3 316.74 400.1C315.2 395.13 312.77 390.46 309.6 386.36C309.17 380.4 307.54 358.23 306.37 342.2C306.94 342.23 311.64 342.66 312.2 342.7C320.8 343.5 328.34 348.76 332.04 356.53C336.4 365.63 347.3 388.36 364.74 424.7C357.59 423.34 332.58 418.58 329 417.9ZM299.94 388.6C300.04 389.63 300.44 390.6 301.07 391.4C306.4 397.73 309.14 405.8 308.77 414.06C306.84 413.7 297.04 411.83 279.4 408.46C275.2 393.06 272.87 384.5 272.4 382.8C272.94 382.4 273.44 382 273.97 381.6C278.97 377.23 282.24 371.26 283.2 364.73C283.57 362.36 286.34 343.46 286.7 341.1C286.7 341.03 286.7 340.96 286.7 340.86C286.74 340.83 286.74 340.7 286.77 340.4C291.97 340.86 295.2 341.16 296.5 341.3C297.87 359.9 299.94 388.3 299.94 388.6ZM238.34 363.3C237.97 360.86 235.14 341.6 234.8 339.2C238.67 337.8 241.27 334.13 241.27 330.03C241.27 328.3 241.27 314.4 241.27 312.66C250.8 315.66 261.07 315.66 270.6 312.66C270.6 314.4 270.6 328.3 270.6 330.03C270.64 334.13 273.2 337.8 277.07 339.2C277.07 339.23 277.04 339.56 277 339.63C277 339.7 277 339.76 277 339.86C276.64 342.2 273.9 360.93 273.54 363.26C272.94 367.5 270.8 371.36 267.6 374.16C267.5 374.23 267.37 374.33 267.27 374.43C263.8 372.23 259.37 372.23 255.94 374.46C252.5 372.26 248.1 372.23 244.67 374.4C241.24 371.6 239 367.63 238.34 363.3ZM99.5 285.6L143.5 285.6L143.5 295.36L99.5 295.36L99.5 285.6ZM158.17 305.13L158.17 379.13L151.47 393.13L99.5 393.13L99.5 305.13L158.17 305.13ZM197.27 333.16C193.9 333.63 190.6 334.6 187.5 336.03C187.5 333.96 187.5 323.66 187.5 305.13C188.15 305.13 191.41 305.13 197.27 305.13C197.27 322.57 197.27 331.92 197.27 333.16ZM171 352.3C170.8 352.73 169.77 354.86 167.94 358.7C167.94 355.13 167.94 337.27 167.94 305.13C173.8 305.13 177.05 305.13 177.7 305.13C177.7 325.26 177.7 337.83 177.7 342.86C174.94 345.56 172.67 348.8 171 352.3ZM143.5 402.9L143.5 409.76L142.1 412.7L99.5 412.7L99.5 402.9L143.5 402.9ZM185.77 348.7C185.77 348.7 185.84 348.66 185.84 348.66C189.7 345.26 194.54 343.2 199.64 342.73C200.2 342.66 204.7 342.26 205.27 342.2C204.07 358.93 202.67 380.46 202.27 386.36C199.04 390.53 196.6 395.26 195.04 400.26C194.24 401.46 190.17 407.33 182.9 417.9C179.33 418.58 150.74 424.02 147.17 424.7C164.6 388.33 175.5 365.6 179.84 356.5C181.24 353.5 183.27 350.83 185.77 348.7ZM202.8 413.96C202.8 413.93 202.8 413.9 202.8 413.86C202.67 405.66 205.5 397.7 210.8 391.4C211.47 390.6 211.87 389.6 211.94 388.56C211.94 388.26 213.74 360.9 215.14 341.3C215.8 341.23 219.14 340.93 225.07 340.4C227.24 355 228.44 363.1 228.67 364.7C229.74 371.9 233.64 378.4 239.47 382.76C239 384.46 236.67 393.03 232.47 408.46C216.67 411.46 206.77 413.36 202.84 414.1C202.84 414.06 202.8 414.03 202.8 413.96ZM314.6 256.26C314.6 261.66 310.24 266.03 304.84 266.03C304.84 262.13 304.84 248.43 304.84 246.46C310.24 246.46 314.6 250.86 314.6 256.26ZM309.7 285.6C309.7 284.53 309.7 276.23 309.7 275.2C320.17 272.5 326.47 261.83 323.77 251.36C322.47 246.3 319.17 241.96 314.6 239.33C314.6 238.1 314.6 228.16 314.6 226.93C314.6 220.53 313.47 214.2 311.24 208.23C321.87 211.13 329.27 220.76 329.27 231.8C329.27 247.36 329.27 301.76 329.27 309.53C317.9 307.2 309.74 297.2 309.7 285.6ZM251.04 182.93C252.04 182.93 259.84 182.93 260.84 182.93C276.4 182.96 290.77 191.16 298.7 204.56C298.77 204.7 298.87 204.83 298.94 204.96C302.8 211.63 304.84 219.2 304.84 226.93C304.84 227.56 304.84 230.83 304.84 236.7C304.65 236.7 303.16 236.7 302.97 236.7C292.04 214.86 285.97 202.73 284.77 200.3C283.54 197.86 280.6 196.9 278.2 198.1C277.9 198.26 277.6 198.43 277.34 198.66C276.94 198.96 238.64 229.36 210.84 235.6C209.54 235.9 208.27 236.13 207.04 236.3C207.04 231.3 207.04 228.16 207.04 226.93C207.07 202.63 226.77 182.93 251.04 182.93ZM207.04 266.03C201.67 266.03 197.27 261.66 197.27 256.26C197.27 250.86 201.67 246.46 207.04 246.46C207.04 248.43 207.04 264.06 207.04 266.03ZM278.67 209.96C279.77 212.16 285.2 223.06 295.04 242.73C295.04 256.7 295.04 264.46 295.04 266.03C295.04 287.63 277.54 305.13 255.94 305.13C234.34 305.13 216.84 287.63 216.84 266.03C216.84 261.66 216.84 246.33 216.84 244.16C240.27 237.53 267.74 218.16 278.67 209.96ZM153.27 295.36L153.27 285.6L185.04 285.6L192.37 295.36L153.27 295.36ZM128.84 256.26C112.64 256.26 99.5 243.13 99.5 226.93C99.5 210.73 112.64 197.6 128.84 197.6C145.04 197.6 158.17 210.73 158.17 226.93C158.17 243.13 145.04 256.26 128.84 256.26ZM158.17 275.8C152.3 275.8 105.37 275.8 99.5 275.8C99.5 261.96 99.5 254.3 99.5 252.73C106.9 261.2 117.6 266.03 128.84 266.03C140.07 266.03 150.74 261.2 158.17 252.73C158.17 254.3 158.17 261.96 158.17 275.8ZM137.4 422.46C133.24 431.13 130.94 435.93 130.47 436.86C130.44 436.96 130.4 437.03 130.37 437.13C129.5 439.23 129 441.46 128.9 443.73C128.84 444.36 128.84 444.96 128.84 445.53C128.84 445.53 128.84 445.53 128.84 445.53C128.84 445.56 128.84 445.56 128.84 445.56C128.84 449.5 129.97 453.36 132.07 456.7C129.9 456.7 119.04 456.7 99.5 456.7C99.5 454.41 99.5 443 99.5 422.46C122.24 422.46 134.88 422.46 137.4 422.46ZM155.8 456.7C155.2 456.7 150.37 456.7 149.77 456.7C143.94 456.7 139.1 452.2 138.64 446.36C138.64 446.36 138.67 446.36 138.67 446.36C138.64 445.8 138.6 445.5 138.6 445.43C138.67 440.1 142.47 435.56 147.67 434.56C156.64 432.86 228.34 419.2 237.3 417.5C239.14 417.13 240.6 415.76 241.1 413.96C241.94 410.9 248.7 386.13 249.54 383.03C249.74 382.63 250.2 382.46 250.6 382.66C250.87 382.8 251.04 383.06 251.04 383.36C251.04 386.36 251.04 401.46 251.04 428.6C201.97 443.33 171.27 452.53 159 456.23C157.97 456.53 156.9 456.7 155.8 456.7ZM352.87 456.23C346.74 454.36 316.04 445.16 260.84 428.6C260.84 401.46 260.84 386.36 260.84 383.36C260.84 382.93 261.2 382.56 261.64 382.56C261.94 382.56 262.24 382.76 262.34 383.03C263.2 386.13 269.94 410.9 270.77 413.96C271.27 415.76 272.74 417.13 274.57 417.5C283.54 419.2 355.24 432.86 364.2 434.56C369.47 435.56 373.27 440.16 373.27 445.53C373.27 451.7 368.27 456.7 362.1 456.7C362.1 456.7 356.67 456.7 356.07 456.7C354.97 456.7 353.9 456.53 352.87 456.23Z" id="a3nnNJUlXf"></path><path d="M226.6 248.93C226.6 252.96 229.9 256.26 233.94 256.26C238 256.23 241.27 252.96 241.27 248.93C241.27 244.86 238 241.6 233.94 241.6C229.9 241.6 226.6 244.86 226.6 248.93Z" id="c3UYGUl0dx"></path><path d="M226.6 248.93C226.6 252.96 229.9 256.26 233.94 256.26C238 256.23 241.27 252.96 241.27 248.93C241.27 244.86 238 241.6 233.94 241.6C229.9 241.6 226.6 244.86 226.6 248.93Z" id="d5EGz3qAp8"></path><path d="M277.94 241.6C273.9 241.6 270.6 244.86 270.6 248.93C270.6 252.96 273.9 256.23 277.94 256.26C282 256.26 285.27 252.96 285.27 248.93C285.27 244.86 282 241.6 277.94 241.6Z" id="bZYeZhc5B"></path><path d="M277.94 241.6C273.9 241.6 270.6 244.86 270.6 248.93C270.6 252.96 273.9 256.23 277.94 256.26C282 256.26 285.27 252.96 285.27 248.93C285.27 244.86 282 241.6 277.94 241.6Z" id="c8pCVxkGy"></path><path d="M260.84 270.93C260.84 273.63 258.64 275.8 255.94 275.8C253.24 275.8 251.04 273.63 251.04 270.93C250.07 270.93 242.24 270.93 241.27 270.93C241.27 279 247.84 285.56 255.94 285.6C264.04 285.56 270.6 279 270.6 270.93C269.64 270.93 261.8 270.93 260.84 270.93Z" id="a2mSq0x7bY"></path><path d="M260.84 270.93C260.84 273.63 258.64 275.8 255.94 275.8C253.24 275.8 251.04 273.63 251.04 270.93C250.07 270.93 242.24 270.93 241.27 270.93C241.27 279 247.84 285.56 255.94 285.6C264.04 285.56 270.6 279 270.6 270.93C269.64 270.93 261.8 270.93 260.84 270.93Z" id="aO6g5UOmi"></path></defs><g><g><use xlink:href="#b2jlORznuU" opacity="1" fill="#ffffff" fill-opacity="1"></use><g><use xlink:href="#b2jlORznuU" opacity="1" fill-opacity="0" stroke="#000000" stroke-width="1" stroke-opacity="0"></use></g></g><g><use xlink:href="#c1y3hAyTTU" opacity="1" fill="#000000" fill-opacity="0"></use><g><use xlink:href="#c1y3hAyTTU" opacity="1" fill-opacity="0" stroke="#003068" stroke-width="4" stroke-opacity="1"></use></g></g><g><use xlink:href="#etp9oztdA" opacity="1" fill="#00af80" fill-opacity="1"></use><g><use xlink:href="#etp9oztdA" opacity="1" fill-opacity="0" stroke="#000000" stroke-width="1" stroke-opacity="0"></use></g></g><g><use xlink:href="#i5ZTJiJQNb" opacity="1" fill="#000000" fill-opacity="0"></use><g><use xlink:href="#i5ZTJiJQNb" opacity="1" fill-opacity="0" stroke="#000000" stroke-width="1" stroke-opacity="0"></use></g></g><g><use xlink:href="#bqI9FFg0x" opacity="1" fill="#00af80" fill-opacity="1"></use><g><use xlink:href="#bqI9FFg0x" opacity="1" fill-opacity="0" stroke="#000000" stroke-width="1" stroke-opacity="0"></use></g></g><g><use xlink:href="#c4u0QWqX3" opacity="1" fill="#000000" fill-opacity="0"></use><g><use xlink:href="#c4u0QWqX3" opacity="1" fill-opacity="0" stroke="#000000" stroke-width="1" stroke-opacity="0"></use></g></g><g><use xlink:href="#bhEXKUluQ" opacity="1" fill="#e080b3" fill-opacity="1"></use><g><use xlink:href="#bhEXKUluQ" opacity="1" fill-opacity="0" stroke="#000000" stroke-width="1" stroke-opacity="0"></use></g></g><g><use xlink:href="#b133BE4Y4z" opacity="1" fill="#000000" fill-opacity="0"></use><g><use xlink:href="#b133BE4Y4z" opacity="1" fill-opacity="0" stroke="#000000" stroke-width="1" stroke-opacity="0"></use></g></g><g><use xlink:href="#cm60NJa2U" opacity="1" fill="#c7568c" fill-opacity="1"></use><g><use xlink:href="#cm60NJa2U" opacity="1" fill-opacity="0" stroke="#000000" stroke-width="1" stroke-opacity="0"></use></g></g><g><use xlink:href="#b1OdKUTAo9" opacity="1" fill="#000000" fill-opacity="0"></use><g><use xlink:href="#b1OdKUTAo9" opacity="1" fill-opacity="0" stroke="#000000" stroke-width="1" stroke-opacity="0"></use></g></g><g><use xlink:href="#a8B4MpvGLn" opacity="1" fill="#82489c" fill-opacity="1"></use><g><use xlink:href="#a8B4MpvGLn" opacity="1" fill-opacity="0" stroke="#000000" stroke-width="1" stroke-opacity="0"></use></g></g><g><use xlink:href="#g2jBbsNwnt" opacity="1" fill="#000000" fill-opacity="0"></use><g><use xlink:href="#g2jBbsNwnt" opacity="1" fill-opacity="0" stroke="#000000" stroke-width="1" stroke-opacity="0"></use></g></g><g><use xlink:href="#e1nDiYsJ77" opacity="1" fill="#82489c" fill-opacity="1"></use><g><use xlink:href="#e1nDiYsJ77" opacity="1" fill-opacity="0" stroke="#000000" stroke-width="1" stroke-opacity="0"></use></g></g><g><use xlink:href="#e4KymrHfC" opacity="1" fill="#000000" fill-opacity="0"></use><g><use xlink:href="#e4KymrHfC" opacity="1" fill-opacity="0" stroke="#000000" stroke-width="1" stroke-opacity="0"></use></g></g><g><use xlink:href="#b7mTlmdLNv" opacity="1" fill="#8d5fa1" fill-opacity="1"></use><g><use xlink:href="#b7mTlmdLNv" opacity="1" fill-opacity="0" stroke="#000000" stroke-width="1" stroke-opacity="0"></use></g></g><g><use xlink:href="#a1R84OLM2r" opacity="1" fill="#000000" fill-opacity="0"></use><g><use xlink:href="#a1R84OLM2r" opacity="1" fill-opacity="0" stroke="#000000" stroke-width="1" stroke-opacity="0"></use></g></g><g><use xlink:href="#e1ifuOx97t" opacity="1" fill="#8d5fa1" fill-opacity="1"></use><g><use xlink:href="#e1ifuOx97t" opacity="1" fill-opacity="0" stroke="#000000" stroke-width="1" stroke-opacity="0"></use></g></g><g><use xlink:href="#j1c2M0ACFe" opacity="1" fill="#000000" fill-opacity="0"></use><g><use xlink:href="#j1c2M0ACFe" opacity="1" fill-opacity="0" stroke="#000000" stroke-width="1" stroke-opacity="0"></use></g></g><g><use xlink:href="#bnzZmDfcr" opacity="1" fill="#82489c" fill-opacity="1"></use><g><use xlink:href="#bnzZmDfcr" opacity="1" fill-opacity="0" stroke="#000000" stroke-width="1" stroke-opacity="0"></use></g></g><g><use xlink:href="#cbjfroo8K" opacity="1" fill="#000000" fill-opacity="0"></use><g><use xlink:href="#cbjfroo8K" opacity="1" fill-opacity="0" stroke="#000000" stroke-width="1" stroke-opacity="0"></use></g></g><g><use xlink:href="#h11ZuFwy3G" opacity="1" fill="#95573a" fill-opacity="1"></use><g><use xlink:href="#h11ZuFwy3G" opacity="1" fill-opacity="0" stroke="#000000" stroke-width="1" stroke-opacity="0"></use></g></g><g><use xlink:href="#eFe19J6fp" opacity="1" fill="#000000" fill-opacity="0"></use><g><use xlink:href="#eFe19J6fp" opacity="1" fill-opacity="0" stroke="#000000" stroke-width="1" stroke-opacity="0"></use></g></g><g><use xlink:href="#b3zXsgBzhk" opacity="1" fill="#754100" fill-opacity="1"></use><g><use xlink:href="#b3zXsgBzhk" opacity="1" fill-opacity="0" stroke="#000000" stroke-width="1" stroke-opacity="0"></use></g></g><g><use xlink:href="#arze3owMp" opacity="1" fill="#000000" fill-opacity="0"></use><g><use xlink:href="#arze3owMp" opacity="1" fill-opacity="0" stroke="#000000" stroke-width="1" stroke-opacity="0"></use></g></g><g><use xlink:href="#aHp93EI6t" opacity="1" fill="#754100" fill-opacity="1"></use><g><use xlink:href="#aHp93EI6t" opacity="1" fill-opacity="0" stroke="#000000" stroke-width="1" stroke-opacity="0"></use></g></g><g><use xlink:href="#c3KS8FUmSU" opacity="1" fill="#000000" fill-opacity="0"></use><g><use xlink:href="#c3KS8FUmSU" opacity="1" fill-opacity="0" stroke="#000000" stroke-width="1" stroke-opacity="0"></use></g></g><g><use xlink:href="#d1JiouCgeS" opacity="1" fill="#754100" fill-opacity="1"></use><g><use xlink:href="#d1JiouCgeS" opacity="1" fill-opacity="0" stroke="#000000" stroke-width="1" stroke-opacity="0"></use></g></g><g><use xlink:href="#b1IULNIzyo" opacity="1" fill="#000000" fill-opacity="0"></use><g><use xlink:href="#b1IULNIzyo" opacity="1" fill-opacity="0" stroke="#000000" stroke-width="1" stroke-opacity="0"></use></g></g><g><use xlink:href="#bJ0UNltjf" opacity="1" fill="#82462a" fill-opacity="1"></use><g><use xlink:href="#bJ0UNltjf" opacity="1" fill-opacity="0" stroke="#000000" stroke-width="1" stroke-opacity="0"></use></g></g><g><use xlink:href="#bfmfIF6gb" opacity="1" fill="#000000" fill-opacity="0"></use><g><use xlink:href="#bfmfIF6gb" opacity="1" fill-opacity="0" stroke="#000000" stroke-width="1" stroke-opacity="0"></use></g></g><g><use xlink:href="#h18ZI9xadi" opacity="1" fill="#754100" fill-opacity="1"></use><g><use xlink:href="#h18ZI9xadi" opacity="1" fill-opacity="0" stroke="#000000" stroke-width="1" stroke-opacity="0"></use></g></g><g><use xlink:href="#aufwsS3UU" opacity="1" fill="#000000" fill-opacity="0"></use><g><use xlink:href="#aufwsS3UU" opacity="1" fill-opacity="0" stroke="#000000" stroke-width="1" stroke-opacity="0"></use></g></g><g><use xlink:href="#g1yeUHCOYM" opacity="1" fill="#754100" fill-opacity="1"></use><g><use xlink:href="#g1yeUHCOYM" opacity="1" fill-opacity="0" stroke="#000000" stroke-width="1" stroke-opacity="0"></use></g></g><g><use xlink:href="#afKgmt2Fd" opacity="1" fill="#000000" fill-opacity="0"></use><g><use xlink:href="#afKgmt2Fd" opacity="1" fill-opacity="0" stroke="#000000" stroke-width="1" stroke-opacity="0"></use></g></g><g><use xlink:href="#f3NwlLC0Wz" opacity="1" fill="#95573a" fill-opacity="1"></use><g><use xlink:href="#f3NwlLC0Wz" opacity="1" fill-opacity="0" stroke="#000000" stroke-width="1" stroke-opacity="0"></use></g></g><g><use xlink:href="#a1k2mgqeWR" opacity="1" fill="#000000" fill-opacity="0"></use><g><use xlink:href="#a1k2mgqeWR" opacity="1" fill-opacity="0" stroke="#000000" stroke-width="1" stroke-opacity="0"></use></g></g><g><use xlink:href="#aduZvKeQC" opacity="1" fill="#8f4d2e" fill-opacity="1"></use><g><use xlink:href="#aduZvKeQC" opacity="1" fill-opacity="0" stroke="#000000" stroke-width="1" stroke-opacity="0"></use></g></g><g><use xlink:href="#a6rpPhqov1" opacity="1" fill="#000000" fill-opacity="0"></use><g><use xlink:href="#a6rpPhqov1" opacity="1" fill-opacity="0" stroke="#000000" stroke-width="1" stroke-opacity="0"></use></g></g><g><use xlink:href="#b5UEBk3qY" opacity="1" fill="#c7ae71" fill-opacity="1"></use><g><use xlink:href="#b5UEBk3qY" opacity="1" fill-opacity="0" stroke="#000000" stroke-width="1" stroke-opacity="0"></use></g></g><g><use xlink:href="#b3jCQOXsY1" opacity="1" fill="#000000" fill-opacity="0"></use><g><use xlink:href="#b3jCQOXsY1" opacity="1" fill-opacity="0" stroke="#000000" stroke-width="1" stroke-opacity="0"></use></g></g><g><use xlink:href="#a7ocfrrxz7" opacity="1" fill="#c2a667" fill-opacity="1"></use><g><use xlink:href="#a7ocfrrxz7" opacity="1" fill-opacity="0" stroke="#000000" stroke-width="1" stroke-opacity="0"></use></g></g><g><use xlink:href="#hnypreXhn" opacity="1" fill="#000000" fill-opacity="0"></use><g><use xlink:href="#hnypreXhn" opacity="1" fill-opacity="0" stroke="#000000" stroke-width="1" stroke-opacity="0"></use></g></g><g><use xlink:href="#d1MWh8g6ZC" opacity="1" fill="#754100" fill-opacity="1"></use><g><use xlink:href="#d1MWh8g6ZC" opacity="1" fill-opacity="0" stroke="#000000" stroke-width="1" stroke-opacity="0"></use></g></g><g><use xlink:href="#a1Pqna4ABf" opacity="1" fill="#000000" fill-opacity="0"></use><g><use xlink:href="#a1Pqna4ABf" opacity="1" fill-opacity="0" stroke="#000000" stroke-width="1" stroke-opacity="0"></use></g></g><g><use xlink:href="#b2wy7K95xA" opacity="1" fill="#754100" fill-opacity="1"></use><g><use xlink:href="#b2wy7K95xA" opacity="1" fill-opacity="0" stroke="#000000" stroke-width="1" stroke-opacity="0"></use></g></g><g><use xlink:href="#dlBRSmamY" opacity="1" fill="#000000" fill-opacity="0"></use><g><use xlink:href="#dlBRSmamY" opacity="1" fill-opacity="0" stroke="#000000" stroke-width="1" stroke-opacity="0"></use></g></g><g><use xlink:href="#hnAMu9RHt" opacity="1" fill="#754100" fill-opacity="1"></use><g><use xlink:href="#hnAMu9RHt" opacity="1" fill-opacity="0" stroke="#000000" stroke-width="1" stroke-opacity="0"></use></g></g><g><use xlink:href="#cN986oWG0" opacity="1" fill="#000000" fill-opacity="0"></use><g><use xlink:href="#cN986oWG0" opacity="1" fill-opacity="0" stroke="#000000" stroke-width="1" stroke-opacity="0"></use></g></g><g><use xlink:href="#b9UmAvqVf" opacity="1" fill="#754100" fill-opacity="1"></use><g><use xlink:href="#b9UmAvqVf" opacity="1" fill-opacity="0" stroke="#000000" stroke-width="1" stroke-opacity="0"></use></g></g><g><use xlink:href="#b5xu9VVkZ8" opacity="1" fill="#000000" fill-opacity="0"></use><g><use xlink:href="#b5xu9VVkZ8" opacity="1" fill-opacity="0" stroke="#000000" stroke-width="1" stroke-opacity="0"></use></g></g><g><use xlink:href="#c37z4AGt3J" opacity="1" fill="#754100" fill-opacity="1"></use><g><use xlink:href="#c37z4AGt3J" opacity="1" fill-opacity="0" stroke="#000000" stroke-width="1" stroke-opacity="0"></use></g></g><g><use xlink:href="#d5mVUEdssR" opacity="1" fill="#000000" fill-opacity="0"></use><g><use xlink:href="#d5mVUEdssR" opacity="1" fill-opacity="0" stroke="#000000" stroke-width="1" stroke-opacity="0"></use></g></g><g><use xlink:href="#crWNzQphP" opacity="1" fill="#000000" fill-opacity="1"></use><g><use xlink:href="#crWNzQphP" opacity="1" fill-opacity="0" stroke="#000000" stroke-width="1" stroke-opacity="0"></use></g></g><g><use xlink:href="#c21I6g75tk" opacity="1" fill="#000000" fill-opacity="0"></use><g><use xlink:href="#c21I6g75tk" opacity="1" fill-opacity="0" stroke="#000000" stroke-width="1" stroke-opacity="0"></use></g></g><g><use xlink:href="#aemOa1YBM" opacity="1" fill="#000000" fill-opacity="1"></use><g><use xlink:href="#aemOa1YBM" opacity="1" fill-opacity="0" stroke="#000000" stroke-width="1" stroke-opacity="0"></use></g></g><g><use xlink:href="#a3nnNJUlXf" opacity="1" fill="#000000" fill-opacity="0"></use><g><use xlink:href="#a3nnNJUlXf" opacity="1" fill-opacity="0" stroke="#000000" stroke-width="1" stroke-opacity="0"></use></g></g><g><use xlink:href="#c3UYGUl0dx" opacity="1" fill="#000000" fill-opacity="1"></use><g><use xlink:href="#c3UYGUl0dx" opacity="1" fill-opacity="0" stroke="#000000" stroke-width="1" stroke-opacity="0"></use></g></g><g><use xlink:href="#d5EGz3qAp8" opacity="1" fill="#000000" fill-opacity="0"></use><g><use xlink:href="#d5EGz3qAp8" opacity="1" fill-opacity="0" stroke="#000000" stroke-width="1" stroke-opacity="0"></use></g></g><g><use xlink:href="#bZYeZhc5B" opacity="1" fill="#000000" fill-opacity="1"></use><g><use xlink:href="#bZYeZhc5B" opacity="1" fill-opacity="0" stroke="#000000" stroke-width="1" stroke-opacity="0"></use></g></g><g><use xlink:href="#c8pCVxkGy" opacity="1" fill="#000000" fill-opacity="0"></use><g><use xlink:href="#c8pCVxkGy" opacity="1" fill-opacity="0" stroke="#000000" stroke-width="1" stroke-opacity="0"></use></g></g><g><use xlink:href="#a2mSq0x7bY" opacity="1" fill="#000000" fill-opacity="1"></use><g><use xlink:href="#a2mSq0x7bY" opacity="1" fill-opacity="0" stroke="#000000" stroke-width="1" stroke-opacity="0"></use></g></g><g><use xlink:href="#aO6g5UOmi" opacity="1" fill="#000000" fill-opacity="0"></use><g><use xlink:href="#aO6g5UOmi" opacity="1" fill-opacity="0" stroke="#000000" stroke-width="1" stroke-opacity="0"></use></g></g></g></svg>