<?xml version="1.0" encoding="UTF-8" standalone="no"?>
<!DOCTYPE svg PUBLIC "-//W3C//DTD SVG 1.1//EN" "http://www.w3.org/Graphics/SVG/1.1/DTD/svg11.dtd">
<svg version="1.1" xmlns="http://www.w3.org/2000/svg" xmlns:xlink="http://www.w3.org/1999/xlink" preserveAspectRatio="xMidYMid meet" viewBox="175.94 95.63 405.00000000000006 405.00000000000006" width="400" height="400"><defs><path d="M177.94 297.63C177.94 408.06 267.47 497.63 377.94 497.63C488.41 497.63 577.94 408.06 577.94 297.63C577.94 187.16 488.41 97.63 377.94 97.63C267.47 97.63 177.94 187.16 177.94 297.63Z" id="caZCQ9t49"></path><path d="M177.94 297.63C177.94 408.06 267.47 497.63 377.94 497.63C488.41 497.63 577.94 408.06 577.94 297.63C577.94 187.16 488.41 97.63 377.94 97.63C267.47 97.63 177.94 187.16 177.94 297.63Z" id="b3sp5BJha9"></path><path d="M309.17 192.8L309.17 423.63L241.87 423.63L241.87 192.8L309.17 192.8Z" id="c6hOH717u"></path><path d="M309.17 192.8L309.17 423.63L241.87 423.63L241.87 192.8L309.17 192.8Z" id="bgk8ucWZQ"></path><path d="M309.17 423.63C309.17 320.76 309.17 263.63 309.17 252.2C290.41 296.23 263.27 333.56 241.87 358.93C241.87 367.56 241.87 389.13 241.87 423.63C255.33 423.63 302.44 423.63 309.17 423.63Z" id="bbelvbckl"></path><path d="M309.17 423.63C309.17 320.76 309.17 263.63 309.17 252.2C290.41 296.23 263.27 333.56 241.87 358.93C241.87 367.56 241.87 389.13 241.87 423.63C255.33 423.63 302.44 423.63 309.17 423.63Z" id="ale0IidI8"></path><path d="M241.87 192.8C241.87 211.4 256.94 226.46 275.54 226.46C294.11 226.46 309.17 211.4 309.17 192.8C309.17 174.2 294.11 159.13 275.54 159.13C256.94 159.13 241.87 174.2 241.87 192.8Z" id="a3A0LfBR4L"></path><path d="M241.87 192.8C241.87 211.4 256.94 226.46 275.54 226.46C294.11 226.46 309.17 211.4 309.17 192.8C309.17 174.2 294.11 159.13 275.54 159.13C256.94 159.13 241.87 174.2 241.87 192.8Z" id="b5A3670Fh"></path><path d="M261.11 192.8C261.11 200.76 267.57 207.23 275.54 207.23C283.51 207.23 289.94 200.76 289.94 192.8C289.94 184.83 283.51 178.36 275.54 178.36C267.57 178.36 261.11 184.83 261.11 192.8Z" id="a7dL0AwfL5"></path><path d="M261.11 192.8C261.11 200.76 267.57 207.23 275.54 207.23C283.51 207.23 289.94 200.76 289.94 192.8C289.94 184.83 283.51 178.36 275.54 178.36C267.57 178.36 261.11 184.83 261.11 192.8Z" id="e3xXOBJtqI"></path><path d="M309.17 245.7L309.17 264.93L241.87 264.93L241.87 245.7L309.17 245.7Z" id="f1vgQKLSjC"></path><path d="M309.17 245.7L309.17 264.93L241.87 264.93L241.87 245.7L309.17 245.7Z" id="aOYEdGtYf"></path><path d="M309.17 365.9L309.17 385.13L241.87 385.13L241.87 365.9L309.17 365.9Z" id="aJTPdaeAu"></path><path d="M309.17 365.9L309.17 385.13L241.87 385.13L241.87 365.9L309.17 365.9Z" id="dBfib1lm4"></path><path d="M294.77 264.93L294.77 245.7L333.24 245.7L347.67 264.93L294.77 264.93Z" id="dCzWbReSF"></path><path d="M294.77 264.93L294.77 245.7L333.24 245.7L347.67 264.93L294.77 264.93Z" id="aDuorfUmS"></path><path d="M294.77 385.13L294.77 365.9L347.67 365.9L333.24 385.13L294.77 385.13Z" id="d2rNd42B8N"></path><path d="M294.77 385.13L294.77 365.9L347.67 365.9L333.24 385.13L294.77 385.13Z" id="g43I7Q2TAU"></path><path d="M347.67 269.73L347.67 365.9L328.41 365.9L328.41 269.73L347.67 269.73Z" id="f1PqM94edY"></path><path d="M347.67 269.73L347.67 365.9L328.41 365.9L328.41 269.73L347.67 269.73Z" id="c5cREik5"></path><path d="M439.01 332.26L439.01 296.33L424.61 293.76L424.61 260.13L400.54 260.13L376.51 260.13L376.51 293.76L362.07 296.33L362.07 332.26L439.01 332.26Z" id="b3iPeJQCqW"></path><path d="M439.01 332.26L439.01 296.33L424.61 293.76L424.61 260.13L400.54 260.13L376.51 260.13L376.51 293.76L362.07 296.33L362.07 332.26L439.01 332.26Z" id="a55irLfNsv"></path><path d="M473.77 373.56L467.87 351.5L467.87 428.43L333.24 428.43L333.24 351.5L327.37 373.4C301.61 364.94 287.3 360.24 284.44 359.3C288.07 342.4 290.07 333 290.47 331.1C293.04 317.33 303.91 306.6 317.71 304.16C323.11 303.2 366.31 295.56 371.71 294.63C371.71 310.1 384.24 322.63 399.71 322.63C399.87 322.63 401.24 322.63 401.41 322.63C416.87 322.63 429.41 310.1 429.41 294.63C432.57 295.2 448.44 298 476.97 303.03C480.84 303.7 482.97 304.06 483.41 304.16C497.21 306.6 508.04 317.33 510.64 331.1C511.44 334.83 513.44 344.2 516.64 359.16C510.92 361.08 496.64 365.88 473.77 373.56Z" id="a3d6g4AEv"></path><path d="M473.77 373.56L467.87 351.5L467.87 428.43L333.24 428.43L333.24 351.5L327.37 373.4C301.61 364.94 287.3 360.24 284.44 359.3C288.07 342.4 290.07 333 290.47 331.1C293.04 317.33 303.91 306.6 317.71 304.16C323.11 303.2 366.31 295.56 371.71 294.63C371.71 310.1 384.24 322.63 399.71 322.63C399.87 322.63 401.24 322.63 401.41 322.63C416.87 322.63 429.41 310.1 429.41 294.63C432.57 295.2 448.44 298 476.97 303.03C480.84 303.7 482.97 304.06 483.41 304.16C497.21 306.6 508.04 317.33 510.64 331.1C511.44 334.83 513.44 344.2 516.64 359.16C510.92 361.08 496.64 365.88 473.77 373.56Z" id="ahKCUfcvv"></path><path d="M473.77 373.56L467.87 351.5C467.87 397.66 467.87 423.3 467.87 428.43C391.11 428.43 348.47 428.43 339.94 428.43C381.24 406.06 440.84 365.4 476.97 303.03C477.61 303.13 482.77 304.03 483.41 304.16C497.21 306.6 508.04 317.33 510.64 331.1C511.44 334.83 513.44 344.2 516.64 359.16C510.92 361.08 496.64 365.88 473.77 373.56Z" id="dfOgd3B6Y"></path><path d="M473.77 373.56L467.87 351.5C467.87 397.66 467.87 423.3 467.87 428.43C391.11 428.43 348.47 428.43 339.94 428.43C381.24 406.06 440.84 365.4 476.97 303.03C477.61 303.13 482.77 304.03 483.41 304.16C497.21 306.6 508.04 317.33 510.64 331.1C511.44 334.83 513.44 344.2 516.64 359.16C510.92 361.08 496.64 365.88 473.77 373.56Z" id="aTRfeQyPc"></path><path d="M292.57 423.23C294.04 423.53 295.57 423.7 297.07 423.7C297.14 423.7 297.67 423.7 297.71 423.7C307.34 423.66 315.71 417.2 318.17 407.9C318.81 405.6 321.87 394.1 327.37 373.4C323.08 371.99 288.73 360.71 284.44 359.3C280.04 379.93 277.31 392.83 276.21 397.96C273.74 409.46 281.07 420.8 292.57 423.23Z" id="aufCrzceH"></path><path d="M292.57 423.23C294.04 423.53 295.57 423.7 297.07 423.7C297.14 423.7 297.67 423.7 297.71 423.7C307.34 423.66 315.71 417.2 318.17 407.9C318.81 405.6 321.87 394.1 327.37 373.4C323.08 371.99 288.73 360.71 284.44 359.3C280.04 379.93 277.31 392.83 276.21 397.96C273.74 409.46 281.07 420.8 292.57 423.23Z" id="a19wUG6g31"></path><path d="M473.77 373.56C479.27 394.16 482.31 405.6 482.91 407.9C485.41 417.2 493.77 423.66 503.37 423.7C503.44 423.7 503.97 423.7 504.01 423.7C515.77 423.73 525.34 414.23 525.37 402.5C525.41 400.96 525.24 399.46 524.91 397.96C523.81 392.8 521.04 379.86 516.64 359.16C508.07 362.04 478.06 372.12 473.77 373.56Z" id="cgro6X9Ft"></path><path d="M473.77 373.56C479.27 394.16 482.31 405.6 482.91 407.9C485.41 417.2 493.77 423.66 503.37 423.7C503.44 423.7 503.97 423.7 504.01 423.7C515.77 423.73 525.34 414.23 525.37 402.5C525.41 400.96 525.24 399.46 524.91 397.96C523.81 392.8 521.04 379.86 516.64 359.16C508.07 362.04 478.06 372.12 473.77 373.56Z" id="g2ZzuDZKVr"></path><path d="M294.64 383.03C283.77 384.23 275.54 393.43 275.54 404.4C275.54 415 284.14 423.63 294.77 423.63C296.04 423.63 302.44 423.63 314.01 423.63C363.84 412.06 391.54 405.66 397.07 404.4C399.14 403.8 400.54 401.9 400.54 399.76C400.54 393.46 400.54 343.13 400.54 336.83C400.54 333.76 398.04 331.26 394.97 331.26C394.97 331.26 394.97 331.26 394.97 331.26C392.57 331.26 390.41 332.8 389.67 335.06C387.91 340.33 383.54 353.5 376.51 374.53C327.41 379.63 300.11 382.46 294.64 383.03Z" id="c9xPofd1w"></path><path d="M294.64 383.03C283.77 384.23 275.54 393.43 275.54 404.4C275.54 415 284.14 423.63 294.77 423.63C296.04 423.63 302.44 423.63 314.01 423.63C363.84 412.06 391.54 405.66 397.07 404.4C399.14 403.8 400.54 401.9 400.54 399.76C400.54 393.46 400.54 343.13 400.54 336.83C400.54 333.76 398.04 331.26 394.97 331.26C394.97 331.26 394.97 331.26 394.97 331.26C392.57 331.26 390.41 332.8 389.67 335.06C387.91 340.33 383.54 353.5 376.51 374.53C327.41 379.63 300.11 382.46 294.64 383.03Z" id="bmNCCtohB"></path><path d="M506.47 383.03C517.34 384.23 525.57 393.43 525.57 404.4C525.57 415 516.97 423.63 506.34 423.63C505.07 423.63 498.64 423.63 487.11 423.63C437.27 412.06 409.57 405.66 404.04 404.4C401.97 403.8 400.54 401.9 400.54 399.76C400.54 393.46 400.54 343.13 400.54 336.83C400.54 333.76 403.04 331.26 406.14 331.26C406.14 331.26 406.14 331.26 406.14 331.26C408.54 331.26 410.67 332.8 411.44 335.06C413.21 340.33 417.57 353.5 424.61 374.53C473.71 379.63 501.01 382.46 506.47 383.03Z" id="b19mMHqNK7"></path><path d="M506.47 383.03C517.34 384.23 525.57 393.43 525.57 404.4C525.57 415 516.97 423.63 506.34 423.63C505.07 423.63 498.64 423.63 487.11 423.63C437.27 412.06 409.57 405.66 404.04 404.4C401.97 403.8 400.54 401.9 400.54 399.76C400.54 393.46 400.54 343.13 400.54 336.83C400.54 333.76 403.04 331.26 406.14 331.26C406.14 331.26 406.14 331.26 406.14 331.26C408.54 331.26 410.67 332.8 411.44 335.06C413.21 340.33 417.57 353.5 424.61 374.53C473.71 379.63 501.01 382.46 506.47 383.03Z" id="dBe1XK54b"></path><path d="M376.51 260.13C376.51 273.06 376.51 280.23 376.51 281.66C391.07 291.4 410.04 291.4 424.61 281.66C424.61 278.8 424.61 271.6 424.61 260.13C414.99 260.13 381.32 260.13 376.51 260.13Z" id="d138YaZ6RJ"></path><path d="M376.51 260.13C376.51 273.06 376.51 280.23 376.51 281.66C391.07 291.4 410.04 291.4 424.61 281.66C424.61 278.8 424.61 271.6 424.61 260.13C414.99 260.13 381.32 260.13 376.51 260.13Z" id="e74gb9pvuh"></path><path d="M338.04 216.83C338.04 224.8 344.51 231.26 352.47 231.26C353.11 231.26 356.31 231.26 362.07 231.26C362.07 229.34 362.07 219.72 362.07 202.4C356.45 202.4 353.33 202.4 352.71 202.4C352.57 202.4 352.51 202.4 352.47 202.4C344.51 202.4 338.04 208.86 338.04 216.83Z" id="l15VrglNx6"></path><path d="M338.04 216.83C338.04 224.8 344.51 231.26 352.47 231.26C353.11 231.26 356.31 231.26 362.07 231.26C362.07 229.34 362.07 219.72 362.07 202.4C356.45 202.4 353.33 202.4 352.71 202.4C352.57 202.4 352.51 202.4 352.47 202.4C344.51 202.4 338.04 208.86 338.04 216.83Z" id="b1DWbNlYoz"></path><path d="M439.01 202.4C439.01 219.72 439.01 229.34 439.01 231.26C444.81 231.26 448.01 231.26 448.64 231.26C456.61 231.26 463.07 224.8 463.07 216.83C463.07 208.86 456.61 202.4 448.64 202.4C448.61 202.4 448.54 202.4 448.41 202.4C447.15 202.4 444.02 202.4 439.01 202.4Z" id="hDDil0uNw"></path><path d="M439.01 202.4C439.01 219.72 439.01 229.34 439.01 231.26C444.81 231.26 448.01 231.26 448.64 231.26C456.61 231.26 463.07 224.8 463.07 216.83C463.07 208.86 456.61 202.4 448.64 202.4C448.61 202.4 448.54 202.4 448.41 202.4C447.15 202.4 444.02 202.4 439.01 202.4Z" id="a2aGE7Pkyq"></path><path d="M440.81 246.33C436.37 268.56 414.74 283 392.51 278.56C376.24 275.3 363.54 262.6 360.31 246.33C358.77 238.83 358.27 232.7 358.04 231.2C357.54 226.1 357.27 221 357.27 215.9C357.27 204.93 357.27 198.83 357.27 197.6C357.27 173.7 376.64 154.33 400.54 154.33C424.44 154.33 443.84 173.7 443.84 197.6C443.84 197.6 443.84 214.06 443.84 215.9C443.84 226.1 442.81 236.33 440.81 246.33Z" id="g2l709WoTK"></path><path d="M440.81 246.33C436.37 268.56 414.74 283 392.51 278.56C376.24 275.3 363.54 262.6 360.31 246.33C358.77 238.83 358.27 232.7 358.04 231.2C357.54 226.1 357.27 221 357.27 215.9C357.27 204.93 357.27 198.83 357.27 197.6C357.27 173.7 376.64 154.33 400.54 154.33C424.44 154.33 443.84 173.7 443.84 197.6C443.84 197.6 443.84 214.06 443.84 215.9C443.84 226.1 442.81 236.33 440.81 246.33Z" id="bghpY3mzs"></path><path d="M440.81 246.33C436.37 268.6 414.71 283 392.47 278.56C391.67 278.4 390.87 278.2 390.07 278C409.24 273.1 422.61 255.83 422.61 236.06C422.61 231.26 422.61 192.8 422.61 188C422.64 176.5 418.07 165.5 409.94 157.36C408.61 156.03 407.41 155.06 407.14 154.83C428.24 158.06 443.84 176.23 443.84 197.6C443.84 201.26 443.84 214.06 443.84 215.9C443.84 226.1 442.81 236.33 440.81 246.33Z" id="exrVa97BX"></path><path d="M440.81 246.33C436.37 268.6 414.71 283 392.47 278.56C391.67 278.4 390.87 278.2 390.07 278C409.24 273.1 422.61 255.83 422.61 236.06C422.61 231.26 422.61 192.8 422.61 188C422.64 176.5 418.07 165.5 409.94 157.36C408.61 156.03 407.41 155.06 407.14 154.83C428.24 158.06 443.84 176.23 443.84 197.6C443.84 201.26 443.84 214.06 443.84 215.9C443.84 226.1 442.81 236.33 440.81 246.33Z" id="a1vjdJCIWO"></path><path d="M429.41 168.73L429.41 178.36L366.91 178.36L366.91 168.73L429.41 168.73Z" id="bcMceEgr2"></path><path d="M429.41 168.73L429.41 178.36L366.91 178.36L366.91 168.73L429.41 168.73Z" id="b1cdCtbMcn"></path><path d="M428.34 153.86C427.07 153.86 425.84 154 424.61 154.33C424.61 155.76 424.61 167.3 424.61 168.73C424.61 168.73 433.31 189.76 443.84 202.4C443.84 195.8 443.84 172.63 443.84 169.33C443.84 160.8 436.91 153.86 428.34 153.86Z" id="a4IJwrC5g"></path><path d="M428.34 153.86C427.07 153.86 425.84 154 424.61 154.33C424.61 155.76 424.61 167.3 424.61 168.73C424.61 168.73 433.31 189.76 443.84 202.4C443.84 195.8 443.84 172.63 443.84 169.33C443.84 160.8 436.91 153.86 428.34 153.86Z" id="c9beBeesy"></path><path d="M372.74 153.86C374.01 153.86 375.27 154 376.51 154.33C376.51 155.76 376.51 167.3 376.51 168.73C376.51 168.73 367.81 189.76 357.27 202.4C357.27 195.8 357.27 172.63 357.27 169.33C357.27 160.8 364.21 153.86 372.74 153.86Z" id="gn1kgij6f"></path><path d="M372.74 153.86C374.01 153.86 375.27 154 376.51 154.33C376.51 155.76 376.51 167.3 376.51 168.73C376.51 168.73 367.81 189.76 357.27 202.4C357.27 195.8 357.27 172.63 357.27 169.33C357.27 160.8 364.21 153.86 372.74 153.86Z" id="dtX5nsQk6"></path><path d="M357.27 168.73C357.27 155.46 368.04 144.7 381.31 144.7C384.07 144.7 406.27 144.7 409.04 144.7C415.64 144.7 421.64 148.43 424.61 154.33C424.61 156.23 424.61 161.06 424.61 168.73C384.21 168.73 361.77 168.73 357.27 168.73Z" id="aUE3wAEWY"></path><path d="M357.27 168.73C357.27 155.46 368.04 144.7 381.31 144.7C384.07 144.7 406.27 144.7 409.04 144.7C415.64 144.7 421.64 148.43 424.61 154.33C424.61 156.23 424.61 161.06 424.61 168.73C384.21 168.73 361.77 168.73 357.27 168.73Z" id="bSyki0A5N"></path><path d="M405.37 337.06C405.37 374.56 405.37 395.4 405.37 399.56C405.37 402.76 403.77 404.4 400.54 404.4C400.54 404.4 400.54 404.4 400.54 404.4C397.34 404.4 395.74 402.76 395.74 399.56C395.74 362.06 395.74 341.23 395.74 337.06C395.74 333.86 397.34 332.26 400.54 332.26C400.54 332.26 400.54 332.26 400.54 332.26C403.77 332.26 405.37 333.86 405.37 337.06Z" id="a3TLMmvdzW"></path><path d="M405.37 337.06C405.37 374.56 405.37 395.4 405.37 399.56C405.37 402.76 403.77 404.4 400.54 404.4C400.54 404.4 400.54 404.4 400.54 404.4C397.34 404.4 395.74 402.76 395.74 399.56C395.74 362.06 395.74 341.23 395.74 337.06C395.74 333.86 397.34 332.26 400.54 332.26C400.54 332.26 400.54 332.26 400.54 332.26C403.77 332.26 405.37 333.86 405.37 337.06Z" id="e30cYQU5jB"></path><path d="M275.54 173.56C264.91 173.56 256.31 182.16 256.31 192.8C256.31 203.4 264.91 212.03 275.54 212.03C286.14 212.03 294.77 203.43 294.77 192.8C294.77 182.16 286.14 173.56 275.54 173.56ZM275.54 202.4C270.21 202.4 265.91 198.1 265.91 192.8C265.91 187.5 270.21 183.16 275.54 183.16C280.84 183.16 285.14 187.46 285.14 192.8C285.14 198.1 280.84 202.4 275.54 202.4Z" id="b1Z5C1KNWZ"></path><path d="M275.54 173.56C264.91 173.56 256.31 182.16 256.31 192.8C256.31 203.4 264.91 212.03 275.54 212.03C286.14 212.03 294.77 203.43 294.77 192.8C294.77 182.16 286.14 173.56 275.54 173.56ZM275.54 202.4C270.21 202.4 265.91 198.1 265.91 192.8C265.91 187.5 270.21 183.16 275.54 183.16C280.84 183.16 285.14 187.46 285.14 192.8C285.14 198.1 280.84 202.4 275.54 202.4Z" id="c7ElkKv1I"></path><path d="M484.24 299.43C481.14 298.9 465.67 296.16 437.81 291.26C436.97 291.11 430.25 289.91 429.41 289.76C429.41 280.23 429.41 274.96 429.41 273.9C437.71 267.16 443.44 257.76 445.54 247.3C446.27 243.56 446.87 239.83 447.37 236.06C448.14 236.06 448.54 236.06 448.64 236.06C459.27 236.06 467.87 227.46 467.87 216.83C467.87 206.2 459.27 197.6 448.64 197.6C448.64 194.76 448.64 172.16 448.64 169.33C448.64 158.13 439.54 149.03 428.34 149.03C427.91 149.03 427.47 149.06 427.04 149.1C422.87 143.3 416.17 139.86 409.04 139.9C406.27 139.9 384.07 139.9 381.31 139.9C365.41 139.9 352.47 152.83 352.47 168.73C352.47 168.8 352.47 168.86 352.47 168.9C352.47 169.06 352.47 169.2 352.47 169.33C352.47 172.16 352.47 194.76 352.47 197.6C341.84 197.6 333.24 206.2 333.24 216.83C333.24 227.46 341.84 236.06 352.47 236.06C352.61 236.06 353.61 236.06 353.74 236.06C354.47 241.7 355.41 246.16 355.57 247.3C357.71 257.83 363.47 267.3 371.91 274.03C371.91 275.06 371.91 280.33 371.91 289.73C371.84 289.74 371.49 289.81 370.87 289.93L370.87 289.9C359.83 291.84 353.7 292.91 352.47 293.13C352.47 276.2 352.47 266.8 352.47 264.93C352.47 263.9 352.14 262.86 351.51 262.03C351.37 261.86 350.67 260.93 349.44 259.3C342.04 249.4 337.91 243.9 337.07 242.8C336.17 241.6 334.74 240.86 333.24 240.86C331.94 240.86 325.54 240.86 314.01 240.86C314.01 212.03 314.01 196 314.01 192.8C314.01 171.53 296.77 154.33 275.54 154.33C254.27 154.33 237.04 171.53 237.04 192.8C237.04 215.86 237.04 400.53 237.04 423.63C237.04 426.26 239.21 428.43 241.87 428.43C249.07 428.43 306.77 428.43 314.01 428.43C314.37 428.43 314.74 428.4 315.07 428.3C315.97 428.1 320.41 427.06 328.41 425.2C328.41 425.41 328.41 426.49 328.41 428.43L338.04 428.43C338.04 425.17 338.04 423.36 338.04 423C374.11 414.63 394.14 410 398.14 409.06C398.24 409.06 398.31 409.03 398.37 409C399.14 408.8 399.87 408.5 400.54 408.1C401.24 408.5 401.94 408.8 402.71 409C402.81 409.03 402.87 409.06 402.94 409.06C406.97 410 427.01 414.63 463.07 423C463.07 423.36 463.07 425.17 463.07 428.43L472.67 428.43C472.67 426.49 472.67 425.41 472.67 425.2C480.67 427.06 485.14 428.1 486.04 428.3C486.37 428.4 486.74 428.43 487.11 428.43C489.04 428.43 504.41 428.43 506.34 428.43C519.61 428.4 530.37 417.66 530.37 404.4C530.27 401.9 530.01 399.43 529.61 397C529.61 397 516.77 336.83 515.34 330.16C512.37 314.46 499.97 302.23 484.24 299.43ZM458.27 216.83C458.27 222.13 453.94 226.46 448.64 226.46C448.61 226.46 448.31 226.46 448.27 226.46C448.51 222.93 448.64 219.4 448.64 215.9C448.64 214.16 448.64 208.1 448.64 207.23C453.94 207.23 458.27 211.53 458.27 216.83ZM342.84 216.83C342.84 211.53 347.14 207.23 352.47 207.23C352.47 208.1 352.47 215.03 352.47 215.9C352.47 219.4 352.61 222.93 352.84 226.46C352.74 226.46 352.54 226.46 352.47 226.46C347.14 226.46 342.84 222.13 342.84 216.83ZM506.97 378.26C505.34 378.1 497.17 377.23 482.51 375.7C485.56 374.68 510.02 366.58 513.07 365.56C514.84 373.86 515.94 379.06 516.41 381.13C513.47 379.6 510.24 378.63 506.97 378.26ZM482.57 308.9C494.41 311 503.67 320.16 505.91 331.96C505.91 332 505.91 332.06 505.91 332.1C506.27 333.7 507.97 341.7 511.04 356.1C507.64 357.22 480.47 366.24 477.07 367.36C474.34 357.1 472.84 351.4 472.51 350.23C471.84 347.66 469.21 346.16 466.64 346.83C464.54 347.4 463.07 349.3 463.07 351.5C463.07 352.96 463.07 360.36 463.07 373.7C459.58 373.33 431.66 370.43 428.17 370.06C420.87 348.16 416.81 336 416.01 333.56C414.84 330.06 411.94 327.46 408.37 326.7C421.37 323.83 431.41 313.43 433.71 300.3C433.71 300.3 434.51 300.43 436.11 300.73C464.01 305.63 479.47 308.36 482.57 308.9ZM439.01 169.33C439.01 171.1 439.01 185.1 439.01 186.86C435.47 180.7 432.24 174.3 429.41 167.76C429.41 165.96 429.41 160.53 429.41 158.7C434.87 159.26 439.01 163.86 439.01 169.33ZM419.77 155.56C419.77 156.1 419.77 158.9 419.77 163.93C385.54 163.93 366.51 163.93 362.71 163.93C364.91 155.46 372.54 149.53 381.31 149.5C381.31 149.5 406.27 149.5 409.04 149.5C413.44 149.5 417.51 151.8 419.77 155.56ZM369.07 173.56C367.31 177.23 364.91 182.03 362.07 186.86C362.07 185.1 362.07 180.66 362.07 173.56C366.27 173.56 368.61 173.56 369.07 173.56ZM362.07 204.1C370.17 193.86 376.94 179.66 379.67 173.56C383.84 173.56 417.27 173.56 421.44 173.56C424.17 179.66 430.91 193.86 439.01 204.1C439.01 205.3 439.01 214.7 439.01 215.9C439.01 225.8 438.04 235.66 436.11 245.4C432.17 265.03 413.07 277.76 393.44 273.83C379.11 270.96 367.87 259.76 365.01 245.4C363.07 235.7 362.07 225.8 362.07 215.9C362.07 214.7 362.07 205.3 362.07 204.1ZM392.74 326.7C389.14 327.46 386.24 330.06 385.11 333.56C384.27 336 380.24 348.16 372.94 370.06C369.45 370.43 341.53 373.33 338.04 373.7C338.04 360.36 338.04 352.96 338.04 351.5C338.04 348.83 335.87 346.66 333.24 346.66C331.04 346.66 329.14 348.13 328.57 350.23C328.27 351.4 326.77 357.1 324.01 367.4C320.67 366.28 293.98 357.38 290.64 356.26C293.37 341.7 294.91 333.6 295.21 332C297.44 320.2 306.74 311.03 318.54 308.9C328.31 307.16 357.61 302 367.37 300.26C369.71 313.4 379.71 323.83 392.74 326.7ZM294.11 378.26C290.81 378.63 287.64 379.6 284.71 381.16C284.91 380.1 286.04 374.9 288.04 365.53C290.08 366.21 300.25 369.61 318.57 375.73C303.35 377.31 295.2 378.15 294.11 378.26ZM323.61 269.73C323.61 286.83 323.61 296.33 323.61 298.23C319.57 298.93 317.31 299.33 316.87 299.43C315.91 299.6 314.94 299.8 314.01 300.03C314.01 298.01 314.01 287.91 314.01 269.73L323.61 269.73ZM333.24 296.53L333.24 269.73L342.84 269.73L342.84 294.83L333.24 296.53ZM338.04 260.13L299.57 260.13L299.57 250.5L330.84 250.5L338.04 260.13ZM275.54 221.63C259.61 221.63 246.67 208.73 246.67 192.8C246.71 176.86 259.61 163.96 275.54 163.93C291.47 163.93 304.37 176.86 304.37 192.8C304.37 208.73 291.47 221.63 275.54 221.63ZM300.84 221.73C302.11 220.63 303.27 219.43 304.37 218.2C304.37 219.7 304.37 227.26 304.37 240.86C298.6 240.86 252.44 240.86 246.67 240.86C246.67 228.8 246.67 221.23 246.67 218.2C260.67 234.13 284.91 235.7 300.84 221.73ZM289.94 250.5L289.94 260.13L246.67 260.13L246.67 250.5L289.94 250.5ZM304.37 269.73C304.37 290.3 304.37 301.7 304.37 304C294.64 309.6 287.84 319.16 285.74 330.23C285.41 331.96 283.77 340.63 280.84 356.3C278.56 356.3 267.17 356.3 246.67 356.3L246.67 269.73C281.29 269.73 300.53 269.73 304.37 269.73ZM246.67 385.13C263.07 385.13 272.18 385.13 274.01 385.13C272.51 392.23 271.67 396.16 271.51 396.96C271.11 399.43 270.84 401.9 270.71 404.4C270.71 409.6 272.41 414.66 275.54 418.8C271.71 418.8 262.07 418.8 246.67 418.8C246.67 414.31 246.67 403.09 246.67 385.13ZM246.67 375.53L246.67 365.9L278.14 365.9L276.07 375.53L246.67 375.53ZM313.44 418.8C302.24 418.8 296.01 418.8 294.77 418.8C286.81 418.8 280.34 412.33 280.34 404.4C280.31 395.9 286.71 388.76 295.14 387.83C303.34 386.96 368.81 380.16 377.01 379.33C378.87 379.13 380.47 377.83 381.07 376.06C382.37 372.1 392.91 340.53 394.24 336.6C394.37 336.2 394.81 335.96 395.21 336.1C395.54 336.23 395.74 336.5 395.74 336.83C395.74 345.23 395.74 366.2 395.74 399.76C379.28 403.57 321.67 416.89 313.44 418.8ZM399.67 327.43C399.87 327.43 401.24 327.43 401.41 327.43C401.54 327.43 401.64 327.43 401.74 327.43C401.34 327.63 400.94 327.83 400.54 328.1C400.17 327.83 399.77 327.63 399.37 327.43C399.47 327.43 399.57 327.43 399.67 327.43ZM376.87 298.63C376.94 298.63 377.47 298.53 377.54 298.5C379.84 298.1 381.51 296.1 381.51 293.76C381.51 292.4 381.51 281.36 381.51 280C393.67 285.56 407.67 285.56 419.77 279.9C419.77 281.3 419.77 292.4 419.77 293.76C419.77 296.1 421.44 298.1 423.74 298.5C423.81 298.53 424.21 298.6 424.24 298.6C422.31 309.7 412.67 317.8 401.41 317.83C401.07 317.83 399.87 317.83 399.67 317.83C388.44 317.8 378.81 309.73 376.87 298.63ZM405.37 399.76C405.37 362 405.37 341.03 405.37 336.83C405.37 336.4 405.71 336.06 406.14 336.06C406.47 336.06 406.77 336.3 406.87 336.6C408.21 340.53 418.71 372.1 420.04 376.06C420.64 377.83 422.21 379.13 424.11 379.33C432.27 380.16 497.74 386.96 505.94 387.83C514.37 388.73 520.77 395.9 520.77 404.4C520.77 412.33 514.31 418.8 506.34 418.8C506.34 418.8 500.11 418.8 487.67 418.8C471.21 414.99 413.6 401.67 405.37 399.76Z" id="b2fylPLOMK"></path><path d="M484.24 299.43C481.14 298.9 465.67 296.16 437.81 291.26C436.97 291.11 430.25 289.91 429.41 289.76C429.41 280.23 429.41 274.96 429.41 273.9C437.71 267.16 443.44 257.76 445.54 247.3C446.27 243.56 446.87 239.83 447.37 236.06C448.14 236.06 448.54 236.06 448.64 236.06C459.27 236.06 467.87 227.46 467.87 216.83C467.87 206.2 459.27 197.6 448.64 197.6C448.64 194.76 448.64 172.16 448.64 169.33C448.64 158.13 439.54 149.03 428.34 149.03C427.91 149.03 427.47 149.06 427.04 149.1C422.87 143.3 416.17 139.86 409.04 139.9C406.27 139.9 384.07 139.9 381.31 139.9C365.41 139.9 352.47 152.83 352.47 168.73C352.47 168.8 352.47 168.86 352.47 168.9C352.47 169.06 352.47 169.2 352.47 169.33C352.47 172.16 352.47 194.76 352.47 197.6C341.84 197.6 333.24 206.2 333.24 216.83C333.24 227.46 341.84 236.06 352.47 236.06C352.61 236.06 353.61 236.06 353.74 236.06C354.47 241.7 355.41 246.16 355.57 247.3C357.71 257.83 363.47 267.3 371.91 274.03C371.91 275.06 371.91 280.33 371.91 289.73C371.84 289.74 371.49 289.81 370.87 289.93L370.87 289.9C359.83 291.84 353.7 292.91 352.47 293.13C352.47 276.2 352.47 266.8 352.47 264.93C352.47 263.9 352.14 262.86 351.51 262.03C351.37 261.86 350.67 260.93 349.44 259.3C342.04 249.4 337.91 243.9 337.07 242.8C336.17 241.6 334.74 240.86 333.24 240.86C331.94 240.86 325.54 240.86 314.01 240.86C314.01 212.03 314.01 196 314.01 192.8C314.01 171.53 296.77 154.33 275.54 154.33C254.27 154.33 237.04 171.53 237.04 192.8C237.04 215.86 237.04 400.53 237.04 423.63C237.04 426.26 239.21 428.43 241.87 428.43C249.07 428.43 306.77 428.43 314.01 428.43C314.37 428.43 314.74 428.4 315.07 428.3C315.97 428.1 320.41 427.06 328.41 425.2C328.41 425.41 328.41 426.49 328.41 428.43L338.04 428.43C338.04 425.17 338.04 423.36 338.04 423C374.11 414.63 394.14 410 398.14 409.06C398.24 409.06 398.31 409.03 398.37 409C399.14 408.8 399.87 408.5 400.54 408.1C401.24 408.5 401.94 408.8 402.71 409C402.81 409.03 402.87 409.06 402.94 409.06C406.97 410 427.01 414.63 463.07 423C463.07 423.36 463.07 425.17 463.07 428.43L472.67 428.43C472.67 426.49 472.67 425.41 472.67 425.2C480.67 427.06 485.14 428.1 486.04 428.3C486.37 428.4 486.74 428.43 487.11 428.43C489.04 428.43 504.41 428.43 506.34 428.43C519.61 428.4 530.37 417.66 530.37 404.4C530.27 401.9 530.01 399.43 529.61 397C529.61 397 516.77 336.83 515.34 330.16C512.37 314.46 499.97 302.23 484.24 299.43ZM458.27 216.83C458.27 222.13 453.94 226.46 448.64 226.46C448.61 226.46 448.31 226.46 448.27 226.46C448.51 222.93 448.64 219.4 448.64 215.9C448.64 214.16 448.64 208.1 448.64 207.23C453.94 207.23 458.27 211.53 458.27 216.83ZM342.84 216.83C342.84 211.53 347.14 207.23 352.47 207.23C352.47 208.1 352.47 215.03 352.47 215.9C352.47 219.4 352.61 222.93 352.84 226.46C352.74 226.46 352.54 226.46 352.47 226.46C347.14 226.46 342.84 222.13 342.84 216.83ZM506.97 378.26C505.34 378.1 497.17 377.23 482.51 375.7C485.56 374.68 510.02 366.58 513.07 365.56C514.84 373.86 515.94 379.06 516.41 381.13C513.47 379.6 510.24 378.63 506.97 378.26ZM482.57 308.9C494.41 311 503.67 320.16 505.91 331.96C505.91 332 505.91 332.06 505.91 332.1C506.27 333.7 507.97 341.7 511.04 356.1C507.64 357.22 480.47 366.24 477.07 367.36C474.34 357.1 472.84 351.4 472.51 350.23C471.84 347.66 469.21 346.16 466.64 346.83C464.54 347.4 463.07 349.3 463.07 351.5C463.07 352.96 463.07 360.36 463.07 373.7C459.58 373.33 431.66 370.43 428.17 370.06C420.87 348.16 416.81 336 416.01 333.56C414.84 330.06 411.94 327.46 408.37 326.7C421.37 323.83 431.41 313.43 433.71 300.3C433.71 300.3 434.51 300.43 436.11 300.73C464.01 305.63 479.47 308.36 482.57 308.9ZM439.01 169.33C439.01 171.1 439.01 185.1 439.01 186.86C435.47 180.7 432.24 174.3 429.41 167.76C429.41 165.96 429.41 160.53 429.41 158.7C434.87 159.26 439.01 163.86 439.01 169.33ZM419.77 155.56C419.77 156.1 419.77 158.9 419.77 163.93C385.54 163.93 366.51 163.93 362.71 163.93C364.91 155.46 372.54 149.53 381.31 149.5C381.31 149.5 406.27 149.5 409.04 149.5C413.44 149.5 417.51 151.8 419.77 155.56ZM369.07 173.56C367.31 177.23 364.91 182.03 362.07 186.86C362.07 185.1 362.07 180.66 362.07 173.56C366.27 173.56 368.61 173.56 369.07 173.56ZM362.07 204.1C370.17 193.86 376.94 179.66 379.67 173.56C383.84 173.56 417.27 173.56 421.44 173.56C424.17 179.66 430.91 193.86 439.01 204.1C439.01 205.3 439.01 214.7 439.01 215.9C439.01 225.8 438.04 235.66 436.11 245.4C432.17 265.03 413.07 277.76 393.44 273.83C379.11 270.96 367.87 259.76 365.01 245.4C363.07 235.7 362.07 225.8 362.07 215.9C362.07 214.7 362.07 205.3 362.07 204.1ZM392.74 326.7C389.14 327.46 386.24 330.06 385.11 333.56C384.27 336 380.24 348.16 372.94 370.06C369.45 370.43 341.53 373.33 338.04 373.7C338.04 360.36 338.04 352.96 338.04 351.5C338.04 348.83 335.87 346.66 333.24 346.66C331.04 346.66 329.14 348.13 328.57 350.23C328.27 351.4 326.77 357.1 324.01 367.4C320.67 366.28 293.98 357.38 290.64 356.26C293.37 341.7 294.91 333.6 295.21 332C297.44 320.2 306.74 311.03 318.54 308.9C328.31 307.16 357.61 302 367.37 300.26C369.71 313.4 379.71 323.83 392.74 326.7ZM294.11 378.26C290.81 378.63 287.64 379.6 284.71 381.16C284.91 380.1 286.04 374.9 288.04 365.53C290.08 366.21 300.25 369.61 318.57 375.73C303.35 377.31 295.2 378.15 294.11 378.26ZM323.61 269.73C323.61 286.83 323.61 296.33 323.61 298.23C319.57 298.93 317.31 299.33 316.87 299.43C315.91 299.6 314.94 299.8 314.01 300.03C314.01 298.01 314.01 287.91 314.01 269.73L323.61 269.73ZM333.24 296.53L333.24 269.73L342.84 269.73L342.84 294.83L333.24 296.53ZM338.04 260.13L299.57 260.13L299.57 250.5L330.84 250.5L338.04 260.13ZM275.54 221.63C259.61 221.63 246.67 208.73 246.67 192.8C246.71 176.86 259.61 163.96 275.54 163.93C291.47 163.93 304.37 176.86 304.37 192.8C304.37 208.73 291.47 221.63 275.54 221.63ZM300.84 221.73C302.11 220.63 303.27 219.43 304.37 218.2C304.37 219.7 304.37 227.26 304.37 240.86C298.6 240.86 252.44 240.86 246.67 240.86C246.67 228.8 246.67 221.23 246.67 218.2C260.67 234.13 284.91 235.7 300.84 221.73ZM289.94 250.5L289.94 260.13L246.67 260.13L246.67 250.5L289.94 250.5ZM304.37 269.73C304.37 290.3 304.37 301.7 304.37 304C294.64 309.6 287.84 319.16 285.74 330.23C285.41 331.96 283.77 340.63 280.84 356.3C278.56 356.3 267.17 356.3 246.67 356.3L246.67 269.73C281.29 269.73 300.53 269.73 304.37 269.73ZM246.67 385.13C263.07 385.13 272.18 385.13 274.01 385.13C272.51 392.23 271.67 396.16 271.51 396.96C271.11 399.43 270.84 401.9 270.71 404.4C270.71 409.6 272.41 414.66 275.54 418.8C271.71 418.8 262.07 418.8 246.67 418.8C246.67 414.31 246.67 403.09 246.67 385.13ZM246.67 375.53L246.67 365.9L278.14 365.9L276.07 375.53L246.67 375.53ZM313.44 418.8C302.24 418.8 296.01 418.8 294.77 418.8C286.81 418.8 280.34 412.33 280.34 404.4C280.31 395.9 286.71 388.76 295.14 387.83C303.34 386.96 368.81 380.16 377.01 379.33C378.87 379.13 380.47 377.83 381.07 376.06C382.37 372.1 392.91 340.53 394.24 336.6C394.37 336.2 394.81 335.96 395.21 336.1C395.54 336.23 395.74 336.5 395.74 336.83C395.74 345.23 395.74 366.2 395.74 399.76C379.28 403.57 321.67 416.89 313.44 418.8ZM399.67 327.43C399.87 327.43 401.24 327.43 401.41 327.43C401.54 327.43 401.64 327.43 401.74 327.43C401.34 327.63 400.94 327.83 400.54 328.1C400.17 327.83 399.77 327.63 399.37 327.43C399.47 327.43 399.57 327.43 399.67 327.43ZM376.87 298.63C376.94 298.63 377.47 298.53 377.54 298.5C379.84 298.1 381.51 296.1 381.51 293.76C381.51 292.4 381.51 281.36 381.51 280C393.67 285.56 407.67 285.56 419.77 279.9C419.77 281.3 419.77 292.4 419.77 293.76C419.77 296.1 421.44 298.1 423.74 298.5C423.81 298.53 424.21 298.6 424.24 298.6C422.31 309.7 412.67 317.8 401.41 317.83C401.07 317.83 399.87 317.83 399.67 317.83C388.44 317.8 378.81 309.73 376.87 298.63ZM405.37 399.76C405.37 362 405.37 341.03 405.37 336.83C405.37 336.4 405.71 336.06 406.14 336.06C406.47 336.06 406.77 336.3 406.87 336.6C408.21 340.53 418.71 372.1 420.04 376.06C420.64 377.83 422.21 379.13 424.11 379.33C432.27 380.16 497.74 386.96 505.94 387.83C514.37 388.73 520.77 395.9 520.77 404.4C520.77 412.33 514.31 418.8 506.34 418.8C506.34 418.8 500.11 418.8 487.67 418.8C471.21 414.99 413.6 401.67 405.37 399.76Z" id="i7mpkVfKzH"></path><path d="M396.31 248.43C403.11 248.43 409.87 247.46 416.37 245.5C416.11 244.56 413.87 237.2 413.57 236.26C407.97 237.96 402.17 238.83 396.31 238.83C395.64 238.83 392.24 238.83 386.14 238.83C386.14 239.47 386.14 242.67 386.14 248.43C392.47 248.43 395.86 248.43 396.31 248.43Z" id="i18hduWQKw"></path><path d="M396.31 248.43C403.11 248.43 409.87 247.46 416.37 245.5C416.11 244.56 413.87 237.2 413.57 236.26C407.97 237.96 402.17 238.83 396.31 238.83C395.64 238.83 392.24 238.83 386.14 238.83C386.14 239.47 386.14 242.67 386.14 248.43C392.47 248.43 395.86 248.43 396.31 248.43Z" id="a1KsKqfy48"></path><path d="M371.71 209.63C371.71 213.6 374.94 216.83 378.91 216.83C382.91 216.83 386.14 213.6 386.14 209.63C386.14 205.63 382.91 202.4 378.91 202.4C374.94 202.4 371.71 205.63 371.71 209.63Z" id="b7SC7G5uxk"></path><path d="M371.71 209.63C371.71 213.6 374.94 216.83 378.91 216.83C382.91 216.83 386.14 213.6 386.14 209.63C386.14 205.63 382.91 202.4 378.91 202.4C374.94 202.4 371.71 205.63 371.71 209.63Z" id="cHoT53TM"></path><path d="M414.97 209.63C414.97 213.6 418.21 216.83 422.21 216.83C426.17 216.83 429.41 213.6 429.41 209.63C429.41 205.63 426.17 202.4 422.21 202.4C418.21 202.4 414.97 205.63 414.97 209.63Z" id="aqqGP46rI"></path><path d="M414.97 209.63C414.97 213.6 418.21 216.83 422.21 216.83C426.17 216.83 429.41 213.6 429.41 209.63C429.41 205.63 426.17 202.4 422.21 202.4C418.21 202.4 414.97 205.63 414.97 209.63Z" id="b2HvskL9OT"></path></defs><g><g><use xlink:href="#caZCQ9t49" opacity="1" fill="#ffffff" fill-opacity="1"></use><g><use xlink:href="#caZCQ9t49" opacity="1" fill-opacity="0" stroke="#000000" stroke-width="1" stroke-opacity="0"></use></g></g><g><use xlink:href="#b3sp5BJha9" opacity="1" fill="#000000" fill-opacity="0"></use><g><use xlink:href="#b3sp5BJha9" opacity="1" fill-opacity="0" stroke="#003068" stroke-width="4" stroke-opacity="1"></use></g></g><g><use xlink:href="#c6hOH717u" opacity="1" fill="#45a7d1" fill-opacity="1"></use><g><use xlink:href="#c6hOH717u" opacity="1" fill-opacity="0" stroke="#000000" stroke-width="1" stroke-opacity="0"></use></g></g><g><use xlink:href="#bgk8ucWZQ" opacity="1" fill="#000000" fill-opacity="0"></use><g><use xlink:href="#bgk8ucWZQ" opacity="1" fill-opacity="0" stroke="#000000" stroke-width="1" stroke-opacity="0"></use></g></g><g><use xlink:href="#bbelvbckl" opacity="1" fill="#3b9dc7" fill-opacity="1"></use><g><use xlink:href="#bbelvbckl" opacity="1" fill-opacity="0" stroke="#000000" stroke-width="1" stroke-opacity="0"></use></g></g><g><use xlink:href="#ale0IidI8" opacity="1" fill="#000000" fill-opacity="0"></use><g><use xlink:href="#ale0IidI8" opacity="1" fill-opacity="0" stroke="#000000" stroke-width="1" stroke-opacity="0"></use></g></g><g><use xlink:href="#a3A0LfBR4L" opacity="1" fill="#4db7e5" fill-opacity="1"></use><g><use xlink:href="#a3A0LfBR4L" opacity="1" fill-opacity="0" stroke="#000000" stroke-width="1" stroke-opacity="0"></use></g></g><g><use xlink:href="#b5A3670Fh" opacity="1" fill="#000000" fill-opacity="0"></use><g><use xlink:href="#b5A3670Fh" opacity="1" fill-opacity="0" stroke="#000000" stroke-width="1" stroke-opacity="0"></use></g></g><g><use xlink:href="#a7dL0AwfL5" opacity="1" fill="#3291ba" fill-opacity="1"></use><g><use xlink:href="#a7dL0AwfL5" opacity="1" fill-opacity="0" stroke="#000000" stroke-width="1" stroke-opacity="0"></use></g></g><g><use xlink:href="#e3xXOBJtqI" opacity="1" fill="#000000" fill-opacity="0"></use><g><use xlink:href="#e3xXOBJtqI" opacity="1" fill-opacity="0" stroke="#000000" stroke-width="1" stroke-opacity="0"></use></g></g><g><use xlink:href="#f1vgQKLSjC" opacity="1" fill="#404f66" fill-opacity="1"></use><g><use xlink:href="#f1vgQKLSjC" opacity="1" fill-opacity="0" stroke="#000000" stroke-width="1" stroke-opacity="0"></use></g></g><g><use xlink:href="#aOYEdGtYf" opacity="1" fill="#000000" fill-opacity="0"></use><g><use xlink:href="#aOYEdGtYf" opacity="1" fill-opacity="0" stroke="#000000" stroke-width="1" stroke-opacity="0"></use></g></g><g><use xlink:href="#aJTPdaeAu" opacity="1" fill="#404f66" fill-opacity="1"></use><g><use xlink:href="#aJTPdaeAu" opacity="1" fill-opacity="0" stroke="#000000" stroke-width="1" stroke-opacity="0"></use></g></g><g><use xlink:href="#dBfib1lm4" opacity="1" fill="#000000" fill-opacity="0"></use><g><use xlink:href="#dBfib1lm4" opacity="1" fill-opacity="0" stroke="#000000" stroke-width="1" stroke-opacity="0"></use></g></g><g><use xlink:href="#dCzWbReSF" opacity="1" fill="#4d5e78" fill-opacity="1"></use><g><use xlink:href="#dCzWbReSF" opacity="1" fill-opacity="0" stroke="#000000" stroke-width="1" stroke-opacity="0"></use></g></g><g><use xlink:href="#aDuorfUmS" opacity="1" fill="#000000" fill-opacity="0"></use><g><use xlink:href="#aDuorfUmS" opacity="1" fill-opacity="0" stroke="#000000" stroke-width="1" stroke-opacity="0"></use></g></g><g><use xlink:href="#d2rNd42B8N" opacity="1" fill="#4d5e78" fill-opacity="1"></use><g><use xlink:href="#d2rNd42B8N" opacity="1" fill-opacity="0" stroke="#000000" stroke-width="1" stroke-opacity="0"></use></g></g><g><use xlink:href="#g43I7Q2TAU" opacity="1" fill="#000000" fill-opacity="0"></use><g><use xlink:href="#g43I7Q2TAU" opacity="1" fill-opacity="0" stroke="#000000" stroke-width="1" stroke-opacity="0"></use></g></g><g><use xlink:href="#f1PqM94edY" opacity="1" fill="#404f66" fill-opacity="1"></use><g><use xlink:href="#f1PqM94edY" opacity="1" fill-opacity="0" stroke="#000000" stroke-width="1" stroke-opacity="0"></use></g></g><g><use xlink:href="#c5cREik5" opacity="1" fill="#000000" fill-opacity="0"></use><g><use xlink:href="#c5cREik5" opacity="1" fill-opacity="0" stroke="#000000" stroke-width="1" stroke-opacity="0"></use></g></g><g><use xlink:href="#b3iPeJQCqW" opacity="1" fill="#fec9a3" fill-opacity="1"></use><g><use xlink:href="#b3iPeJQCqW" opacity="1" fill-opacity="0" stroke="#000000" stroke-width="1" stroke-opacity="0"></use></g></g><g><use xlink:href="#a55irLfNsv" opacity="1" fill="#000000" fill-opacity="0"></use><g><use xlink:href="#a55irLfNsv" opacity="1" fill-opacity="0" stroke="#000000" stroke-width="1" stroke-opacity="0"></use></g></g><g><use xlink:href="#a3d6g4AEv" opacity="1" fill="#4d5e78" fill-opacity="1"></use><g><use xlink:href="#a3d6g4AEv" opacity="1" fill-opacity="0" stroke="#000000" stroke-width="1" stroke-opacity="0"></use></g></g><g><use xlink:href="#ahKCUfcvv" opacity="1" fill="#000000" fill-opacity="0"></use><g><use xlink:href="#ahKCUfcvv" opacity="1" fill-opacity="0" stroke="#000000" stroke-width="1" stroke-opacity="0"></use></g></g><g><use xlink:href="#dfOgd3B6Y" opacity="1" fill="#44546c" fill-opacity="1"></use><g><use xlink:href="#dfOgd3B6Y" opacity="1" fill-opacity="0" stroke="#000000" stroke-width="1" stroke-opacity="0"></use></g></g><g><use xlink:href="#aTRfeQyPc" opacity="1" fill="#000000" fill-opacity="0"></use><g><use xlink:href="#aTRfeQyPc" opacity="1" fill-opacity="0" stroke="#000000" stroke-width="1" stroke-opacity="0"></use></g></g><g><use xlink:href="#aufCrzceH" opacity="1" fill="#fec093" fill-opacity="1"></use><g><use xlink:href="#aufCrzceH" opacity="1" fill-opacity="0" stroke="#000000" stroke-width="1" stroke-opacity="0"></use></g></g><g><use xlink:href="#a19wUG6g31" opacity="1" fill="#000000" fill-opacity="0"></use><g><use xlink:href="#a19wUG6g31" opacity="1" fill-opacity="0" stroke="#000000" stroke-width="1" stroke-opacity="0"></use></g></g><g><use xlink:href="#cgro6X9Ft" opacity="1" fill="#fec093" fill-opacity="1"></use><g><use xlink:href="#cgro6X9Ft" opacity="1" fill-opacity="0" stroke="#000000" stroke-width="1" stroke-opacity="0"></use></g></g><g><use xlink:href="#g2ZzuDZKVr" opacity="1" fill="#000000" fill-opacity="0"></use><g><use xlink:href="#g2ZzuDZKVr" opacity="1" fill-opacity="0" stroke="#000000" stroke-width="1" stroke-opacity="0"></use></g></g><g><use xlink:href="#c9xPofd1w" opacity="1" fill="#fec9a3" fill-opacity="1"></use><g><use xlink:href="#c9xPofd1w" opacity="1" fill-opacity="0" stroke="#000000" stroke-width="1" stroke-opacity="0"></use></g></g><g><use xlink:href="#bmNCCtohB" opacity="1" fill="#000000" fill-opacity="0"></use><g><use xlink:href="#bmNCCtohB" opacity="1" fill-opacity="0" stroke="#000000" stroke-width="1" stroke-opacity="0"></use></g></g><g><use xlink:href="#b19mMHqNK7" opacity="1" fill="#fec9a3" fill-opacity="1"></use><g><use xlink:href="#b19mMHqNK7" opacity="1" fill-opacity="0" stroke="#000000" stroke-width="1" stroke-opacity="0"></use></g></g><g><use xlink:href="#dBe1XK54b" opacity="1" fill="#000000" fill-opacity="0"></use><g><use xlink:href="#dBe1XK54b" opacity="1" fill-opacity="0" stroke="#000000" stroke-width="1" stroke-opacity="0"></use></g></g><g><use xlink:href="#d138YaZ6RJ" opacity="1" fill="#feb784" fill-opacity="1"></use><g><use xlink:href="#d138YaZ6RJ" opacity="1" fill-opacity="0" stroke="#000000" stroke-width="1" stroke-opacity="0"></use></g></g><g><use xlink:href="#e74gb9pvuh" opacity="1" fill="#000000" fill-opacity="0"></use><g><use xlink:href="#e74gb9pvuh" opacity="1" fill-opacity="0" stroke="#000000" stroke-width="1" stroke-opacity="0"></use></g></g><g><use xlink:href="#l15VrglNx6" opacity="1" fill="#feb784" fill-opacity="1"></use><g><use xlink:href="#l15VrglNx6" opacity="1" fill-opacity="0" stroke="#000000" stroke-width="1" stroke-opacity="0"></use></g></g><g><use xlink:href="#b1DWbNlYoz" opacity="1" fill="#000000" fill-opacity="0"></use><g><use xlink:href="#b1DWbNlYoz" opacity="1" fill-opacity="0" stroke="#000000" stroke-width="1" stroke-opacity="0"></use></g></g><g><use xlink:href="#hDDil0uNw" opacity="1" fill="#feb784" fill-opacity="1"></use><g><use xlink:href="#hDDil0uNw" opacity="1" fill-opacity="0" stroke="#000000" stroke-width="1" stroke-opacity="0"></use></g></g><g><use xlink:href="#a2aGE7Pkyq" opacity="1" fill="#000000" fill-opacity="0"></use><g><use xlink:href="#a2aGE7Pkyq" opacity="1" fill-opacity="0" stroke="#000000" stroke-width="1" stroke-opacity="0"></use></g></g><g><use xlink:href="#g2l709WoTK" opacity="1" fill="#fec9a3" fill-opacity="1"></use><g><use xlink:href="#g2l709WoTK" opacity="1" fill-opacity="0" stroke="#000000" stroke-width="1" stroke-opacity="0"></use></g></g><g><use xlink:href="#bghpY3mzs" opacity="1" fill="#000000" fill-opacity="0"></use><g><use xlink:href="#bghpY3mzs" opacity="1" fill-opacity="0" stroke="#000000" stroke-width="1" stroke-opacity="0"></use></g></g><g><use xlink:href="#exrVa97BX" opacity="1" fill="#fec093" fill-opacity="1"></use><g><use xlink:href="#exrVa97BX" opacity="1" fill-opacity="0" stroke="#000000" stroke-width="1" stroke-opacity="0"></use></g></g><g><use xlink:href="#a1vjdJCIWO" opacity="1" fill="#000000" fill-opacity="0"></use><g><use xlink:href="#a1vjdJCIWO" opacity="1" fill-opacity="0" stroke="#000000" stroke-width="1" stroke-opacity="0"></use></g></g><g><use xlink:href="#bcMceEgr2" opacity="1" fill="#fec093" fill-opacity="1"></use><g><use xlink:href="#bcMceEgr2" opacity="1" fill-opacity="0" stroke="#000000" stroke-width="1" stroke-opacity="0"></use></g></g><g><use xlink:href="#b1cdCtbMcn" opacity="1" fill="#000000" fill-opacity="0"></use><g><use xlink:href="#b1cdCtbMcn" opacity="1" fill-opacity="0" stroke="#000000" stroke-width="1" stroke-opacity="0"></use></g></g><g><use xlink:href="#a4IJwrC5g" opacity="1" fill="#ffa912" fill-opacity="1"></use><g><use xlink:href="#a4IJwrC5g" opacity="1" fill-opacity="0" stroke="#000000" stroke-width="1" stroke-opacity="0"></use></g></g><g><use xlink:href="#c9beBeesy" opacity="1" fill="#000000" fill-opacity="0"></use><g><use xlink:href="#c9beBeesy" opacity="1" fill-opacity="0" stroke="#000000" stroke-width="1" stroke-opacity="0"></use></g></g><g><use xlink:href="#gn1kgij6f" opacity="1" fill="#ffa912" fill-opacity="1"></use><g><use xlink:href="#gn1kgij6f" opacity="1" fill-opacity="0" stroke="#000000" stroke-width="1" stroke-opacity="0"></use></g></g><g><use xlink:href="#dtX5nsQk6" opacity="1" fill="#000000" fill-opacity="0"></use><g><use xlink:href="#dtX5nsQk6" opacity="1" fill-opacity="0" stroke="#000000" stroke-width="1" stroke-opacity="0"></use></g></g><g><use xlink:href="#aUE3wAEWY" opacity="1" fill="#ffb531" fill-opacity="1"></use><g><use xlink:href="#aUE3wAEWY" opacity="1" fill-opacity="0" stroke="#000000" stroke-width="1" stroke-opacity="0"></use></g></g><g><use xlink:href="#bSyki0A5N" opacity="1" fill="#000000" fill-opacity="0"></use><g><use xlink:href="#bSyki0A5N" opacity="1" fill-opacity="0" stroke="#000000" stroke-width="1" stroke-opacity="0"></use></g></g><g><use xlink:href="#a3TLMmvdzW" opacity="1" fill="#feb784" fill-opacity="1"></use><g><use xlink:href="#a3TLMmvdzW" opacity="1" fill-opacity="0" stroke="#000000" stroke-width="1" stroke-opacity="0"></use></g></g><g><use xlink:href="#e30cYQU5jB" opacity="1" fill="#000000" fill-opacity="0"></use><g><use xlink:href="#e30cYQU5jB" opacity="1" fill-opacity="0" stroke="#000000" stroke-width="1" stroke-opacity="0"></use></g></g><g><use xlink:href="#b1Z5C1KNWZ" opacity="1" fill="#000000" fill-opacity="1"></use><g><use xlink:href="#b1Z5C1KNWZ" opacity="1" fill-opacity="0" stroke="#000000" stroke-width="1" stroke-opacity="0"></use></g></g><g><use xlink:href="#c7ElkKv1I" opacity="1" fill="#000000" fill-opacity="0"></use><g><use xlink:href="#c7ElkKv1I" opacity="1" fill-opacity="0" stroke="#000000" stroke-width="1" stroke-opacity="0"></use></g></g><g><use xlink:href="#b2fylPLOMK" opacity="1" fill="#000000" fill-opacity="1"></use><g><use xlink:href="#b2fylPLOMK" opacity="1" fill-opacity="0" stroke="#000000" stroke-width="1" stroke-opacity="0"></use></g></g><g><use xlink:href="#i7mpkVfKzH" opacity="1" fill="#000000" fill-opacity="0"></use><g><use xlink:href="#i7mpkVfKzH" opacity="1" fill-opacity="0" stroke="#000000" stroke-width="1" stroke-opacity="0"></use></g></g><g><use xlink:href="#i18hduWQKw" opacity="1" fill="#000000" fill-opacity="1"></use><g><use xlink:href="#i18hduWQKw" opacity="1" fill-opacity="0" stroke="#000000" stroke-width="1" stroke-opacity="0"></use></g></g><g><use xlink:href="#a1KsKqfy48" opacity="1" fill="#000000" fill-opacity="0"></use><g><use xlink:href="#a1KsKqfy48" opacity="1" fill-opacity="0" stroke="#000000" stroke-width="1" stroke-opacity="0"></use></g></g><g><use xlink:href="#b7SC7G5uxk" opacity="1" fill="#000000" fill-opacity="1"></use><g><use xlink:href="#b7SC7G5uxk" opacity="1" fill-opacity="0" stroke="#000000" stroke-width="1" stroke-opacity="0"></use></g></g><g><use xlink:href="#cHoT53TM" opacity="1" fill="#000000" fill-opacity="0"></use><g><use xlink:href="#cHoT53TM" opacity="1" fill-opacity="0" stroke="#000000" stroke-width="1" stroke-opacity="0"></use></g></g><g><use xlink:href="#aqqGP46rI" opacity="1" fill="#000000" fill-opacity="1"></use><g><use xlink:href="#aqqGP46rI" opacity="1" fill-opacity="0" stroke="#000000" stroke-width="1" stroke-opacity="0"></use></g></g><g><use xlink:href="#b2HvskL9OT" opacity="1" fill="#000000" fill-opacity="0"></use><g><use xlink:href="#b2HvskL9OT" opacity="1" fill-opacity="0" stroke="#000000" stroke-width="1" stroke-opacity="0"></use></g></g></g></svg>